<?xml version="1.0" encoding="UTF-8" standalone="no"?>
<!DOCTYPE svg PUBLIC "-//W3C//DTD SVG 1.1//EN"
 "http://www.w3.org/Graphics/SVG/1.1/DTD/svg11.dtd">
<!-- Generated by graphviz version 13.1.1 (20250719.2154)
 -->
<!-- Title: python_deps Pages: 1 -->
<svg width="1009pt" height="978pt"
 viewBox="0.00 0.00 1009.00 978.00" xmlns="http://www.w3.org/2000/svg" xmlns:xlink="http://www.w3.org/1999/xlink">
<g id="graph0" class="graph" transform="scale(1 1) rotate(0) translate(4 973.88)">
<title>python_deps</title>
<polygon fill="white" stroke="none" points="-4,4 -4,-973.88 1004.5,-973.88 1004.5,4 -4,4"/>
<!-- configs.auth_config -->
<g id="node1" class="node">
<title>configs.auth_config</title>
<polygon fill="none" stroke="black" points="122.88,-642.57 25.12,-642.57 25.12,-606.57 122.88,-606.57 122.88,-642.57"/>
<text xml:space="preserve" text-anchor="middle" x="74" y="-620.7" font-family="Times,serif" font-size="10.00">configs.auth_config</text>
</g>
<!-- configs.config -->
<g id="node2" class="node">
<title>configs.config</title>
<polygon fill="none" stroke="black" points="1000.5,-543.57 926,-543.57 926,-507.57 1000.5,-507.57 1000.5,-543.57"/>
<text xml:space="preserve" text-anchor="middle" x="963.25" y="-521.7" font-family="Times,serif" font-size="10.00">configs.config</text>
</g>
<!-- configs.log_config -->
<g id="node3" class="node">
<title>configs.log_config</title>
<polygon fill="none" stroke="black" points="697,-432.57 603.75,-432.57 603.75,-396.57 697,-396.57 697,-432.57"/>
<text xml:space="preserve" text-anchor="middle" x="650.38" y="-410.7" font-family="Times,serif" font-size="10.00">configs.log_config</text>
</g>
<!-- configs.redis_config -->
<g id="node4" class="node">
<title>configs.redis_config</title>
<polygon fill="none" stroke="black" points="876.88,-795.57 777.62,-795.57 777.62,-759.57 876.88,-759.57 876.88,-795.57"/>
<text xml:space="preserve" text-anchor="middle" x="827.25" y="-773.7" font-family="Times,serif" font-size="10.00">configs.redis_config</text>
</g>
<!-- configs.server_config -->
<g id="node5" class="node">
<title>configs.server_config</title>
<polygon fill="none" stroke="black" points="504.38,-80.57 400.62,-80.57 400.62,-44.57 504.38,-44.57 504.38,-80.57"/>
<text xml:space="preserve" text-anchor="middle" x="452.5" y="-58.7" font-family="Times,serif" font-size="10.00">configs.server_config</text>
</g>
<!-- configs.vm_profiles -->
<g id="node6" class="node">
<title>configs.vm_profiles</title>
<polygon fill="none" stroke="black" points="875.75,-134.57 778.75,-134.57 778.75,-98.57 875.75,-98.57 875.75,-134.57"/>
<text xml:space="preserve" text-anchor="middle" x="827.25" y="-112.7" font-family="Times,serif" font-size="10.00">configs.vm_profiles</text>
</g>
<!-- main -->
<g id="node7" class="node">
<title>main</title>
<polygon fill="none" stroke="black" points="101,-696.57 47,-696.57 47,-660.57 101,-660.57 101,-696.57"/>
<text xml:space="preserve" text-anchor="middle" x="74" y="-674.7" font-family="Times,serif" font-size="10.00">main</text>
</g>
<!-- methods.manager.SessionManager -->
<g id="node16" class="node">
<title>methods.manager.SessionManager</title>
<polygon fill="none" stroke="black" points="728.5,-795.57 572.25,-795.57 572.25,-759.57 728.5,-759.57 728.5,-795.57"/>
<text xml:space="preserve" text-anchor="middle" x="650.38" y="-773.7" font-family="Times,serif" font-size="10.00">methods.manager.SessionManager</text>
</g>
<!-- main&#45;&gt;methods.manager.SessionManager -->
<g id="edge1" class="edge">
<title>main&#45;&gt;methods.manager.SessionManager</title>
<path fill="none" stroke="black" d="M101.28,-681.82C117.08,-685.16 136.33,-691.91 148,-705.57 200.99,-767.61 129.77,-824.62 184,-885.57 241.39,-950.08 283.48,-932.08 368.75,-945.57 442.28,-957.22 470.53,-980.55 536.25,-945.57 591.6,-916.12 624.73,-846.19 639.74,-806.46"/>
<polygon fill="black" stroke="black" points="642.94,-807.89 643.06,-797.3 636.36,-805.51 642.94,-807.89"/>
</g>
<!-- observability.metrics -->
<g id="node19" class="node">
<title>observability.metrics</title>
<polygon fill="none" stroke="black" points="502.88,-692.57 402.12,-692.57 402.12,-656.57 502.88,-656.57 502.88,-692.57"/>
<text xml:space="preserve" text-anchor="middle" x="452.5" y="-670.7" font-family="Times,serif" font-size="10.00">observability.metrics</text>
</g>
<!-- main&#45;&gt;observability.metrics -->
<g id="edge2" class="edge">
<title>main&#45;&gt;observability.metrics</title>
<path fill="none" stroke="black" d="M101.42,-677.33C123.49,-676.36 155.79,-675.09 184,-674.57 254.73,-673.28 335.99,-673.52 390.22,-673.94"/>
<polygon fill="black" stroke="black" points="390.16,-677.44 400.19,-674.02 390.22,-670.44 390.16,-677.44"/>
</g>
<!-- observability.utils_observability -->
<g id="node20" class="node">
<title>observability.utils_observability</title>
<polygon fill="none" stroke="black" points="332.75,-827.57 184,-827.57 184,-791.57 332.75,-791.57 332.75,-827.57"/>
<text xml:space="preserve" text-anchor="middle" x="258.38" y="-805.7" font-family="Times,serif" font-size="10.00">observability.utils_observability</text>
</g>
<!-- main&#45;&gt;observability.utils_observability -->
<g id="edge3" class="edge">
<title>main&#45;&gt;observability.utils_observability</title>
<path fill="none" stroke="black" d="M101.25,-683.11C116.45,-686.9 135.07,-693.68 148,-705.57 175.8,-731.16 156.18,-757.02 184,-782.57 184.77,-783.28 185.55,-783.96 186.35,-784.63"/>
<polygon fill="black" stroke="black" points="184.14,-787.35 194.33,-790.26 188.18,-781.63 184.14,-787.35"/>
</g>
<!-- routers.auth -->
<g id="node21" class="node">
<title>routers.auth</title>
<polygon fill="none" stroke="black" points="290.38,-501.57 226.38,-501.57 226.38,-465.57 290.38,-465.57 290.38,-501.57"/>
<text xml:space="preserve" text-anchor="middle" x="258.38" y="-479.7" font-family="Times,serif" font-size="10.00">routers.auth</text>
</g>
<!-- main&#45;&gt;routers.auth -->
<g id="edge4" class="edge">
<title>main&#45;&gt;routers.auth</title>
<path fill="none" stroke="black" d="M101.27,-674.06C116.48,-670.28 135.1,-663.5 148,-651.57 176.03,-625.65 163.78,-605.96 184,-573.57 198.18,-550.86 217.41,-527.48 232.62,-510.25"/>
<polygon fill="black" stroke="black" points="235.08,-512.74 239.15,-502.96 229.87,-508.07 235.08,-512.74"/>
</g>
<!-- routers.pages -->
<g id="node22" class="node">
<title>routers.pages</title>
<polygon fill="none" stroke="black" points="293,-719.57 223.75,-719.57 223.75,-683.57 293,-683.57 293,-719.57"/>
<text xml:space="preserve" text-anchor="middle" x="258.38" y="-697.7" font-family="Times,serif" font-size="10.00">routers.pages</text>
</g>
<!-- main&#45;&gt;routers.pages -->
<g id="edge5" class="edge">
<title>main&#45;&gt;routers.pages</title>
<path fill="none" stroke="black" d="M101.13,-681.87C130.07,-685.52 177.24,-691.47 212.19,-695.88"/>
<polygon fill="black" stroke="black" points="211.67,-699.34 222.03,-697.12 212.55,-692.39 211.67,-699.34"/>
</g>
<!-- routers.post -->
<g id="node23" class="node">
<title>routers.post</title>
<polygon fill="none" stroke="black" points="290,-773.57 226.75,-773.57 226.75,-737.57 290,-737.57 290,-773.57"/>
<text xml:space="preserve" text-anchor="middle" x="258.38" y="-751.7" font-family="Times,serif" font-size="10.00">routers.post</text>
</g>
<!-- main&#45;&gt;routers.post -->
<g id="edge6" class="edge">
<title>main&#45;&gt;routers.post</title>
<path fill="none" stroke="black" d="M101.24,-686.76C115.4,-691.55 133,-698.12 148,-705.57 165,-714.03 166.99,-720.14 184,-728.57 194.02,-733.54 205.19,-738.11 215.73,-742.02"/>
<polygon fill="black" stroke="black" points="214.39,-745.26 224.99,-745.34 216.75,-738.67 214.39,-745.26"/>
</g>
<!-- routers.root -->
<g id="node24" class="node">
<title>routers.root</title>
<polygon fill="none" stroke="black" points="483.75,-936.57 421.25,-936.57 421.25,-900.57 483.75,-900.57 483.75,-936.57"/>
<text xml:space="preserve" text-anchor="middle" x="452.5" y="-914.7" font-family="Times,serif" font-size="10.00">routers.root</text>
</g>
<!-- main&#45;&gt;routers.root -->
<g id="edge7" class="edge">
<title>main&#45;&gt;routers.root</title>
<path fill="none" stroke="black" d="M101.3,-682.19C116.91,-685.66 135.94,-692.43 148,-705.57 188.82,-750.07 141.93,-793.26 184,-836.57 244.47,-898.84 350.85,-914.13 409.59,-917.69"/>
<polygon fill="black" stroke="black" points="409.35,-921.18 419.51,-918.2 409.7,-914.19 409.35,-921.18"/>
</g>
<!-- routers.sessions -->
<g id="node25" class="node">
<title>routers.sessions</title>
<polygon fill="none" stroke="black" points="297.88,-618.57 218.88,-618.57 218.88,-582.57 297.88,-582.57 297.88,-618.57"/>
<text xml:space="preserve" text-anchor="middle" x="258.38" y="-596.7" font-family="Times,serif" font-size="10.00">routers.sessions</text>
</g>
<!-- main&#45;&gt;routers.sessions -->
<g id="edge8" class="edge">
<title>main&#45;&gt;routers.sessions</title>
<path fill="none" stroke="black" d="M101.22,-669.47C115.21,-664.46 132.66,-657.97 148,-651.57 168.39,-643.07 190.55,-632.91 209.55,-623.91"/>
<polygon fill="black" stroke="black" points="210.87,-627.16 218.39,-619.7 207.85,-620.84 210.87,-627.16"/>
</g>
<!-- routers.vm -->
<g id="node26" class="node">
<title>routers.vm</title>
<polygon fill="none" stroke="black" points="287.75,-295.57 229,-295.57 229,-259.57 287.75,-259.57 287.75,-295.57"/>
<text xml:space="preserve" text-anchor="middle" x="258.38" y="-273.7" font-family="Times,serif" font-size="10.00">routers.vm</text>
</g>
<!-- main&#45;&gt;routers.vm -->
<g id="edge9" class="edge">
<title>main&#45;&gt;routers.vm</title>
<path fill="none" stroke="black" d="M101.35,-675.39C117.18,-672.08 136.43,-665.33 148,-651.57 204.75,-584.14 159.15,-541.13 184,-456.57 200.06,-401.91 227.06,-341.09 243.44,-306.28"/>
<polygon fill="black" stroke="black" points="246.58,-307.83 247.71,-297.3 240.26,-304.83 246.58,-307.83"/>
</g>
<!-- utils -->
<g id="node27" class="node">
<title>utils</title>
<polygon fill="none" stroke="black" points="677.38,-134.57 623.38,-134.57 623.38,-98.57 677.38,-98.57 677.38,-134.57"/>
<text xml:space="preserve" text-anchor="middle" x="650.38" y="-112.7" font-family="Times,serif" font-size="10.00">utils</text>
</g>
<!-- main&#45;&gt;utils -->
<g id="edge10" class="edge">
<title>main&#45;&gt;utils</title>
<path fill="none" stroke="black" d="M101.44,-675.82C117.51,-672.68 137,-665.96 148,-651.57 202.36,-580.51 149.18,-332.99 184,-250.57 233.03,-134.52 254.26,-88.15 368.75,-35.57 436.4,-4.51 465.37,-12.82 536.25,-35.57 569.8,-46.35 601.86,-71.15 623.22,-90.49"/>
<polygon fill="black" stroke="black" points="620.6,-92.84 630.31,-97.09 625.37,-87.72 620.6,-92.84"/>
</g>
<!-- methods.auth.auth -->
<g id="node8" class="node">
<title>methods.auth.auth</title>
<polygon fill="none" stroke="black" points="498,-524.57 407,-524.57 407,-488.57 498,-488.57 498,-524.57"/>
<text xml:space="preserve" text-anchor="middle" x="452.5" y="-502.7" font-family="Times,serif" font-size="10.00">methods.auth.auth</text>
</g>
<!-- methods.auth.auth&#45;&gt;configs.config -->
<g id="edge11" class="edge">
<title>methods.auth.auth&#45;&gt;configs.config</title>
<path fill="none" stroke="black" d="M498.44,-507.81C577.59,-510.05 747.02,-515.16 890,-521.57 897.85,-521.93 906.17,-522.35 914.27,-522.78"/>
<polygon fill="black" stroke="black" points="913.81,-526.26 923.99,-523.31 914.2,-519.27 913.81,-526.26"/>
</g>
<!-- methods.auth.auth&#45;&gt;configs.log_config -->
<g id="edge12" class="edge">
<title>methods.auth.auth&#45;&gt;configs.log_config</title>
<path fill="none" stroke="black" d="M492.67,-488.18C523.49,-473.7 566.65,-453.43 599.87,-437.83"/>
<polygon fill="black" stroke="black" points="601.34,-441 608.91,-433.58 598.37,-434.67 601.34,-441"/>
</g>
<!-- methods.database.database -->
<g id="node10" class="node">
<title>methods.database.database</title>
<polygon fill="none" stroke="black" points="890,-566.57 764.5,-566.57 764.5,-530.57 890,-530.57 890,-566.57"/>
<text xml:space="preserve" text-anchor="middle" x="827.25" y="-544.7" font-family="Times,serif" font-size="10.00">methods.database.database</text>
</g>
<!-- methods.auth.auth&#45;&gt;methods.database.database -->
<g id="edge13" class="edge">
<title>methods.auth.auth&#45;&gt;methods.database.database</title>
<path fill="none" stroke="black" d="M498.46,-511.64C561.54,-518.75 677.06,-531.76 752.74,-540.29"/>
<polygon fill="black" stroke="black" points="752.23,-543.76 762.56,-541.4 753.02,-536.8 752.23,-543.76"/>
</g>
<!-- methods.database.models -->
<g id="node12" class="node">
<title>methods.database.models</title>
<polygon fill="none" stroke="black" points="710.12,-604.57 590.62,-604.57 590.62,-568.57 710.12,-568.57 710.12,-604.57"/>
<text xml:space="preserve" text-anchor="middle" x="650.38" y="-582.7" font-family="Times,serif" font-size="10.00">methods.database.models</text>
</g>
<!-- methods.auth.auth&#45;&gt;methods.database.models -->
<g id="edge14" class="edge">
<title>methods.auth.auth&#45;&gt;methods.database.models</title>
<path fill="none" stroke="black" d="M498.32,-523.45C510.66,-528.22 524.02,-533.49 536.25,-538.57 552.42,-545.29 556.16,-547.66 572.25,-554.57 579.23,-557.57 586.58,-560.69 593.87,-563.74"/>
<polygon fill="black" stroke="black" points="592.46,-566.94 603.04,-567.57 595.16,-560.48 592.46,-566.94"/>
</g>
<!-- methods.auth.email_verification -->
<g id="node9" class="node">
<title>methods.auth.email_verification</title>
<polygon fill="none" stroke="black" points="148,-750.57 0,-750.57 0,-714.57 148,-714.57 148,-750.57"/>
<text xml:space="preserve" text-anchor="middle" x="74" y="-728.7" font-family="Times,serif" font-size="10.00">methods.auth.email_verification</text>
</g>
<!-- methods.database.database&#45;&gt;configs.config -->
<g id="edge15" class="edge">
<title>methods.database.database&#45;&gt;configs.config</title>
<path fill="none" stroke="black" d="M890.15,-537.95C898.35,-536.54 906.66,-535.12 914.57,-533.76"/>
<polygon fill="black" stroke="black" points="915.06,-537.23 924.33,-532.08 913.88,-530.33 915.06,-537.23"/>
</g>
<!-- methods.database.init_db -->
<g id="node11" class="node">
<title>methods.database.init_db</title>
<polygon fill="none" stroke="black" points="134.12,-804.57 13.88,-804.57 13.88,-768.57 134.12,-768.57 134.12,-804.57"/>
<text xml:space="preserve" text-anchor="middle" x="74" y="-782.7" font-family="Times,serif" font-size="10.00">methods.database.init_db</text>
</g>
<!-- methods.database.models&#45;&gt;methods.database.database -->
<g id="edge16" class="edge">
<title>methods.database.models&#45;&gt;methods.database.database</title>
<path fill="none" stroke="black" d="M710.58,-573.71C724.18,-570.75 738.81,-567.58 752.93,-564.51"/>
<polygon fill="black" stroke="black" points="753.61,-567.94 762.64,-562.4 752.12,-561.1 753.61,-567.94"/>
</g>
<!-- methods.manager -->
<g id="node13" class="node">
<title>methods.manager</title>
<polygon fill="none" stroke="black" points="496.12,-134.57 408.88,-134.57 408.88,-98.57 496.12,-98.57 496.12,-134.57"/>
<text xml:space="preserve" text-anchor="middle" x="452.5" y="-112.7" font-family="Times,serif" font-size="10.00">methods.manager</text>
</g>
<!-- methods.manager.OverlayManager -->
<g id="node14" class="node">
<title>methods.manager.OverlayManager</title>
<polygon fill="none" stroke="black" points="531.75,-318.57 373.25,-318.57 373.25,-282.57 531.75,-282.57 531.75,-318.57"/>
<text xml:space="preserve" text-anchor="middle" x="452.5" y="-296.7" font-family="Times,serif" font-size="10.00">methods.manager.OverlayManager</text>
</g>
<!-- methods.manager.OverlayManager&#45;&gt;configs.log_config -->
<g id="edge17" class="edge">
<title>methods.manager.OverlayManager&#45;&gt;configs.log_config</title>
<path fill="none" stroke="black" d="M484.97,-318.89C518.28,-338.28 571.02,-368.97 607.75,-390.35"/>
<polygon fill="black" stroke="black" points="605.95,-393.35 616.35,-395.35 609.47,-387.3 605.95,-393.35"/>
</g>
<!-- methods.manager.OverlayManager&#45;&gt;configs.vm_profiles -->
<g id="edge18" class="edge">
<title>methods.manager.OverlayManager&#45;&gt;configs.vm_profiles</title>
<path fill="none" stroke="black" d="M521.29,-282.11C578.74,-264.88 662.11,-236.04 728.5,-197.57 754.84,-182.31 781.21,-159.94 799.92,-142.57"/>
<polygon fill="black" stroke="black" points="802.23,-145.2 807.09,-135.78 797.42,-140.11 802.23,-145.2"/>
</g>
<!-- methods.manager.ProcessManager -->
<g id="node15" class="node">
<title>methods.manager.ProcessManager</title>
<polygon fill="none" stroke="black" points="728.12,-188.57 572.62,-188.57 572.62,-152.57 728.12,-152.57 728.12,-188.57"/>
<text xml:space="preserve" text-anchor="middle" x="650.38" y="-166.7" font-family="Times,serif" font-size="10.00">methods.manager.ProcessManager</text>
</g>
<!-- methods.manager.SessionManager&#45;&gt;configs.redis_config -->
<g id="edge19" class="edge">
<title>methods.manager.SessionManager&#45;&gt;configs.redis_config</title>
<path fill="none" stroke="black" d="M728.84,-777.57C741.3,-777.57 754.04,-777.57 766.02,-777.57"/>
<polygon fill="black" stroke="black" points="765.72,-781.07 775.72,-777.57 765.72,-774.07 765.72,-781.07"/>
</g>
<!-- methods.manager.WebsockifyService -->
<g id="node17" class="node">
<title>methods.manager.WebsockifyService</title>
<polygon fill="none" stroke="black" points="536.25,-226.57 368.75,-226.57 368.75,-190.57 536.25,-190.57 536.25,-226.57"/>
<text xml:space="preserve" text-anchor="middle" x="452.5" y="-204.7" font-family="Times,serif" font-size="10.00">methods.manager.WebsockifyService</text>
</g>
<!-- methods.manager.WebsockifyService&#45;&gt;methods.manager.ProcessManager -->
<g id="edge20" class="edge">
<title>methods.manager.WebsockifyService&#45;&gt;methods.manager.ProcessManager</title>
<path fill="none" stroke="black" d="M536.57,-192.46C544.74,-190.87 553.05,-189.26 561.27,-187.67"/>
<polygon fill="black" stroke="black" points="561.77,-191.14 570.92,-185.8 560.43,-184.26 561.77,-191.14"/>
</g>
<!-- methods.manager.WebsockifyService&#45;&gt;methods.manager.SessionManager -->
<g id="edge21" class="edge">
<title>methods.manager.WebsockifyService&#45;&gt;methods.manager.SessionManager</title>
<path fill="none" stroke="black" d="M488.49,-227.06C505.85,-238.14 525.37,-253.91 536.25,-273.57 609.8,-406.55 531.35,-467.23 572.25,-613.57 586.25,-663.67 614.33,-717.45 632.47,-749.27"/>
<polygon fill="black" stroke="black" points="629.41,-750.97 637.44,-757.87 635.47,-747.47 629.41,-750.97"/>
</g>
<!-- methods.manager.WebsockifyService&#45;&gt;utils -->
<g id="edge22" class="edge">
<title>methods.manager.WebsockifyService&#45;&gt;utils</title>
<path fill="none" stroke="black" d="M509.62,-190.16C518.81,-186.23 528.01,-181.69 536.25,-176.57 554.69,-165.13 553.63,-154.72 572.25,-143.57 584.61,-136.17 599.31,-130.4 612.53,-126.12"/>
<polygon fill="black" stroke="black" points="613.22,-129.57 621.77,-123.31 611.18,-122.87 613.22,-129.57"/>
</g>
<!-- observability -->
<g id="node18" class="node">
<title>observability</title>
<polygon fill="none" stroke="black" points="109,-858.57 39,-858.57 39,-822.57 109,-822.57 109,-858.57"/>
<text xml:space="preserve" text-anchor="middle" x="74" y="-836.7" font-family="Times,serif" font-size="10.00">observability</text>
</g>
<!-- observability.metrics&#45;&gt;methods.database.database -->
<g id="edge23" class="edge">
<title>observability.metrics&#45;&gt;methods.database.database</title>
<path fill="none" stroke="black" d="M503.36,-669.12C559.79,-661.68 653.58,-645.47 728.5,-613.57 752.29,-603.44 776.51,-587.39 794.89,-573.77"/>
<polygon fill="black" stroke="black" points="796.88,-576.66 802.73,-567.83 792.65,-571.08 796.88,-576.66"/>
</g>
<!-- observability.metrics&#45;&gt;methods.database.models -->
<g id="edge24" class="edge">
<title>observability.metrics&#45;&gt;methods.database.models</title>
<path fill="none" stroke="black" d="M503.25,-656.18C514.19,-651.9 525.68,-647.23 536.25,-642.57 558.9,-632.61 583.58,-620.54 604.09,-610.16"/>
<polygon fill="black" stroke="black" points="605.43,-613.41 612.75,-605.75 602.25,-607.17 605.43,-613.41"/>
</g>
<!-- observability.metrics&#45;&gt;methods.manager.SessionManager -->
<g id="edge25" class="edge">
<title>observability.metrics&#45;&gt;methods.manager.SessionManager</title>
<path fill="none" stroke="black" d="M503.18,-692.01C514.24,-696.38 525.79,-701.33 536.25,-706.57 563.21,-720.09 591.98,-738.2 613.76,-752.75"/>
<polygon fill="black" stroke="black" points="611.74,-755.61 621.99,-758.31 615.66,-749.81 611.74,-755.61"/>
</g>
<!-- routers.auth&#45;&gt;configs.config -->
<g id="edge26" class="edge">
<title>routers.auth&#45;&gt;configs.config</title>
<path fill="none" stroke="black" d="M284.06,-465.11C305.37,-450.14 337.55,-429.74 368.75,-418.57 519.85,-364.5 573.69,-345.29 728.5,-387.57 808.59,-409.45 889.15,-466.58 931.6,-500.07"/>
<polygon fill="black" stroke="black" points="929.39,-502.78 939.38,-506.29 933.76,-497.31 929.39,-502.78"/>
</g>
<!-- routers.auth&#45;&gt;configs.log_config -->
<g id="edge27" class="edge">
<title>routers.auth&#45;&gt;configs.log_config</title>
<path fill="none" stroke="black" d="M290.46,-471.08C312.08,-462.89 341.75,-452.61 368.75,-446.57 445.08,-429.52 535.24,-421.29 592.36,-417.52"/>
<polygon fill="black" stroke="black" points="592.41,-421.02 602.17,-416.89 591.97,-414.03 592.41,-421.02"/>
</g>
<!-- routers.auth&#45;&gt;methods.auth.auth -->
<g id="edge28" class="edge">
<title>routers.auth&#45;&gt;methods.auth.auth</title>
<path fill="none" stroke="black" d="M290.67,-487.32C318.95,-490.71 361.24,-495.77 395.36,-499.85"/>
<polygon fill="black" stroke="black" points="394.74,-503.3 405.08,-501.02 395.57,-496.35 394.74,-503.3"/>
</g>
<!-- routers.auth&#45;&gt;methods.database.database -->
<g id="edge29" class="edge">
<title>routers.auth&#45;&gt;methods.database.database</title>
<path fill="none" stroke="black" d="M290.48,-482.13C312.37,-481.2 342.34,-480.06 368.75,-479.57 443.18,-478.21 462.14,-472.51 536.25,-479.57 622.87,-487.83 644.26,-494.77 728.5,-516.57 739.83,-519.51 751.77,-523.04 763.26,-526.66"/>
<polygon fill="black" stroke="black" points="762.07,-529.96 772.66,-529.69 764.22,-523.3 762.07,-529.96"/>
</g>
<!-- routers.auth&#45;&gt;methods.database.models -->
<g id="edge30" class="edge">
<title>routers.auth&#45;&gt;methods.database.models</title>
<path fill="none" stroke="black" d="M290.63,-500.33C312.08,-511.2 341.49,-524.91 368.75,-533.57 438.74,-555.82 521.69,-570.07 579.17,-578.12"/>
<polygon fill="black" stroke="black" points="578.43,-581.55 588.81,-579.45 579.38,-574.62 578.43,-581.55"/>
</g>
<!-- routers.auth&#45;&gt;methods.manager.SessionManager -->
<g id="edge31" class="edge">
<title>routers.auth&#45;&gt;methods.manager.SessionManager</title>
<path fill="none" stroke="black" d="M278.58,-501.75C295.39,-518.75 319.19,-545.65 332.75,-573.57 364.77,-639.53 315.17,-684.52 368.75,-734.57 382.8,-747.7 484.03,-760.81 560.91,-769.04"/>
<polygon fill="black" stroke="black" points="560.24,-772.48 570.56,-770.05 560.98,-765.52 560.24,-772.48"/>
</g>
<!-- routers.auth&#45;&gt;utils -->
<g id="edge32" class="edge">
<title>routers.auth&#45;&gt;utils</title>
<path fill="none" stroke="black" d="M267.62,-465.27C281.93,-433.13 311.82,-364.33 332.75,-304.57 351.58,-250.82 327.25,-220.59 368.75,-181.57 424.37,-129.29 461.9,-160.88 536.25,-143.57 561.42,-137.72 589.7,-130.97 611.69,-125.68"/>
<polygon fill="black" stroke="black" points="612.51,-129.08 621.41,-123.34 610.87,-122.28 612.51,-129.08"/>
</g>
<!-- routers.post&#45;&gt;configs.config -->
<g id="edge33" class="edge">
<title>routers.post&#45;&gt;configs.config</title>
<path fill="none" stroke="black" d="M290.43,-759.95C305.24,-763.61 322.04,-770.31 332.75,-782.57 381.55,-838.46 310.91,-899.11 368.75,-945.57 426.79,-992.19 463.14,-959.61 536.25,-945.57 702.47,-913.67 778.09,-931.54 890,-804.57 953.67,-732.34 962.44,-611.04 962.87,-555.27"/>
<polygon fill="black" stroke="black" points="966.37,-555.29 962.85,-545.3 959.37,-555.31 966.37,-555.29"/>
</g>
<!-- routers.post&#45;&gt;methods.auth.auth -->
<g id="edge34" class="edge">
<title>routers.post&#45;&gt;methods.auth.auth</title>
<path fill="none" stroke="black" d="M290.34,-750.69C304.96,-746.92 321.6,-740.26 332.75,-728.57 369.43,-690.14 344.22,-661.71 368.75,-614.57 384.42,-584.46 408.58,-554.12 426.76,-533.29"/>
<polygon fill="black" stroke="black" points="429.35,-535.64 433.38,-525.84 424.12,-530.99 429.35,-535.64"/>
</g>
<!-- routers.post&#45;&gt;methods.database.database -->
<g id="edge35" class="edge">
<title>routers.post&#45;&gt;methods.database.database</title>
<path fill="none" stroke="black" d="M290.24,-762.64C304.15,-766.86 320.23,-773.25 332.75,-782.57 354.14,-798.5 344.9,-818.65 368.75,-830.57 512.13,-902.27 602.87,-904.15 728.5,-804.57 765.29,-775.42 803.45,-639.09 819,-578.14"/>
<polygon fill="black" stroke="black" points="822.39,-579.03 821.43,-568.48 815.6,-577.32 822.39,-579.03"/>
</g>
<!-- routers.post&#45;&gt;methods.database.models -->
<g id="edge36" class="edge">
<title>routers.post&#45;&gt;methods.database.models</title>
<path fill="none" stroke="black" d="M290.16,-750.04C304.56,-746.11 321.06,-739.52 332.75,-728.57 361.51,-701.65 338.2,-672.45 368.75,-647.57 376.99,-640.87 498.71,-616.04 579.11,-600.2"/>
<polygon fill="black" stroke="black" points="579.54,-603.68 588.68,-598.32 578.19,-596.82 579.54,-603.68"/>
</g>
<!-- routers.post&#45;&gt;methods.manager.SessionManager -->
<g id="edge37" class="edge">
<title>routers.post&#45;&gt;methods.manager.SessionManager</title>
<path fill="none" stroke="black" d="M290.29,-764.59C303.75,-769.1 319.46,-775.2 332.75,-782.57 350.47,-792.41 349.58,-804 368.75,-810.57 441.98,-835.7 531.58,-817.3 589.53,-799.5"/>
<polygon fill="black" stroke="black" points="590.41,-802.89 598.88,-796.53 588.29,-796.22 590.41,-802.89"/>
</g>
<!-- routers.root&#45;&gt;methods.manager.SessionManager -->
<g id="edge38" class="edge">
<title>routers.root&#45;&gt;methods.manager.SessionManager</title>
<path fill="none" stroke="black" d="M479.11,-900.14C513.86,-875.12 576.07,-830.34 614.9,-802.39"/>
<polygon fill="black" stroke="black" points="616.46,-805.58 622.53,-796.9 612.37,-799.9 616.46,-805.58"/>
</g>
<!-- routers.sessions&#45;&gt;methods.auth.auth -->
<g id="edge39" class="edge">
<title>routers.sessions&#45;&gt;methods.auth.auth</title>
<path fill="none" stroke="black" d="M296.87,-582.23C327.32,-567.33 370.47,-546.22 403.45,-530.09"/>
<polygon fill="black" stroke="black" points="404.96,-533.24 412.41,-525.7 401.89,-526.95 404.96,-533.24"/>
</g>
<!-- routers.sessions&#45;&gt;methods.database.models -->
<g id="edge40" class="edge">
<title>routers.sessions&#45;&gt;methods.database.models</title>
<path fill="none" stroke="black" d="M298.2,-599.18C363.61,-596.83 496.7,-592.06 578.94,-589.1"/>
<polygon fill="black" stroke="black" points="578.82,-592.61 588.69,-588.75 578.57,-585.61 578.82,-592.61"/>
</g>
<!-- routers.sessions&#45;&gt;methods.manager.SessionManager -->
<g id="edge41" class="edge">
<title>routers.sessions&#45;&gt;methods.manager.SessionManager</title>
<path fill="none" stroke="black" d="M282.2,-618.93C298.19,-632.79 319.06,-653.05 332.75,-674.57 357.66,-713.72 330.94,-745.68 368.75,-772.57 427.06,-814.05 510.82,-809.59 571.64,-798.24"/>
<polygon fill="black" stroke="black" points="572.11,-801.72 581.24,-796.34 570.75,-794.85 572.11,-801.72"/>
</g>
<!-- routers.vm&#45;&gt;configs.server_config -->
<g id="edge42" class="edge">
<title>routers.vm&#45;&gt;configs.server_config</title>
<path fill="none" stroke="black" d="M265.1,-259.1C277.65,-221.58 311.18,-136.09 368.75,-89.57 375.05,-84.48 382.35,-80.34 389.94,-76.97"/>
<polygon fill="black" stroke="black" points="390.99,-80.32 399,-73.39 388.42,-73.81 390.99,-80.32"/>
</g>
<!-- routers.vm&#45;&gt;configs.vm_profiles -->
<g id="edge43" class="edge">
<title>routers.vm&#45;&gt;configs.vm_profiles</title>
<path fill="none" stroke="black" d="M261.13,-259.38C266.76,-212.39 288.95,-87.08 368.75,-35.57 502.77,50.93 702.73,-44.54 786.79,-92.47"/>
<polygon fill="black" stroke="black" points="784.97,-95.46 795.38,-97.44 788.48,-89.4 784.97,-95.46"/>
</g>
<!-- routers.vm&#45;&gt;methods.auth.auth -->
<g id="edge44" class="edge">
<title>routers.vm&#45;&gt;methods.auth.auth</title>
<path fill="none" stroke="black" d="M274.77,-295.93C308.5,-336.13 389.04,-432.12 428.67,-479.37"/>
<polygon fill="black" stroke="black" points="425.95,-481.56 435.06,-486.97 431.31,-477.06 425.95,-481.56"/>
</g>
<!-- routers.vm&#45;&gt;methods.database.database -->
<g id="edge45" class="edge">
<title>routers.vm&#45;&gt;methods.database.database</title>
<path fill="none" stroke="black" d="M287.93,-272.03C338.89,-263.25 448.39,-249.48 536.25,-273.57 632.05,-299.84 657.89,-317.7 728.5,-387.57 768.14,-426.8 798.35,-485.22 814.1,-519.84"/>
<polygon fill="black" stroke="black" points="810.82,-521.1 818.08,-528.81 817.22,-518.25 810.82,-521.1"/>
</g>
<!-- routers.vm&#45;&gt;methods.database.models -->
<g id="edge46" class="edge">
<title>routers.vm&#45;&gt;methods.database.models</title>
<path fill="none" stroke="black" d="M286.96,-295.97C337.76,-330.22 448.88,-406.89 536.25,-479.57 567.58,-505.64 601.23,-538.11 623.62,-560.4"/>
<polygon fill="black" stroke="black" points="621,-562.74 630.54,-567.34 625.96,-557.79 621,-562.74"/>
</g>
<!-- routers.vm&#45;&gt;methods.manager -->
<g id="edge47" class="edge">
<title>routers.vm&#45;&gt;methods.manager</title>
<path fill="none" stroke="black" d="M270.59,-259.23C288.29,-231.68 325.2,-179.55 368.75,-148.57 377.6,-142.28 387.85,-137.02 398.06,-132.71"/>
<polygon fill="black" stroke="black" points="399.19,-136.03 407.22,-129.11 396.63,-129.52 399.19,-136.03"/>
</g>
<!-- routers.vm&#45;&gt;methods.manager.OverlayManager -->
<g id="edge48" class="edge">
<title>routers.vm&#45;&gt;methods.manager.OverlayManager</title>
<path fill="none" stroke="black" d="M288.14,-281.02C307.83,-283.38 335.11,-286.64 361.74,-289.83"/>
<polygon fill="black" stroke="black" points="361.24,-293.29 371.58,-291.01 362.07,-286.34 361.24,-293.29"/>
</g>
<!-- routers.vm&#45;&gt;methods.manager.SessionManager -->
<g id="edge49" class="edge">
<title>routers.vm&#45;&gt;methods.manager.SessionManager</title>
<path fill="none" stroke="black" d="M268.62,-295.86C284.31,-327.69 316.06,-395.68 332.75,-456.57 347.29,-509.65 330.8,-661.73 368.75,-701.57 421.08,-756.52 463.31,-713.69 536.25,-734.57 555.84,-740.18 576.82,-747.71 595.32,-754.9"/>
<polygon fill="black" stroke="black" points="593.91,-758.11 604.5,-758.52 596.48,-751.6 593.91,-758.11"/>
</g>
<!-- routers.vm&#45;&gt;methods.manager.WebsockifyService -->
<g id="edge50" class="edge">
<title>routers.vm&#45;&gt;methods.manager.WebsockifyService</title>
<path fill="none" stroke="black" d="M288.14,-267.24C314.78,-257.68 355.29,-243.13 389.3,-230.91"/>
<polygon fill="black" stroke="black" points="390.44,-234.22 398.67,-227.55 388.07,-227.64 390.44,-234.22"/>
</g>
<!-- utils&#45;&gt;configs.vm_profiles -->
<g id="edge51" class="edge">
<title>utils&#45;&gt;configs.vm_profiles</title>
<path fill="none" stroke="black" d="M677.56,-116.57C701.13,-116.57 736.64,-116.57 767.04,-116.57"/>
<polygon fill="black" stroke="black" points="766.9,-120.07 776.9,-116.57 766.9,-113.07 766.9,-120.07"/>
</g>
</g>
</svg>
