<?xml version="1.0" encoding="UTF-8" standalone="no"?>
<!DOCTYPE svg PUBLIC "-//W3C//DTD SVG 1.1//EN"
 "http://www.w3.org/Graphics/SVG/1.1/DTD/svg11.dtd">
<!-- Generated by graphviz version 13.1.1 (20250719.2154)
 -->
<!-- Title: python_deps Pages: 1 -->
<svg width="1008pt" height="883pt"
 viewBox="0.00 0.00 1008.00 883.00" xmlns="http://www.w3.org/2000/svg" xmlns:xlink="http://www.w3.org/1999/xlink">
<g id="graph0" class="graph" transform="scale(1 1) rotate(0) translate(4 878.67)">
<title>python_deps</title>
<polygon fill="white" stroke="none" points="-4,4 -4,-878.67 1003.75,-878.67 1003.75,4 -4,4"/>
<!-- configs.auth_config -->
<g id="node1" class="node">
<title>configs.auth_config</title>
<polygon fill="none" stroke="black" points="122.88,-446 25.12,-446 25.12,-410 122.88,-410 122.88,-446"/>
<text xml:space="preserve" text-anchor="middle" x="74" y="-424.12" font-family="Times,serif" font-size="10.00">configs.auth_config</text>
</g>
<!-- configs.config -->
<g id="node2" class="node">
<title>configs.config</title>
<polygon fill="none" stroke="black" points="999.75,-726 925.25,-726 925.25,-690 999.75,-690 999.75,-726"/>
<text xml:space="preserve" text-anchor="middle" x="962.5" y="-704.12" font-family="Times,serif" font-size="10.00">configs.config</text>
</g>
<!-- configs.log_config -->
<g id="node3" class="node">
<title>configs.log_config</title>
<polygon fill="none" stroke="black" points="696.62,-718 603.38,-718 603.38,-682 696.62,-682 696.62,-718"/>
<text xml:space="preserve" text-anchor="middle" x="650" y="-696.12" font-family="Times,serif" font-size="10.00">configs.log_config</text>
</g>
<!-- configs.redis_config -->
<g id="node4" class="node">
<title>configs.redis_config</title>
<polygon fill="none" stroke="black" points="699.62,-512 600.38,-512 600.38,-476 699.62,-476 699.62,-512"/>
<text xml:space="preserve" text-anchor="middle" x="650" y="-490.12" font-family="Times,serif" font-size="10.00">configs.redis_config</text>
</g>
<!-- configs.server_config -->
<g id="node5" class="node">
<title>configs.server_config</title>
<polygon fill="none" stroke="black" points="504.38,-328 400.62,-328 400.62,-292 504.38,-292 504.38,-328"/>
<text xml:space="preserve" text-anchor="middle" x="452.5" y="-306.12" font-family="Times,serif" font-size="10.00">configs.server_config</text>
</g>
<!-- configs.vm_profiles -->
<g id="node6" class="node">
<title>configs.vm_profiles</title>
<polygon fill="none" stroke="black" points="875,-265 778,-265 778,-229 875,-229 875,-265"/>
<text xml:space="preserve" text-anchor="middle" x="826.5" y="-243.12" font-family="Times,serif" font-size="10.00">configs.vm_profiles</text>
</g>
<!-- main -->
<g id="node7" class="node">
<title>main</title>
<polygon fill="none" stroke="black" points="101,-500 47,-500 47,-464 101,-464 101,-500"/>
<text xml:space="preserve" text-anchor="middle" x="74" y="-478.12" font-family="Times,serif" font-size="10.00">main</text>
</g>
<!-- methods.manager.SessionManager -->
<g id="node16" class="node">
<title>methods.manager.SessionManager</title>
<polygon fill="none" stroke="black" points="530.62,-512 374.38,-512 374.38,-476 530.62,-476 530.62,-512"/>
<text xml:space="preserve" text-anchor="middle" x="452.5" y="-490.12" font-family="Times,serif" font-size="10.00">methods.manager.SessionManager</text>
</g>
<!-- main&#45;&gt;methods.manager.SessionManager -->
<g id="edge1" class="edge">
<title>main&#45;&gt;methods.manager.SessionManager</title>
<path fill="none" stroke="black" d="M101.42,-480.76C123.49,-479.79 155.79,-478.52 184,-478 250.1,-476.79 266.79,-473.58 332.75,-478 342.48,-478.65 352.62,-479.6 362.71,-480.72"/>
<polygon fill="black" stroke="black" points="362.2,-484.18 372.54,-481.87 363.01,-477.23 362.2,-484.18"/>
</g>
<!-- observability.metrics -->
<g id="node19" class="node">
<title>observability.metrics</title>
<polygon fill="none" stroke="black" points="308.75,-739 208,-739 208,-703 308.75,-703 308.75,-739"/>
<text xml:space="preserve" text-anchor="middle" x="258.38" y="-717.12" font-family="Times,serif" font-size="10.00">observability.metrics</text>
</g>
<!-- main&#45;&gt;observability.metrics -->
<g id="edge2" class="edge">
<title>main&#45;&gt;observability.metrics</title>
<path fill="none" stroke="black" d="M101.37,-485.55C117,-489 136.04,-495.77 148,-509 190.79,-556.34 152.25,-592.64 184,-648 194.29,-665.94 210.16,-682.51 224.51,-695.31"/>
<polygon fill="black" stroke="black" points="222.18,-697.92 232.04,-701.78 226.74,-692.61 222.18,-697.92"/>
</g>
<!-- observability.utils_observability -->
<g id="node20" class="node">
<title>observability.utils_observability</title>
<polygon fill="none" stroke="black" points="332.75,-90 184,-90 184,-54 332.75,-54 332.75,-90"/>
<text xml:space="preserve" text-anchor="middle" x="258.38" y="-68.12" font-family="Times,serif" font-size="10.00">observability.utils_observability</text>
</g>
<!-- main&#45;&gt;observability.utils_observability -->
<g id="edge3" class="edge">
<title>main&#45;&gt;observability.utils_observability</title>
<path fill="none" stroke="black" d="M101.38,-479.2C117.43,-476.04 136.91,-469.31 148,-455 244.07,-331.05 91.5,-230.63 184,-104 185.72,-101.64 187.65,-99.46 189.75,-97.43"/>
<polygon fill="black" stroke="black" points="191.76,-100.31 197.38,-91.32 187.39,-94.84 191.76,-100.31"/>
</g>
<!-- routers.auth -->
<g id="node21" class="node">
<title>routers.auth</title>
<polygon fill="none" stroke="black" points="290.38,-816 226.38,-816 226.38,-780 290.38,-780 290.38,-816"/>
<text xml:space="preserve" text-anchor="middle" x="258.38" y="-794.12" font-family="Times,serif" font-size="10.00">routers.auth</text>
</g>
<!-- main&#45;&gt;routers.auth -->
<g id="edge4" class="edge">
<title>main&#45;&gt;routers.auth</title>
<path fill="none" stroke="black" d="M101.15,-484.98C117.11,-488.22 136.57,-494.95 148,-509 215.8,-592.32 126.84,-657.05 184,-748 191.83,-760.46 204.03,-770.58 216.24,-778.38"/>
<polygon fill="black" stroke="black" points="214.27,-781.27 224.66,-783.36 217.84,-775.25 214.27,-781.27"/>
</g>
<!-- routers.pages -->
<g id="node22" class="node">
<title>routers.pages</title>
<polygon fill="none" stroke="black" points="293,-36 223.75,-36 223.75,0 293,0 293,-36"/>
<text xml:space="preserve" text-anchor="middle" x="258.38" y="-14.12" font-family="Times,serif" font-size="10.00">routers.pages</text>
</g>
<!-- main&#45;&gt;routers.pages -->
<g id="edge5" class="edge">
<title>main&#45;&gt;routers.pages</title>
<path fill="none" stroke="black" d="M101.45,-479.25C117.53,-476.12 137.01,-469.39 148,-455 203.5,-382.3 128.44,-117.65 184,-45 191.05,-35.78 201.58,-29.71 212.47,-25.71"/>
<polygon fill="black" stroke="black" points="213.39,-29.09 221.92,-22.8 211.34,-22.4 213.39,-29.09"/>
</g>
<!-- routers.post -->
<g id="node23" class="node">
<title>routers.post</title>
<polygon fill="none" stroke="black" points="290,-582 226.75,-582 226.75,-546 290,-546 290,-582"/>
<text xml:space="preserve" text-anchor="middle" x="258.38" y="-560.12" font-family="Times,serif" font-size="10.00">routers.post</text>
</g>
<!-- main&#45;&gt;routers.post -->
<g id="edge6" class="edge">
<title>main&#45;&gt;routers.post</title>
<path fill="none" stroke="black" d="M101.24,-490.18C115.4,-494.97 133,-501.54 148,-509 165,-517.45 167.25,-523.07 184,-532 194.21,-537.44 205.54,-542.73 216.18,-547.39"/>
<polygon fill="black" stroke="black" points="214.56,-550.5 225.13,-551.22 217.32,-544.07 214.56,-550.5"/>
</g>
<!-- routers.root -->
<g id="node24" class="node">
<title>routers.root</title>
<polygon fill="none" stroke="black" points="289.62,-523 227.12,-523 227.12,-487 289.62,-487 289.62,-523"/>
<text xml:space="preserve" text-anchor="middle" x="258.38" y="-501.12" font-family="Times,serif" font-size="10.00">routers.root</text>
</g>
<!-- main&#45;&gt;routers.root -->
<g id="edge7" class="edge">
<title>main&#45;&gt;routers.root</title>
<path fill="none" stroke="black" d="M101.13,-485.3C130.95,-489.06 180.14,-495.26 215.36,-499.7"/>
<polygon fill="black" stroke="black" points="214.86,-503.17 225.22,-500.95 215.74,-496.22 214.86,-503.17"/>
</g>
<!-- routers.sessions -->
<g id="node25" class="node">
<title>routers.sessions</title>
<polygon fill="none" stroke="black" points="297.88,-639 218.88,-639 218.88,-603 297.88,-603 297.88,-639"/>
<text xml:space="preserve" text-anchor="middle" x="258.38" y="-617.12" font-family="Times,serif" font-size="10.00">routers.sessions</text>
</g>
<!-- main&#45;&gt;routers.sessions -->
<g id="edge8" class="edge">
<title>main&#45;&gt;routers.sessions</title>
<path fill="none" stroke="black" d="M101.35,-486.43C116.59,-490.18 135.22,-496.95 148,-509 176.97,-536.3 155.5,-563.22 184,-591 190.87,-597.7 199.44,-602.97 208.28,-607.1"/>
<polygon fill="black" stroke="black" points="206.71,-610.24 217.29,-610.86 209.4,-603.78 206.71,-610.24"/>
</g>
<!-- routers.vm -->
<g id="node26" class="node">
<title>routers.vm</title>
<polygon fill="none" stroke="black" points="287.75,-397 229,-397 229,-361 287.75,-361 287.75,-397"/>
<text xml:space="preserve" text-anchor="middle" x="258.38" y="-375.12" font-family="Times,serif" font-size="10.00">routers.vm</text>
</g>
<!-- main&#45;&gt;routers.vm -->
<g id="edge9" class="edge">
<title>main&#45;&gt;routers.vm</title>
<path fill="none" stroke="black" d="M101.36,-474.05C115.55,-469.33 133.14,-462.75 148,-455 175.56,-440.63 204.33,-420.4 225.44,-404.42"/>
<polygon fill="black" stroke="black" points="227.57,-407.2 233.37,-398.34 223.31,-401.65 227.57,-407.2"/>
</g>
<!-- utils -->
<g id="node27" class="node">
<title>utils</title>
<polygon fill="none" stroke="black" points="677,-128 623,-128 623,-92 677,-92 677,-128"/>
<text xml:space="preserve" text-anchor="middle" x="650" y="-106.12" font-family="Times,serif" font-size="10.00">utils</text>
</g>
<!-- main&#45;&gt;utils -->
<g id="edge10" class="edge">
<title>main&#45;&gt;utils</title>
<path fill="none" stroke="black" d="M101.35,-478.01C116.77,-474.4 135.6,-467.63 148,-455 181.98,-420.4 159.78,-394.01 184,-352 246.94,-242.86 256.91,-195.01 368.75,-137 447.54,-96.13 555.56,-99.66 611.7,-105.16"/>
<polygon fill="black" stroke="black" points="611.04,-108.61 621.36,-106.19 611.78,-101.65 611.04,-108.61"/>
</g>
<!-- methods.auth.auth -->
<g id="node8" class="node">
<title>methods.auth.auth</title>
<polygon fill="none" stroke="black" points="498,-642 407,-642 407,-606 498,-606 498,-642"/>
<text xml:space="preserve" text-anchor="middle" x="452.5" y="-620.12" font-family="Times,serif" font-size="10.00">methods.auth.auth</text>
</g>
<!-- methods.auth.auth&#45;&gt;configs.config -->
<g id="edge11" class="edge">
<title>methods.auth.auth&#45;&gt;configs.config</title>
<path fill="none" stroke="black" d="M498.46,-623.13C553.03,-622.77 647.71,-624.36 727.75,-637 801.23,-648.61 818.44,-658.18 889.25,-681 897.4,-683.63 905.99,-686.63 914.29,-689.65"/>
<polygon fill="black" stroke="black" points="912.96,-692.89 923.55,-693.08 915.39,-686.33 912.96,-692.89"/>
</g>
<!-- methods.auth.auth&#45;&gt;configs.log_config -->
<g id="edge12" class="edge">
<title>methods.auth.auth&#45;&gt;configs.log_config</title>
<path fill="none" stroke="black" d="M498.17,-641.25C510.51,-646.02 523.9,-651.2 536.25,-656 554.5,-663.09 574.41,-670.85 592.34,-677.85"/>
<polygon fill="black" stroke="black" points="590.93,-681.06 601.52,-681.44 593.48,-674.54 590.93,-681.06"/>
</g>
<!-- methods.database.database -->
<g id="node10" class="node">
<title>methods.database.database</title>
<polygon fill="none" stroke="black" points="889.25,-726 763.75,-726 763.75,-690 889.25,-690 889.25,-726"/>
<text xml:space="preserve" text-anchor="middle" x="826.5" y="-704.12" font-family="Times,serif" font-size="10.00">methods.database.database</text>
</g>
<!-- methods.auth.auth&#45;&gt;methods.database.database -->
<g id="edge13" class="edge">
<title>methods.auth.auth&#45;&gt;methods.database.database</title>
<path fill="none" stroke="black" d="M498.17,-629.64C552.87,-637.09 648.06,-651.77 727.75,-673 741.22,-676.59 755.47,-681.2 768.8,-685.89"/>
<polygon fill="black" stroke="black" points="767.25,-689.05 777.84,-689.14 769.61,-682.47 767.25,-689.05"/>
</g>
<!-- methods.database.models -->
<g id="node12" class="node">
<title>methods.database.models</title>
<polygon fill="none" stroke="black" points="709.75,-772 590.25,-772 590.25,-736 709.75,-736 709.75,-772"/>
<text xml:space="preserve" text-anchor="middle" x="650" y="-750.12" font-family="Times,serif" font-size="10.00">methods.database.models</text>
</g>
<!-- methods.auth.auth&#45;&gt;methods.database.models -->
<g id="edge14" class="edge">
<title>methods.auth.auth&#45;&gt;methods.database.models</title>
<path fill="none" stroke="black" d="M475.83,-642.48C492.6,-656.46 516.06,-676.22 536.25,-694 552.54,-708.35 553.63,-715.84 572.25,-727 574.69,-728.46 577.22,-729.86 579.81,-731.2"/>
<polygon fill="black" stroke="black" points="578.14,-734.28 588.68,-735.4 581.14,-727.95 578.14,-734.28"/>
</g>
<!-- methods.auth.email_verification -->
<g id="node9" class="node">
<title>methods.auth.email_verification</title>
<polygon fill="none" stroke="black" points="148,-554 0,-554 0,-518 148,-518 148,-554"/>
<text xml:space="preserve" text-anchor="middle" x="74" y="-532.12" font-family="Times,serif" font-size="10.00">methods.auth.email_verification</text>
</g>
<!-- methods.database.database&#45;&gt;configs.config -->
<g id="edge15" class="edge">
<title>methods.database.database&#45;&gt;configs.config</title>
<path fill="none" stroke="black" d="M889.4,-708C897.6,-708 905.91,-708 913.82,-708"/>
<polygon fill="black" stroke="black" points="913.55,-711.5 923.55,-708 913.55,-704.5 913.55,-711.5"/>
</g>
<!-- methods.database.init_db -->
<g id="node11" class="node">
<title>methods.database.init_db</title>
<polygon fill="none" stroke="black" points="134.12,-608 13.88,-608 13.88,-572 134.12,-572 134.12,-608"/>
<text xml:space="preserve" text-anchor="middle" x="74" y="-586.12" font-family="Times,serif" font-size="10.00">methods.database.init_db</text>
</g>
<!-- methods.database.models&#45;&gt;methods.database.database -->
<g id="edge16" class="edge">
<title>methods.database.models&#45;&gt;methods.database.database</title>
<path fill="none" stroke="black" d="M710.08,-738.43C723.79,-734.81 738.54,-730.92 752.76,-727.18"/>
<polygon fill="black" stroke="black" points="753.26,-730.66 762.04,-724.73 751.48,-723.89 753.26,-730.66"/>
</g>
<!-- methods.manager -->
<g id="node13" class="node">
<title>methods.manager</title>
<polygon fill="none" stroke="black" points="496.12,-274 408.88,-274 408.88,-238 496.12,-238 496.12,-274"/>
<text xml:space="preserve" text-anchor="middle" x="452.5" y="-252.12" font-family="Times,serif" font-size="10.00">methods.manager</text>
</g>
<!-- methods.manager.OverlayManager -->
<g id="node14" class="node">
<title>methods.manager.OverlayManager</title>
<polygon fill="none" stroke="black" points="531.75,-420 373.25,-420 373.25,-384 531.75,-384 531.75,-420"/>
<text xml:space="preserve" text-anchor="middle" x="452.5" y="-398.12" font-family="Times,serif" font-size="10.00">methods.manager.OverlayManager</text>
</g>
<!-- methods.manager.OverlayManager&#45;&gt;configs.log_config -->
<g id="edge17" class="edge">
<title>methods.manager.OverlayManager&#45;&gt;configs.log_config</title>
<path fill="none" stroke="black" d="M517.31,-420.36C524.23,-424.12 530.74,-428.62 536.25,-434 566.18,-463.24 556,-482.44 572.25,-521 594.64,-574.14 621.26,-635.92 636.54,-671.24"/>
<polygon fill="black" stroke="black" points="633.29,-672.56 640.48,-680.35 639.72,-669.78 633.29,-672.56"/>
</g>
<!-- methods.manager.OverlayManager&#45;&gt;configs.vm_profiles -->
<g id="edge18" class="edge">
<title>methods.manager.OverlayManager&#45;&gt;configs.vm_profiles</title>
<path fill="none" stroke="black" d="M497.63,-383.61C565.78,-355.22 696.48,-300.76 770.62,-269.87"/>
<polygon fill="black" stroke="black" points="771.85,-273.14 779.74,-266.07 769.16,-266.68 771.85,-273.14"/>
</g>
<!-- methods.manager.ProcessManager -->
<g id="node15" class="node">
<title>methods.manager.ProcessManager</title>
<polygon fill="none" stroke="black" points="727.75,-182 572.25,-182 572.25,-146 727.75,-146 727.75,-182"/>
<text xml:space="preserve" text-anchor="middle" x="650" y="-160.12" font-family="Times,serif" font-size="10.00">methods.manager.ProcessManager</text>
</g>
<!-- methods.manager.SessionManager&#45;&gt;configs.redis_config -->
<g id="edge19" class="edge">
<title>methods.manager.SessionManager&#45;&gt;configs.redis_config</title>
<path fill="none" stroke="black" d="M531.05,-494C550.2,-494 570.44,-494 588.64,-494"/>
<polygon fill="black" stroke="black" points="588.46,-497.5 598.46,-494 588.46,-490.5 588.46,-497.5"/>
</g>
<!-- methods.manager.WebsockifyService -->
<g id="node17" class="node">
<title>methods.manager.WebsockifyService</title>
<polygon fill="none" stroke="black" points="536.25,-182 368.75,-182 368.75,-146 536.25,-146 536.25,-182"/>
<text xml:space="preserve" text-anchor="middle" x="452.5" y="-160.12" font-family="Times,serif" font-size="10.00">methods.manager.WebsockifyService</text>
</g>
<!-- methods.manager.WebsockifyService&#45;&gt;methods.manager.ProcessManager -->
<g id="edge20" class="edge">
<title>methods.manager.WebsockifyService&#45;&gt;methods.manager.ProcessManager</title>
<path fill="none" stroke="black" d="M536.69,-164C544.51,-164 552.46,-164 560.33,-164"/>
<polygon fill="black" stroke="black" points="560.26,-167.5 570.26,-164 560.26,-160.5 560.26,-167.5"/>
</g>
<!-- methods.manager.WebsockifyService&#45;&gt;utils -->
<g id="edge21" class="edge">
<title>methods.manager.WebsockifyService&#45;&gt;utils</title>
<path fill="none" stroke="black" d="M520.23,-145.57C550.87,-137.1 586.05,-127.39 611.89,-120.25"/>
<polygon fill="black" stroke="black" points="612.53,-123.7 621.24,-117.67 610.67,-116.96 612.53,-123.7"/>
</g>
<!-- observability -->
<g id="node18" class="node">
<title>observability</title>
<polygon fill="none" stroke="black" points="109,-662 39,-662 39,-626 109,-626 109,-662"/>
<text xml:space="preserve" text-anchor="middle" x="74" y="-640.12" font-family="Times,serif" font-size="10.00">observability</text>
</g>
<!-- observability.metrics&#45;&gt;methods.database.database -->
<g id="edge22" class="edge">
<title>observability.metrics&#45;&gt;methods.database.database</title>
<path fill="none" stroke="black" d="M285.81,-739.28C307.13,-752.88 338.44,-770.34 368.75,-778 523.45,-817.1 576.33,-831.3 727.75,-781 755.81,-771.68 782.34,-750.81 800.66,-733.76"/>
<polygon fill="black" stroke="black" points="802.6,-736.76 807.39,-727.3 797.75,-731.71 802.6,-736.76"/>
</g>
<!-- observability.metrics&#45;&gt;methods.database.models -->
<g id="edge23" class="edge">
<title>observability.metrics&#45;&gt;methods.database.models</title>
<path fill="none" stroke="black" d="M300.54,-739.45C320.66,-747.49 345.51,-755.98 368.75,-760 439.41,-772.22 521.57,-768.39 578.59,-762.93"/>
<polygon fill="black" stroke="black" points="578.9,-766.42 588.5,-761.93 578.2,-759.45 578.9,-766.42"/>
</g>
<!-- observability.metrics&#45;&gt;methods.manager.SessionManager -->
<g id="edge24" class="edge">
<title>observability.metrics&#45;&gt;methods.manager.SessionManager</title>
<path fill="none" stroke="black" d="M279.63,-702.66C294.93,-688.4 316.05,-667.77 332.75,-648 350.65,-626.8 352.05,-619.16 368.75,-597 388.5,-570.79 412.02,-541.7 428.93,-521.14"/>
<polygon fill="black" stroke="black" points="431.57,-523.44 435.24,-513.5 426.17,-518.99 431.57,-523.44"/>
</g>
<!-- routers.auth&#45;&gt;configs.config -->
<g id="edge25" class="edge">
<title>routers.auth&#45;&gt;configs.config</title>
<path fill="none" stroke="black" d="M289.21,-816.27C310.52,-828.2 340.32,-842.7 368.75,-849 524.56,-883.54 574.35,-885.03 727.75,-841 805.98,-818.54 886.05,-765 929.19,-733.12"/>
<polygon fill="black" stroke="black" points="931.2,-735.99 937.11,-727.19 927.01,-730.38 931.2,-735.99"/>
</g>
<!-- routers.auth&#45;&gt;configs.log_config -->
<g id="edge26" class="edge">
<title>routers.auth&#45;&gt;configs.log_config</title>
<path fill="none" stroke="black" d="M290.6,-790.15C356.12,-773.67 508.76,-735.27 592.14,-714.3"/>
<polygon fill="black" stroke="black" points="592.87,-717.73 601.72,-711.89 591.16,-710.94 592.87,-717.73"/>
</g>
<!-- routers.auth&#45;&gt;methods.auth.auth -->
<g id="edge27" class="edge">
<title>routers.auth&#45;&gt;methods.auth.auth</title>
<path fill="none" stroke="black" d="M290.84,-782.26C305.22,-773.76 321.51,-762.11 332.75,-748 360.11,-713.66 337.64,-686.99 368.75,-656 376.44,-648.34 386.18,-642.47 396.24,-637.98"/>
<polygon fill="black" stroke="black" points="397.37,-641.3 405.37,-634.36 394.79,-634.8 397.37,-641.3"/>
</g>
<!-- routers.auth&#45;&gt;methods.database.database -->
<g id="edge28" class="edge">
<title>routers.auth&#45;&gt;methods.database.database</title>
<path fill="none" stroke="black" d="M290.63,-807.5C368.39,-829.36 575.28,-876.5 727.75,-811 763.14,-795.79 791.75,-760.78 808.67,-735.8"/>
<polygon fill="black" stroke="black" points="811.4,-738 813.95,-727.72 805.54,-734.18 811.4,-738"/>
</g>
<!-- routers.auth&#45;&gt;methods.database.models -->
<g id="edge29" class="edge">
<title>routers.auth&#45;&gt;methods.database.models</title>
<path fill="none" stroke="black" d="M290.67,-797.14C342.12,-795.42 447.74,-790.56 536.25,-778 550.09,-776.04 564.76,-773.36 578.8,-770.5"/>
<polygon fill="black" stroke="black" points="579.33,-773.97 588.4,-768.49 577.89,-767.12 579.33,-773.97"/>
</g>
<!-- routers.post&#45;&gt;configs.vm_profiles -->
<g id="edge30" class="edge">
<title>routers.post&#45;&gt;configs.vm_profiles</title>
<path fill="none" stroke="black" d="M290.27,-563.07C389.13,-559.83 693.23,-547.78 727.75,-521 805.24,-460.88 821.41,-334.31 824.71,-276.69"/>
<polygon fill="black" stroke="black" points="828.19,-277.16 825.16,-267.01 821.2,-276.83 828.19,-277.16"/>
</g>
<!-- routers.post&#45;&gt;methods.auth.auth -->
<g id="edge31" class="edge">
<title>routers.post&#45;&gt;methods.auth.auth</title>
<path fill="none" stroke="black" d="M290.24,-573.64C318.67,-582.52 361.52,-595.9 395.9,-606.64"/>
<polygon fill="black" stroke="black" points="394.71,-609.93 405.3,-609.57 396.79,-603.25 394.71,-609.93"/>
</g>
<!-- routers.post&#45;&gt;methods.database.database -->
<g id="edge32" class="edge">
<title>routers.post&#45;&gt;methods.database.database</title>
<path fill="none" stroke="black" d="M290.5,-563.39C367.97,-563.02 574.25,-569 727.75,-637 753.18,-648.27 778.49,-666.91 796.98,-682.27"/>
<polygon fill="black" stroke="black" points="794.7,-684.92 804.59,-688.73 799.24,-679.59 794.7,-684.92"/>
</g>
<!-- routers.post&#45;&gt;methods.database.models -->
<g id="edge33" class="edge">
<title>routers.post&#45;&gt;methods.database.models</title>
<path fill="none" stroke="black" d="M290.23,-571.9C304.3,-576.62 320.52,-583.74 332.75,-594 355.71,-613.25 345.5,-632.1 368.75,-651 443.67,-711.89 481.49,-694.09 572.25,-727 576.58,-728.57 581.06,-730.18 585.57,-731.79"/>
<polygon fill="black" stroke="black" points="584.09,-734.98 594.68,-735.03 586.43,-728.38 584.09,-734.98"/>
</g>
<!-- routers.post&#45;&gt;methods.manager.SessionManager -->
<g id="edge34" class="edge">
<title>routers.post&#45;&gt;methods.manager.SessionManager</title>
<path fill="none" stroke="black" d="M290.24,-552.75C317.14,-542.95 356.94,-528.45 390.28,-516.31"/>
<polygon fill="black" stroke="black" points="391.23,-519.69 399.42,-512.97 388.83,-513.11 391.23,-519.69"/>
</g>
<!-- routers.root&#45;&gt;methods.manager.SessionManager -->
<g id="edge35" class="edge">
<title>routers.root&#45;&gt;methods.manager.SessionManager</title>
<path fill="none" stroke="black" d="M289.82,-503.26C309.63,-502.12 336.58,-500.58 362.79,-499.08"/>
<polygon fill="black" stroke="black" points="362.66,-502.59 372.44,-498.53 362.26,-495.6 362.66,-502.59"/>
</g>
<!-- routers.sessions&#45;&gt;methods.auth.auth -->
<g id="edge36" class="edge">
<title>routers.sessions&#45;&gt;methods.auth.auth</title>
<path fill="none" stroke="black" d="M298.25,-621.61C326.18,-622.04 364.25,-622.64 395.46,-623.12"/>
<polygon fill="black" stroke="black" points="395.05,-626.62 405.1,-623.28 395.16,-619.62 395.05,-626.62"/>
</g>
<!-- routers.sessions&#45;&gt;methods.database.models -->
<g id="edge37" class="edge">
<title>routers.sessions&#45;&gt;methods.database.models</title>
<path fill="none" stroke="black" d="M277.9,-639.3C306.17,-667.04 357.94,-717.05 368.75,-722 435.32,-752.5 519.74,-758.29 578.44,-757.83"/>
<polygon fill="black" stroke="black" points="578.37,-761.33 588.31,-757.68 578.26,-754.33 578.37,-761.33"/>
</g>
<!-- routers.sessions&#45;&gt;methods.manager.SessionManager -->
<g id="edge38" class="edge">
<title>routers.sessions&#45;&gt;methods.manager.SessionManager</title>
<path fill="none" stroke="black" d="M298.11,-607.66C309.6,-603.04 321.99,-597.4 332.75,-591 366.83,-570.73 401.46,-541.2 424.46,-520.06"/>
<polygon fill="black" stroke="black" points="426.64,-522.81 431.57,-513.43 421.87,-517.69 426.64,-522.81"/>
</g>
<!-- routers.vm&#45;&gt;configs.server_config -->
<g id="edge39" class="edge">
<title>routers.vm&#45;&gt;configs.server_config</title>
<path fill="none" stroke="black" d="M288.14,-368.67C314.87,-359.07 355.57,-344.45 389.66,-332.21"/>
<polygon fill="black" stroke="black" points="390.82,-335.51 399.05,-328.84 388.45,-328.92 390.82,-335.51"/>
</g>
<!-- routers.vm&#45;&gt;configs.vm_profiles -->
<g id="edge40" class="edge">
<title>routers.vm&#45;&gt;configs.vm_profiles</title>
<path fill="none" stroke="black" d="M266.23,-360.56C279.82,-327.03 313.73,-256.97 368.75,-229 498.11,-163.23 675.73,-200.61 766.65,-227.33"/>
<polygon fill="black" stroke="black" points="765.53,-230.65 776.11,-230.18 767.55,-223.95 765.53,-230.65"/>
</g>
<!-- routers.vm&#45;&gt;methods.auth.auth -->
<g id="edge41" class="edge">
<title>routers.vm&#45;&gt;methods.auth.auth</title>
<path fill="none" stroke="black" d="M273.41,-397.47C294.11,-424.66 334.12,-476.98 368.75,-521 389.17,-546.95 412.79,-576.29 429.55,-596.99"/>
<polygon fill="black" stroke="black" points="426.77,-599.12 435.78,-604.68 432.21,-594.71 426.77,-599.12"/>
</g>
<!-- routers.vm&#45;&gt;methods.database.database -->
<g id="edge42" class="edge">
<title>routers.vm&#45;&gt;methods.database.database</title>
<path fill="none" stroke="black" d="M288.08,-374.19C370.39,-362.22 608.93,-340.51 727.75,-467 785.58,-528.56 811.09,-628.85 820.63,-678.39"/>
<polygon fill="black" stroke="black" points="817.16,-678.86 822.41,-688.07 824.05,-677.6 817.16,-678.86"/>
</g>
<!-- routers.vm&#45;&gt;methods.database.models -->
<g id="edge43" class="edge">
<title>routers.vm&#45;&gt;methods.database.models</title>
<path fill="none" stroke="black" d="M287.96,-394.04C309.65,-404.96 340.47,-419.44 368.75,-429 441.07,-453.44 484.63,-410.76 536.25,-467 615.14,-552.94 498.44,-636.66 572.25,-727 574.66,-729.95 577.42,-732.58 580.42,-734.93"/>
<polygon fill="black" stroke="black" points="578.49,-737.85 588.8,-740.31 582.28,-731.96 578.49,-737.85"/>
</g>
<!-- routers.vm&#45;&gt;methods.manager -->
<g id="edge44" class="edge">
<title>routers.vm&#45;&gt;methods.manager</title>
<path fill="none" stroke="black" d="M275.83,-360.6C295.87,-339.2 331.65,-304.14 368.75,-283 377.72,-277.89 387.79,-273.59 397.74,-270.02"/>
<polygon fill="black" stroke="black" points="398.62,-273.41 406.99,-266.92 396.4,-266.78 398.62,-273.41"/>
</g>
<!-- routers.vm&#45;&gt;methods.manager.OverlayManager -->
<g id="edge45" class="edge">
<title>routers.vm&#45;&gt;methods.manager.OverlayManager</title>
<path fill="none" stroke="black" d="M288.14,-382.44C307.83,-384.8 335.11,-388.07 361.74,-391.25"/>
<polygon fill="black" stroke="black" points="361.24,-394.72 371.58,-392.43 362.07,-387.77 361.24,-394.72"/>
</g>
<!-- routers.vm&#45;&gt;methods.manager.SessionManager -->
<g id="edge46" class="edge">
<title>routers.vm&#45;&gt;methods.manager.SessionManager</title>
<path fill="none" stroke="black" d="M279.93,-397.42C301.05,-415.64 335.45,-443.41 368.75,-462 374.66,-465.3 380.99,-468.41 387.41,-471.3"/>
<polygon fill="black" stroke="black" points="385.56,-474.32 396.13,-475.05 388.33,-467.89 385.56,-474.32"/>
</g>
<!-- routers.vm&#45;&gt;methods.manager.WebsockifyService -->
<g id="edge47" class="edge">
<title>routers.vm&#45;&gt;methods.manager.WebsockifyService</title>
<path fill="none" stroke="black" d="M265.65,-360.71C278.99,-324.35 313.57,-242.53 368.75,-196 372.33,-192.98 376.22,-190.23 380.3,-187.73"/>
<polygon fill="black" stroke="black" points="381.73,-190.94 388.79,-183.04 378.35,-184.81 381.73,-190.94"/>
</g>
<!-- utils&#45;&gt;configs.vm_profiles -->
<g id="edge48" class="edge">
<title>utils&#45;&gt;configs.vm_profiles</title>
<path fill="none" stroke="black" d="M677.4,-115.74C692.95,-119.96 712.5,-126.76 727.75,-137 760.71,-159.13 789.67,-194.92 807.34,-219.63"/>
<polygon fill="black" stroke="black" points="804.3,-221.4 812.9,-227.59 810.04,-217.39 804.3,-221.4"/>
</g>
</g>
</svg>
