<?xml version="1.0" encoding="UTF-8" standalone="no"?>
<!DOCTYPE svg PUBLIC "-//W3C//DTD SVG 1.1//EN"
 "http://www.w3.org/Graphics/SVG/1.1/DTD/svg11.dtd">
<!-- Generated by graphviz version 13.1.1 (20250719.2154)
 -->
<!-- Title: python_deps Pages: 1 -->
<svg width="1009pt" height="1277pt"
 viewBox="0.00 0.00 1009.00 1277.00" xmlns="http://www.w3.org/2000/svg" xmlns:xlink="http://www.w3.org/1999/xlink">
<g id="graph0" class="graph" transform="scale(1 1) rotate(0) translate(4 1272.8)">
<title>python_deps</title>
<polygon fill="white" stroke="none" points="-4,4 -4,-1272.8 1004.5,-1272.8 1004.5,4 -4,4"/>
<!-- configs.auth_config -->
<g id="node1" class="node">
<title>configs.auth_config</title>
<polygon fill="none" stroke="black" points="122.88,-266 25.12,-266 25.12,-230 122.88,-230 122.88,-266"/>
<text xml:space="preserve" text-anchor="middle" x="74" y="-244.12" font-family="Times,serif" font-size="10.00">configs.auth_config</text>
</g>
<!-- configs.config -->
<g id="node2" class="node">
<title>configs.config</title>
<polygon fill="none" stroke="black" points="1000.5,-1032 926,-1032 926,-996 1000.5,-996 1000.5,-1032"/>
<text xml:space="preserve" text-anchor="middle" x="963.25" y="-1010.12" font-family="Times,serif" font-size="10.00">configs.config</text>
</g>
<!-- configs.log_config -->
<g id="node3" class="node">
<title>configs.log_config</title>
<polygon fill="none" stroke="black" points="697,-878 603.75,-878 603.75,-842 697,-842 697,-878"/>
<text xml:space="preserve" text-anchor="middle" x="650.38" y="-856.12" font-family="Times,serif" font-size="10.00">configs.log_config</text>
</g>
<!-- configs.redis_config -->
<g id="node4" class="node">
<title>configs.redis_config</title>
<polygon fill="none" stroke="black" points="876.88,-573 777.62,-573 777.62,-537 876.88,-537 876.88,-573"/>
<text xml:space="preserve" text-anchor="middle" x="827.25" y="-551.12" font-family="Times,serif" font-size="10.00">configs.redis_config</text>
</g>
<!-- configs.server_config -->
<g id="node5" class="node">
<title>configs.server_config</title>
<polygon fill="none" stroke="black" points="504.38,-512 400.62,-512 400.62,-476 504.38,-476 504.38,-512"/>
<text xml:space="preserve" text-anchor="middle" x="452.5" y="-490.12" font-family="Times,serif" font-size="10.00">configs.server_config</text>
</g>
<!-- configs.vm_profiles -->
<g id="node6" class="node">
<title>configs.vm_profiles</title>
<polygon fill="none" stroke="black" points="875.75,-634 778.75,-634 778.75,-598 875.75,-598 875.75,-634"/>
<text xml:space="preserve" text-anchor="middle" x="827.25" y="-612.12" font-family="Times,serif" font-size="10.00">configs.vm_profiles</text>
</g>
<!-- main -->
<g id="node7" class="node">
<title>main</title>
<polygon fill="none" stroke="black" points="101,-320 47,-320 47,-284 101,-284 101,-320"/>
<text xml:space="preserve" text-anchor="middle" x="74" y="-298.12" font-family="Times,serif" font-size="10.00">main</text>
</g>
<!-- methods.database.database -->
<g id="node10" class="node">
<title>methods.database.database</title>
<polygon fill="none" stroke="black" points="890,-1065 764.5,-1065 764.5,-1029 890,-1029 890,-1065"/>
<text xml:space="preserve" text-anchor="middle" x="827.25" y="-1043.12" font-family="Times,serif" font-size="10.00">methods.database.database</text>
</g>
<!-- main&#45;&gt;methods.database.database -->
<g id="edge1" class="edge">
<title>main&#45;&gt;methods.database.database</title>
<path fill="none" stroke="black" d="M101.29,-304.52C117.52,-307.57 137.23,-314.27 148,-329 250.54,-469.25 91.35,-963.03 184,-1110 314,-1316.22 520.19,-1302.62 728.5,-1176 768.02,-1151.98 797.13,-1105.52 812.88,-1075.41"/>
<polygon fill="black" stroke="black" points="815.82,-1077.35 817.2,-1066.85 809.57,-1074.2 815.82,-1077.35"/>
</g>
<!-- methods.manager.SessionManager -->
<g id="node16" class="node">
<title>methods.manager.SessionManager</title>
<polygon fill="none" stroke="black" points="728.5,-573 572.25,-573 572.25,-537 728.5,-537 728.5,-573"/>
<text xml:space="preserve" text-anchor="middle" x="650.38" y="-551.12" font-family="Times,serif" font-size="10.00">methods.manager.SessionManager</text>
</g>
<!-- main&#45;&gt;methods.manager.SessionManager -->
<g id="edge2" class="edge">
<title>main&#45;&gt;methods.manager.SessionManager</title>
<path fill="none" stroke="black" d="M101.26,-301.32C194.16,-299.19 503.52,-294.29 536.25,-323 604.81,-383.13 514.34,-454.56 572.25,-525 573.65,-526.71 575.17,-528.32 576.77,-529.83"/>
<polygon fill="black" stroke="black" points="574.26,-532.31 584.28,-535.75 578.59,-526.81 574.26,-532.31"/>
</g>
<!-- observability.db_metrics -->
<g id="node19" class="node">
<title>observability.db_metrics</title>
<polygon fill="none" stroke="black" points="316.62,-198 200.12,-198 200.12,-162 316.62,-162 316.62,-198"/>
<text xml:space="preserve" text-anchor="middle" x="258.38" y="-176.12" font-family="Times,serif" font-size="10.00">observability.db_metrics</text>
</g>
<!-- main&#45;&gt;observability.db_metrics -->
<g id="edge3" class="edge">
<title>main&#45;&gt;observability.db_metrics</title>
<path fill="none" stroke="black" d="M101.25,-296.98C116.27,-293.04 134.7,-286.27 148,-275 172.6,-254.15 160,-233.54 184,-212 187.13,-209.19 190.55,-206.6 194.14,-204.21"/>
<polygon fill="black" stroke="black" points="195.87,-207.25 202.68,-199.13 192.3,-201.23 195.87,-207.25"/>
</g>
<!-- observability.grafana_proxy -->
<g id="node20" class="node">
<title>observability.grafana_proxy</title>
<polygon fill="none" stroke="black" points="323.75,-144 193,-144 193,-108 323.75,-108 323.75,-144"/>
<text xml:space="preserve" text-anchor="middle" x="258.38" y="-122.12" font-family="Times,serif" font-size="10.00">observability.grafana_proxy</text>
</g>
<!-- main&#45;&gt;observability.grafana_proxy -->
<g id="edge4" class="edge">
<title>main&#45;&gt;observability.grafana_proxy</title>
<path fill="none" stroke="black" d="M101.22,-298.3C116.79,-294.8 135.82,-288.03 148,-275 186.61,-233.7 145.36,-194.27 184,-153 184.48,-152.49 184.97,-151.99 185.47,-151.5"/>
<polygon fill="black" stroke="black" points="187.57,-154.29 193.14,-145.28 183.16,-148.86 187.57,-154.29"/>
</g>
<!-- observability.metrics -->
<g id="node22" class="node">
<title>observability.metrics</title>
<polygon fill="none" stroke="black" points="502.88,-1168 402.12,-1168 402.12,-1132 502.88,-1132 502.88,-1168"/>
<text xml:space="preserve" text-anchor="middle" x="452.5" y="-1146.12" font-family="Times,serif" font-size="10.00">observability.metrics</text>
</g>
<!-- main&#45;&gt;observability.metrics -->
<g id="edge5" class="edge">
<title>main&#45;&gt;observability.metrics</title>
<path fill="none" stroke="black" d="M101.28,-304.54C117.5,-307.59 137.21,-314.29 148,-329 243.44,-459.05 87.94,-924.41 184,-1054 231.92,-1118.65 327.36,-1139.89 390.32,-1146.79"/>
<polygon fill="black" stroke="black" points="389.87,-1150.26 400.17,-1147.77 390.57,-1143.3 389.87,-1150.26"/>
</g>
<!-- observability.utils_observability -->
<g id="node24" class="node">
<title>observability.utils_observability</title>
<polygon fill="none" stroke="black" points="332.75,-90 184,-90 184,-54 332.75,-54 332.75,-90"/>
<text xml:space="preserve" text-anchor="middle" x="258.38" y="-68.12" font-family="Times,serif" font-size="10.00">observability.utils_observability</text>
</g>
<!-- main&#45;&gt;observability.utils_observability -->
<g id="edge6" class="edge">
<title>main&#45;&gt;observability.utils_observability</title>
<path fill="none" stroke="black" d="M101.26,-298.74C117.05,-295.39 136.3,-288.64 148,-275 199.99,-214.41 131.96,-159.55 184,-99 184.35,-98.59 184.71,-98.18 185.08,-97.78"/>
<polygon fill="black" stroke="black" points="187.3,-100.49 192.52,-91.27 182.69,-95.23 187.3,-100.49"/>
</g>
<!-- routers.auth -->
<g id="node25" class="node">
<title>routers.auth</title>
<polygon fill="none" stroke="black" points="290.38,-840 226.38,-840 226.38,-804 290.38,-804 290.38,-840"/>
<text xml:space="preserve" text-anchor="middle" x="258.38" y="-818.12" font-family="Times,serif" font-size="10.00">routers.auth</text>
</g>
<!-- main&#45;&gt;routers.auth -->
<g id="edge7" class="edge">
<title>main&#45;&gt;routers.auth</title>
<path fill="none" stroke="black" d="M101.19,-304.95C117.16,-308.17 136.63,-314.91 148,-329 183.66,-373.2 171.66,-526.57 184,-582 201.24,-659.47 231.09,-748.19 246.88,-792.94"/>
<polygon fill="black" stroke="black" points="243.51,-793.92 250.16,-802.17 250.11,-791.57 243.51,-793.92"/>
</g>
<!-- routers.pages -->
<g id="node26" class="node">
<title>routers.pages</title>
<polygon fill="none" stroke="black" points="293,-36 223.75,-36 223.75,0 293,0 293,-36"/>
<text xml:space="preserve" text-anchor="middle" x="258.38" y="-14.12" font-family="Times,serif" font-size="10.00">routers.pages</text>
</g>
<!-- main&#45;&gt;routers.pages -->
<g id="edge8" class="edge">
<title>main&#45;&gt;routers.pages</title>
<path fill="none" stroke="black" d="M101.48,-298.92C117.36,-295.65 136.62,-288.91 148,-275 213.53,-194.93 118.4,-125.01 184,-45 191.29,-36.1 201.8,-30.14 212.59,-26.14"/>
<polygon fill="black" stroke="black" points="213.43,-29.54 221.93,-23.21 211.34,-22.86 213.43,-29.54"/>
</g>
<!-- routers.post -->
<g id="node27" class="node">
<title>routers.post</title>
<polygon fill="none" stroke="black" points="290,-1045 226.75,-1045 226.75,-1009 290,-1009 290,-1045"/>
<text xml:space="preserve" text-anchor="middle" x="258.38" y="-1023.12" font-family="Times,serif" font-size="10.00">routers.post</text>
</g>
<!-- main&#45;&gt;routers.post -->
<g id="edge9" class="edge">
<title>main&#45;&gt;routers.post</title>
<path fill="none" stroke="black" d="M101.24,-304.56C117.44,-307.63 137.15,-314.33 148,-329 231,-441.2 125.87,-829.12 184,-956 192.19,-973.88 207.07,-989.6 221.3,-1001.68"/>
<polygon fill="black" stroke="black" points="218.85,-1004.2 228.83,-1007.76 223.25,-998.75 218.85,-1004.2"/>
</g>
<!-- routers.root -->
<g id="node28" class="node">
<title>routers.root</title>
<polygon fill="none" stroke="black" points="483.75,-274 421.25,-274 421.25,-238 483.75,-238 483.75,-274"/>
<text xml:space="preserve" text-anchor="middle" x="452.5" y="-252.12" font-family="Times,serif" font-size="10.00">routers.root</text>
</g>
<!-- main&#45;&gt;routers.root -->
<g id="edge10" class="edge">
<title>main&#45;&gt;routers.root</title>
<path fill="none" stroke="black" d="M101.42,-298.54C123.49,-295.67 155.79,-291.5 184,-288 263.83,-278.1 357.14,-267.06 409.78,-260.88"/>
<polygon fill="black" stroke="black" points="409.97,-264.38 419.5,-259.74 409.16,-257.43 409.97,-264.38"/>
</g>
<!-- routers.sessions -->
<g id="node29" class="node">
<title>routers.sessions</title>
<polygon fill="none" stroke="black" points="297.88,-947 218.88,-947 218.88,-911 297.88,-911 297.88,-947"/>
<text xml:space="preserve" text-anchor="middle" x="258.38" y="-925.12" font-family="Times,serif" font-size="10.00">routers.sessions</text>
</g>
<!-- main&#45;&gt;routers.sessions -->
<g id="edge11" class="edge">
<title>main&#45;&gt;routers.sessions</title>
<path fill="none" stroke="black" d="M101.18,-304.61C117.36,-307.69 137.06,-314.4 148,-329 217.44,-421.71 138.29,-742.57 184,-849 193.04,-870.04 210.02,-889.13 225.38,-903.38"/>
<polygon fill="black" stroke="black" points="222.76,-905.73 232.55,-909.77 227.42,-900.51 222.76,-905.73"/>
</g>
<!-- routers.vm -->
<g id="node30" class="node">
<title>routers.vm</title>
<polygon fill="none" stroke="black" points="287.75,-573 229,-573 229,-537 287.75,-537 287.75,-573"/>
<text xml:space="preserve" text-anchor="middle" x="258.38" y="-551.12" font-family="Times,serif" font-size="10.00">routers.vm</text>
</g>
<!-- main&#45;&gt;routers.vm -->
<g id="edge12" class="edge">
<title>main&#45;&gt;routers.vm</title>
<path fill="none" stroke="black" d="M101.19,-306.6C116.37,-310.41 134.99,-317.19 148,-329 207.95,-383.43 238.49,-477.86 250.73,-525.59"/>
<polygon fill="black" stroke="black" points="247.31,-526.32 253.09,-535.19 254.1,-524.64 247.31,-526.32"/>
</g>
<!-- utils -->
<g id="node31" class="node">
<title>utils</title>
<polygon fill="none" stroke="black" points="677.38,-516 623.38,-516 623.38,-480 677.38,-480 677.38,-516"/>
<text xml:space="preserve" text-anchor="middle" x="650.38" y="-494.12" font-family="Times,serif" font-size="10.00">utils</text>
</g>
<!-- main&#45;&gt;utils -->
<g id="edge13" class="edge">
<title>main&#45;&gt;utils</title>
<path fill="none" stroke="black" d="M101.31,-292.71C189.1,-262.5 470.1,-172.1 536.25,-229 617.36,-298.76 505.87,-383.1 572.25,-467 582.1,-479.45 597.72,-486.92 612.33,-491.4"/>
<polygon fill="black" stroke="black" points="611.17,-494.71 621.74,-493.88 612.96,-487.94 611.17,-494.71"/>
</g>
<!-- methods.auth.auth -->
<g id="node8" class="node">
<title>methods.auth.auth</title>
<polygon fill="none" stroke="black" points="498,-1000 407,-1000 407,-964 498,-964 498,-1000"/>
<text xml:space="preserve" text-anchor="middle" x="452.5" y="-978.12" font-family="Times,serif" font-size="10.00">methods.auth.auth</text>
</g>
<!-- methods.auth.auth&#45;&gt;configs.config -->
<g id="edge14" class="edge">
<title>methods.auth.auth&#45;&gt;configs.config</title>
<path fill="none" stroke="black" d="M498.28,-984.74C552.7,-988.07 647.34,-993.89 728.5,-999 792.85,-1003.05 867.16,-1007.84 914.41,-1010.9"/>
<polygon fill="black" stroke="black" points="914.1,-1014.38 924.3,-1011.54 914.55,-1007.4 914.1,-1014.38"/>
</g>
<!-- methods.auth.auth&#45;&gt;configs.log_config -->
<g id="edge15" class="edge">
<title>methods.auth.auth&#45;&gt;configs.log_config</title>
<path fill="none" stroke="black" d="M482.82,-963.74C516.72,-942.62 572.66,-907.78 610.24,-884.37"/>
<polygon fill="black" stroke="black" points="611.93,-887.45 618.57,-879.19 608.23,-881.51 611.93,-887.45"/>
</g>
<!-- methods.auth.auth&#45;&gt;methods.database.database -->
<g id="edge16" class="edge">
<title>methods.auth.auth&#45;&gt;methods.database.database</title>
<path fill="none" stroke="black" d="M498.46,-989.84C561.54,-1000.84 677.06,-1020.98 752.74,-1034.18"/>
<polygon fill="black" stroke="black" points="752.12,-1037.63 762.58,-1035.9 753.33,-1030.73 752.12,-1037.63"/>
</g>
<!-- methods.database.models -->
<g id="node12" class="node">
<title>methods.database.models</title>
<polygon fill="none" stroke="black" points="710.12,-1084 590.62,-1084 590.62,-1048 710.12,-1048 710.12,-1084"/>
<text xml:space="preserve" text-anchor="middle" x="650.38" y="-1062.12" font-family="Times,serif" font-size="10.00">methods.database.models</text>
</g>
<!-- methods.auth.auth&#45;&gt;methods.database.models -->
<g id="edge17" class="edge">
<title>methods.auth.auth&#45;&gt;methods.database.models</title>
<path fill="none" stroke="black" d="M498.21,-997.99C510.67,-1002.8 524.11,-1008.32 536.25,-1014 552.83,-1021.76 555.77,-1026.04 572.25,-1034 578.59,-1037.06 585.3,-1040.12 592.01,-1043.05"/>
<polygon fill="black" stroke="black" points="590.54,-1046.23 601.11,-1046.96 593.3,-1039.8 590.54,-1046.23"/>
</g>
<!-- methods.auth.email_verification -->
<g id="node9" class="node">
<title>methods.auth.email_verification</title>
<polygon fill="none" stroke="black" points="148,-374 0,-374 0,-338 148,-338 148,-374"/>
<text xml:space="preserve" text-anchor="middle" x="74" y="-352.12" font-family="Times,serif" font-size="10.00">methods.auth.email_verification</text>
</g>
<!-- methods.database.database&#45;&gt;configs.config -->
<g id="edge18" class="edge">
<title>methods.database.database&#45;&gt;configs.config</title>
<path fill="none" stroke="black" d="M890.15,-1031.76C898.45,-1029.71 906.85,-1027.64 914.84,-1025.68"/>
<polygon fill="black" stroke="black" points="915.48,-1029.12 924.35,-1023.33 913.8,-1022.33 915.48,-1029.12"/>
</g>
<!-- methods.database.init_db -->
<g id="node11" class="node">
<title>methods.database.init_db</title>
<polygon fill="none" stroke="black" points="134.12,-428 13.88,-428 13.88,-392 134.12,-392 134.12,-428"/>
<text xml:space="preserve" text-anchor="middle" x="74" y="-406.12" font-family="Times,serif" font-size="10.00">methods.database.init_db</text>
</g>
<!-- methods.database.models&#45;&gt;methods.database.database -->
<g id="edge19" class="edge">
<title>methods.database.models&#45;&gt;methods.database.database</title>
<path fill="none" stroke="black" d="M710.58,-1059.57C724.18,-1058.09 738.81,-1056.5 752.93,-1054.97"/>
<polygon fill="black" stroke="black" points="753.05,-1058.47 762.61,-1053.91 752.29,-1051.51 753.05,-1058.47"/>
</g>
<!-- methods.manager -->
<g id="node13" class="node">
<title>methods.manager</title>
<polygon fill="none" stroke="black" points="496.12,-404 408.88,-404 408.88,-368 496.12,-368 496.12,-404"/>
<text xml:space="preserve" text-anchor="middle" x="452.5" y="-382.12" font-family="Times,serif" font-size="10.00">methods.manager</text>
</g>
<!-- methods.manager.OverlayManager -->
<g id="node14" class="node">
<title>methods.manager.OverlayManager</title>
<polygon fill="none" stroke="black" points="531.75,-718 373.25,-718 373.25,-682 531.75,-682 531.75,-718"/>
<text xml:space="preserve" text-anchor="middle" x="452.5" y="-696.12" font-family="Times,serif" font-size="10.00">methods.manager.OverlayManager</text>
</g>
<!-- methods.manager.OverlayManager&#45;&gt;configs.log_config -->
<g id="edge20" class="edge">
<title>methods.manager.OverlayManager&#45;&gt;configs.log_config</title>
<path fill="none" stroke="black" d="M511.84,-718.46C520.37,-722.31 528.79,-726.81 536.25,-732 575.88,-759.58 610.86,-803.85 631.07,-832.43"/>
<polygon fill="black" stroke="black" points="628.15,-834.36 636.73,-840.58 633.9,-830.37 628.15,-834.36"/>
</g>
<!-- methods.manager.OverlayManager&#45;&gt;configs.vm_profiles -->
<g id="edge21" class="edge">
<title>methods.manager.OverlayManager&#45;&gt;configs.vm_profiles</title>
<path fill="none" stroke="black" d="M532.1,-682.29C602.42,-666.44 703.93,-643.56 767.44,-629.25"/>
<polygon fill="black" stroke="black" points="768,-632.72 776.98,-627.1 766.46,-625.89 768,-632.72"/>
</g>
<!-- methods.manager.ProcessManager -->
<g id="node15" class="node">
<title>methods.manager.ProcessManager</title>
<polygon fill="none" stroke="black" points="728.12,-458 572.62,-458 572.62,-422 728.12,-422 728.12,-458"/>
<text xml:space="preserve" text-anchor="middle" x="650.38" y="-436.12" font-family="Times,serif" font-size="10.00">methods.manager.ProcessManager</text>
</g>
<!-- methods.manager.SessionManager&#45;&gt;configs.redis_config -->
<g id="edge22" class="edge">
<title>methods.manager.SessionManager&#45;&gt;configs.redis_config</title>
<path fill="none" stroke="black" d="M728.84,-555C741.3,-555 754.04,-555 766.02,-555"/>
<polygon fill="black" stroke="black" points="765.72,-558.5 775.72,-555 765.72,-551.5 765.72,-558.5"/>
</g>
<!-- methods.manager.WebsockifyService -->
<g id="node17" class="node">
<title>methods.manager.WebsockifyService</title>
<polygon fill="none" stroke="black" points="536.25,-458 368.75,-458 368.75,-422 536.25,-422 536.25,-458"/>
<text xml:space="preserve" text-anchor="middle" x="452.5" y="-436.12" font-family="Times,serif" font-size="10.00">methods.manager.WebsockifyService</text>
</g>
<!-- methods.manager.WebsockifyService&#45;&gt;methods.manager.ProcessManager -->
<g id="edge23" class="edge">
<title>methods.manager.WebsockifyService&#45;&gt;methods.manager.ProcessManager</title>
<path fill="none" stroke="black" d="M536.57,-440C544.65,-440 552.87,-440 560.99,-440"/>
<polygon fill="black" stroke="black" points="560.89,-443.5 570.89,-440 560.89,-436.5 560.89,-443.5"/>
</g>
<!-- methods.manager.WebsockifyService&#45;&gt;methods.manager.SessionManager -->
<g id="edge24" class="edge">
<title>methods.manager.WebsockifyService&#45;&gt;methods.manager.SessionManager</title>
<path fill="none" stroke="black" d="M522.73,-458.32C527.52,-460.86 532.09,-463.73 536.25,-467 560.12,-485.73 548.91,-505.61 572.25,-525 574.79,-527.11 577.49,-529.08 580.31,-530.92"/>
<polygon fill="black" stroke="black" points="578.55,-533.95 588.96,-535.94 582.07,-527.89 578.55,-533.95"/>
</g>
<!-- methods.manager.WebsockifyService&#45;&gt;utils -->
<g id="edge25" class="edge">
<title>methods.manager.WebsockifyService&#45;&gt;utils</title>
<path fill="none" stroke="black" d="M515.75,-458.43C547.41,-467.81 584.83,-478.89 612.01,-486.94"/>
<polygon fill="black" stroke="black" points="610.95,-490.27 621.53,-489.76 612.94,-483.56 610.95,-490.27"/>
</g>
<!-- observability -->
<g id="node18" class="node">
<title>observability</title>
<polygon fill="none" stroke="black" points="109,-482 39,-482 39,-446 109,-446 109,-482"/>
<text xml:space="preserve" text-anchor="middle" x="74" y="-460.12" font-family="Times,serif" font-size="10.00">observability</text>
</g>
<!-- observability.http_metrics -->
<g id="node21" class="node">
<title>observability.http_metrics</title>
<polygon fill="none" stroke="black" points="135.25,-536 12.75,-536 12.75,-500 135.25,-500 135.25,-536"/>
<text xml:space="preserve" text-anchor="middle" x="74" y="-514.12" font-family="Times,serif" font-size="10.00">observability.http_metrics</text>
</g>
<!-- observability.metrics&#45;&gt;methods.database.database -->
<g id="edge26" class="edge">
<title>observability.metrics&#45;&gt;methods.database.database</title>
<path fill="none" stroke="black" d="M503.35,-1143.28C559.17,-1134.93 651.84,-1118.58 728.5,-1093 746.62,-1086.95 765.8,-1078.43 782.32,-1070.37"/>
<polygon fill="black" stroke="black" points="783.49,-1073.7 790.88,-1066.11 780.37,-1067.43 783.49,-1073.7"/>
</g>
<!-- observability.metrics&#45;&gt;methods.database.models -->
<g id="edge27" class="edge">
<title>observability.metrics&#45;&gt;methods.database.models</title>
<path fill="none" stroke="black" d="M502.71,-1131.55C513.79,-1127.23 525.47,-1122.56 536.25,-1118 557.51,-1109.01 580.73,-1098.47 600.56,-1089.24"/>
<polygon fill="black" stroke="black" points="601.95,-1092.45 609.52,-1085.05 598.98,-1086.11 601.95,-1092.45"/>
</g>
<!-- observability.metrics&#45;&gt;methods.manager.SessionManager -->
<g id="edge28" class="edge">
<title>observability.metrics&#45;&gt;methods.manager.SessionManager</title>
<path fill="none" stroke="black" d="M466.83,-1131.85C485.22,-1105.91 518.16,-1056.17 536.25,-1009 564.84,-934.45 553.57,-910.63 572.25,-833 594.27,-741.52 625.51,-634.59 640.57,-584.15"/>
<polygon fill="black" stroke="black" points="643.83,-585.46 643.35,-574.88 637.13,-583.45 643.83,-585.46"/>
</g>
<!-- observability.ops_metrics -->
<g id="node23" class="node">
<title>observability.ops_metrics</title>
<polygon fill="none" stroke="black" points="134.12,-590 13.88,-590 13.88,-554 134.12,-554 134.12,-590"/>
<text xml:space="preserve" text-anchor="middle" x="74" y="-568.12" font-family="Times,serif" font-size="10.00">observability.ops_metrics</text>
</g>
<!-- routers.auth&#45;&gt;configs.config -->
<g id="edge29" class="edge">
<title>routers.auth&#45;&gt;configs.config</title>
<path fill="none" stroke="black" d="M290.76,-816.2C367.98,-803.3 572.27,-777.53 728.5,-833 817.91,-864.74 900.07,-945.02 938.84,-987.18"/>
<polygon fill="black" stroke="black" points="936.11,-989.39 945.42,-994.45 941.3,-984.69 936.11,-989.39"/>
</g>
<!-- routers.auth&#45;&gt;configs.log_config -->
<g id="edge30" class="edge">
<title>routers.auth&#45;&gt;configs.log_config</title>
<path fill="none" stroke="black" d="M290.63,-825.05C356.15,-831.43 508.68,-846.29 592.2,-854.43"/>
<polygon fill="black" stroke="black" points="591.72,-857.9 602.01,-855.38 592.4,-850.93 591.72,-857.9"/>
</g>
<!-- routers.auth&#45;&gt;methods.auth.auth -->
<g id="edge31" class="edge">
<title>routers.auth&#45;&gt;methods.auth.auth</title>
<path fill="none" stroke="black" d="M277.11,-840.28C292.31,-856.21 314.57,-880.1 332.75,-902 349.78,-922.52 347.49,-933.9 368.75,-950 376.96,-956.21 386.52,-961.36 396.17,-965.58"/>
<polygon fill="black" stroke="black" points="394.62,-968.74 405.21,-969.23 397.25,-962.24 394.62,-968.74"/>
</g>
<!-- routers.auth&#45;&gt;methods.database.database -->
<g id="edge32" class="edge">
<title>routers.auth&#45;&gt;methods.database.database</title>
<path fill="none" stroke="black" d="M290.8,-832.69C366.86,-858.8 566.54,-928.87 728.5,-999 745.88,-1006.53 764.64,-1015.52 781.02,-1023.67"/>
<polygon fill="black" stroke="black" points="779.02,-1026.58 789.53,-1027.94 782.16,-1020.33 779.02,-1026.58"/>
</g>
<!-- routers.auth&#45;&gt;methods.database.models -->
<g id="edge33" class="edge">
<title>routers.auth&#45;&gt;methods.database.models</title>
<path fill="none" stroke="black" d="M280.63,-840.49C296.86,-855.62 318.76,-878.31 332.75,-902 358.26,-945.21 331.04,-975.9 368.75,-1009 425.77,-1059.05 461.91,-1026.79 536.25,-1042 550.14,-1044.84 564.98,-1047.94 579.18,-1050.94"/>
<polygon fill="black" stroke="black" points="578.41,-1054.36 588.92,-1053.01 579.86,-1047.51 578.41,-1054.36"/>
</g>
<!-- routers.auth&#45;&gt;methods.manager.SessionManager -->
<g id="edge34" class="edge">
<title>routers.auth&#45;&gt;methods.manager.SessionManager</title>
<path fill="none" stroke="black" d="M268.4,-803.95C284.6,-773.2 321.38,-710.36 368.75,-673 427.64,-626.55 507.48,-595.34 566.94,-576.74"/>
<polygon fill="black" stroke="black" points="567.82,-580.14 576.35,-573.86 565.77,-573.44 567.82,-580.14"/>
</g>
<!-- routers.auth&#45;&gt;utils -->
<g id="edge35" class="edge">
<title>routers.auth&#45;&gt;utils</title>
<path fill="none" stroke="black" d="M262.46,-803.67C270.95,-759.08 298.81,-644.08 368.75,-583 405.54,-550.87 544.86,-519.15 612.32,-505.28"/>
<polygon fill="black" stroke="black" points="612.69,-508.77 621.79,-503.35 611.3,-501.91 612.69,-508.77"/>
</g>
<!-- routers.post&#45;&gt;configs.config -->
<g id="edge36" class="edge">
<title>routers.post&#45;&gt;configs.config</title>
<path fill="none" stroke="black" d="M263.89,-1045.26C274.53,-1083.84 305.22,-1173.06 368.75,-1209 433.54,-1245.66 462.07,-1215.32 536.25,-1209 622.63,-1201.64 647.57,-1207.08 728.5,-1176 807.75,-1145.57 821.31,-1123.89 890,-1074 904.68,-1063.33 920.26,-1050.6 933.17,-1039.61"/>
<polygon fill="black" stroke="black" points="935.19,-1042.49 940.5,-1033.32 930.63,-1037.18 935.19,-1042.49"/>
</g>
<!-- routers.post&#45;&gt;methods.auth.auth -->
<g id="edge37" class="edge">
<title>routers.post&#45;&gt;methods.auth.auth</title>
<path fill="none" stroke="black" d="M290.24,-1019.77C318.67,-1013.11 361.52,-1003.08 395.9,-995.02"/>
<polygon fill="black" stroke="black" points="396.33,-998.52 405.27,-992.83 394.73,-991.7 396.33,-998.52"/>
</g>
<!-- routers.post&#45;&gt;methods.database.database -->
<g id="edge38" class="edge">
<title>routers.post&#45;&gt;methods.database.database</title>
<path fill="none" stroke="black" d="M266.23,-1045.44C279.82,-1078.97 313.73,-1149.03 368.75,-1177 512.7,-1250.19 584.49,-1199.06 728.5,-1126 755.38,-1112.36 781.71,-1090.44 800.26,-1073.15"/>
<polygon fill="black" stroke="black" points="802.54,-1075.81 807.36,-1066.38 797.71,-1070.74 802.54,-1075.81"/>
</g>
<!-- routers.post&#45;&gt;methods.database.models -->
<g id="edge39" class="edge">
<title>routers.post&#45;&gt;methods.database.models</title>
<path fill="none" stroke="black" d="M288.2,-1045.45C309.52,-1057.94 339.75,-1073.34 368.75,-1080 439.06,-1096.14 521.79,-1088.96 579.12,-1080.02"/>
<polygon fill="black" stroke="black" points="579.44,-1083.51 588.75,-1078.45 578.31,-1076.6 579.44,-1083.51"/>
</g>
<!-- routers.post&#45;&gt;methods.manager.SessionManager -->
<g id="edge40" class="edge">
<title>routers.post&#45;&gt;methods.manager.SessionManager</title>
<path fill="none" stroke="black" d="M285.61,-1008.72C347.08,-965.5 498.15,-856.98 536.25,-808 591.63,-736.8 626.56,-634.2 641.3,-584.38"/>
<polygon fill="black" stroke="black" points="644.62,-585.49 644.04,-574.91 637.9,-583.54 644.62,-585.49"/>
</g>
<!-- routers.root&#45;&gt;methods.manager.SessionManager -->
<g id="edge41" class="edge">
<title>routers.root&#45;&gt;methods.manager.SessionManager</title>
<path fill="none" stroke="black" d="M483.98,-260.09C501.92,-264.13 523.52,-272.14 536.25,-288 602.93,-371.09 505.65,-441.84 572.25,-525 573.48,-526.54 574.81,-528 576.21,-529.39"/>
<polygon fill="black" stroke="black" points="573.85,-531.98 583.81,-535.59 578.27,-526.56 573.85,-531.98"/>
</g>
<!-- routers.sessions&#45;&gt;methods.auth.auth -->
<g id="edge42" class="edge">
<title>routers.sessions&#45;&gt;methods.auth.auth</title>
<path fill="none" stroke="black" d="M298.25,-939.73C326.31,-947.46 364.59,-958.02 395.87,-966.65"/>
<polygon fill="black" stroke="black" points="394.58,-969.93 405.16,-969.22 396.45,-963.18 394.58,-969.93"/>
</g>
<!-- routers.sessions&#45;&gt;methods.database.models -->
<g id="edge43" class="edge">
<title>routers.sessions&#45;&gt;methods.database.models</title>
<path fill="none" stroke="black" d="M279.17,-947.21C294.22,-961.27 315.25,-981.41 332.75,-1000 349.6,-1017.9 346.87,-1030.78 368.75,-1042 434.26,-1075.58 519.77,-1077.97 579.1,-1074.23"/>
<polygon fill="black" stroke="black" points="579,-1077.75 588.72,-1073.55 578.5,-1070.77 579,-1077.75"/>
</g>
<!-- routers.sessions&#45;&gt;methods.manager.SessionManager -->
<g id="edge44" class="edge">
<title>routers.sessions&#45;&gt;methods.manager.SessionManager</title>
<path fill="none" stroke="black" d="M291.71,-910.7C346.54,-878.59 459.3,-807.78 536.25,-727 578.99,-682.13 615.73,-619.14 634.99,-583.16"/>
<polygon fill="black" stroke="black" points="637.89,-585.15 639.46,-574.67 631.7,-581.89 637.89,-585.15"/>
</g>
<!-- routers.vm&#45;&gt;configs.server_config -->
<g id="edge45" class="edge">
<title>routers.vm&#45;&gt;configs.server_config</title>
<path fill="none" stroke="black" d="M288.14,-545.87C314.87,-537.38 355.57,-524.46 389.66,-513.63"/>
<polygon fill="black" stroke="black" points="390.56,-517.02 399.03,-510.66 388.44,-510.35 390.56,-517.02"/>
</g>
<!-- routers.vm&#45;&gt;configs.vm_profiles -->
<g id="edge46" class="edge">
<title>routers.vm&#45;&gt;configs.vm_profiles</title>
<path fill="none" stroke="black" d="M287.87,-558.07C376.18,-567.57 646.52,-596.66 767.11,-609.64"/>
<polygon fill="black" stroke="black" points="766.48,-613.09 776.79,-610.68 767.23,-606.13 766.48,-613.09"/>
</g>
<!-- routers.vm&#45;&gt;methods.auth.auth -->
<g id="edge47" class="edge">
<title>routers.vm&#45;&gt;methods.auth.auth</title>
<path fill="none" stroke="black" d="M267.63,-573.35C297.74,-640.28 401.84,-871.63 438.56,-953.23"/>
<polygon fill="black" stroke="black" points="435.36,-954.66 442.65,-962.34 441.74,-951.78 435.36,-954.66"/>
</g>
<!-- routers.vm&#45;&gt;methods.database.database -->
<g id="edge48" class="edge">
<title>routers.vm&#45;&gt;methods.database.database</title>
<path fill="none" stroke="black" d="M287.97,-563.49C370,-589.37 607.92,-675.23 728.5,-833 773.37,-891.71 803.64,-974.31 817.54,-1017.72"/>
<polygon fill="black" stroke="black" points="814.17,-1018.68 820.49,-1027.18 820.85,-1016.59 814.17,-1018.68"/>
</g>
<!-- routers.vm&#45;&gt;methods.database.models -->
<g id="edge49" class="edge">
<title>routers.vm&#45;&gt;methods.database.models</title>
<path fill="none" stroke="black" d="M269.99,-573.32C288.76,-605.3 329.51,-673.06 368.75,-727 457.06,-848.4 575.13,-983.15 625.25,-1039.24"/>
<polygon fill="black" stroke="black" points="622.4,-1041.31 631.68,-1046.42 627.62,-1036.64 622.4,-1041.31"/>
</g>
<!-- routers.vm&#45;&gt;methods.manager -->
<g id="edge50" class="edge">
<title>routers.vm&#45;&gt;methods.manager</title>
<path fill="none" stroke="black" d="M268.57,-536.93C284.77,-506.87 321.22,-446.57 368.75,-413 377.36,-406.92 387.43,-402.15 397.51,-398.42"/>
<polygon fill="black" stroke="black" points="398.59,-401.75 406.96,-395.26 396.36,-395.11 398.59,-401.75"/>
</g>
<!-- routers.vm&#45;&gt;methods.manager.OverlayManager -->
<g id="edge51" class="edge">
<title>routers.vm&#45;&gt;methods.manager.OverlayManager</title>
<path fill="none" stroke="black" d="M273.01,-573.43C292.02,-598 328.7,-641.45 368.75,-668 373.52,-671.16 378.65,-674.08 383.94,-676.76"/>
<polygon fill="black" stroke="black" points="382.33,-679.87 392.87,-680.97 385.32,-673.54 382.33,-679.87"/>
</g>
<!-- routers.vm&#45;&gt;methods.manager.SessionManager -->
<g id="edge52" class="edge">
<title>routers.vm&#45;&gt;methods.manager.SessionManager</title>
<path fill="none" stroke="black" d="M263.14,-536.63C272.59,-495.89 301.54,-398.46 368.75,-359 432.95,-321.31 478.3,-312.27 536.25,-359 595.02,-406.39 523.23,-467.59 572.25,-525 573.68,-526.68 575.22,-528.27 576.85,-529.76"/>
<polygon fill="black" stroke="black" points="574.39,-532.28 584.45,-535.62 578.66,-526.74 574.39,-532.28"/>
</g>
<!-- routers.vm&#45;&gt;methods.manager.WebsockifyService -->
<g id="edge53" class="edge">
<title>routers.vm&#45;&gt;methods.manager.WebsockifyService</title>
<path fill="none" stroke="black" d="M277.61,-536.81C298.18,-517.17 333.39,-486.15 368.75,-467 371.4,-465.56 374.14,-464.19 376.94,-462.87"/>
<polygon fill="black" stroke="black" points="378.12,-466.18 385.88,-458.97 375.32,-459.76 378.12,-466.18"/>
</g>
<!-- utils&#45;&gt;configs.vm_profiles -->
<g id="edge54" class="edge">
<title>utils&#45;&gt;configs.vm_profiles</title>
<path fill="none" stroke="black" d="M677.73,-503.94C693.67,-508.52 713.72,-516.12 728.5,-528 750.99,-546.07 743.26,-562.49 764.5,-582 768.2,-585.4 772.3,-588.58 776.58,-591.53"/>
<polygon fill="black" stroke="black" points="774.54,-594.38 784.86,-596.79 778.3,-588.48 774.54,-594.38"/>
</g>
</g>
</svg>
