<?xml version="1.0" encoding="UTF-8" standalone="no"?>
<!DOCTYPE svg PUBLIC "-//W3C//DTD SVG 1.1//EN"
 "http://www.w3.org/Graphics/SVG/1.1/DTD/svg11.dtd">
<!-- Generated by graphviz version 13.1.1 (20250719.2154)
 -->
<!-- Title: python_deps Pages: 1 -->
<svg width="1042pt" height="1047pt"
 viewBox="0.00 0.00 1042.00 1047.00" xmlns="http://www.w3.org/2000/svg" xmlns:xlink="http://www.w3.org/1999/xlink">
<g id="graph0" class="graph" transform="scale(1 1) rotate(0) translate(4 1043)">
<title>python_deps</title>
<polygon fill="white" stroke="none" points="-4,4 -4,-1043 1037.5,-1043 1037.5,4 -4,4"/>
<!-- configs.config -->
<g id="node1" class="node">
<title>configs.config</title>
<polygon fill="none" stroke="black" points="1033.5,-515 959,-515 959,-479 1033.5,-479 1033.5,-515"/>
<text xml:space="preserve" text-anchor="middle" x="996.25" y="-493.12" font-family="Times,serif" font-size="10.00">configs.config</text>
</g>
<!-- main -->
<g id="node2" class="node">
<title>main</title>
<polygon fill="none" stroke="black" points="101,-420 47,-420 47,-384 101,-384 101,-420"/>
<text xml:space="preserve" text-anchor="middle" x="74" y="-398.12" font-family="Times,serif" font-size="10.00">main</text>
</g>
<!-- main&#45;&gt;configs.config -->
<g id="edge1" class="edge">
<title>main&#45;&gt;configs.config</title>
<path fill="none" stroke="black" d="M101.49,-404.71C117.59,-407.84 137.08,-414.56 148,-429 209.71,-510.61 129,-801.73 184,-888 257.39,-1003.12 314.98,-1039 451.5,-1039 451.5,-1039 451.5,-1039 651.38,-1039 804.79,-1039 841.38,-955.9 923,-826 983.98,-728.95 993.94,-587.66 995.25,-526.76"/>
<polygon fill="black" stroke="black" points="998.75,-526.92 995.39,-516.87 991.75,-526.82 998.75,-526.92"/>
</g>
<!-- methods.database.database -->
<g id="node5" class="node">
<title>methods.database.database</title>
<polygon fill="none" stroke="black" points="906.5,-754 781,-754 781,-718 906.5,-718 906.5,-754"/>
<text xml:space="preserve" text-anchor="middle" x="843.75" y="-732.12" font-family="Times,serif" font-size="10.00">methods.database.database</text>
</g>
<!-- main&#45;&gt;methods.database.database -->
<g id="edge2" class="edge">
<title>main&#45;&gt;methods.database.database</title>
<path fill="none" stroke="black" d="M101.44,-404.76C117.51,-407.9 136.99,-414.62 148,-429 201.98,-499.52 135.61,-752.53 184,-827 235.22,-905.83 277.76,-906.35 368.75,-930 525.23,-970.67 612.77,-988.91 728.5,-876 767.44,-838.01 725.79,-797.23 764.5,-759 766.53,-757 768.72,-755.17 771.04,-753.5"/>
<polygon fill="black" stroke="black" points="772.46,-756.73 779.23,-748.58 768.85,-750.73 772.46,-756.73"/>
</g>
<!-- methods.manager.SessionManager -->
<g id="node11" class="node">
<title>methods.manager.SessionManager</title>
<polygon fill="none" stroke="black" points="728.5,-469 572.25,-469 572.25,-433 728.5,-433 728.5,-469"/>
<text xml:space="preserve" text-anchor="middle" x="650.38" y="-447.12" font-family="Times,serif" font-size="10.00">methods.manager.SessionManager</text>
</g>
<!-- main&#45;&gt;methods.manager.SessionManager -->
<g id="edge3" class="edge">
<title>main&#45;&gt;methods.manager.SessionManager</title>
<path fill="none" stroke="black" d="M101.17,-404.23C181.46,-411.08 426.9,-432.02 560.48,-443.42"/>
<polygon fill="black" stroke="black" points="560.1,-446.9 570.36,-444.26 560.7,-439.92 560.1,-446.9"/>
</g>
<!-- observability.db_metrics -->
<g id="node14" class="node">
<title>observability.db_metrics</title>
<polygon fill="none" stroke="black" points="316.62,-198 200.12,-198 200.12,-162 316.62,-162 316.62,-198"/>
<text xml:space="preserve" text-anchor="middle" x="258.38" y="-176.12" font-family="Times,serif" font-size="10.00">observability.db_metrics</text>
</g>
<!-- main&#45;&gt;observability.db_metrics -->
<g id="edge4" class="edge">
<title>main&#45;&gt;observability.db_metrics</title>
<path fill="none" stroke="black" d="M81.01,-383.78C94.08,-346.69 128.49,-261.74 184,-212 187.13,-209.19 190.55,-206.6 194.15,-204.21"/>
<polygon fill="black" stroke="black" points="195.88,-207.26 202.69,-199.14 192.3,-201.24 195.88,-207.26"/>
</g>
<!-- observability.grafana_proxy -->
<g id="node15" class="node">
<title>observability.grafana_proxy</title>
<polygon fill="none" stroke="black" points="323.75,-144 193,-144 193,-108 323.75,-108 323.75,-144"/>
<text xml:space="preserve" text-anchor="middle" x="258.38" y="-122.12" font-family="Times,serif" font-size="10.00">observability.grafana_proxy</text>
</g>
<!-- main&#45;&gt;observability.grafana_proxy -->
<g id="edge5" class="edge">
<title>main&#45;&gt;observability.grafana_proxy</title>
<path fill="none" stroke="black" d="M77.99,-383.52C86.31,-337.93 113.92,-219 184,-153 184.76,-152.29 185.53,-151.59 186.33,-150.92"/>
<polygon fill="black" stroke="black" points="188.17,-153.91 194.24,-145.23 184.08,-148.22 188.17,-153.91"/>
</g>
<!-- observability.metrics -->
<g id="node17" class="node">
<title>observability.metrics</title>
<polygon fill="none" stroke="black" points="502.88,-897 402.12,-897 402.12,-861 502.88,-861 502.88,-897"/>
<text xml:space="preserve" text-anchor="middle" x="452.5" y="-875.12" font-family="Times,serif" font-size="10.00">observability.metrics</text>
</g>
<!-- main&#45;&gt;observability.metrics -->
<g id="edge6" class="edge">
<title>main&#45;&gt;observability.metrics</title>
<path fill="none" stroke="black" d="M101.36,-404.81C117.4,-407.98 136.88,-414.71 148,-429 241.04,-548.59 93.32,-646.62 184,-768 233.01,-833.6 327.93,-860.66 390.5,-871.66"/>
<polygon fill="black" stroke="black" points="389.86,-875.11 400.3,-873.29 391.01,-868.2 389.86,-875.11"/>
</g>
<!-- observability.utils_observability -->
<g id="node19" class="node">
<title>observability.utils_observability</title>
<polygon fill="none" stroke="black" points="332.75,-90 184,-90 184,-54 332.75,-54 332.75,-90"/>
<text xml:space="preserve" text-anchor="middle" x="258.38" y="-68.12" font-family="Times,serif" font-size="10.00">observability.utils_observability</text>
</g>
<!-- main&#45;&gt;observability.utils_observability -->
<g id="edge7" class="edge">
<title>main&#45;&gt;observability.utils_observability</title>
<path fill="none" stroke="black" d="M76.32,-383.87C81.03,-332.12 101.49,-182.12 184,-99 184.61,-98.39 185.23,-97.79 185.87,-97.2"/>
<polygon fill="black" stroke="black" points="187.86,-100.09 193.67,-91.23 183.6,-94.53 187.86,-100.09"/>
</g>
<!-- routers.auth -->
<g id="node20" class="node">
<title>routers.auth</title>
<polygon fill="none" stroke="black" points="290.38,-534 226.38,-534 226.38,-498 290.38,-498 290.38,-534"/>
<text xml:space="preserve" text-anchor="middle" x="258.38" y="-512.12" font-family="Times,serif" font-size="10.00">routers.auth</text>
</g>
<!-- main&#45;&gt;routers.auth -->
<g id="edge8" class="edge">
<title>main&#45;&gt;routers.auth</title>
<path fill="none" stroke="black" d="M101.22,-409.46C115.53,-414.08 133.28,-420.71 148,-429 178.15,-445.99 208.65,-471.05 229.76,-489.92"/>
<polygon fill="black" stroke="black" points="227.32,-492.43 237.08,-496.57 232.03,-487.25 227.32,-492.43"/>
</g>
<!-- routers.pages -->
<g id="node21" class="node">
<title>routers.pages</title>
<polygon fill="none" stroke="black" points="293,-36 223.75,-36 223.75,0 293,0 293,-36"/>
<text xml:space="preserve" text-anchor="middle" x="258.38" y="-14.12" font-family="Times,serif" font-size="10.00">routers.pages</text>
</g>
<!-- main&#45;&gt;routers.pages -->
<g id="edge9" class="edge">
<title>main&#45;&gt;routers.pages</title>
<path fill="none" stroke="black" d="M75.17,-383.66C76.69,-325.84 89.18,-145.31 184,-45 191.68,-36.87 202.02,-31.18 212.5,-27.2"/>
<polygon fill="black" stroke="black" points="213.53,-30.55 221.94,-24.11 211.35,-23.89 213.53,-30.55"/>
</g>
<!-- routers.post -->
<g id="node22" class="node">
<title>routers.post</title>
<polygon fill="none" stroke="black" points="290,-759 226.75,-759 226.75,-723 290,-723 290,-759"/>
<text xml:space="preserve" text-anchor="middle" x="258.38" y="-737.12" font-family="Times,serif" font-size="10.00">routers.post</text>
</g>
<!-- main&#45;&gt;routers.post -->
<g id="edge10" class="edge">
<title>main&#45;&gt;routers.post</title>
<path fill="none" stroke="black" d="M101.45,-405.1C117.32,-408.38 136.57,-415.13 148,-429 211.27,-505.81 143.42,-559.13 184,-650 194.85,-674.3 213.84,-697.58 229.78,-714.52"/>
<polygon fill="black" stroke="black" points="227.25,-716.94 236.73,-721.68 232.28,-712.06 227.25,-716.94"/>
</g>
<!-- routers.root -->
<g id="node23" class="node">
<title>routers.root</title>
<polygon fill="none" stroke="black" points="483.75,-393 421.25,-393 421.25,-357 483.75,-357 483.75,-393"/>
<text xml:space="preserve" text-anchor="middle" x="452.5" y="-371.12" font-family="Times,serif" font-size="10.00">routers.root</text>
</g>
<!-- main&#45;&gt;routers.root -->
<g id="edge11" class="edge">
<title>main&#45;&gt;routers.root</title>
<path fill="none" stroke="black" d="M101.47,-400.1C165.95,-395.48 331.55,-383.6 409.61,-378"/>
<polygon fill="black" stroke="black" points="409.68,-381.51 419.4,-377.3 409.18,-374.53 409.68,-381.51"/>
</g>
<!-- routers.sessions -->
<g id="node24" class="node">
<title>routers.sessions</title>
<polygon fill="none" stroke="black" points="297.88,-641 218.88,-641 218.88,-605 297.88,-605 297.88,-641"/>
<text xml:space="preserve" text-anchor="middle" x="258.38" y="-619.12" font-family="Times,serif" font-size="10.00">routers.sessions</text>
</g>
<!-- main&#45;&gt;routers.sessions -->
<g id="edge12" class="edge">
<title>main&#45;&gt;routers.sessions</title>
<path fill="none" stroke="black" d="M101.48,-405.86C116.96,-409.41 135.79,-416.18 148,-429 184.65,-467.47 157.41,-497 184,-543 195.62,-563.1 213.04,-582.38 228,-596.98"/>
<polygon fill="black" stroke="black" points="225.24,-599.18 234.9,-603.53 230.06,-594.11 225.24,-599.18"/>
</g>
<!-- routers.vm -->
<g id="node25" class="node">
<title>routers.vm</title>
<polygon fill="none" stroke="black" points="287.75,-290 229,-290 229,-254 287.75,-254 287.75,-290"/>
<text xml:space="preserve" text-anchor="middle" x="258.38" y="-268.12" font-family="Times,serif" font-size="10.00">routers.vm</text>
</g>
<!-- main&#45;&gt;routers.vm -->
<g id="edge13" class="edge">
<title>main&#45;&gt;routers.vm</title>
<path fill="none" stroke="black" d="M100.74,-383.65C132.56,-360.97 186.84,-322.28 222.41,-296.92"/>
<polygon fill="black" stroke="black" points="224.12,-300 230.24,-291.35 220.06,-294.3 224.12,-300"/>
</g>
<!-- utils -->
<g id="node27" class="node">
<title>utils</title>
<polygon fill="none" stroke="black" points="677.38,-171 623.38,-171 623.38,-135 677.38,-135 677.38,-171"/>
<text xml:space="preserve" text-anchor="middle" x="650.38" y="-149.12" font-family="Times,serif" font-size="10.00">utils</text>
</g>
<!-- main&#45;&gt;utils -->
<g id="edge14" class="edge">
<title>main&#45;&gt;utils</title>
<path fill="none" stroke="black" d="M82.56,-383.51C97.07,-350.39 132.08,-281.06 184,-245 240.04,-206.08 283.46,-254.18 332.75,-207 372.67,-168.79 324.38,-120.93 368.75,-88 443.34,-32.63 557.43,-91.84 614.43,-128.5"/>
<polygon fill="black" stroke="black" points="612.19,-131.21 622.47,-133.78 616.03,-125.36 612.19,-131.21"/>
</g>
<!-- methods.auth.auth -->
<g id="node3" class="node">
<title>methods.auth.auth</title>
<polygon fill="none" stroke="black" points="498,-729 407,-729 407,-693 498,-693 498,-729"/>
<text xml:space="preserve" text-anchor="middle" x="452.5" y="-707.12" font-family="Times,serif" font-size="10.00">methods.auth.auth</text>
</g>
<!-- methods.auth.auth&#45;&gt;configs.config -->
<g id="edge15" class="edge">
<title>methods.auth.auth&#45;&gt;configs.config</title>
<path fill="none" stroke="black" d="M498.29,-693.31C599.54,-653.31 845.2,-556.27 948.38,-515.51"/>
<polygon fill="black" stroke="black" points="949.36,-518.89 957.38,-511.96 946.79,-512.38 949.36,-518.89"/>
</g>
<!-- methods.auth.auth&#45;&gt;methods.database.database -->
<g id="edge16" class="edge">
<title>methods.auth.auth&#45;&gt;methods.database.database</title>
<path fill="none" stroke="black" d="M498.15,-713.87C564.39,-718.12 689.43,-726.15 769.28,-731.28"/>
<polygon fill="black" stroke="black" points="769.01,-734.77 779.21,-731.92 769.46,-727.79 769.01,-734.77"/>
</g>
<!-- methods.database.models -->
<g id="node7" class="node">
<title>methods.database.models</title>
<polygon fill="none" stroke="black" points="710.12,-775 590.62,-775 590.62,-739 710.12,-739 710.12,-775"/>
<text xml:space="preserve" text-anchor="middle" x="650.38" y="-753.12" font-family="Times,serif" font-size="10.00">methods.database.models</text>
</g>
<!-- methods.auth.auth&#45;&gt;methods.database.models -->
<g id="edge17" class="edge">
<title>methods.auth.auth&#45;&gt;methods.database.models</title>
<path fill="none" stroke="black" d="M498.44,-721.55C522.36,-727.17 552.32,-734.21 579.23,-740.53"/>
<polygon fill="black" stroke="black" points="578.15,-743.87 588.69,-742.75 579.75,-737.05 578.15,-743.87"/>
</g>
<!-- methods.auth.email_verification -->
<g id="node4" class="node">
<title>methods.auth.email_verification</title>
<polygon fill="none" stroke="black" points="148,-474 0,-474 0,-438 148,-438 148,-474"/>
<text xml:space="preserve" text-anchor="middle" x="74" y="-452.12" font-family="Times,serif" font-size="10.00">methods.auth.email_verification</text>
</g>
<!-- methods.database.database&#45;&gt;configs.config -->
<g id="edge18" class="edge">
<title>methods.database.database&#45;&gt;configs.config</title>
<path fill="none" stroke="black" d="M881.1,-717.72C895.72,-708.88 911.75,-697.11 923,-683 960.87,-635.5 980.76,-565.8 989.53,-526.6"/>
<polygon fill="black" stroke="black" points="992.93,-527.46 991.59,-516.95 986.08,-526 992.93,-527.46"/>
</g>
<!-- methods.database.init_db -->
<g id="node6" class="node">
<title>methods.database.init_db</title>
<polygon fill="none" stroke="black" points="134.12,-528 13.88,-528 13.88,-492 134.12,-492 134.12,-528"/>
<text xml:space="preserve" text-anchor="middle" x="74" y="-506.12" font-family="Times,serif" font-size="10.00">methods.database.init_db</text>
</g>
<!-- methods.database.models&#45;&gt;methods.database.database -->
<g id="edge19" class="edge">
<title>methods.database.models&#45;&gt;methods.database.database</title>
<path fill="none" stroke="black" d="M710.62,-750.5C729.24,-748.46 750.04,-746.17 769.52,-744.04"/>
<polygon fill="black" stroke="black" points="769.75,-747.53 779.31,-742.96 768.98,-740.57 769.75,-747.53"/>
</g>
<!-- methods.manager -->
<g id="node8" class="node">
<title>methods.manager</title>
<polygon fill="none" stroke="black" points="496.12,-133 408.88,-133 408.88,-97 496.12,-97 496.12,-133"/>
<text xml:space="preserve" text-anchor="middle" x="452.5" y="-111.12" font-family="Times,serif" font-size="10.00">methods.manager</text>
</g>
<!-- methods.manager.OverlayManager -->
<g id="node9" class="node">
<title>methods.manager.OverlayManager</title>
<polygon fill="none" stroke="black" points="923,-166 764.5,-166 764.5,-130 923,-130 923,-166"/>
<text xml:space="preserve" text-anchor="middle" x="843.75" y="-144.12" font-family="Times,serif" font-size="10.00">methods.manager.OverlayManager</text>
</g>
<!-- methods.manager.OverlayManager&#45;&gt;configs.config -->
<g id="edge20" class="edge">
<title>methods.manager.OverlayManager&#45;&gt;configs.config</title>
<path fill="none" stroke="black" d="M852.76,-166.49C866.94,-199.24 897.38,-269.58 923,-329 944.12,-377.98 968.64,-435.03 983,-468.46"/>
<polygon fill="black" stroke="black" points="979.7,-469.65 986.86,-477.46 986.13,-466.89 979.7,-469.65"/>
</g>
<!-- methods.manager.ProcessManager -->
<g id="node10" class="node">
<title>methods.manager.ProcessManager</title>
<polygon fill="none" stroke="black" points="728.12,-225 572.62,-225 572.62,-189 728.12,-189 728.12,-225"/>
<text xml:space="preserve" text-anchor="middle" x="650.38" y="-203.12" font-family="Times,serif" font-size="10.00">methods.manager.ProcessManager</text>
</g>
<!-- methods.manager.SessionManager&#45;&gt;configs.config -->
<g id="edge21" class="edge">
<title>methods.manager.SessionManager&#45;&gt;configs.config</title>
<path fill="none" stroke="black" d="M728.86,-458.58C783.31,-464.29 857.78,-472.85 923,-483 930.89,-484.23 939.24,-485.69 947.35,-487.2"/>
<polygon fill="black" stroke="black" points="946.62,-490.63 957.1,-489.07 947.94,-483.75 946.62,-490.63"/>
</g>
<!-- methods.manager.WebsockifyService -->
<g id="node12" class="node">
<title>methods.manager.WebsockifyService</title>
<polygon fill="none" stroke="black" points="536.25,-225 368.75,-225 368.75,-189 536.25,-189 536.25,-225"/>
<text xml:space="preserve" text-anchor="middle" x="452.5" y="-203.12" font-family="Times,serif" font-size="10.00">methods.manager.WebsockifyService</text>
</g>
<!-- methods.manager.WebsockifyService&#45;&gt;methods.manager.ProcessManager -->
<g id="edge22" class="edge">
<title>methods.manager.WebsockifyService&#45;&gt;methods.manager.ProcessManager</title>
<path fill="none" stroke="black" d="M536.57,-207C544.65,-207 552.87,-207 560.99,-207"/>
<polygon fill="black" stroke="black" points="560.89,-210.5 570.89,-207 560.89,-203.5 560.89,-210.5"/>
</g>
<!-- methods.manager.WebsockifyService&#45;&gt;methods.manager.SessionManager -->
<g id="edge23" class="edge">
<title>methods.manager.WebsockifyService&#45;&gt;methods.manager.SessionManager</title>
<path fill="none" stroke="black" d="M479.09,-225.49C496.37,-238.7 519.08,-257.52 536.25,-277 577.46,-323.74 614.61,-386.73 634.39,-422.69"/>
<polygon fill="black" stroke="black" points="631.15,-424.06 639,-431.18 637.3,-420.72 631.15,-424.06"/>
</g>
<!-- methods.manager.WebsockifyService&#45;&gt;utils -->
<g id="edge24" class="edge">
<title>methods.manager.WebsockifyService&#45;&gt;utils</title>
<path fill="none" stroke="black" d="M520.36,-188.57C551.06,-180.1 586.31,-170.39 612.19,-163.25"/>
<polygon fill="black" stroke="black" points="612.85,-166.7 621.56,-160.67 610.99,-159.95 612.85,-166.7"/>
</g>
<!-- observability -->
<g id="node13" class="node">
<title>observability</title>
<polygon fill="none" stroke="black" points="109,-582 39,-582 39,-546 109,-546 109,-582"/>
<text xml:space="preserve" text-anchor="middle" x="74" y="-560.12" font-family="Times,serif" font-size="10.00">observability</text>
</g>
<!-- observability.http_metrics -->
<g id="node16" class="node">
<title>observability.http_metrics</title>
<polygon fill="none" stroke="black" points="135.25,-636 12.75,-636 12.75,-600 135.25,-600 135.25,-636"/>
<text xml:space="preserve" text-anchor="middle" x="74" y="-614.12" font-family="Times,serif" font-size="10.00">observability.http_metrics</text>
</g>
<!-- observability.metrics&#45;&gt;methods.database.database -->
<g id="edge25" class="edge">
<title>observability.metrics&#45;&gt;methods.database.database</title>
<path fill="none" stroke="black" d="M503.28,-862.89C558.64,-844.72 650.53,-813.81 728.5,-784 748.85,-776.22 770.97,-767.09 790.28,-758.89"/>
<polygon fill="black" stroke="black" points="791.48,-762.18 799.3,-755.04 788.73,-755.74 791.48,-762.18"/>
</g>
<!-- observability.metrics&#45;&gt;methods.database.models -->
<g id="edge26" class="edge">
<title>observability.metrics&#45;&gt;methods.database.models</title>
<path fill="none" stroke="black" d="M503.2,-862.59C514.37,-858.14 525.96,-852.9 536.25,-847 567.83,-828.9 599.93,-802.42 621.83,-782.87"/>
<polygon fill="black" stroke="black" points="624.09,-785.55 629.15,-776.24 619.39,-780.36 624.09,-785.55"/>
</g>
<!-- observability.metrics&#45;&gt;methods.manager.SessionManager -->
<g id="edge27" class="edge">
<title>observability.metrics&#45;&gt;methods.manager.SessionManager</title>
<path fill="none" stroke="black" d="M465.42,-860.8C482.41,-834.42 514.01,-783.68 536.25,-738 580.82,-646.45 621.58,-532.59 639.61,-480.05"/>
<polygon fill="black" stroke="black" points="642.9,-481.24 642.82,-470.65 636.28,-478.98 642.9,-481.24"/>
</g>
<!-- observability.ops_metrics -->
<g id="node18" class="node">
<title>observability.ops_metrics</title>
<polygon fill="none" stroke="black" points="134.12,-690 13.88,-690 13.88,-654 134.12,-654 134.12,-690"/>
<text xml:space="preserve" text-anchor="middle" x="74" y="-668.12" font-family="Times,serif" font-size="10.00">observability.ops_metrics</text>
</g>
<!-- routers.auth&#45;&gt;configs.config -->
<g id="edge28" class="edge">
<title>routers.auth&#45;&gt;configs.config</title>
<path fill="none" stroke="black" d="M290.52,-515.2C405.74,-512.22 808.25,-501.83 947.45,-498.23"/>
<polygon fill="black" stroke="black" points="947.13,-501.74 957.04,-497.99 946.95,-494.75 947.13,-501.74"/>
</g>
<!-- routers.auth&#45;&gt;methods.auth.auth -->
<g id="edge29" class="edge">
<title>routers.auth&#45;&gt;methods.auth.auth</title>
<path fill="none" stroke="black" d="M276.94,-534.43C292.03,-550.44 314.23,-574.39 332.75,-596 349.42,-615.45 350.89,-622.64 368.75,-641 384.11,-656.78 402.72,-672.77 418.4,-685.47"/>
<polygon fill="black" stroke="black" points="416.06,-688.08 426.06,-691.59 420.43,-682.61 416.06,-688.08"/>
</g>
<!-- routers.auth&#45;&gt;methods.database.database -->
<g id="edge30" class="edge">
<title>routers.auth&#45;&gt;methods.database.database</title>
<path fill="none" stroke="black" d="M290.49,-532.63C312.13,-543.87 341.81,-558.68 368.75,-570 509.09,-628.96 678.47,-684.71 772.01,-714.2"/>
<polygon fill="black" stroke="black" points="770.72,-717.47 781.31,-717.13 772.82,-710.79 770.72,-717.47"/>
</g>
<!-- routers.auth&#45;&gt;methods.database.models -->
<g id="edge31" class="edge">
<title>routers.auth&#45;&gt;methods.database.models</title>
<path fill="none" stroke="black" d="M281.13,-534.21C297.65,-549.17 319.67,-571.79 332.75,-596 363.69,-653.28 318.75,-696.3 368.75,-738 399.54,-763.68 506.3,-764.23 578.9,-761.33"/>
<polygon fill="black" stroke="black" points="578.89,-764.83 588.73,-760.9 578.58,-757.84 578.89,-764.83"/>
</g>
<!-- routers.auth&#45;&gt;methods.manager.SessionManager -->
<g id="edge32" class="edge">
<title>routers.auth&#45;&gt;methods.manager.SessionManager</title>
<path fill="none" stroke="black" d="M290.58,-504.95C312.25,-497.68 341.94,-488.53 368.75,-483 432.33,-469.89 505.19,-461.79 560.74,-457.01"/>
<polygon fill="black" stroke="black" points="560.78,-460.52 570.45,-456.2 560.2,-453.54 560.78,-460.52"/>
</g>
<!-- security.recaptcha -->
<g id="node26" class="node">
<title>security.recaptcha</title>
<polygon fill="none" stroke="black" points="496.88,-561 408.12,-561 408.12,-525 496.88,-525 496.88,-561"/>
<text xml:space="preserve" text-anchor="middle" x="452.5" y="-539.12" font-family="Times,serif" font-size="10.00">security.recaptcha</text>
</g>
<!-- routers.auth&#45;&gt;security.recaptcha -->
<g id="edge33" class="edge">
<title>routers.auth&#45;&gt;security.recaptcha</title>
<path fill="none" stroke="black" d="M290.67,-520.4C319.23,-524.41 362.1,-530.44 396.39,-535.26"/>
<polygon fill="black" stroke="black" points="395.77,-538.7 406.16,-536.63 396.75,-531.77 395.77,-538.7"/>
</g>
<!-- routers.auth&#45;&gt;utils -->
<g id="edge34" class="edge">
<title>routers.auth&#45;&gt;utils</title>
<path fill="none" stroke="black" d="M265.76,-497.78C278.75,-460.55 309.04,-373.04 332.75,-299 349.6,-246.38 326.01,-215.02 368.75,-180 405,-150.3 544.05,-149.92 611.81,-151.62"/>
<polygon fill="black" stroke="black" points="611.6,-155.12 621.7,-151.9 611.8,-148.12 611.6,-155.12"/>
</g>
<!-- routers.post&#45;&gt;configs.config -->
<g id="edge35" class="edge">
<title>routers.post&#45;&gt;configs.config</title>
<path fill="none" stroke="black" d="M263.51,-759.33C273.56,-799.01 303.4,-892.31 368.75,-930 508.81,-1010.77 579.59,-938.97 728.5,-876 820.58,-837.06 862.11,-842.29 923,-763 978.43,-690.82 991.38,-579.07 994.37,-526.39"/>
<polygon fill="black" stroke="black" points="997.85,-526.87 994.83,-516.71 990.86,-526.53 997.85,-526.87"/>
</g>
<!-- routers.post&#45;&gt;methods.auth.auth -->
<g id="edge36" class="edge">
<title>routers.post&#45;&gt;methods.auth.auth</title>
<path fill="none" stroke="black" d="M290.24,-736.18C318.55,-731.76 361.15,-725.11 395.46,-719.75"/>
<polygon fill="black" stroke="black" points="395.91,-723.22 405.25,-718.22 394.83,-716.31 395.91,-723.22"/>
</g>
<!-- routers.post&#45;&gt;methods.database.database -->
<g id="edge37" class="edge">
<title>routers.post&#45;&gt;methods.database.database</title>
<path fill="none" stroke="black" d="M264.99,-759.24C277.15,-795.16 309.7,-874.3 368.75,-906 434.34,-941.21 463.25,-920.58 536.25,-906 627,-887.87 648.69,-872.85 728.5,-826 759.89,-807.58 792.15,-781.37 814.35,-761.98"/>
<polygon fill="black" stroke="black" points="816.62,-764.64 821.79,-755.4 811.98,-759.4 816.62,-764.64"/>
</g>
<!-- routers.post&#45;&gt;methods.database.models -->
<g id="edge38" class="edge">
<title>routers.post&#45;&gt;methods.database.models</title>
<path fill="none" stroke="black" d="M280.65,-759.32C301.5,-775.97 334.99,-799.36 368.75,-809 440.33,-829.44 463.53,-824.91 536.25,-809 561.54,-803.47 587.93,-791.73 608.85,-780.8"/>
<polygon fill="black" stroke="black" points="610.47,-783.91 617.62,-776.09 607.15,-777.74 610.47,-783.91"/>
</g>
<!-- routers.post&#45;&gt;methods.manager.SessionManager -->
<g id="edge39" class="edge">
<title>routers.post&#45;&gt;methods.manager.SessionManager</title>
<path fill="none" stroke="black" d="M290.26,-724.33C312.05,-712.72 341.99,-697.03 368.75,-684 442.25,-648.21 473,-659.8 536.25,-608 580.77,-571.54 616.36,-513.59 635.03,-479.22"/>
<polygon fill="black" stroke="black" points="637.96,-481.17 639.57,-470.7 631.78,-477.89 637.96,-481.17"/>
</g>
<!-- routers.root&#45;&gt;methods.manager.SessionManager -->
<g id="edge40" class="edge">
<title>routers.root&#45;&gt;methods.manager.SessionManager</title>
<path fill="none" stroke="black" d="M484.16,-386.84C499.76,-392.87 519.02,-400.32 536.25,-407 554.32,-414.01 574,-421.66 591.81,-428.58"/>
<polygon fill="black" stroke="black" points="590.05,-431.66 600.64,-432.02 592.59,-425.13 590.05,-431.66"/>
</g>
<!-- routers.sessions&#45;&gt;methods.auth.auth -->
<g id="edge41" class="edge">
<title>routers.sessions&#45;&gt;methods.auth.auth</title>
<path fill="none" stroke="black" d="M298.25,-640.81C327.94,-654.4 369.07,-673.24 401.25,-687.98"/>
<polygon fill="black" stroke="black" points="399.43,-691 409.98,-691.98 402.35,-684.64 399.43,-691"/>
</g>
<!-- routers.sessions&#45;&gt;methods.database.models -->
<g id="edge42" class="edge">
<title>routers.sessions&#45;&gt;methods.database.models</title>
<path fill="none" stroke="black" d="M275.2,-641.33C290.52,-659.37 314.09,-687.92 332.75,-714 350.18,-738.37 342.51,-756.54 368.75,-771 435.51,-807.8 525.34,-794.45 585.19,-778.47"/>
<polygon fill="black" stroke="black" points="585.85,-781.92 594.55,-775.87 583.97,-775.18 585.85,-781.92"/>
</g>
<!-- routers.sessions&#45;&gt;methods.manager.SessionManager -->
<g id="edge43" class="edge">
<title>routers.sessions&#45;&gt;methods.manager.SessionManager</title>
<path fill="none" stroke="black" d="M298.12,-622.91C354.05,-621.22 459.15,-612.11 536.25,-570 576.75,-547.88 611.27,-506.14 631.18,-478.44"/>
<polygon fill="black" stroke="black" points="633.85,-480.73 636.73,-470.53 628.12,-476.71 633.85,-480.73"/>
</g>
<!-- routers.vm&#45;&gt;configs.config -->
<g id="edge44" class="edge">
<title>routers.vm&#45;&gt;configs.config</title>
<path fill="none" stroke="black" d="M287.82,-253.6C303.41,-242.05 321.76,-225.8 332.75,-207 371.07,-141.45 309.67,-87.7 368.75,-40 378.82,-31.87 716.32,-41.55 728.5,-44 819.64,-62.37 863.69,-49.4 923,-121 967.07,-174.19 987.2,-388.83 993.22,-467.72"/>
<polygon fill="black" stroke="black" points="989.7,-467.54 993.92,-477.25 996.68,-467.02 989.7,-467.54"/>
</g>
<!-- routers.vm&#45;&gt;methods.auth.auth -->
<g id="edge45" class="edge">
<title>routers.vm&#45;&gt;methods.auth.auth</title>
<path fill="none" stroke="black" d="M264.82,-290.26C279.19,-337.57 320.38,-467.59 368.75,-570 388.07,-610.92 415.42,-655.55 433.31,-683.41"/>
<polygon fill="black" stroke="black" points="430.24,-685.11 438.61,-691.6 436.11,-681.31 430.24,-685.11"/>
</g>
<!-- routers.vm&#45;&gt;methods.database.database -->
<g id="edge46" class="edge">
<title>routers.vm&#45;&gt;methods.database.database</title>
<path fill="none" stroke="black" d="M287.94,-265.06C339.37,-253.94 450.21,-236.33 536.25,-267 640.16,-304.04 664.54,-334.12 728.5,-424 793.58,-515.46 825.74,-648.15 837.42,-706.54"/>
<polygon fill="black" stroke="black" points="833.92,-706.88 839.26,-716.03 840.79,-705.55 833.92,-706.88"/>
</g>
<!-- routers.vm&#45;&gt;methods.database.models -->
<g id="edge47" class="edge">
<title>routers.vm&#45;&gt;methods.database.models</title>
<path fill="none" stroke="black" d="M288,-281.76C309.97,-289.11 341.12,-299.21 368.75,-307 442.51,-327.8 481.25,-294.62 536.25,-348 536.25,-348 615.37,-634.05 641.27,-727.71"/>
<polygon fill="black" stroke="black" points="637.85,-728.47 643.89,-737.17 644.6,-726.6 637.85,-728.47"/>
</g>
<!-- routers.vm&#45;&gt;methods.manager -->
<g id="edge48" class="edge">
<title>routers.vm&#45;&gt;methods.manager</title>
<path fill="none" stroke="black" d="M287.91,-265.29C302.95,-260.46 320.73,-252.54 332.75,-240 363.43,-208.01 337.4,-178.34 368.75,-147 376.84,-138.91 387.2,-132.83 397.83,-128.26"/>
<polygon fill="black" stroke="black" points="398.97,-131.57 407.06,-124.72 396.47,-125.03 398.97,-131.57"/>
</g>
<!-- routers.vm&#45;&gt;methods.manager.OverlayManager -->
<g id="edge49" class="edge">
<title>routers.vm&#45;&gt;methods.manager.OverlayManager</title>
<path fill="none" stroke="black" d="M286.89,-253.53C302.37,-241.85 320.91,-225.48 332.75,-207 362.56,-160.47 324.38,-120.93 368.75,-88 499.93,9.37 709.82,-78.6 799.67,-124.36"/>
<polygon fill="black" stroke="black" points="797.93,-127.4 808.42,-128.88 801.14,-121.18 797.93,-127.4"/>
</g>
<!-- routers.vm&#45;&gt;methods.manager.SessionManager -->
<g id="edge50" class="edge">
<title>routers.vm&#45;&gt;methods.manager.SessionManager</title>
<path fill="none" stroke="black" d="M288.23,-270.05C341.08,-267.8 455.41,-269.2 536.25,-315 581.14,-340.44 615.83,-391.06 634.38,-422.86"/>
<polygon fill="black" stroke="black" points="631.32,-424.56 639.29,-431.54 637.41,-421.11 631.32,-424.56"/>
</g>
<!-- routers.vm&#45;&gt;methods.manager.WebsockifyService -->
<g id="edge51" class="edge">
<title>routers.vm&#45;&gt;methods.manager.WebsockifyService</title>
<path fill="none" stroke="black" d="M288.14,-262.27C314.02,-253.51 353,-240.33 386.39,-229.03"/>
<polygon fill="black" stroke="black" points="387.23,-232.44 395.58,-225.92 384.98,-225.81 387.23,-232.44"/>
</g>
<!-- utils&#45;&gt;configs.config -->
<g id="edge52" class="edge">
<title>utils&#45;&gt;configs.config</title>
<path fill="none" stroke="black" d="M677.64,-158.48C693.37,-162.62 713.2,-169.45 728.5,-180 846.3,-261.29 942.14,-407.73 978.98,-468.93"/>
<polygon fill="black" stroke="black" points="975.88,-470.56 984,-477.37 981.89,-466.98 975.88,-470.56"/>
</g>
</g>
</svg>
