<?xml version="1.0" encoding="UTF-8" standalone="no"?>
<!DOCTYPE svg PUBLIC "-//W3C//DTD SVG 1.1//EN"
 "http://www.w3.org/Graphics/SVG/1.1/DTD/svg11.dtd">
<!-- Generated by graphviz version 13.1.1 (20250719.2154)
 -->
<!-- Title: python_deps Pages: 1 -->
<svg width="1042pt" height="1155pt"
 viewBox="0.00 0.00 1042.00 1155.00" xmlns="http://www.w3.org/2000/svg" xmlns:xlink="http://www.w3.org/1999/xlink">
<g id="graph0" class="graph" transform="scale(1 1) rotate(0) translate(4 1150.87)">
<title>python_deps</title>
<polygon fill="white" stroke="none" points="-4,4 -4,-1150.87 1037.5,-1150.87 1037.5,4 -4,4"/>
<!-- configs.config -->
<g id="node1" class="node">
<title>configs.config</title>
<polygon fill="none" stroke="black" points="1033.5,-601 959,-601 959,-565 1033.5,-565 1033.5,-601"/>
<text xml:space="preserve" text-anchor="middle" x="996.25" y="-579.12" font-family="Times,serif" font-size="10.00">configs.config</text>
</g>
<!-- main -->
<g id="node2" class="node">
<title>main</title>
<polygon fill="none" stroke="black" points="101,-527 47,-527 47,-491 101,-491 101,-527"/>
<text xml:space="preserve" text-anchor="middle" x="74" y="-505.12" font-family="Times,serif" font-size="10.00">main</text>
</g>
<!-- main&#45;&gt;configs.config -->
<g id="edge1" class="edge">
<title>main&#45;&gt;configs.config</title>
<path fill="none" stroke="black" d="M101.18,-511.6C117.37,-514.68 137.07,-521.39 148,-536 218.2,-629.8 111.48,-969.98 184,-1062 261.13,-1159.87 326.89,-1146 451.5,-1146 451.5,-1146 451.5,-1146 651.38,-1146 789.71,-1146 842.92,-1106.81 923,-994 966.92,-932.12 987.34,-696.33 993.31,-612.66"/>
<polygon fill="black" stroke="black" points="996.8,-612.97 994,-602.75 989.81,-612.49 996.8,-612.97"/>
</g>
<!-- methods.database.database -->
<g id="node5" class="node">
<title>methods.database.database</title>
<polygon fill="none" stroke="black" points="906.5,-859 781,-859 781,-823 906.5,-823 906.5,-859"/>
<text xml:space="preserve" text-anchor="middle" x="843.75" y="-837.12" font-family="Times,serif" font-size="10.00">methods.database.database</text>
</g>
<!-- main&#45;&gt;methods.database.database -->
<g id="edge2" class="edge">
<title>main&#45;&gt;methods.database.database</title>
<path fill="none" stroke="black" d="M101.14,-511.64C117.31,-514.73 137.01,-521.44 148,-536 210.59,-618.88 110.7,-928.41 184,-1002 355.04,-1173.71 520.84,-1096.98 728.5,-972 771.24,-946.28 806.43,-899.15 825.99,-868.99"/>
<polygon fill="black" stroke="black" points="828.81,-871.06 831.2,-860.74 822.9,-867.32 828.81,-871.06"/>
</g>
<!-- methods.manager.SessionManager -->
<g id="node11" class="node">
<title>methods.manager.SessionManager</title>
<polygon fill="none" stroke="black" points="728.5,-576 572.25,-576 572.25,-540 728.5,-540 728.5,-576"/>
<text xml:space="preserve" text-anchor="middle" x="650.38" y="-554.12" font-family="Times,serif" font-size="10.00">methods.manager.SessionManager</text>
</g>
<!-- main&#45;&gt;methods.manager.SessionManager -->
<g id="edge3" class="edge">
<title>main&#45;&gt;methods.manager.SessionManager</title>
<path fill="none" stroke="black" d="M101.17,-511.23C181.46,-518.08 426.9,-539.02 560.48,-550.42"/>
<polygon fill="black" stroke="black" points="560.1,-553.9 570.36,-551.26 560.7,-546.92 560.1,-553.9"/>
</g>
<!-- observability.db_metrics -->
<g id="node14" class="node">
<title>observability.db_metrics</title>
<polygon fill="none" stroke="black" points="316.62,-144 200.12,-144 200.12,-108 316.62,-108 316.62,-144"/>
<text xml:space="preserve" text-anchor="middle" x="258.38" y="-122.12" font-family="Times,serif" font-size="10.00">observability.db_metrics</text>
</g>
<!-- main&#45;&gt;observability.db_metrics -->
<g id="edge4" class="edge">
<title>main&#45;&gt;observability.db_metrics</title>
<path fill="none" stroke="black" d="M75.18,-490.71C76.76,-433.05 89.38,-253.02 184,-153 185.96,-150.93 188.09,-149.02 190.35,-147.25"/>
<polygon fill="black" stroke="black" points="191.95,-150.39 198.37,-141.97 188.1,-144.54 191.95,-150.39"/>
</g>
<!-- observability.grafana_proxy -->
<g id="node15" class="node">
<title>observability.grafana_proxy</title>
<polygon fill="none" stroke="black" points="323.75,-90 193,-90 193,-54 323.75,-54 323.75,-90"/>
<text xml:space="preserve" text-anchor="middle" x="258.38" y="-68.12" font-family="Times,serif" font-size="10.00">observability.grafana_proxy</text>
</g>
<!-- main&#45;&gt;observability.grafana_proxy -->
<g id="edge5" class="edge">
<title>main&#45;&gt;observability.grafana_proxy</title>
<path fill="none" stroke="black" d="M74.3,-490.71C72.91,-427.63 76.84,-216.59 184,-99 184.37,-98.6 184.74,-98.2 185.12,-97.81"/>
<polygon fill="black" stroke="black" points="187.3,-100.55 192.71,-91.44 182.8,-95.19 187.3,-100.55"/>
</g>
<!-- observability.metrics -->
<g id="node17" class="node">
<title>observability.metrics</title>
<polygon fill="none" stroke="black" points="502.88,-836 402.12,-836 402.12,-800 502.88,-800 502.88,-836"/>
<text xml:space="preserve" text-anchor="middle" x="452.5" y="-814.12" font-family="Times,serif" font-size="10.00">observability.metrics</text>
</g>
<!-- main&#45;&gt;observability.metrics -->
<g id="edge6" class="edge">
<title>main&#45;&gt;observability.metrics</title>
<path fill="none" stroke="black" d="M101.17,-512.74C116.73,-516.25 135.76,-523.03 148,-536 185.63,-575.88 150.45,-610.63 184,-654 237.85,-723.6 330.26,-770.67 391.12,-795.93"/>
<polygon fill="black" stroke="black" points="389.74,-799.14 400.33,-799.67 392.38,-792.66 389.74,-799.14"/>
</g>
<!-- observability.utils_observability -->
<g id="node20" class="node">
<title>observability.utils_observability</title>
<polygon fill="none" stroke="black" points="332.75,-198 184,-198 184,-162 332.75,-162 332.75,-198"/>
<text xml:space="preserve" text-anchor="middle" x="258.38" y="-176.12" font-family="Times,serif" font-size="10.00">observability.utils_observability</text>
</g>
<!-- main&#45;&gt;observability.utils_observability -->
<g id="edge7" class="edge">
<title>main&#45;&gt;observability.utils_observability</title>
<path fill="none" stroke="black" d="M76.75,-490.73C82.55,-439.94 105.47,-295.35 184,-212 186.53,-209.32 189.31,-206.85 192.29,-204.58"/>
<polygon fill="black" stroke="black" points="194.01,-207.63 200.4,-199.18 190.14,-201.81 194.01,-207.63"/>
</g>
<!-- routers.auth -->
<g id="node21" class="node">
<title>routers.auth</title>
<polygon fill="none" stroke="black" points="290.38,-645 226.38,-645 226.38,-609 290.38,-609 290.38,-645"/>
<text xml:space="preserve" text-anchor="middle" x="258.38" y="-623.12" font-family="Times,serif" font-size="10.00">routers.auth</text>
</g>
<!-- main&#45;&gt;routers.auth -->
<g id="edge8" class="edge">
<title>main&#45;&gt;routers.auth</title>
<path fill="none" stroke="black" d="M101.3,-516.33C115.63,-520.91 133.38,-527.55 148,-536 179.2,-554.04 210.36,-581.07 231.4,-600.99"/>
<polygon fill="black" stroke="black" points="228.77,-603.31 238.4,-607.73 233.62,-598.27 228.77,-603.31"/>
</g>
<!-- routers.pages -->
<g id="node22" class="node">
<title>routers.pages</title>
<polygon fill="none" stroke="black" points="293,-36 223.75,-36 223.75,0 293,0 293,-36"/>
<text xml:space="preserve" text-anchor="middle" x="258.38" y="-14.12" font-family="Times,serif" font-size="10.00">routers.pages</text>
</g>
<!-- main&#45;&gt;routers.pages -->
<g id="edge9" class="edge">
<title>main&#45;&gt;routers.pages</title>
<path fill="none" stroke="black" d="M77.01,-490.52C85.78,-412.88 123.06,-113.86 184,-45 191.56,-36.46 202.05,-30.62 212.75,-26.62"/>
<polygon fill="black" stroke="black" points="213.51,-30.06 221.97,-23.67 211.38,-23.39 213.51,-30.06"/>
</g>
<!-- routers.post -->
<g id="node23" class="node">
<title>routers.post</title>
<polygon fill="none" stroke="black" points="290,-993 226.75,-993 226.75,-957 290,-957 290,-993"/>
<text xml:space="preserve" text-anchor="middle" x="258.38" y="-971.12" font-family="Times,serif" font-size="10.00">routers.post</text>
</g>
<!-- main&#45;&gt;routers.post -->
<g id="edge10" class="edge">
<title>main&#45;&gt;routers.post</title>
<path fill="none" stroke="black" d="M101.36,-511.82C117.4,-514.98 136.88,-521.71 148,-536 194.39,-595.61 156.88,-803.5 184,-874 194.75,-901.94 215.26,-929.13 231.87,-948.25"/>
<polygon fill="black" stroke="black" points="229.13,-950.44 238.4,-955.57 234.35,-945.78 229.13,-950.44"/>
</g>
<!-- routers.root -->
<g id="node24" class="node">
<title>routers.root</title>
<polygon fill="none" stroke="black" points="483.75,-500 421.25,-500 421.25,-464 483.75,-464 483.75,-500"/>
<text xml:space="preserve" text-anchor="middle" x="452.5" y="-478.12" font-family="Times,serif" font-size="10.00">routers.root</text>
</g>
<!-- main&#45;&gt;routers.root -->
<g id="edge11" class="edge">
<title>main&#45;&gt;routers.root</title>
<path fill="none" stroke="black" d="M101.47,-507.1C165.95,-502.48 331.55,-490.6 409.61,-485"/>
<polygon fill="black" stroke="black" points="409.68,-488.51 419.4,-484.3 409.18,-481.53 409.68,-488.51"/>
</g>
<!-- routers.sessions -->
<g id="node25" class="node">
<title>routers.sessions</title>
<polygon fill="none" stroke="black" points="297.88,-865 218.88,-865 218.88,-829 297.88,-829 297.88,-865"/>
<text xml:space="preserve" text-anchor="middle" x="258.38" y="-843.12" font-family="Times,serif" font-size="10.00">routers.sessions</text>
</g>
<!-- main&#45;&gt;routers.sessions -->
<g id="edge12" class="edge">
<title>main&#45;&gt;routers.sessions</title>
<path fill="none" stroke="black" d="M101.46,-512.09C117.33,-515.37 136.59,-522.12 148,-536 212.02,-613.9 141.97,-668.35 184,-760 194.59,-783.09 213.06,-804.94 228.81,-820.96"/>
<polygon fill="black" stroke="black" points="226.09,-823.19 235.67,-827.72 231,-818.21 226.09,-823.19"/>
</g>
<!-- routers.vm -->
<g id="node26" class="node">
<title>routers.vm</title>
<polygon fill="none" stroke="black" points="287.75,-378 229,-378 229,-342 287.75,-342 287.75,-378"/>
<text xml:space="preserve" text-anchor="middle" x="258.38" y="-356.12" font-family="Times,serif" font-size="10.00">routers.vm</text>
</g>
<!-- main&#45;&gt;routers.vm -->
<g id="edge13" class="edge">
<title>main&#45;&gt;routers.vm</title>
<path fill="none" stroke="black" d="M97.36,-490.73C129.63,-464.37 189.39,-415.54 226.04,-385.6"/>
<polygon fill="black" stroke="black" points="228.13,-388.41 233.66,-379.38 223.7,-382.99 228.13,-388.41"/>
</g>
<!-- utils -->
<g id="node28" class="node">
<title>utils</title>
<polygon fill="none" stroke="black" points="677.38,-313 623.38,-313 623.38,-277 677.38,-277 677.38,-313"/>
<text xml:space="preserve" text-anchor="middle" x="650.38" y="-291.12" font-family="Times,serif" font-size="10.00">utils</text>
</g>
<!-- main&#45;&gt;utils -->
<g id="edge14" class="edge">
<title>main&#45;&gt;utils</title>
<path fill="none" stroke="black" d="M83.54,-490.51C99.77,-456.67 137.62,-383.61 184,-333 253.25,-257.44 271.49,-227.32 368.75,-195 439.4,-171.53 470.61,-159.87 536.25,-195 561.68,-208.61 551.35,-229.12 572.25,-249 584.13,-260.3 599.27,-270.08 612.99,-277.68"/>
<polygon fill="black" stroke="black" points="611.31,-280.75 621.78,-282.35 614.59,-274.57 611.31,-280.75"/>
</g>
<!-- methods.auth.auth -->
<g id="node3" class="node">
<title>methods.auth.auth</title>
<polygon fill="none" stroke="black" points="498,-966 407,-966 407,-930 498,-930 498,-966"/>
<text xml:space="preserve" text-anchor="middle" x="452.5" y="-944.12" font-family="Times,serif" font-size="10.00">methods.auth.auth</text>
</g>
<!-- methods.auth.auth&#45;&gt;configs.config -->
<g id="edge15" class="edge">
<title>methods.auth.auth&#45;&gt;configs.config</title>
<path fill="none" stroke="black" d="M498.4,-955.81C592.19,-969.27 809.54,-985.16 923,-868 958.6,-831.24 982.76,-677.21 991.56,-612.18"/>
<polygon fill="black" stroke="black" points="994.98,-612.99 992.82,-602.62 988.04,-612.07 994.98,-612.99"/>
</g>
<!-- methods.auth.auth&#45;&gt;methods.database.database -->
<g id="edge16" class="edge">
<title>methods.auth.auth&#45;&gt;methods.database.database</title>
<path fill="none" stroke="black" d="M498.05,-941.69C553.05,-933.24 649.06,-916.31 728.5,-891 751.16,-883.78 775.41,-873.55 795.71,-864.22"/>
<polygon fill="black" stroke="black" points="796.99,-867.49 804.57,-860.09 794.03,-861.15 796.99,-867.49"/>
</g>
<!-- methods.database.models -->
<g id="node7" class="node">
<title>methods.database.models</title>
<polygon fill="none" stroke="black" points="710.12,-882 590.62,-882 590.62,-846 710.12,-846 710.12,-882"/>
<text xml:space="preserve" text-anchor="middle" x="650.38" y="-860.12" font-family="Times,serif" font-size="10.00">methods.database.models</text>
</g>
<!-- methods.auth.auth&#45;&gt;methods.database.models -->
<g id="edge17" class="edge">
<title>methods.auth.auth&#45;&gt;methods.database.models</title>
<path fill="none" stroke="black" d="M498.21,-932.01C510.67,-927.2 524.11,-921.68 536.25,-916 552.83,-908.24 555.77,-903.96 572.25,-896 578.59,-892.94 585.3,-889.88 592.01,-886.95"/>
<polygon fill="black" stroke="black" points="593.3,-890.2 601.11,-883.04 590.54,-883.77 593.3,-890.2"/>
</g>
<!-- methods.auth.email_verification -->
<g id="node4" class="node">
<title>methods.auth.email_verification</title>
<polygon fill="none" stroke="black" points="148,-581 0,-581 0,-545 148,-545 148,-581"/>
<text xml:space="preserve" text-anchor="middle" x="74" y="-559.12" font-family="Times,serif" font-size="10.00">methods.auth.email_verification</text>
</g>
<!-- methods.database.database&#45;&gt;configs.config -->
<g id="edge18" class="edge">
<title>methods.database.database&#45;&gt;configs.config</title>
<path fill="none" stroke="black" d="M855.33,-822.86C881.18,-778.56 947.66,-664.59 978.75,-611.28"/>
<polygon fill="black" stroke="black" points="981.7,-613.18 983.71,-602.77 975.65,-609.65 981.7,-613.18"/>
</g>
<!-- methods.database.init_db -->
<g id="node6" class="node">
<title>methods.database.init_db</title>
<polygon fill="none" stroke="black" points="134.12,-635 13.88,-635 13.88,-599 134.12,-599 134.12,-635"/>
<text xml:space="preserve" text-anchor="middle" x="74" y="-613.12" font-family="Times,serif" font-size="10.00">methods.database.init_db</text>
</g>
<!-- methods.database.models&#45;&gt;methods.database.database -->
<g id="edge19" class="edge">
<title>methods.database.models&#45;&gt;methods.database.database</title>
<path fill="none" stroke="black" d="M710.62,-856.88C729.24,-854.64 750.04,-852.14 769.52,-849.8"/>
<polygon fill="black" stroke="black" points="769.8,-853.29 779.31,-848.62 768.96,-846.34 769.8,-853.29"/>
</g>
<!-- methods.manager -->
<g id="node8" class="node">
<title>methods.manager</title>
<polygon fill="none" stroke="black" points="496.12,-294 408.88,-294 408.88,-258 496.12,-258 496.12,-294"/>
<text xml:space="preserve" text-anchor="middle" x="452.5" y="-272.12" font-family="Times,serif" font-size="10.00">methods.manager</text>
</g>
<!-- methods.manager.OverlayManager -->
<g id="node9" class="node">
<title>methods.manager.OverlayManager</title>
<polygon fill="none" stroke="black" points="923,-145 764.5,-145 764.5,-109 923,-109 923,-145"/>
<text xml:space="preserve" text-anchor="middle" x="843.75" y="-123.12" font-family="Times,serif" font-size="10.00">methods.manager.OverlayManager</text>
</g>
<!-- methods.manager.OverlayManager&#45;&gt;configs.config -->
<g id="edge20" class="edge">
<title>methods.manager.OverlayManager&#45;&gt;configs.config</title>
<path fill="none" stroke="black" d="M903.66,-145.42C911.03,-149.85 917.8,-155.3 923,-162 970.78,-223.56 988.8,-467.78 993.73,-553.26"/>
<polygon fill="black" stroke="black" points="990.23,-553.38 994.28,-563.17 997.22,-552.99 990.23,-553.38"/>
</g>
<!-- methods.manager.ProcessManager -->
<g id="node10" class="node">
<title>methods.manager.ProcessManager</title>
<polygon fill="none" stroke="black" points="728.12,-240 572.62,-240 572.62,-204 728.12,-204 728.12,-240"/>
<text xml:space="preserve" text-anchor="middle" x="650.38" y="-218.12" font-family="Times,serif" font-size="10.00">methods.manager.ProcessManager</text>
</g>
<!-- methods.manager.SessionManager&#45;&gt;configs.config -->
<g id="edge21" class="edge">
<title>methods.manager.SessionManager&#45;&gt;configs.config</title>
<path fill="none" stroke="black" d="M728.98,-563.64C795.92,-568.51 890.51,-575.39 947.07,-579.5"/>
<polygon fill="black" stroke="black" points="946.81,-582.99 957.03,-580.22 947.31,-576.01 946.81,-582.99"/>
</g>
<!-- methods.manager.WebsockifyService -->
<g id="node12" class="node">
<title>methods.manager.WebsockifyService</title>
<polygon fill="none" stroke="black" points="536.25,-240 368.75,-240 368.75,-204 536.25,-204 536.25,-240"/>
<text xml:space="preserve" text-anchor="middle" x="452.5" y="-218.12" font-family="Times,serif" font-size="10.00">methods.manager.WebsockifyService</text>
</g>
<!-- methods.manager.WebsockifyService&#45;&gt;methods.manager.ProcessManager -->
<g id="edge22" class="edge">
<title>methods.manager.WebsockifyService&#45;&gt;methods.manager.ProcessManager</title>
<path fill="none" stroke="black" d="M536.57,-222C544.65,-222 552.87,-222 560.99,-222"/>
<polygon fill="black" stroke="black" points="560.89,-225.5 570.89,-222 560.89,-218.5 560.89,-225.5"/>
</g>
<!-- methods.manager.WebsockifyService&#45;&gt;methods.manager.SessionManager -->
<g id="edge23" class="edge">
<title>methods.manager.WebsockifyService&#45;&gt;methods.manager.SessionManager</title>
<path fill="none" stroke="black" d="M525.09,-240.37C529.11,-242.89 532.88,-245.75 536.25,-249 557.37,-269.38 617.48,-456.17 640.37,-529.06"/>
<polygon fill="black" stroke="black" points="636.94,-529.79 643.26,-538.29 643.62,-527.7 636.94,-529.79"/>
</g>
<!-- methods.manager.WebsockifyService&#45;&gt;utils -->
<g id="edge24" class="edge">
<title>methods.manager.WebsockifyService&#45;&gt;utils</title>
<path fill="none" stroke="black" d="M511.55,-240.36C519.87,-243.16 528.3,-246.09 536.25,-249 561.97,-258.41 590.54,-270.04 612.53,-279.25"/>
<polygon fill="black" stroke="black" points="611.1,-282.44 621.67,-283.1 613.81,-275.99 611.1,-282.44"/>
</g>
<!-- observability -->
<g id="node13" class="node">
<title>observability</title>
<polygon fill="none" stroke="black" points="109,-689 39,-689 39,-653 109,-653 109,-689"/>
<text xml:space="preserve" text-anchor="middle" x="74" y="-667.12" font-family="Times,serif" font-size="10.00">observability</text>
</g>
<!-- observability.http_metrics -->
<g id="node16" class="node">
<title>observability.http_metrics</title>
<polygon fill="none" stroke="black" points="135.25,-743 12.75,-743 12.75,-707 135.25,-707 135.25,-743"/>
<text xml:space="preserve" text-anchor="middle" x="74" y="-721.12" font-family="Times,serif" font-size="10.00">observability.http_metrics</text>
</g>
<!-- observability.metrics&#45;&gt;methods.database.database -->
<g id="edge25" class="edge">
<title>observability.metrics&#45;&gt;methods.database.database</title>
<path fill="none" stroke="black" d="M503.19,-820.94C570.59,-824.92 691.47,-832.06 769.34,-836.66"/>
<polygon fill="black" stroke="black" points="768.81,-840.14 779,-837.23 769.22,-833.15 768.81,-840.14"/>
</g>
<!-- observability.metrics&#45;&gt;methods.database.models -->
<g id="edge26" class="edge">
<title>observability.metrics&#45;&gt;methods.database.models</title>
<path fill="none" stroke="black" d="M503.18,-829.67C526.28,-835.09 554.16,-841.64 579.35,-847.56"/>
<polygon fill="black" stroke="black" points="578.33,-850.91 588.86,-849.79 579.93,-844.1 578.33,-850.91"/>
</g>
<!-- observability.metrics&#45;&gt;methods.manager.SessionManager -->
<g id="edge27" class="edge">
<title>observability.metrics&#45;&gt;methods.manager.SessionManager</title>
<path fill="none" stroke="black" d="M503.29,-805.54C515.08,-800.86 526.92,-794.51 536.25,-786 597.02,-730.56 629.22,-635.19 642.28,-587.28"/>
<polygon fill="black" stroke="black" points="645.58,-588.47 644.74,-577.91 638.81,-586.69 645.58,-588.47"/>
</g>
<!-- observability.ops_metrics -->
<g id="node18" class="node">
<title>observability.ops_metrics</title>
<polygon fill="none" stroke="black" points="134.12,-797 13.88,-797 13.88,-761 134.12,-761 134.12,-797"/>
<text xml:space="preserve" text-anchor="middle" x="74" y="-775.12" font-family="Times,serif" font-size="10.00">observability.ops_metrics</text>
</g>
<!-- observability.report -->
<g id="node19" class="node">
<title>observability.report</title>
<polygon fill="none" stroke="black" points="891.5,-84 796,-84 796,-48 891.5,-48 891.5,-84"/>
<text xml:space="preserve" text-anchor="middle" x="843.75" y="-62.12" font-family="Times,serif" font-size="10.00">observability.report</text>
</g>
<!-- observability.report&#45;&gt;configs.config -->
<g id="edge28" class="edge">
<title>observability.report&#45;&gt;configs.config</title>
<path fill="none" stroke="black" d="M891.77,-77.52C903.6,-82.58 915.15,-89.78 923,-100 978.09,-171.77 991.54,-459.56 994.49,-553.31"/>
<polygon fill="black" stroke="black" points="990.99,-553.32 994.78,-563.22 997.99,-553.12 990.99,-553.32"/>
</g>
<!-- observability.utils_observability&#45;&gt;observability.report -->
<g id="edge29" class="edge">
<title>observability.utils_observability&#45;&gt;observability.report</title>
<path fill="none" stroke="black" d="M320.63,-161.55C324.96,-159.04 329.06,-156.2 332.75,-153 358.27,-130.83 340.11,-103.96 368.75,-86 498.34,-4.76 689.34,-30.86 784.47,-51.32"/>
<polygon fill="black" stroke="black" points="783.58,-54.71 794.1,-53.45 785.1,-47.87 783.58,-54.71"/>
</g>
<!-- routers.auth&#45;&gt;configs.config -->
<g id="edge30" class="edge">
<title>routers.auth&#45;&gt;configs.config</title>
<path fill="none" stroke="black" d="M290.52,-625.14C405.74,-618.25 808.25,-594.18 947.45,-585.86"/>
<polygon fill="black" stroke="black" points="947.27,-589.38 957.04,-585.28 946.85,-582.39 947.27,-589.38"/>
</g>
<!-- routers.auth&#45;&gt;methods.auth.auth -->
<g id="edge31" class="edge">
<title>routers.auth&#45;&gt;methods.auth.auth</title>
<path fill="none" stroke="black" d="M266.08,-645.25C284.96,-696.07 339.09,-838.15 368.75,-878 381.43,-895.04 399.01,-910.65 414.71,-922.8"/>
<polygon fill="black" stroke="black" points="412.37,-925.42 422.47,-928.62 416.57,-919.82 412.37,-925.42"/>
</g>
<!-- routers.auth&#45;&gt;methods.database.database -->
<g id="edge32" class="edge">
<title>routers.auth&#45;&gt;methods.database.database</title>
<path fill="none" stroke="black" d="M290.64,-634.27C304.02,-638.02 319.56,-643.24 332.75,-650 350.55,-659.12 351.09,-667.62 368.75,-677 502.83,-748.22 674.13,-798.5 769.77,-823.33"/>
<polygon fill="black" stroke="black" points="768.74,-826.68 779.3,-825.78 770.48,-819.9 768.74,-826.68"/>
</g>
<!-- routers.auth&#45;&gt;methods.database.models -->
<g id="edge33" class="edge">
<title>routers.auth&#45;&gt;methods.database.models</title>
<path fill="none" stroke="black" d="M262.35,-645.36C270.47,-688.76 297.34,-797.53 368.75,-845 401.99,-867.1 507.25,-868.72 578.96,-867.01"/>
<polygon fill="black" stroke="black" points="578.75,-870.51 588.66,-866.75 578.57,-863.52 578.75,-870.51"/>
</g>
<!-- routers.auth&#45;&gt;methods.manager.SessionManager -->
<g id="edge34" class="edge">
<title>routers.auth&#45;&gt;methods.manager.SessionManager</title>
<path fill="none" stroke="black" d="M290.46,-614.51C312.08,-606.31 341.75,-596.03 368.75,-590 432.1,-575.84 504.97,-567.77 560.58,-563.28"/>
<polygon fill="black" stroke="black" points="560.61,-566.78 570.31,-562.51 560.06,-559.8 560.61,-566.78"/>
</g>
<!-- security.recaptcha -->
<g id="node27" class="node">
<title>security.recaptcha</title>
<polygon fill="none" stroke="black" points="496.88,-668 408.12,-668 408.12,-632 496.88,-632 496.88,-668"/>
<text xml:space="preserve" text-anchor="middle" x="452.5" y="-646.12" font-family="Times,serif" font-size="10.00">security.recaptcha</text>
</g>
<!-- routers.auth&#45;&gt;security.recaptcha -->
<g id="edge35" class="edge">
<title>routers.auth&#45;&gt;security.recaptcha</title>
<path fill="none" stroke="black" d="M290.67,-630.75C319.23,-634.17 362.1,-639.3 396.39,-643.4"/>
<polygon fill="black" stroke="black" points="395.81,-646.86 406.16,-644.57 396.65,-639.91 395.81,-646.86"/>
</g>
<!-- routers.auth&#45;&gt;utils -->
<g id="edge36" class="edge">
<title>routers.auth&#45;&gt;utils</title>
<path fill="none" stroke="black" d="M267.36,-608.65C282.83,-574.8 319.69,-501.75 368.75,-455 443.32,-383.94 555.33,-332.49 612.68,-309.09"/>
<polygon fill="black" stroke="black" points="613.69,-312.45 621.66,-305.48 611.07,-305.96 613.69,-312.45"/>
</g>
<!-- routers.post&#45;&gt;configs.config -->
<g id="edge37" class="edge">
<title>routers.post&#45;&gt;configs.config</title>
<path fill="none" stroke="black" d="M290.16,-983.29C303.46,-987.22 319.07,-992.3 332.75,-998 349.45,-1004.96 351.19,-1012.65 368.75,-1017 611.27,-1077.07 749.66,-1102.94 923,-923 965.93,-878.43 986.44,-687.07 992.91,-612.71"/>
<polygon fill="black" stroke="black" points="996.38,-613.19 993.73,-602.93 989.4,-612.6 996.38,-613.19"/>
</g>
<!-- routers.post&#45;&gt;methods.auth.auth -->
<g id="edge38" class="edge">
<title>routers.post&#45;&gt;methods.auth.auth</title>
<path fill="none" stroke="black" d="M290.24,-970.66C318.55,-966.68 361.15,-960.7 395.46,-955.88"/>
<polygon fill="black" stroke="black" points="395.83,-959.36 405.24,-954.5 394.85,-952.43 395.83,-959.36"/>
</g>
<!-- routers.post&#45;&gt;methods.database.database -->
<g id="edge39" class="edge">
<title>routers.post&#45;&gt;methods.database.database</title>
<path fill="none" stroke="black" d="M290.2,-983.63C311.95,-989.26 341.89,-996.09 368.75,-999 442.76,-1007.02 463.09,-1012.77 536.25,-999 626.38,-982.04 648.02,-967.98 728.5,-924 758.62,-907.54 789.97,-884.26 812.19,-866.54"/>
<polygon fill="black" stroke="black" points="814.36,-869.28 819.95,-860.28 809.97,-863.84 814.36,-869.28"/>
</g>
<!-- routers.post&#45;&gt;methods.database.models -->
<g id="edge40" class="edge">
<title>routers.post&#45;&gt;methods.database.models</title>
<path fill="none" stroke="black" d="M290.32,-982.32C343.07,-993.25 452.82,-1009.1 536.25,-975 577.31,-958.22 611.51,-918.56 631.22,-891.49"/>
<polygon fill="black" stroke="black" points="634.03,-893.57 636.93,-883.38 628.31,-889.54 634.03,-893.57"/>
</g>
<!-- routers.post&#45;&gt;methods.manager.SessionManager -->
<g id="edge41" class="edge">
<title>routers.post&#45;&gt;methods.manager.SessionManager</title>
<path fill="none" stroke="black" d="M274.46,-956.84C290.28,-937.24 315.23,-904.68 332.75,-874 352.69,-839.08 339.33,-818.41 368.75,-791 426.49,-737.19 474.21,-780.8 536.25,-732 586.13,-692.77 620.92,-625.17 637.77,-586.8"/>
<polygon fill="black" stroke="black" points="640.93,-588.3 641.64,-577.73 634.5,-585.56 640.93,-588.3"/>
</g>
<!-- routers.root&#45;&gt;methods.manager.SessionManager -->
<g id="edge42" class="edge">
<title>routers.root&#45;&gt;methods.manager.SessionManager</title>
<path fill="none" stroke="black" d="M484.16,-493.84C499.76,-499.87 519.02,-507.32 536.25,-514 554.32,-521.01 574,-528.66 591.81,-535.58"/>
<polygon fill="black" stroke="black" points="590.05,-538.66 600.64,-539.02 592.59,-532.13 590.05,-538.66"/>
</g>
<!-- routers.sessions&#45;&gt;methods.auth.auth -->
<g id="edge43" class="edge">
<title>routers.sessions&#45;&gt;methods.auth.auth</title>
<path fill="none" stroke="black" d="M285.06,-865.21C306.71,-880.06 338.86,-900.97 368.75,-916 377.36,-920.33 386.69,-924.45 395.89,-928.21"/>
<polygon fill="black" stroke="black" points="394.59,-931.45 405.17,-931.89 397.17,-924.95 394.59,-931.45"/>
</g>
<!-- routers.sessions&#45;&gt;methods.database.models -->
<g id="edge44" class="edge">
<title>routers.sessions&#45;&gt;methods.database.models</title>
<path fill="none" stroke="black" d="M298.3,-860.86C318.94,-867.49 344.9,-874.69 368.75,-878 439.83,-887.88 521.89,-881.78 578.84,-874.8"/>
<polygon fill="black" stroke="black" points="579.26,-878.28 588.73,-873.55 578.37,-871.34 579.26,-878.28"/>
</g>
<!-- routers.sessions&#45;&gt;methods.manager.SessionManager -->
<g id="edge45" class="edge">
<title>routers.sessions&#45;&gt;methods.manager.SessionManager</title>
<path fill="none" stroke="black" d="M278.86,-828.78C299.95,-809.65 335.08,-779.42 368.75,-758 438.51,-713.6 469.46,-725.76 536.25,-677 572.75,-650.36 607.43,-611.08 628.54,-585.03"/>
<polygon fill="black" stroke="black" points="631.24,-587.26 634.74,-577.26 625.76,-582.89 631.24,-587.26"/>
</g>
<!-- routers.vm&#45;&gt;configs.config -->
<g id="edge46" class="edge">
<title>routers.vm&#45;&gt;configs.config</title>
<path fill="none" stroke="black" d="M264.99,-341.76C277.15,-305.84 309.7,-226.7 368.75,-195 439.19,-157.19 653.94,-166.15 728.5,-195 837.51,-237.17 858.83,-274.31 923,-372 961.2,-430.15 981.37,-510.62 990,-553.43"/>
<polygon fill="black" stroke="black" points="986.56,-554.06 991.89,-563.22 993.43,-552.73 986.56,-554.06"/>
</g>
<!-- routers.vm&#45;&gt;methods.auth.auth -->
<g id="edge47" class="edge">
<title>routers.vm&#45;&gt;methods.auth.auth</title>
<path fill="none" stroke="black" d="M266.05,-378.41C280.28,-418.29 313.81,-515.83 332.75,-600 356.91,-707.37 324.74,-744.12 368.75,-845 381.53,-874.3 404.92,-902.23 423.58,-921.59"/>
<polygon fill="black" stroke="black" points="420.92,-923.88 430.44,-928.53 425.9,-918.95 420.92,-923.88"/>
</g>
<!-- routers.vm&#45;&gt;methods.database.database -->
<g id="edge48" class="edge">
<title>routers.vm&#45;&gt;methods.database.database</title>
<path fill="none" stroke="black" d="M288.08,-355.76C339.73,-349.34 450.91,-341.13 536.25,-374 639.19,-413.65 664.44,-441.19 728.5,-531 793.18,-621.68 825.47,-753.16 837.3,-811.37"/>
<polygon fill="black" stroke="black" points="833.86,-812.01 839.22,-821.15 840.72,-810.66 833.86,-812.01"/>
</g>
<!-- routers.vm&#45;&gt;methods.database.models -->
<g id="edge49" class="edge">
<title>routers.vm&#45;&gt;methods.database.models</title>
<path fill="none" stroke="black" d="M287.86,-376.22C309.5,-388 340.3,-403.64 368.75,-414 440.76,-440.23 481.25,-401.62 536.25,-455 536.25,-455 615.37,-741.05 641.27,-834.71"/>
<polygon fill="black" stroke="black" points="637.85,-835.47 643.89,-844.17 644.6,-833.6 637.85,-835.47"/>
</g>
<!-- routers.vm&#45;&gt;methods.manager -->
<g id="edge50" class="edge">
<title>routers.vm&#45;&gt;methods.manager</title>
<path fill="none" stroke="black" d="M287.89,-345.72C309.81,-334.93 340.94,-319.97 368.75,-308 378.21,-303.93 388.36,-299.81 398.21,-295.93"/>
<polygon fill="black" stroke="black" points="399.27,-299.28 407.32,-292.39 396.73,-292.75 399.27,-299.28"/>
</g>
<!-- routers.vm&#45;&gt;methods.manager.OverlayManager -->
<g id="edge51" class="edge">
<title>routers.vm&#45;&gt;methods.manager.OverlayManager</title>
<path fill="none" stroke="black" d="M268.31,-341.54C291.28,-294.47 351.72,-172.91 368.75,-162 484.93,-87.55 651.59,-95.43 753.2,-109.85"/>
<polygon fill="black" stroke="black" points="752.45,-113.28 762.85,-111.27 753.47,-106.35 752.45,-113.28"/>
</g>
<!-- routers.vm&#45;&gt;methods.manager.SessionManager -->
<g id="edge52" class="edge">
<title>routers.vm&#45;&gt;methods.manager.SessionManager</title>
<path fill="none" stroke="black" d="M288.22,-364.05C350.32,-373.15 494.43,-396.44 536.25,-422 580.04,-448.77 614.86,-498.54 633.77,-529.88"/>
<polygon fill="black" stroke="black" points="630.71,-531.58 638.79,-538.43 636.75,-528.04 630.71,-531.58"/>
</g>
<!-- routers.vm&#45;&gt;methods.manager.WebsockifyService -->
<g id="edge53" class="edge">
<title>routers.vm&#45;&gt;methods.manager.WebsockifyService</title>
<path fill="none" stroke="black" d="M272.88,-341.6C291.75,-317.12 328.26,-274.05 368.75,-249 370.76,-247.76 372.83,-246.57 374.95,-245.42"/>
<polygon fill="black" stroke="black" points="376.35,-248.64 383.8,-241.1 373.28,-242.35 376.35,-248.64"/>
</g>
<!-- utils&#45;&gt;configs.config -->
<g id="edge54" class="edge">
<title>utils&#45;&gt;configs.config</title>
<path fill="none" stroke="black" d="M677.72,-311.11C692.93,-320.73 712.21,-333.48 728.5,-346 820.98,-417.08 921.72,-511.8 968.54,-556.94"/>
<polygon fill="black" stroke="black" points="965.93,-559.29 975.55,-563.73 970.8,-554.26 965.93,-559.29"/>
</g>
</g>
</svg>
