<?xml version="1.0" encoding="UTF-8" standalone="no"?>
<!DOCTYPE svg PUBLIC "-//W3C//DTD SVG 1.1//EN"
 "http://www.w3.org/Graphics/SVG/1.1/DTD/svg11.dtd">
<!-- Generated by graphviz version 13.1.1 (20250719.2154)
 -->
<!-- Title: python_deps Pages: 1 -->
<svg width="1008pt" height="711pt"
 viewBox="0.00 0.00 1008.00 711.00" xmlns="http://www.w3.org/2000/svg" xmlns:xlink="http://www.w3.org/1999/xlink">
<g id="graph0" class="graph" transform="scale(1 1) rotate(0) translate(4 706.77)">
<title>python_deps</title>
<polygon fill="white" stroke="none" points="-4,4 -4,-706.77 1003.75,-706.77 1003.75,4 -4,4"/>
<!-- configs.auth_config -->
<g id="node1" class="node">
<title>configs.auth_config</title>
<polygon fill="none" stroke="black" points="122.88,-469 25.12,-469 25.12,-433 122.88,-433 122.88,-469"/>
<text xml:space="preserve" text-anchor="middle" x="74" y="-447.12" font-family="Times,serif" font-size="10.00">configs.auth_config</text>
</g>
<!-- configs.config -->
<g id="node2" class="node">
<title>configs.config</title>
<polygon fill="none" stroke="black" points="999.75,-466 925.25,-466 925.25,-430 999.75,-430 999.75,-466"/>
<text xml:space="preserve" text-anchor="middle" x="962.5" y="-444.12" font-family="Times,serif" font-size="10.00">configs.config</text>
</g>
<!-- configs.log_config -->
<g id="node3" class="node">
<title>configs.log_config</title>
<polygon fill="none" stroke="black" points="696.62,-336 603.38,-336 603.38,-300 696.62,-300 696.62,-336"/>
<text xml:space="preserve" text-anchor="middle" x="650" y="-314.12" font-family="Times,serif" font-size="10.00">configs.log_config</text>
</g>
<!-- configs.redis_config -->
<g id="node4" class="node">
<title>configs.redis_config</title>
<polygon fill="none" stroke="black" points="699.62,-694 600.38,-694 600.38,-658 699.62,-658 699.62,-694"/>
<text xml:space="preserve" text-anchor="middle" x="650" y="-672.12" font-family="Times,serif" font-size="10.00">configs.redis_config</text>
</g>
<!-- configs.server_config -->
<g id="node5" class="node">
<title>configs.server_config</title>
<polygon fill="none" stroke="black" points="504.38,-190 400.62,-190 400.62,-154 504.38,-154 504.38,-190"/>
<text xml:space="preserve" text-anchor="middle" x="452.5" y="-168.12" font-family="Times,serif" font-size="10.00">configs.server_config</text>
</g>
<!-- configs.vm_profiles -->
<g id="node6" class="node">
<title>configs.vm_profiles</title>
<polygon fill="none" stroke="black" points="875,-86 778,-86 778,-50 875,-50 875,-86"/>
<text xml:space="preserve" text-anchor="middle" x="826.5" y="-64.12" font-family="Times,serif" font-size="10.00">configs.vm_profiles</text>
</g>
<!-- main -->
<g id="node7" class="node">
<title>main</title>
<polygon fill="none" stroke="black" points="101,-523 47,-523 47,-487 101,-487 101,-523"/>
<text xml:space="preserve" text-anchor="middle" x="74" y="-501.12" font-family="Times,serif" font-size="10.00">main</text>
</g>
<!-- methods.manager.SessionManager -->
<g id="node16" class="node">
<title>methods.manager.SessionManager</title>
<polygon fill="none" stroke="black" points="530.62,-694 374.38,-694 374.38,-658 530.62,-658 530.62,-694"/>
<text xml:space="preserve" text-anchor="middle" x="452.5" y="-672.12" font-family="Times,serif" font-size="10.00">methods.manager.SessionManager</text>
</g>
<!-- main&#45;&gt;methods.manager.SessionManager -->
<g id="edge1" class="edge">
<title>main&#45;&gt;methods.manager.SessionManager</title>
<path fill="none" stroke="black" d="M101.34,-508.58C116.96,-512.04 135.99,-518.81 148,-532 189.81,-577.92 135.4,-628.35 184,-667 236.02,-708.37 313.41,-706.32 371.59,-696.46"/>
<polygon fill="black" stroke="black" points="371.88,-699.96 381.1,-694.73 370.63,-693.07 371.88,-699.96"/>
</g>
<!-- observability.metrics -->
<g id="node19" class="node">
<title>observability.metrics</title>
<polygon fill="none" stroke="black" points="308.75,-550 208,-550 208,-514 308.75,-514 308.75,-550"/>
<text xml:space="preserve" text-anchor="middle" x="258.38" y="-528.12" font-family="Times,serif" font-size="10.00">observability.metrics</text>
</g>
<!-- main&#45;&gt;observability.metrics -->
<g id="edge2" class="edge">
<title>main&#45;&gt;observability.metrics</title>
<path fill="none" stroke="black" d="M101.13,-508.87C125.89,-512.53 163.99,-518.18 196.38,-522.97"/>
<polygon fill="black" stroke="black" points="195.66,-526.4 206.06,-524.4 196.68,-519.48 195.66,-526.4"/>
</g>
<!-- observability.utils_observability -->
<g id="node20" class="node">
<title>observability.utils_observability</title>
<polygon fill="none" stroke="black" points="332.75,-604 184,-604 184,-568 332.75,-568 332.75,-604"/>
<text xml:space="preserve" text-anchor="middle" x="258.38" y="-582.12" font-family="Times,serif" font-size="10.00">observability.utils_observability</text>
</g>
<!-- main&#45;&gt;observability.utils_observability -->
<g id="edge3" class="edge">
<title>main&#45;&gt;observability.utils_observability</title>
<path fill="none" stroke="black" d="M101.47,-512.74C115.7,-517.4 133.29,-523.98 148,-532 165.56,-541.57 166.43,-549.45 184,-559 186.5,-560.36 189.09,-561.68 191.73,-562.96"/>
<polygon fill="black" stroke="black" points="190.18,-566.1 200.73,-567.03 193.06,-559.72 190.18,-566.1"/>
</g>
<!-- routers.auth -->
<g id="node21" class="node">
<title>routers.auth</title>
<polygon fill="none" stroke="black" points="290.38,-442 226.38,-442 226.38,-406 290.38,-406 290.38,-442"/>
<text xml:space="preserve" text-anchor="middle" x="258.38" y="-420.12" font-family="Times,serif" font-size="10.00">routers.auth</text>
</g>
<!-- main&#45;&gt;routers.auth -->
<g id="edge4" class="edge">
<title>main&#45;&gt;routers.auth</title>
<path fill="none" stroke="black" d="M101.47,-497.26C115.7,-492.6 133.29,-486.02 148,-478 165.56,-468.43 166.43,-460.55 184,-451 193.82,-445.66 204.92,-440.96 215.46,-437.04"/>
<polygon fill="black" stroke="black" points="216.48,-440.39 224.73,-433.75 214.14,-433.8 216.48,-440.39"/>
</g>
<!-- routers.root -->
<g id="node22" class="node">
<title>routers.root</title>
<polygon fill="none" stroke="black" points="289.62,-658 227.12,-658 227.12,-622 289.62,-622 289.62,-658"/>
<text xml:space="preserve" text-anchor="middle" x="258.38" y="-636.12" font-family="Times,serif" font-size="10.00">routers.root</text>
</g>
<!-- main&#45;&gt;routers.root -->
<g id="edge5" class="edge">
<title>main&#45;&gt;routers.root</title>
<path fill="none" stroke="black" d="M101.33,-509.45C116.56,-513.21 135.19,-519.98 148,-532 176.73,-558.95 155.24,-586.07 184,-613 192.93,-621.37 204.68,-627.19 216.15,-631.22"/>
<polygon fill="black" stroke="black" points="214.92,-634.51 225.51,-634.12 216.99,-627.82 214.92,-634.51"/>
</g>
<!-- routers.sessions -->
<g id="node23" class="node">
<title>routers.sessions</title>
<polygon fill="none" stroke="black" points="297.88,-496 218.88,-496 218.88,-460 297.88,-460 297.88,-496"/>
<text xml:space="preserve" text-anchor="middle" x="258.38" y="-474.12" font-family="Times,serif" font-size="10.00">routers.sessions</text>
</g>
<!-- main&#45;&gt;routers.sessions -->
<g id="edge6" class="edge">
<title>main&#45;&gt;routers.sessions</title>
<path fill="none" stroke="black" d="M101.13,-501.13C128.74,-497.04 172.95,-490.5 207.31,-485.41"/>
<polygon fill="black" stroke="black" points="207.67,-488.9 217.05,-483.97 206.64,-481.97 207.67,-488.9"/>
</g>
<!-- routers.vm -->
<g id="node24" class="node">
<title>routers.vm</title>
<polygon fill="none" stroke="black" points="287.75,-290 229,-290 229,-254 287.75,-254 287.75,-290"/>
<text xml:space="preserve" text-anchor="middle" x="258.38" y="-268.12" font-family="Times,serif" font-size="10.00">routers.vm</text>
</g>
<!-- main&#45;&gt;routers.vm -->
<g id="edge7" class="edge">
<title>main&#45;&gt;routers.vm</title>
<path fill="none" stroke="black" d="M101.33,-500.55C116.56,-496.79 135.19,-490.02 148,-478 176.73,-451.05 166,-432.04 184,-397 201.58,-362.77 224.34,-324.83 239.82,-299.82"/>
<polygon fill="black" stroke="black" points="242.66,-301.89 244.97,-291.56 236.71,-298.19 242.66,-301.89"/>
</g>
<!-- utils -->
<g id="node25" class="node">
<title>utils</title>
<polygon fill="none" stroke="black" points="677,-36 623,-36 623,0 677,0 677,-36"/>
<text xml:space="preserve" text-anchor="middle" x="650" y="-14.12" font-family="Times,serif" font-size="10.00">utils</text>
</g>
<!-- main&#45;&gt;utils -->
<g id="edge8" class="edge">
<title>main&#45;&gt;utils</title>
<path fill="none" stroke="black" d="M101.49,-501.93C117.37,-498.66 136.63,-491.92 148,-478 214.29,-396.85 139.39,-339.81 184,-245 236.64,-133.12 257.74,-91.46 368.75,-37 448.04,1.9 555.42,-4.73 611.45,-11.94"/>
<polygon fill="black" stroke="black" points="610.71,-15.37 621.09,-13.27 611.66,-8.44 610.71,-15.37"/>
</g>
<!-- methods.auth.auth -->
<g id="node8" class="node">
<title>methods.auth.auth</title>
<polygon fill="none" stroke="black" points="498,-374 407,-374 407,-338 498,-338 498,-374"/>
<text xml:space="preserve" text-anchor="middle" x="452.5" y="-352.12" font-family="Times,serif" font-size="10.00">methods.auth.auth</text>
</g>
<!-- methods.auth.auth&#45;&gt;configs.config -->
<g id="edge9" class="edge">
<title>methods.auth.auth&#45;&gt;configs.config</title>
<path fill="none" stroke="black" d="M498.42,-358C552.96,-360.91 647.6,-367.5 727.75,-381 800.67,-393.28 818.61,-399.13 889.25,-421 897.43,-423.53 906.04,-426.49 914.34,-429.49"/>
<polygon fill="black" stroke="black" points="913.01,-432.73 923.61,-432.92 915.44,-426.17 913.01,-432.73"/>
</g>
<!-- methods.auth.auth&#45;&gt;configs.log_config -->
<g id="edge10" class="edge">
<title>methods.auth.auth&#45;&gt;configs.log_config</title>
<path fill="none" stroke="black" d="M498.35,-347.28C526.14,-341.88 562.09,-334.89 591.9,-329.1"/>
<polygon fill="black" stroke="black" points="592.37,-332.57 601.51,-327.23 591.03,-325.7 592.37,-332.57"/>
</g>
<!-- methods.database.database -->
<g id="node10" class="node">
<title>methods.database.database</title>
<polygon fill="none" stroke="black" points="889.25,-466 763.75,-466 763.75,-430 889.25,-430 889.25,-466"/>
<text xml:space="preserve" text-anchor="middle" x="826.5" y="-444.12" font-family="Times,serif" font-size="10.00">methods.database.database</text>
</g>
<!-- methods.auth.auth&#45;&gt;methods.database.database -->
<g id="edge11" class="edge">
<title>methods.auth.auth&#45;&gt;methods.database.database</title>
<path fill="none" stroke="black" d="M498.28,-366.08C552.67,-378.45 647.17,-400.33 727.75,-421 735.75,-423.05 744.11,-425.26 752.42,-427.5"/>
<polygon fill="black" stroke="black" points="751.25,-430.81 761.82,-430.05 753.08,-424.05 751.25,-430.81"/>
</g>
<!-- methods.database.models -->
<g id="node12" class="node">
<title>methods.database.models</title>
<polygon fill="none" stroke="black" points="709.75,-466 590.25,-466 590.25,-430 709.75,-430 709.75,-466"/>
<text xml:space="preserve" text-anchor="middle" x="650" y="-444.12" font-family="Times,serif" font-size="10.00">methods.database.models</text>
</g>
<!-- methods.auth.auth&#45;&gt;methods.database.models -->
<g id="edge12" class="edge">
<title>methods.auth.auth&#45;&gt;methods.database.models</title>
<path fill="none" stroke="black" d="M498.4,-370.63C510.99,-375.46 524.45,-381.32 536.25,-388 553.89,-397.98 554.74,-405.79 572.25,-416 577.55,-419.09 583.21,-422.04 588.95,-424.8"/>
<polygon fill="black" stroke="black" points="587.42,-427.95 597.96,-428.94 590.34,-421.59 587.42,-427.95"/>
</g>
<!-- methods.auth.email_verification -->
<g id="node9" class="node">
<title>methods.auth.email_verification</title>
<polygon fill="none" stroke="black" points="148,-577 0,-577 0,-541 148,-541 148,-577"/>
<text xml:space="preserve" text-anchor="middle" x="74" y="-555.12" font-family="Times,serif" font-size="10.00">methods.auth.email_verification</text>
</g>
<!-- methods.database.database&#45;&gt;configs.config -->
<g id="edge13" class="edge">
<title>methods.database.database&#45;&gt;configs.config</title>
<path fill="none" stroke="black" d="M889.4,-448C897.6,-448 905.91,-448 913.82,-448"/>
<polygon fill="black" stroke="black" points="913.55,-451.5 923.55,-448 913.55,-444.5 913.55,-451.5"/>
</g>
<!-- methods.database.init_db -->
<g id="node11" class="node">
<title>methods.database.init_db</title>
<polygon fill="none" stroke="black" points="134.12,-631 13.88,-631 13.88,-595 134.12,-595 134.12,-631"/>
<text xml:space="preserve" text-anchor="middle" x="74" y="-609.12" font-family="Times,serif" font-size="10.00">methods.database.init_db</text>
</g>
<!-- methods.database.models&#45;&gt;methods.database.database -->
<g id="edge14" class="edge">
<title>methods.database.models&#45;&gt;methods.database.database</title>
<path fill="none" stroke="black" d="M710.08,-448C723.65,-448 738.25,-448 752.34,-448"/>
<polygon fill="black" stroke="black" points="751.99,-451.5 761.99,-448 751.99,-444.5 751.99,-451.5"/>
</g>
<!-- methods.manager -->
<g id="node13" class="node">
<title>methods.manager</title>
<polygon fill="none" stroke="black" points="496.12,-244 408.88,-244 408.88,-208 496.12,-208 496.12,-244"/>
<text xml:space="preserve" text-anchor="middle" x="452.5" y="-222.12" font-family="Times,serif" font-size="10.00">methods.manager</text>
</g>
<!-- methods.manager.OverlayManager -->
<g id="node14" class="node">
<title>methods.manager.OverlayManager</title>
<polygon fill="none" stroke="black" points="531.75,-136 373.25,-136 373.25,-100 531.75,-100 531.75,-136"/>
<text xml:space="preserve" text-anchor="middle" x="452.5" y="-114.12" font-family="Times,serif" font-size="10.00">methods.manager.OverlayManager</text>
</g>
<!-- methods.manager.OverlayManager&#45;&gt;configs.log_config -->
<g id="edge15" class="edge">
<title>methods.manager.OverlayManager&#45;&gt;configs.log_config</title>
<path fill="none" stroke="black" d="M522.65,-136.43C527.46,-138.94 532.05,-141.78 536.25,-145 586.35,-183.43 620.88,-250.86 637.55,-289.2"/>
<polygon fill="black" stroke="black" points="634.26,-290.4 641.37,-298.26 640.71,-287.68 634.26,-290.4"/>
</g>
<!-- methods.manager.OverlayManager&#45;&gt;configs.vm_profiles -->
<g id="edge16" class="edge">
<title>methods.manager.OverlayManager&#45;&gt;configs.vm_profiles</title>
<path fill="none" stroke="black" d="M532.15,-117.5C587.33,-115.94 662.58,-111.41 727.75,-99 740.6,-96.55 754.13,-92.96 766.88,-89.07"/>
<polygon fill="black" stroke="black" points="767.93,-92.41 776.41,-86.06 765.82,-85.74 767.93,-92.41"/>
</g>
<!-- methods.manager.ProcessManager -->
<g id="node15" class="node">
<title>methods.manager.ProcessManager</title>
<polygon fill="none" stroke="black" points="727.75,-90 572.25,-90 572.25,-54 727.75,-54 727.75,-90"/>
<text xml:space="preserve" text-anchor="middle" x="650" y="-68.12" font-family="Times,serif" font-size="10.00">methods.manager.ProcessManager</text>
</g>
<!-- methods.manager.SessionManager&#45;&gt;configs.redis_config -->
<g id="edge17" class="edge">
<title>methods.manager.SessionManager&#45;&gt;configs.redis_config</title>
<path fill="none" stroke="black" d="M531.05,-676C550.2,-676 570.44,-676 588.64,-676"/>
<polygon fill="black" stroke="black" points="588.46,-679.5 598.46,-676 588.46,-672.5 588.46,-679.5"/>
</g>
<!-- methods.manager.WebsockifyService -->
<g id="node17" class="node">
<title>methods.manager.WebsockifyService</title>
<polygon fill="none" stroke="black" points="536.25,-82 368.75,-82 368.75,-46 536.25,-46 536.25,-82"/>
<text xml:space="preserve" text-anchor="middle" x="452.5" y="-60.12" font-family="Times,serif" font-size="10.00">methods.manager.WebsockifyService</text>
</g>
<!-- methods.manager.WebsockifyService&#45;&gt;methods.manager.ProcessManager -->
<g id="edge18" class="edge">
<title>methods.manager.WebsockifyService&#45;&gt;methods.manager.ProcessManager</title>
<path fill="none" stroke="black" d="M536.69,-67.4C544.51,-67.72 552.46,-68.05 560.33,-68.37"/>
<polygon fill="black" stroke="black" points="560.13,-71.87 570.26,-68.78 560.42,-64.87 560.13,-71.87"/>
</g>
<!-- methods.manager.WebsockifyService&#45;&gt;utils -->
<g id="edge19" class="edge">
<title>methods.manager.WebsockifyService&#45;&gt;utils</title>
<path fill="none" stroke="black" d="M531.89,-45.56C559.39,-39.08 589.02,-32.11 611.6,-26.8"/>
<polygon fill="black" stroke="black" points="612.3,-30.23 621.24,-24.53 610.7,-23.42 612.3,-30.23"/>
</g>
<!-- observability -->
<g id="node18" class="node">
<title>observability</title>
<polygon fill="none" stroke="black" points="109,-685 39,-685 39,-649 109,-649 109,-685"/>
<text xml:space="preserve" text-anchor="middle" x="74" y="-663.12" font-family="Times,serif" font-size="10.00">observability</text>
</g>
<!-- observability.metrics&#45;&gt;methods.database.database -->
<g id="edge20" class="edge">
<title>observability.metrics&#45;&gt;methods.database.database</title>
<path fill="none" stroke="black" d="M309.18,-533.19C395.77,-534.07 579.05,-530.62 727.75,-492 746.25,-487.2 765.63,-479.17 782.22,-471.27"/>
<polygon fill="black" stroke="black" points="783.35,-474.61 790.79,-467.07 780.27,-468.33 783.35,-474.61"/>
</g>
<!-- observability.metrics&#45;&gt;methods.database.models -->
<g id="edge21" class="edge">
<title>observability.metrics&#45;&gt;methods.database.models</title>
<path fill="none" stroke="black" d="M309.07,-522.99C364.62,-512.72 457.17,-495.01 536.25,-477 550.01,-473.87 564.66,-470.28 578.68,-466.73"/>
<polygon fill="black" stroke="black" points="579.47,-470.14 588.29,-464.27 577.74,-463.36 579.47,-470.14"/>
</g>
<!-- observability.metrics&#45;&gt;methods.manager.SessionManager -->
<g id="edge22" class="edge">
<title>observability.metrics&#45;&gt;methods.manager.SessionManager</title>
<path fill="none" stroke="black" d="M309.16,-543.99C317.76,-547.74 326.07,-552.63 332.75,-559 362.45,-587.31 339.28,-615.45 368.75,-644 371.6,-646.76 374.72,-649.29 378.02,-651.61"/>
<polygon fill="black" stroke="black" points="376.09,-654.54 386.44,-656.8 379.76,-648.58 376.09,-654.54"/>
</g>
<!-- routers.auth&#45;&gt;configs.config -->
<g id="edge23" class="edge">
<title>routers.auth&#45;&gt;configs.config</title>
<path fill="none" stroke="black" d="M290.59,-433.25C303.96,-437.77 319.51,-443.8 332.75,-451 350.32,-460.55 350,-471.03 368.75,-478 585.57,-558.65 664.07,-528.02 889.25,-475 897.5,-473.06 906.08,-470.43 914.33,-467.57"/>
<polygon fill="black" stroke="black" points="915.31,-470.94 923.51,-464.23 912.91,-464.36 915.31,-470.94"/>
</g>
<!-- routers.auth&#45;&gt;configs.log_config -->
<g id="edge24" class="edge">
<title>routers.auth&#45;&gt;configs.log_config</title>
<path fill="none" stroke="black" d="M273.65,-405.57C292.57,-382.78 328.3,-345.03 368.75,-329 441.53,-300.16 533.44,-303.21 591.74,-309.47"/>
<polygon fill="black" stroke="black" points="591.09,-312.91 601.43,-310.58 591.89,-305.96 591.09,-312.91"/>
</g>
<!-- routers.auth&#45;&gt;methods.auth.auth -->
<g id="edge25" class="edge">
<title>routers.auth&#45;&gt;methods.auth.auth</title>
<path fill="none" stroke="black" d="M290.67,-412.92C319.07,-402.87 361.61,-387.82 395.8,-375.71"/>
<polygon fill="black" stroke="black" points="396.9,-379.04 405.16,-372.4 394.56,-372.44 396.9,-379.04"/>
</g>
<!-- routers.auth&#45;&gt;methods.database.database -->
<g id="edge26" class="edge">
<title>routers.auth&#45;&gt;methods.database.database</title>
<path fill="none" stroke="black" d="M290.69,-432.67C366.08,-452.39 563.62,-497.25 727.75,-475 737.51,-473.68 747.67,-471.64 757.6,-469.27"/>
<polygon fill="black" stroke="black" points="758.36,-472.69 767.2,-466.84 756.64,-465.9 758.36,-472.69"/>
</g>
<!-- routers.auth&#45;&gt;methods.database.models -->
<g id="edge27" class="edge">
<title>routers.auth&#45;&gt;methods.database.models</title>
<path fill="none" stroke="black" d="M290.6,-425.92C352.67,-429.75 492.91,-438.39 578.4,-443.65"/>
<polygon fill="black" stroke="black" points="578.12,-447.14 588.32,-444.26 578.56,-440.15 578.12,-447.14"/>
</g>
<!-- routers.root&#45;&gt;methods.manager.SessionManager -->
<g id="edge28" class="edge">
<title>routers.root&#45;&gt;methods.manager.SessionManager</title>
<path fill="none" stroke="black" d="M289.82,-645.7C309.63,-649.42 336.58,-654.47 362.79,-659.38"/>
<polygon fill="black" stroke="black" points="361.99,-662.79 372.47,-661.19 363.28,-655.91 361.99,-662.79"/>
</g>
<!-- routers.sessions&#45;&gt;methods.auth.auth -->
<g id="edge29" class="edge">
<title>routers.sessions&#45;&gt;methods.auth.auth</title>
<path fill="none" stroke="black" d="M298.12,-466.37C309.61,-462.24 321.99,-457.07 332.75,-451 367,-431.67 401.6,-402.67 424.55,-381.8"/>
<polygon fill="black" stroke="black" points="426.66,-384.61 431.63,-375.26 421.91,-379.47 426.66,-384.61"/>
</g>
<!-- routers.sessions&#45;&gt;methods.database.models -->
<g id="edge30" class="edge">
<title>routers.sessions&#45;&gt;methods.database.models</title>
<path fill="none" stroke="black" d="M298.16,-475.01C363.51,-469.98 496.47,-459.74 578.64,-453.42"/>
<polygon fill="black" stroke="black" points="578.67,-456.93 588.37,-452.67 578.13,-449.95 578.67,-456.93"/>
</g>
<!-- routers.sessions&#45;&gt;methods.manager.SessionManager -->
<g id="edge31" class="edge">
<title>routers.sessions&#45;&gt;methods.manager.SessionManager</title>
<path fill="none" stroke="black" d="M298.14,-484.77C310.71,-488.74 323.73,-495.04 332.75,-505 375.58,-552.31 326.31,-596.34 368.75,-644 371.08,-646.62 373.65,-649.02 376.4,-651.23"/>
<polygon fill="black" stroke="black" points="374.25,-654 384.47,-656.79 378.22,-648.24 374.25,-654"/>
</g>
<!-- routers.vm&#45;&gt;configs.server_config -->
<g id="edge32" class="edge">
<title>routers.vm&#45;&gt;configs.server_config</title>
<path fill="none" stroke="black" d="M282.57,-253.78C303.97,-237.65 337.12,-214.35 368.75,-199 375.34,-195.8 382.4,-192.84 389.52,-190.16"/>
<polygon fill="black" stroke="black" points="390.66,-193.46 398.89,-186.79 388.29,-186.88 390.66,-193.46"/>
</g>
<!-- routers.vm&#45;&gt;methods.auth.auth -->
<g id="edge33" class="edge">
<title>routers.vm&#45;&gt;methods.auth.auth</title>
<path fill="none" stroke="black" d="M288.14,-284.58C317.39,-297.36 363.37,-317.47 399.1,-333.09"/>
<polygon fill="black" stroke="black" points="397.41,-336.17 407.97,-336.97 400.21,-329.76 397.41,-336.17"/>
</g>
<!-- routers.vm&#45;&gt;methods.database.database -->
<g id="edge34" class="edge">
<title>routers.vm&#45;&gt;methods.database.database</title>
<path fill="none" stroke="black" d="M288.24,-269.74C378.34,-263.2 652.85,-247.39 727.75,-291 776.16,-319.18 803.98,-381.86 816.8,-418.94"/>
<polygon fill="black" stroke="black" points="813.37,-419.72 819.83,-428.12 820.02,-417.52 813.37,-419.72"/>
</g>
<!-- routers.vm&#45;&gt;methods.database.models -->
<g id="edge35" class="edge">
<title>routers.vm&#45;&gt;methods.database.models</title>
<path fill="none" stroke="black" d="M271.95,-290.08C290.27,-315 326.73,-359.48 368.75,-383 387.05,-393.25 502.01,-418.03 578.89,-433.87"/>
<polygon fill="black" stroke="black" points="577.96,-437.25 588.46,-435.83 579.37,-430.39 577.96,-437.25"/>
</g>
<!-- routers.vm&#45;&gt;methods.manager -->
<g id="edge36" class="edge">
<title>routers.vm&#45;&gt;methods.manager</title>
<path fill="none" stroke="black" d="M288.14,-265.11C316.95,-258.22 361.99,-247.43 397.48,-238.93"/>
<polygon fill="black" stroke="black" points="398.26,-242.35 407.17,-236.61 396.63,-235.54 398.26,-242.35"/>
</g>
<!-- routers.vm&#45;&gt;methods.manager.OverlayManager -->
<g id="edge37" class="edge">
<title>routers.vm&#45;&gt;methods.manager.OverlayManager</title>
<path fill="none" stroke="black" d="M270.46,-253.66C287.99,-226.16 324.67,-174.36 368.75,-145 370.54,-143.81 372.39,-142.66 374.29,-141.56"/>
<polygon fill="black" stroke="black" points="375.48,-144.89 382.73,-137.17 372.25,-138.68 375.48,-144.89"/>
</g>
<!-- routers.vm&#45;&gt;methods.manager.SessionManager -->
<g id="edge38" class="edge">
<title>routers.vm&#45;&gt;methods.manager.SessionManager</title>
<path fill="none" stroke="black" d="M271.07,-290.22C286.23,-314.2 313.05,-357.9 332.75,-397 377.55,-485.95 420.99,-595.81 440.61,-647.09"/>
<polygon fill="black" stroke="black" points="437.28,-648.17 444.11,-656.27 443.82,-645.68 437.28,-648.17"/>
</g>
<!-- routers.vm&#45;&gt;methods.manager.WebsockifyService -->
<g id="edge39" class="edge">
<title>routers.vm&#45;&gt;methods.manager.WebsockifyService</title>
<path fill="none" stroke="black" d="M265.5,-253.65C278.57,-217.24 312.69,-135.53 368.75,-91 369.88,-90.1 371.04,-89.23 372.23,-88.39"/>
<polygon fill="black" stroke="black" points="373.85,-91.51 380.53,-83.28 370.18,-85.55 373.85,-91.51"/>
</g>
<!-- utils&#45;&gt;configs.vm_profiles -->
<g id="edge40" class="edge">
<title>utils&#45;&gt;configs.vm_profiles</title>
<path fill="none" stroke="black" d="M677.12,-25.49C700.75,-32.25 736.39,-42.47 766.82,-51.19"/>
<polygon fill="black" stroke="black" points="765.73,-54.52 776.31,-53.91 767.66,-47.79 765.73,-54.52"/>
</g>
</g>
</svg>
