<?xml version="1.0" encoding="UTF-8" standalone="no"?>
<!DOCTYPE svg PUBLIC "-//W3C//DTD SVG 1.1//EN"
 "http://www.w3.org/Graphics/SVG/1.1/DTD/svg11.dtd">
<!-- Generated by graphviz version 13.1.1 (20250719.2154)
 -->
<!-- Title: python_deps Pages: 1 -->
<svg width="1009pt" height="1046pt"
 viewBox="0.00 0.00 1009.00 1046.00" xmlns="http://www.w3.org/2000/svg" xmlns:xlink="http://www.w3.org/1999/xlink">
<g id="graph0" class="graph" transform="scale(1 1) rotate(0) translate(4 1041.91)">
<title>python_deps</title>
<polygon fill="white" stroke="none" points="-4,4 -4,-1041.91 1004.5,-1041.91 1004.5,4 -4,4"/>
<!-- configs.auth_config -->
<g id="node1" class="node">
<title>configs.auth_config</title>
<polygon fill="none" stroke="black" points="122.88,-339 25.12,-339 25.12,-303 122.88,-303 122.88,-339"/>
<text xml:space="preserve" text-anchor="middle" x="74" y="-317.12" font-family="Times,serif" font-size="10.00">configs.auth_config</text>
</g>
<!-- configs.config -->
<g id="node2" class="node">
<title>configs.config</title>
<polygon fill="none" stroke="black" points="1000.5,-771 926,-771 926,-735 1000.5,-735 1000.5,-771"/>
<text xml:space="preserve" text-anchor="middle" x="963.25" y="-749.12" font-family="Times,serif" font-size="10.00">configs.config</text>
</g>
<!-- configs.log_config -->
<g id="node3" class="node">
<title>configs.log_config</title>
<polygon fill="none" stroke="black" points="697,-832 603.75,-832 603.75,-796 697,-796 697,-832"/>
<text xml:space="preserve" text-anchor="middle" x="650.38" y="-810.12" font-family="Times,serif" font-size="10.00">configs.log_config</text>
</g>
<!-- configs.redis_config -->
<g id="node4" class="node">
<title>configs.redis_config</title>
<polygon fill="none" stroke="black" points="876.88,-458 777.62,-458 777.62,-422 876.88,-422 876.88,-458"/>
<text xml:space="preserve" text-anchor="middle" x="827.25" y="-436.12" font-family="Times,serif" font-size="10.00">configs.redis_config</text>
</g>
<!-- configs.server_config -->
<g id="node5" class="node">
<title>configs.server_config</title>
<polygon fill="none" stroke="black" points="504.38,-366 400.62,-366 400.62,-330 504.38,-330 504.38,-366"/>
<text xml:space="preserve" text-anchor="middle" x="452.5" y="-344.12" font-family="Times,serif" font-size="10.00">configs.server_config</text>
</g>
<!-- configs.vm_profiles -->
<g id="node6" class="node">
<title>configs.vm_profiles</title>
<polygon fill="none" stroke="black" points="875.75,-220 778.75,-220 778.75,-184 875.75,-184 875.75,-220"/>
<text xml:space="preserve" text-anchor="middle" x="827.25" y="-198.12" font-family="Times,serif" font-size="10.00">configs.vm_profiles</text>
</g>
<!-- main -->
<g id="node7" class="node">
<title>main</title>
<polygon fill="none" stroke="black" points="101,-393 47,-393 47,-357 101,-357 101,-393"/>
<text xml:space="preserve" text-anchor="middle" x="74" y="-371.12" font-family="Times,serif" font-size="10.00">main</text>
</g>
<!-- methods.manager.SessionManager -->
<g id="node16" class="node">
<title>methods.manager.SessionManager</title>
<polygon fill="none" stroke="black" points="728.5,-458 572.25,-458 572.25,-422 728.5,-422 728.5,-458"/>
<text xml:space="preserve" text-anchor="middle" x="650.38" y="-436.12" font-family="Times,serif" font-size="10.00">methods.manager.SessionManager</text>
</g>
<!-- main&#45;&gt;methods.manager.SessionManager -->
<g id="edge1" class="edge">
<title>main&#45;&gt;methods.manager.SessionManager</title>
<path fill="none" stroke="black" d="M101.47,-368.44C187.29,-347.71 456.88,-286.94 536.25,-321 579.13,-339.4 613.43,-382.93 632.59,-411.92"/>
<polygon fill="black" stroke="black" points="629.56,-413.7 637.9,-420.23 635.46,-409.92 629.56,-413.7"/>
</g>
<!-- observability.metrics -->
<g id="node19" class="node">
<title>observability.metrics</title>
<polygon fill="none" stroke="black" points="502.88,-962 402.12,-962 402.12,-926 502.88,-926 502.88,-962"/>
<text xml:space="preserve" text-anchor="middle" x="452.5" y="-940.12" font-family="Times,serif" font-size="10.00">observability.metrics</text>
</g>
<!-- main&#45;&gt;observability.metrics -->
<g id="edge2" class="edge">
<title>main&#45;&gt;observability.metrics</title>
<path fill="none" stroke="black" d="M101.42,-377.77C117.49,-380.91 136.97,-387.64 148,-402 200.46,-470.33 137.66,-715.37 184,-788 231.43,-862.33 327.88,-905.45 391.08,-926.84"/>
<polygon fill="black" stroke="black" points="389.66,-930.06 400.26,-929.86 391.85,-923.41 389.66,-930.06"/>
</g>
<!-- observability.utils_observability -->
<g id="node20" class="node">
<title>observability.utils_observability</title>
<polygon fill="none" stroke="black" points="332.75,-90 184,-90 184,-54 332.75,-54 332.75,-90"/>
<text xml:space="preserve" text-anchor="middle" x="258.38" y="-68.12" font-family="Times,serif" font-size="10.00">observability.utils_observability</text>
</g>
<!-- main&#45;&gt;observability.utils_observability -->
<g id="edge3" class="edge">
<title>main&#45;&gt;observability.utils_observability</title>
<path fill="none" stroke="black" d="M101.16,-372.03C117.13,-368.8 136.59,-362.06 148,-348 217.06,-262.87 117.4,-191.06 184,-104 185.94,-101.46 188.12,-99.13 190.49,-96.97"/>
<polygon fill="black" stroke="black" points="192.15,-100.11 197.95,-91.24 187.89,-94.56 192.15,-100.11"/>
</g>
<!-- routers.auth -->
<g id="node21" class="node">
<title>routers.auth</title>
<polygon fill="none" stroke="black" points="290.38,-962 226.38,-962 226.38,-926 290.38,-926 290.38,-962"/>
<text xml:space="preserve" text-anchor="middle" x="258.38" y="-940.12" font-family="Times,serif" font-size="10.00">routers.auth</text>
</g>
<!-- main&#45;&gt;routers.auth -->
<g id="edge4" class="edge">
<title>main&#45;&gt;routers.auth</title>
<path fill="none" stroke="black" d="M101.16,-377.62C117.33,-380.71 137.03,-387.42 148,-402 213.38,-488.89 131.39,-794.83 184,-890 191.5,-903.57 204.01,-914.66 216.6,-923.19"/>
<polygon fill="black" stroke="black" points="214.55,-926.03 224.88,-928.4 218.28,-920.11 214.55,-926.03"/>
</g>
<!-- routers.pages -->
<g id="node22" class="node">
<title>routers.pages</title>
<polygon fill="none" stroke="black" points="293,-36 223.75,-36 223.75,0 293,0 293,-36"/>
<text xml:space="preserve" text-anchor="middle" x="258.38" y="-14.12" font-family="Times,serif" font-size="10.00">routers.pages</text>
</g>
<!-- main&#45;&gt;routers.pages -->
<g id="edge5" class="edge">
<title>main&#45;&gt;routers.pages</title>
<path fill="none" stroke="black" d="M101.3,-372.14C117.32,-368.95 136.79,-362.22 148,-348 231.94,-241.48 99.97,-151.45 184,-45 191.19,-35.89 201.76,-29.85 212.66,-25.85"/>
<polygon fill="black" stroke="black" points="213.57,-29.23 222.1,-22.94 211.51,-22.55 213.57,-29.23"/>
</g>
<!-- routers.post -->
<g id="node23" class="node">
<title>routers.post</title>
<polygon fill="none" stroke="black" points="290,-626 226.75,-626 226.75,-590 290,-590 290,-626"/>
<text xml:space="preserve" text-anchor="middle" x="258.38" y="-604.12" font-family="Times,serif" font-size="10.00">routers.post</text>
</g>
<!-- main&#45;&gt;routers.post -->
<g id="edge6" class="edge">
<title>main&#45;&gt;routers.post</title>
<path fill="none" stroke="black" d="M101.38,-379.87C116.44,-383.76 134.88,-390.53 148,-402 176.98,-427.34 223.24,-528.66 245.13,-579.13"/>
<polygon fill="black" stroke="black" points="241.89,-580.46 249.06,-588.26 248.32,-577.69 241.89,-580.46"/>
</g>
<!-- routers.root -->
<g id="node24" class="node">
<title>routers.root</title>
<polygon fill="none" stroke="black" points="483.75,-274 421.25,-274 421.25,-238 483.75,-238 483.75,-274"/>
<text xml:space="preserve" text-anchor="middle" x="452.5" y="-252.12" font-family="Times,serif" font-size="10.00">routers.root</text>
</g>
<!-- main&#45;&gt;routers.root -->
<g id="edge7" class="edge">
<title>main&#45;&gt;routers.root</title>
<path fill="none" stroke="black" d="M101.17,-369.87C116.15,-365.9 134.58,-359.13 148,-348 171.94,-328.15 157.9,-304.91 184,-288 253.09,-243.26 353.6,-244.91 409.68,-250.31"/>
<polygon fill="black" stroke="black" points="409.13,-253.77 419.44,-251.35 409.87,-246.81 409.13,-253.77"/>
</g>
<!-- routers.sessions -->
<g id="node25" class="node">
<title>routers.sessions</title>
<polygon fill="none" stroke="black" points="297.88,-779 218.88,-779 218.88,-743 297.88,-743 297.88,-779"/>
<text xml:space="preserve" text-anchor="middle" x="258.38" y="-757.12" font-family="Times,serif" font-size="10.00">routers.sessions</text>
</g>
<!-- main&#45;&gt;routers.sessions -->
<g id="edge8" class="edge">
<title>main&#45;&gt;routers.sessions</title>
<path fill="none" stroke="black" d="M101.49,-378.07C117.37,-381.34 136.63,-388.08 148,-402 214.29,-483.15 149.02,-536.23 184,-635 196.85,-671.28 220.32,-708.91 237.26,-733.49"/>
<polygon fill="black" stroke="black" points="234.37,-735.46 242.98,-741.63 240.09,-731.44 234.37,-735.46"/>
</g>
<!-- routers.vm -->
<g id="node26" class="node">
<title>routers.vm</title>
<polygon fill="none" stroke="black" points="287.75,-443 229,-443 229,-407 287.75,-407 287.75,-443"/>
<text xml:space="preserve" text-anchor="middle" x="258.38" y="-421.12" font-family="Times,serif" font-size="10.00">routers.vm</text>
</g>
<!-- main&#45;&gt;routers.vm -->
<g id="edge9" class="edge">
<title>main&#45;&gt;routers.vm</title>
<path fill="none" stroke="black" d="M101.13,-382.16C131.61,-390.52 182.34,-404.43 217.69,-414.12"/>
<polygon fill="black" stroke="black" points="216.56,-417.44 227.13,-416.71 218.41,-410.69 216.56,-417.44"/>
</g>
<!-- utils -->
<g id="node27" class="node">
<title>utils</title>
<polygon fill="none" stroke="black" points="677.38,-220 623.38,-220 623.38,-184 677.38,-184 677.38,-220"/>
<text xml:space="preserve" text-anchor="middle" x="650.38" y="-198.12" font-family="Times,serif" font-size="10.00">utils</text>
</g>
<!-- main&#45;&gt;utils -->
<g id="edge10" class="edge">
<title>main&#45;&gt;utils</title>
<path fill="none" stroke="black" d="M101.36,-371.02C116.79,-367.42 135.62,-360.65 148,-348 182.22,-313.05 149.83,-279 184,-244 245.22,-181.28 282.5,-190.58 368.75,-175 442.01,-161.77 462.32,-166.3 536.25,-175 562.04,-178.03 590.46,-184.83 612.36,-190.85"/>
<polygon fill="black" stroke="black" points="611.14,-194.14 621.72,-193.49 613.04,-187.4 611.14,-194.14"/>
</g>
<!-- methods.auth.auth -->
<g id="node8" class="node">
<title>methods.auth.auth</title>
<polygon fill="none" stroke="black" points="498,-794 407,-794 407,-758 498,-758 498,-794"/>
<text xml:space="preserve" text-anchor="middle" x="452.5" y="-772.12" font-family="Times,serif" font-size="10.00">methods.auth.auth</text>
</g>
<!-- methods.auth.auth&#45;&gt;configs.config -->
<g id="edge11" class="edge">
<title>methods.auth.auth&#45;&gt;configs.config</title>
<path fill="none" stroke="black" d="M498.49,-770.86C558.89,-764.25 669.61,-753.11 764.5,-749 820.23,-746.59 834.24,-747.46 890,-749 897.85,-749.22 906.18,-749.57 914.28,-749.97"/>
<polygon fill="black" stroke="black" points="913.83,-753.45 924,-750.49 914.2,-746.46 913.83,-753.45"/>
</g>
<!-- methods.auth.auth&#45;&gt;configs.log_config -->
<g id="edge12" class="edge">
<title>methods.auth.auth&#45;&gt;configs.log_config</title>
<path fill="none" stroke="black" d="M498.44,-784.72C526.28,-790.12 562.3,-797.11 592.17,-802.9"/>
<polygon fill="black" stroke="black" points="591.32,-806.3 601.8,-804.77 592.65,-799.43 591.32,-806.3"/>
</g>
<!-- methods.database.database -->
<g id="node10" class="node">
<title>methods.database.database</title>
<polygon fill="none" stroke="black" points="890,-794 764.5,-794 764.5,-758 890,-758 890,-794"/>
<text xml:space="preserve" text-anchor="middle" x="827.25" y="-772.12" font-family="Times,serif" font-size="10.00">methods.database.database</text>
</g>
<!-- methods.auth.auth&#45;&gt;methods.database.database -->
<g id="edge13" class="edge">
<title>methods.auth.auth&#45;&gt;methods.database.database</title>
<path fill="none" stroke="black" d="M498.46,-776C561.54,-776 677.06,-776 752.74,-776"/>
<polygon fill="black" stroke="black" points="752.55,-779.5 762.55,-776 752.55,-772.5 752.55,-779.5"/>
</g>
<!-- methods.database.models -->
<g id="node12" class="node">
<title>methods.database.models</title>
<polygon fill="none" stroke="black" points="710.12,-886 590.62,-886 590.62,-850 710.12,-850 710.12,-886"/>
<text xml:space="preserve" text-anchor="middle" x="650.38" y="-864.12" font-family="Times,serif" font-size="10.00">methods.database.models</text>
</g>
<!-- methods.auth.auth&#45;&gt;methods.database.models -->
<g id="edge14" class="edge">
<title>methods.auth.auth&#45;&gt;methods.database.models</title>
<path fill="none" stroke="black" d="M498.33,-789.86C511.05,-794.7 524.6,-800.77 536.25,-808 554.69,-819.45 553.63,-829.85 572.25,-841 574.7,-842.47 577.24,-843.87 579.84,-845.21"/>
<polygon fill="black" stroke="black" points="578.22,-848.31 588.76,-849.42 581.21,-841.99 578.22,-848.31"/>
</g>
<!-- methods.auth.email_verification -->
<g id="node9" class="node">
<title>methods.auth.email_verification</title>
<polygon fill="none" stroke="black" points="148,-447 0,-447 0,-411 148,-411 148,-447"/>
<text xml:space="preserve" text-anchor="middle" x="74" y="-425.12" font-family="Times,serif" font-size="10.00">methods.auth.email_verification</text>
</g>
<!-- methods.database.database&#45;&gt;configs.config -->
<g id="edge15" class="edge">
<title>methods.database.database&#45;&gt;configs.config</title>
<path fill="none" stroke="black" d="M890.15,-765.38C898.35,-763.97 906.66,-762.54 914.57,-761.18"/>
<polygon fill="black" stroke="black" points="915.06,-764.65 924.33,-759.51 913.88,-757.75 915.06,-764.65"/>
</g>
<!-- methods.database.init_db -->
<g id="node11" class="node">
<title>methods.database.init_db</title>
<polygon fill="none" stroke="black" points="134.12,-501 13.88,-501 13.88,-465 134.12,-465 134.12,-501"/>
<text xml:space="preserve" text-anchor="middle" x="74" y="-479.12" font-family="Times,serif" font-size="10.00">methods.database.init_db</text>
</g>
<!-- methods.database.models&#45;&gt;methods.database.database -->
<g id="edge16" class="edge">
<title>methods.database.models&#45;&gt;methods.database.database</title>
<path fill="none" stroke="black" d="M709.31,-849.5C715.88,-846.88 722.4,-844.03 728.5,-841 751.18,-829.71 774.89,-814.06 793.28,-800.94"/>
<polygon fill="black" stroke="black" points="795.1,-803.94 801.15,-795.23 790.99,-798.27 795.1,-803.94"/>
</g>
<!-- methods.manager -->
<g id="node13" class="node">
<title>methods.manager</title>
<polygon fill="none" stroke="black" points="496.12,-420 408.88,-420 408.88,-384 496.12,-384 496.12,-420"/>
<text xml:space="preserve" text-anchor="middle" x="452.5" y="-398.12" font-family="Times,serif" font-size="10.00">methods.manager</text>
</g>
<!-- methods.manager.OverlayManager -->
<g id="node14" class="node">
<title>methods.manager.OverlayManager</title>
<polygon fill="none" stroke="black" points="531.75,-664 373.25,-664 373.25,-628 531.75,-628 531.75,-664"/>
<text xml:space="preserve" text-anchor="middle" x="452.5" y="-642.12" font-family="Times,serif" font-size="10.00">methods.manager.OverlayManager</text>
</g>
<!-- methods.manager.OverlayManager&#45;&gt;configs.log_config -->
<g id="edge17" class="edge">
<title>methods.manager.OverlayManager&#45;&gt;configs.log_config</title>
<path fill="none" stroke="black" d="M475.34,-664.35C492.06,-678.43 515.67,-698.38 536.25,-716 564.65,-740.32 596.87,-768.26 619.64,-788.07"/>
<polygon fill="black" stroke="black" points="617.19,-790.58 627.03,-794.51 621.79,-785.3 617.19,-790.58"/>
</g>
<!-- methods.manager.OverlayManager&#45;&gt;configs.vm_profiles -->
<g id="edge18" class="edge">
<title>methods.manager.OverlayManager&#45;&gt;configs.vm_profiles</title>
<path fill="none" stroke="black" d="M498.7,-627.56C559.13,-600.74 665.87,-545.47 728.5,-467 786.53,-394.29 812.24,-283.8 821.66,-231.47"/>
<polygon fill="black" stroke="black" points="825.07,-232.28 823.31,-221.83 818.17,-231.1 825.07,-232.28"/>
</g>
<!-- methods.manager.ProcessManager -->
<g id="node15" class="node">
<title>methods.manager.ProcessManager</title>
<polygon fill="none" stroke="black" points="728.12,-274 572.62,-274 572.62,-238 728.12,-238 728.12,-274"/>
<text xml:space="preserve" text-anchor="middle" x="650.38" y="-252.12" font-family="Times,serif" font-size="10.00">methods.manager.ProcessManager</text>
</g>
<!-- methods.manager.SessionManager&#45;&gt;configs.redis_config -->
<g id="edge19" class="edge">
<title>methods.manager.SessionManager&#45;&gt;configs.redis_config</title>
<path fill="none" stroke="black" d="M728.84,-440C741.3,-440 754.04,-440 766.02,-440"/>
<polygon fill="black" stroke="black" points="765.72,-443.5 775.72,-440 765.72,-436.5 765.72,-443.5"/>
</g>
<!-- methods.manager.WebsockifyService -->
<g id="node17" class="node">
<title>methods.manager.WebsockifyService</title>
<polygon fill="none" stroke="black" points="536.25,-220 368.75,-220 368.75,-184 536.25,-184 536.25,-220"/>
<text xml:space="preserve" text-anchor="middle" x="452.5" y="-198.12" font-family="Times,serif" font-size="10.00">methods.manager.WebsockifyService</text>
</g>
<!-- methods.manager.WebsockifyService&#45;&gt;methods.manager.ProcessManager -->
<g id="edge20" class="edge">
<title>methods.manager.WebsockifyService&#45;&gt;methods.manager.ProcessManager</title>
<path fill="none" stroke="black" d="M520.36,-220.43C536.82,-224.97 554.58,-229.87 571.5,-234.53"/>
<polygon fill="black" stroke="black" points="570.45,-237.87 581.02,-237.16 572.31,-231.12 570.45,-237.87"/>
</g>
<!-- methods.manager.WebsockifyService&#45;&gt;methods.manager.SessionManager -->
<g id="edge21" class="edge">
<title>methods.manager.WebsockifyService&#45;&gt;methods.manager.SessionManager</title>
<path fill="none" stroke="black" d="M523.78,-220.48C528.21,-222.97 532.43,-225.8 536.25,-229 551.75,-241.98 609.01,-357.07 635.62,-411.59"/>
<polygon fill="black" stroke="black" points="632.33,-412.82 639.85,-420.28 638.62,-409.76 632.33,-412.82"/>
</g>
<!-- methods.manager.WebsockifyService&#45;&gt;utils -->
<g id="edge22" class="edge">
<title>methods.manager.WebsockifyService&#45;&gt;utils</title>
<path fill="none" stroke="black" d="M536.57,-202C562.66,-202 590.2,-202 611.54,-202"/>
<polygon fill="black" stroke="black" points="611.5,-205.5 621.5,-202 611.5,-198.5 611.5,-205.5"/>
</g>
<!-- observability -->
<g id="node18" class="node">
<title>observability</title>
<polygon fill="none" stroke="black" points="109,-555 39,-555 39,-519 109,-519 109,-555"/>
<text xml:space="preserve" text-anchor="middle" x="74" y="-533.12" font-family="Times,serif" font-size="10.00">observability</text>
</g>
<!-- observability.metrics&#45;&gt;methods.database.database -->
<g id="edge23" class="edge">
<title>observability.metrics&#45;&gt;methods.database.database</title>
<path fill="none" stroke="black" d="M503.21,-945.21C561.16,-944.45 657.99,-936.29 728.5,-895 765.53,-873.32 794.55,-832.05 811.05,-804.28"/>
<polygon fill="black" stroke="black" points="814.04,-806.09 815.99,-795.67 807.98,-802.6 814.04,-806.09"/>
</g>
<!-- observability.metrics&#45;&gt;methods.database.models -->
<g id="edge24" class="edge">
<title>observability.metrics&#45;&gt;methods.database.models</title>
<path fill="none" stroke="black" d="M501.2,-925.57C512.68,-921.13 524.9,-916.4 536.25,-912 554.32,-904.99 574,-897.34 591.81,-890.42"/>
<polygon fill="black" stroke="black" points="592.59,-893.87 600.64,-886.98 590.05,-887.34 592.59,-893.87"/>
</g>
<!-- observability.metrics&#45;&gt;methods.manager.SessionManager -->
<g id="edge25" class="edge">
<title>observability.metrics&#45;&gt;methods.manager.SessionManager</title>
<path fill="none" stroke="black" d="M466.17,-925.58C483.79,-899.32 515.81,-849.21 536.25,-803 589.05,-683.62 627.78,-532.06 642.67,-469.28"/>
<polygon fill="black" stroke="black" points="646.03,-470.29 644.91,-459.76 639.21,-468.69 646.03,-470.29"/>
</g>
<!-- routers.auth&#45;&gt;configs.config -->
<g id="edge26" class="edge">
<title>routers.auth&#45;&gt;configs.config</title>
<path fill="none" stroke="black" d="M281.1,-962.37C302.01,-978.76 335.32,-1001.57 368.75,-1011 523.5,-1054.63 585.53,-1046.55 728.5,-973 822.15,-924.82 904.92,-827.89 941.83,-780.43"/>
<polygon fill="black" stroke="black" points="944.56,-782.63 947.88,-772.56 939.01,-778.36 944.56,-782.63"/>
</g>
<!-- routers.auth&#45;&gt;configs.log_config -->
<g id="edge27" class="edge">
<title>routers.auth&#45;&gt;configs.log_config</title>
<path fill="none" stroke="black" d="M290.63,-933.58C356.28,-911.7 509.31,-860.69 592.72,-832.89"/>
<polygon fill="black" stroke="black" points="593.7,-836.25 602.08,-829.77 591.49,-829.61 593.7,-836.25"/>
</g>
<!-- routers.auth&#45;&gt;methods.auth.auth -->
<g id="edge28" class="edge">
<title>routers.auth&#45;&gt;methods.auth.auth</title>
<path fill="none" stroke="black" d="M280.3,-925.7C314.66,-895.66 383.11,-835.8 422.25,-801.58"/>
<polygon fill="black" stroke="black" points="424.24,-804.49 429.46,-795.27 419.63,-799.22 424.24,-804.49"/>
</g>
<!-- routers.auth&#45;&gt;methods.database.database -->
<g id="edge29" class="edge">
<title>routers.auth&#45;&gt;methods.database.database</title>
<path fill="none" stroke="black" d="M290.75,-961.94C312.01,-973.02 341.15,-986.21 368.75,-992 441.61,-1007.28 462.66,-1003.22 536.25,-992 624.74,-978.51 657.61,-986.65 728.5,-932 771.9,-898.54 801.01,-839.93 815.51,-804.86"/>
<polygon fill="black" stroke="black" points="818.68,-806.36 819.14,-795.77 812.18,-803.76 818.68,-806.36"/>
</g>
<!-- routers.auth&#45;&gt;methods.database.models -->
<g id="edge30" class="edge">
<title>routers.auth&#45;&gt;methods.database.models</title>
<path fill="none" stroke="black" d="M290.52,-955.93C343.11,-974.17 452.02,-1003.6 536.25,-971 575.35,-955.87 609.24,-920.24 629.48,-895.14"/>
<polygon fill="black" stroke="black" points="632.21,-897.33 635.62,-887.3 626.7,-893.02 632.21,-897.33"/>
</g>
<!-- routers.post&#45;&gt;configs.config -->
<g id="edge31" class="edge">
<title>routers.post&#45;&gt;configs.config</title>
<path fill="none" stroke="black" d="M290.38,-606.58C341.88,-604.81 448.1,-603.67 536.25,-619 677.96,-643.65 838.01,-702.95 915.39,-733.73"/>
<polygon fill="black" stroke="black" points="913.76,-736.85 924.34,-737.31 916.36,-730.35 913.76,-736.85"/>
</g>
<!-- routers.post&#45;&gt;methods.auth.auth -->
<g id="edge32" class="edge">
<title>routers.post&#45;&gt;methods.auth.auth</title>
<path fill="none" stroke="black" d="M269.78,-626.41C286.93,-655.24 323.74,-711.1 368.75,-744 377.06,-750.07 386.67,-755.16 396.34,-759.35"/>
<polygon fill="black" stroke="black" points="394.8,-762.51 405.38,-763 397.42,-756.02 394.8,-762.51"/>
</g>
<!-- routers.post&#45;&gt;methods.database.database -->
<g id="edge33" class="edge">
<title>routers.post&#45;&gt;methods.database.database</title>
<path fill="none" stroke="black" d="M285.13,-626.49C306.57,-641.07 338.38,-660.91 368.75,-673 498.91,-724.81 660.79,-753.51 752.94,-766.75"/>
<polygon fill="black" stroke="black" points="752.21,-770.18 762.61,-768.12 753.19,-763.25 752.21,-770.18"/>
</g>
<!-- routers.post&#45;&gt;methods.database.models -->
<g id="edge34" class="edge">
<title>routers.post&#45;&gt;methods.database.models</title>
<path fill="none" stroke="black" d="M270.34,-626.21C284.92,-650.57 311.35,-695.21 332.75,-734 349.46,-764.29 341.05,-782.28 368.75,-803 429.51,-848.45 462.46,-818.33 536.25,-836 550.33,-839.37 565.29,-843.33 579.56,-847.29"/>
<polygon fill="black" stroke="black" points="578.28,-850.57 588.86,-849.91 580.18,-843.83 578.28,-850.57"/>
</g>
<!-- routers.post&#45;&gt;methods.manager.SessionManager -->
<g id="edge35" class="edge">
<title>routers.post&#45;&gt;methods.manager.SessionManager</title>
<path fill="none" stroke="black" d="M274.8,-589.52C294.37,-567.29 330.23,-530.42 368.75,-510 428.64,-478.25 503.4,-460.52 560.7,-450.85"/>
<polygon fill="black" stroke="black" points="561.12,-454.33 570.42,-449.27 559.99,-447.42 561.12,-454.33"/>
</g>
<!-- routers.root&#45;&gt;methods.manager.SessionManager -->
<g id="edge36" class="edge">
<title>routers.root&#45;&gt;methods.manager.SessionManager</title>
<path fill="none" stroke="black" d="M483.89,-263.29C500.51,-268.32 520.8,-276.25 536.25,-288 580.91,-321.95 616.27,-378.12 634.9,-411.84"/>
<polygon fill="black" stroke="black" points="631.81,-413.48 639.64,-420.61 637.97,-410.15 631.81,-413.48"/>
</g>
<!-- routers.sessions&#45;&gt;methods.auth.auth -->
<g id="edge37" class="edge">
<title>routers.sessions&#45;&gt;methods.auth.auth</title>
<path fill="none" stroke="black" d="M298.25,-764.04C326.18,-766.22 364.25,-769.19 395.46,-771.62"/>
<polygon fill="black" stroke="black" points="394.86,-775.09 405.11,-772.38 395.41,-768.11 394.86,-775.09"/>
</g>
<!-- routers.sessions&#45;&gt;methods.database.models -->
<g id="edge38" class="edge">
<title>routers.sessions&#45;&gt;methods.database.models</title>
<path fill="none" stroke="black" d="M279.42,-779.29C300.14,-797.04 334.24,-823.12 368.75,-836 437.12,-861.52 520.84,-868.19 578.95,-869.29"/>
<polygon fill="black" stroke="black" points="578.66,-872.79 588.71,-869.42 578.76,-865.79 578.66,-872.79"/>
</g>
<!-- routers.sessions&#45;&gt;methods.manager.SessionManager -->
<g id="edge39" class="edge">
<title>routers.sessions&#45;&gt;methods.manager.SessionManager</title>
<path fill="none" stroke="black" d="M271.01,-742.62C289.54,-714.17 327.87,-658.64 368.75,-619 373.76,-614.15 566.16,-475.4 572.25,-472 577.84,-468.87 583.81,-465.88 589.84,-463.05"/>
<polygon fill="black" stroke="black" points="590.95,-466.39 598.64,-459.09 588.08,-460 590.95,-466.39"/>
</g>
<!-- routers.vm&#45;&gt;configs.server_config -->
<g id="edge40" class="edge">
<title>routers.vm&#45;&gt;configs.server_config</title>
<path fill="none" stroke="black" d="M288.24,-410.72C310.07,-400.18 340.94,-385.85 368.75,-375 375.48,-372.37 382.58,-369.79 389.69,-367.31"/>
<polygon fill="black" stroke="black" points="390.64,-370.69 398.98,-364.15 388.39,-364.06 390.64,-370.69"/>
</g>
<!-- routers.vm&#45;&gt;configs.vm_profiles -->
<g id="edge41" class="edge">
<title>routers.vm&#45;&gt;configs.vm_profiles</title>
<path fill="none" stroke="black" d="M260.88,-406.58C265.92,-358.37 286.88,-228.55 368.75,-175 493.37,-93.5 680.27,-145.59 771.81,-179.5"/>
<polygon fill="black" stroke="black" points="770.48,-182.74 781.07,-183 772.95,-176.19 770.48,-182.74"/>
</g>
<!-- routers.vm&#45;&gt;methods.auth.auth -->
<g id="edge42" class="edge">
<title>routers.vm&#45;&gt;methods.auth.auth</title>
<path fill="none" stroke="black" d="M269.56,-443.17C285.18,-471.72 315.08,-529.16 332.75,-581 356.69,-651.22 320.41,-687.72 368.75,-744 376.05,-752.5 385.88,-758.75 396.22,-763.35"/>
<polygon fill="black" stroke="black" points="394.65,-766.5 405.24,-766.87 397.2,-759.98 394.65,-766.5"/>
</g>
<!-- routers.vm&#45;&gt;methods.database.database -->
<g id="edge43" class="edge">
<title>routers.vm&#45;&gt;methods.database.database</title>
<path fill="none" stroke="black" d="M287.87,-442.65C381.49,-500.61 679.72,-685.27 787.18,-751.81"/>
<polygon fill="black" stroke="black" points="785.04,-754.6 795.39,-756.89 788.73,-748.65 785.04,-754.6"/>
</g>
<!-- routers.vm&#45;&gt;methods.database.models -->
<g id="edge44" class="edge">
<title>routers.vm&#45;&gt;methods.database.models</title>
<path fill="none" stroke="black" d="M268.36,-443.07C282.6,-471.96 310.98,-530.41 332.75,-581 350.1,-621.33 338.54,-641.14 368.75,-673 425,-732.32 480,-689.68 536.25,-749 566.46,-780.86 540.64,-810.52 572.25,-841 574.77,-843.43 577.53,-845.65 580.44,-847.66"/>
<polygon fill="black" stroke="black" points="578.54,-850.6 588.93,-852.68 582.1,-844.58 578.54,-850.6"/>
</g>
<!-- routers.vm&#45;&gt;methods.manager -->
<g id="edge45" class="edge">
<title>routers.vm&#45;&gt;methods.manager</title>
<path fill="none" stroke="black" d="M288.14,-421.56C316.95,-418.11 361.99,-412.72 397.48,-408.47"/>
<polygon fill="black" stroke="black" points="397.62,-411.97 407.14,-407.31 396.79,-405.02 397.62,-411.97"/>
</g>
<!-- routers.vm&#45;&gt;methods.manager.OverlayManager -->
<g id="edge46" class="edge">
<title>routers.vm&#45;&gt;methods.manager.OverlayManager</title>
<path fill="none" stroke="black" d="M270.55,-443.27C289.04,-472.79 328.03,-532.09 368.75,-576 383.62,-592.03 402.04,-607.93 417.72,-620.52"/>
<polygon fill="black" stroke="black" points="415.39,-623.13 425.4,-626.58 419.72,-617.64 415.39,-623.13"/>
</g>
<!-- routers.vm&#45;&gt;methods.manager.SessionManager -->
<g id="edge47" class="edge">
<title>routers.vm&#45;&gt;methods.manager.SessionManager</title>
<path fill="none" stroke="black" d="M288.05,-426.1C344.76,-428.28 473.3,-433.23 560.73,-436.59"/>
<polygon fill="black" stroke="black" points="560.34,-440.08 570.47,-436.97 560.61,-433.08 560.34,-440.08"/>
</g>
<!-- routers.vm&#45;&gt;methods.manager.WebsockifyService -->
<g id="edge48" class="edge">
<title>routers.vm&#45;&gt;methods.manager.WebsockifyService</title>
<path fill="none" stroke="black" d="M264.59,-406.63C276.49,-368.01 309.33,-277.91 368.75,-229 369.87,-228.08 371.01,-227.19 372.19,-226.34"/>
<polygon fill="black" stroke="black" points="373.83,-229.44 380.41,-221.14 370.09,-223.52 373.83,-229.44"/>
</g>
<!-- utils&#45;&gt;configs.vm_profiles -->
<g id="edge49" class="edge">
<title>utils&#45;&gt;configs.vm_profiles</title>
<path fill="none" stroke="black" d="M677.56,-202C701.13,-202 736.64,-202 767.04,-202"/>
<polygon fill="black" stroke="black" points="766.9,-205.5 776.9,-202 766.9,-198.5 766.9,-205.5"/>
</g>
</g>
</svg>
