<?xml version="1.0" encoding="UTF-8" standalone="no"?>
<!DOCTYPE svg PUBLIC "-//W3C//DTD SVG 1.1//EN"
 "http://www.w3.org/Graphics/SVG/1.1/DTD/svg11.dtd">
<!-- Generated by graphviz version 13.1.1 (20250719.2154)
 -->
<!-- Title: python_deps Pages: 1 -->
<svg width="1016pt" height="1101pt"
 viewBox="0.00 0.00 1016.00 1101.00" xmlns="http://www.w3.org/2000/svg" xmlns:xlink="http://www.w3.org/1999/xlink">
<g id="graph0" class="graph" transform="scale(1 1) rotate(0) translate(4 1096.5)">
<title>python_deps</title>
<polygon fill="white" stroke="none" points="-4,4 -4,-1096.5 1012,-1096.5 1012,4 -4,4"/>
<!-- configs.config -->
<g id="node1" class="node">
<title>configs.config</title>
<polygon fill="none" stroke="black" points="1008,-604.3 933.5,-604.3 933.5,-568.3 1008,-568.3 1008,-604.3"/>
<text xml:space="preserve" text-anchor="middle" x="970.75" y="-582.42" font-family="Times,serif" font-size="10.00">configs.config</text>
</g>
<!-- main -->
<g id="node2" class="node">
<title>main</title>
<polygon fill="none" stroke="black" points="88.25,-712.3 34.25,-712.3 34.25,-676.3 88.25,-676.3 88.25,-712.3"/>
<text xml:space="preserve" text-anchor="middle" x="61.25" y="-690.42" font-family="Times,serif" font-size="10.00">main</text>
</g>
<!-- methods.database.database -->
<g id="node4" class="node">
<title>methods.database.database</title>
<polygon fill="none" stroke="black" points="881,-803.3 755.5,-803.3 755.5,-767.3 881,-767.3 881,-803.3"/>
<text xml:space="preserve" text-anchor="middle" x="818.25" y="-781.42" font-family="Times,serif" font-size="10.00">methods.database.database</text>
</g>
<!-- main&#45;&gt;methods.database.database -->
<g id="edge1" class="edge">
<title>main&#45;&gt;methods.database.database</title>
<path fill="none" stroke="black" d="M88.61,-699.77C100.84,-703.69 114.43,-710.3 122.5,-721.3 203.54,-831.68 69.58,-923.16 158.5,-1027.3 213.89,-1092.16 258.75,-1067.63 343.25,-1079.3 417,-1089.48 439.65,-1101.35 510.75,-1079.3 609.74,-1048.58 629.25,-1020.12 703,-947.3 744.83,-905.98 781.71,-847.67 801.62,-813.44"/>
<polygon fill="black" stroke="black" points="804.55,-815.37 806.48,-804.95 798.47,-811.88 804.55,-815.37"/>
</g>
<!-- methods.manager.SessionManager -->
<g id="node10" class="node">
<title>methods.manager.SessionManager</title>
<polygon fill="none" stroke="black" points="703,-520.3 546.75,-520.3 546.75,-484.3 703,-484.3 703,-520.3"/>
<text xml:space="preserve" text-anchor="middle" x="624.88" y="-498.42" font-family="Times,serif" font-size="10.00">methods.manager.SessionManager</text>
</g>
<!-- main&#45;&gt;methods.manager.SessionManager -->
<g id="edge2" class="edge">
<title>main&#45;&gt;methods.manager.SessionManager</title>
<path fill="none" stroke="black" d="M65.31,-675.99C73.12,-635.14 97.62,-536 158.5,-483.3 278.24,-379.62 358.82,-384.53 510.75,-429.3 542.34,-438.6 573.42,-459.77 594.98,-476.93"/>
<polygon fill="black" stroke="black" points="592.49,-479.41 602.44,-483.03 596.92,-473.99 592.49,-479.41"/>
</g>
<!-- observability.db_metrics -->
<g id="node13" class="node">
<title>observability.db_metrics</title>
<polygon fill="none" stroke="black" points="291.12,-912.3 174.62,-912.3 174.62,-876.3 291.12,-876.3 291.12,-912.3"/>
<text xml:space="preserve" text-anchor="middle" x="232.88" y="-890.42" font-family="Times,serif" font-size="10.00">observability.db_metrics</text>
</g>
<!-- main&#45;&gt;observability.db_metrics -->
<g id="edge3" class="edge">
<title>main&#45;&gt;observability.db_metrics</title>
<path fill="none" stroke="black" d="M88.65,-700.43C100.58,-704.48 113.91,-711 122.5,-721.3 165.33,-772.6 113.93,-817.49 158.5,-867.3 160.44,-869.46 162.57,-871.46 164.84,-873.29"/>
<polygon fill="black" stroke="black" points="162.73,-876.09 172.98,-878.76 166.63,-870.28 162.73,-876.09"/>
</g>
<!-- observability.grafana_proxy -->
<g id="node14" class="node">
<title>observability.grafana_proxy</title>
<polygon fill="none" stroke="black" points="298.25,-858.3 167.5,-858.3 167.5,-822.3 298.25,-822.3 298.25,-858.3"/>
<text xml:space="preserve" text-anchor="middle" x="232.88" y="-836.42" font-family="Times,serif" font-size="10.00">observability.grafana_proxy</text>
</g>
<!-- main&#45;&gt;observability.grafana_proxy -->
<g id="edge4" class="edge">
<title>main&#45;&gt;observability.grafana_proxy</title>
<path fill="none" stroke="black" d="M88.67,-701.16C100.33,-705.33 113.41,-711.75 122.5,-721.3 152.79,-753.08 127.14,-782.57 158.5,-813.3 159.12,-813.9 159.75,-814.49 160.4,-815.07"/>
<polygon fill="black" stroke="black" points="158.17,-817.77 168.27,-820.98 162.37,-812.17 158.17,-817.77"/>
</g>
<!-- observability.metrics -->
<g id="node16" class="node">
<title>observability.metrics</title>
<polygon fill="none" stroke="black" points="477.38,-826.3 376.62,-826.3 376.62,-790.3 477.38,-790.3 477.38,-826.3"/>
<text xml:space="preserve" text-anchor="middle" x="427" y="-804.42" font-family="Times,serif" font-size="10.00">observability.metrics</text>
</g>
<!-- main&#45;&gt;observability.metrics -->
<g id="edge5" class="edge">
<title>main&#45;&gt;observability.metrics</title>
<path fill="none" stroke="black" d="M88.35,-701.79C107.69,-707.31 134.7,-714.92 158.5,-721.3 224.41,-738.96 242.5,-737.78 307.25,-759.3 329.78,-766.78 354.1,-776.51 374.84,-785.33"/>
<polygon fill="black" stroke="black" points="373.36,-788.5 383.93,-789.24 376.13,-782.07 373.36,-788.5"/>
</g>
<!-- observability.utils_observability -->
<g id="node19" class="node">
<title>observability.utils_observability</title>
<polygon fill="none" stroke="black" points="307.25,-1018.3 158.5,-1018.3 158.5,-982.3 307.25,-982.3 307.25,-1018.3"/>
<text xml:space="preserve" text-anchor="middle" x="232.88" y="-996.42" font-family="Times,serif" font-size="10.00">observability.utils_observability</text>
</g>
<!-- main&#45;&gt;observability.utils_observability -->
<g id="edge6" class="edge">
<title>main&#45;&gt;observability.utils_observability</title>
<path fill="none" stroke="black" d="M88.63,-700.09C100.71,-704.07 114.17,-710.64 122.5,-721.3 178.15,-792.43 118.14,-840.5 158.5,-921.3 168.66,-941.64 185.71,-960.47 200.81,-974.64"/>
<polygon fill="black" stroke="black" points="198.07,-976.87 207.83,-980.99 202.77,-971.68 198.07,-976.87"/>
</g>
<!-- routers.auth -->
<g id="node20" class="node">
<title>routers.auth</title>
<polygon fill="none" stroke="black" points="264.88,-712.3 200.88,-712.3 200.88,-676.3 264.88,-676.3 264.88,-712.3"/>
<text xml:space="preserve" text-anchor="middle" x="232.88" y="-690.42" font-family="Times,serif" font-size="10.00">routers.auth</text>
</g>
<!-- main&#45;&gt;routers.auth -->
<g id="edge7" class="edge">
<title>main&#45;&gt;routers.auth</title>
<path fill="none" stroke="black" d="M88.38,-694.3C115.28,-694.3 157.63,-694.3 189.36,-694.3"/>
<polygon fill="black" stroke="black" points="189.01,-697.8 199.01,-694.3 189.01,-690.8 189.01,-697.8"/>
</g>
<!-- routers.pages -->
<g id="node21" class="node">
<title>routers.pages</title>
<polygon fill="none" stroke="black" points="267.5,-658.3 198.25,-658.3 198.25,-622.3 267.5,-622.3 267.5,-658.3"/>
<text xml:space="preserve" text-anchor="middle" x="232.88" y="-636.42" font-family="Times,serif" font-size="10.00">routers.pages</text>
</g>
<!-- main&#45;&gt;routers.pages -->
<g id="edge8" class="edge">
<title>main&#45;&gt;routers.pages</title>
<path fill="none" stroke="black" d="M88.38,-685.98C114.65,-677.61 155.65,-664.56 187.11,-654.55"/>
<polygon fill="black" stroke="black" points="187.89,-657.97 196.36,-651.6 185.77,-651.3 187.89,-657.97"/>
</g>
<!-- routers.post -->
<g id="node22" class="node">
<title>routers.post</title>
<polygon fill="none" stroke="black" points="264.5,-804.3 201.25,-804.3 201.25,-768.3 264.5,-768.3 264.5,-804.3"/>
<text xml:space="preserve" text-anchor="middle" x="232.88" y="-782.42" font-family="Times,serif" font-size="10.00">routers.post</text>
</g>
<!-- main&#45;&gt;routers.post -->
<g id="edge9" class="edge">
<title>main&#45;&gt;routers.post</title>
<path fill="none" stroke="black" d="M88.71,-703.99C99.59,-708.52 112.06,-714.43 122.5,-721.3 140.64,-733.22 140.3,-742.46 158.5,-754.3 168.37,-760.72 179.75,-766.39 190.56,-771.11"/>
<polygon fill="black" stroke="black" points="189.12,-774.31 199.69,-774.93 191.81,-767.85 189.12,-774.31"/>
</g>
<!-- routers.root -->
<g id="node23" class="node">
<title>routers.root</title>
<polygon fill="none" stroke="black" points="458.25,-474.3 395.75,-474.3 395.75,-438.3 458.25,-438.3 458.25,-474.3"/>
<text xml:space="preserve" text-anchor="middle" x="427" y="-452.42" font-family="Times,serif" font-size="10.00">routers.root</text>
</g>
<!-- main&#45;&gt;routers.root -->
<g id="edge10" class="edge">
<title>main&#45;&gt;routers.root</title>
<path fill="none" stroke="black" d="M70.88,-675.97C85.23,-647.29 116.64,-591.75 158.5,-559.3 227.86,-505.52 328.6,-476.96 384.57,-464.39"/>
<polygon fill="black" stroke="black" points="384.97,-467.88 394,-462.34 383.48,-461.04 384.97,-467.88"/>
</g>
<!-- routers.sessions -->
<g id="node24" class="node">
<title>routers.sessions</title>
<polygon fill="none" stroke="black" points="272.38,-604.3 193.38,-604.3 193.38,-568.3 272.38,-568.3 272.38,-604.3"/>
<text xml:space="preserve" text-anchor="middle" x="232.88" y="-582.42" font-family="Times,serif" font-size="10.00">routers.sessions</text>
</g>
<!-- main&#45;&gt;routers.sessions -->
<g id="edge11" class="edge">
<title>main&#45;&gt;routers.sessions</title>
<path fill="none" stroke="black" d="M79.96,-676.07C98.24,-658.1 128.28,-630.84 158.5,-613.3 165.93,-608.98 174.17,-605.15 182.36,-601.83"/>
<polygon fill="black" stroke="black" points="183.53,-605.13 191.62,-598.3 181.03,-598.59 183.53,-605.13"/>
</g>
<!-- routers.vm -->
<g id="node25" class="node">
<title>routers.vm</title>
<polygon fill="none" stroke="black" points="262.25,-276.3 203.5,-276.3 203.5,-240.3 262.25,-240.3 262.25,-276.3"/>
<text xml:space="preserve" text-anchor="middle" x="232.88" y="-254.42" font-family="Times,serif" font-size="10.00">routers.vm</text>
</g>
<!-- main&#45;&gt;routers.vm -->
<g id="edge12" class="edge">
<title>main&#45;&gt;routers.vm</title>
<path fill="none" stroke="black" d="M65.14,-675.99C73.84,-624.05 102.65,-472.16 158.5,-358.3 171.62,-331.55 191.99,-304.5 207.94,-285.29"/>
<polygon fill="black" stroke="black" points="210.6,-287.58 214.39,-277.68 205.26,-283.05 210.6,-287.58"/>
</g>
<!-- utils -->
<g id="node27" class="node">
<title>utils</title>
<polygon fill="none" stroke="black" points="651.88,-176.3 597.88,-176.3 597.88,-140.3 651.88,-140.3 651.88,-176.3"/>
<text xml:space="preserve" text-anchor="middle" x="624.88" y="-154.42" font-family="Times,serif" font-size="10.00">utils</text>
</g>
<!-- main&#45;&gt;utils -->
<g id="edge13" class="edge">
<title>main&#45;&gt;utils</title>
<path fill="none" stroke="black" d="M64.01,-675.83C71.67,-598.9 104.09,-304.4 158.5,-231.3 255.67,-100.74 349.12,-112.27 510.75,-131.3 536.54,-134.33 564.96,-141.13 586.86,-147.14"/>
<polygon fill="black" stroke="black" points="585.64,-150.44 596.22,-149.78 587.54,-143.7 585.64,-150.44"/>
</g>
<!-- methods.auth.auth -->
<g id="node3" class="node">
<title>methods.auth.auth</title>
<polygon fill="none" stroke="black" points="472.5,-604.3 381.5,-604.3 381.5,-568.3 472.5,-568.3 472.5,-604.3"/>
<text xml:space="preserve" text-anchor="middle" x="427" y="-582.42" font-family="Times,serif" font-size="10.00">methods.auth.auth</text>
</g>
<!-- methods.auth.auth&#45;&gt;configs.config -->
<g id="edge14" class="edge">
<title>methods.auth.auth&#45;&gt;configs.config</title>
<path fill="none" stroke="black" d="M472.79,-586.3C573.73,-586.3 818.21,-586.3 921.94,-586.3"/>
<polygon fill="black" stroke="black" points="921.77,-589.8 931.77,-586.3 921.77,-582.8 921.77,-589.8"/>
</g>
<!-- methods.auth.auth&#45;&gt;methods.database.database -->
<g id="edge15" class="edge">
<title>methods.auth.auth&#45;&gt;methods.database.database</title>
<path fill="none" stroke="black" d="M472.93,-596.59C485.39,-600.03 498.78,-604.29 510.75,-609.3 613.82,-652.41 725.31,-723.22 781.11,-760.52"/>
<polygon fill="black" stroke="black" points="779.04,-763.35 789.29,-766.02 782.95,-757.54 779.04,-763.35"/>
</g>
<!-- methods.database.models -->
<g id="node6" class="node">
<title>methods.database.models</title>
<polygon fill="none" stroke="black" points="684.62,-780.3 565.12,-780.3 565.12,-744.3 684.62,-744.3 684.62,-780.3"/>
<text xml:space="preserve" text-anchor="middle" x="624.88" y="-758.42" font-family="Times,serif" font-size="10.00">methods.database.models</text>
</g>
<!-- methods.auth.auth&#45;&gt;methods.database.models -->
<g id="edge16" class="edge">
<title>methods.auth.auth&#45;&gt;methods.database.models</title>
<path fill="none" stroke="black" d="M472.83,-597.2C486.12,-602.04 499.98,-608.85 510.75,-618.3 535.87,-640.33 526.81,-657.49 546.75,-684.3 560.75,-703.12 579.14,-721.89 594.44,-736.3"/>
<polygon fill="black" stroke="black" points="591.76,-738.58 601.47,-742.8 596.51,-733.44 591.76,-738.58"/>
</g>
<!-- methods.database.database&#45;&gt;configs.config -->
<g id="edge17" class="edge">
<title>methods.database.database&#45;&gt;configs.config</title>
<path fill="none" stroke="black" d="M833.14,-766.93C859.74,-731.76 917.99,-654.74 949.14,-613.55"/>
<polygon fill="black" stroke="black" points="951.74,-615.91 954.98,-605.82 946.16,-611.69 951.74,-615.91"/>
</g>
<!-- methods.database.init_db -->
<g id="node5" class="node">
<title>methods.database.init_db</title>
<polygon fill="none" stroke="black" points="121.38,-766.3 1.12,-766.3 1.12,-730.3 121.38,-730.3 121.38,-766.3"/>
<text xml:space="preserve" text-anchor="middle" x="61.25" y="-744.42" font-family="Times,serif" font-size="10.00">methods.database.init_db</text>
</g>
<!-- methods.database.models&#45;&gt;methods.database.database -->
<g id="edge18" class="edge">
<title>methods.database.models&#45;&gt;methods.database.database</title>
<path fill="none" stroke="black" d="M685.12,-769.41C703.74,-771.65 724.54,-774.15 744.02,-776.49"/>
<polygon fill="black" stroke="black" points="743.46,-779.95 753.81,-777.67 744.3,-773 743.46,-779.95"/>
</g>
<!-- methods.manager -->
<g id="node7" class="node">
<title>methods.manager</title>
<polygon fill="none" stroke="black" points="470.62,-176.3 383.38,-176.3 383.38,-140.3 470.62,-140.3 470.62,-176.3"/>
<text xml:space="preserve" text-anchor="middle" x="427" y="-154.42" font-family="Times,serif" font-size="10.00">methods.manager</text>
</g>
<!-- methods.manager.OverlayManager -->
<g id="node8" class="node">
<title>methods.manager.OverlayManager</title>
<polygon fill="none" stroke="black" points="897.5,-46.3 739,-46.3 739,-10.3 897.5,-10.3 897.5,-46.3"/>
<text xml:space="preserve" text-anchor="middle" x="818.25" y="-24.42" font-family="Times,serif" font-size="10.00">methods.manager.OverlayManager</text>
</g>
<!-- methods.manager.OverlayManager&#45;&gt;configs.config -->
<g id="edge19" class="edge">
<title>methods.manager.OverlayManager&#45;&gt;configs.config</title>
<path fill="none" stroke="black" d="M882.1,-46.55C887.96,-50.32 893.27,-54.84 897.5,-60.3 958.3,-138.7 967.93,-457.19 969.46,-556.54"/>
<polygon fill="black" stroke="black" points="965.96,-556.33 969.59,-566.29 972.96,-556.24 965.96,-556.33"/>
</g>
<!-- methods.manager.ProcessManager -->
<g id="node9" class="node">
<title>methods.manager.ProcessManager</title>
<polygon fill="none" stroke="black" points="702.62,-230.3 547.12,-230.3 547.12,-194.3 702.62,-194.3 702.62,-230.3"/>
<text xml:space="preserve" text-anchor="middle" x="624.88" y="-208.42" font-family="Times,serif" font-size="10.00">methods.manager.ProcessManager</text>
</g>
<!-- methods.manager.SessionManager&#45;&gt;configs.config -->
<g id="edge20" class="edge">
<title>methods.manager.SessionManager&#45;&gt;configs.config</title>
<path fill="none" stroke="black" d="M701.34,-520.73C768.62,-537.16 865.04,-560.72 922.14,-574.67"/>
<polygon fill="black" stroke="black" points="921,-577.99 931.55,-576.96 922.67,-571.19 921,-577.99"/>
</g>
<!-- methods.manager.WebsockifyService -->
<g id="node11" class="node">
<title>methods.manager.WebsockifyService</title>
<polygon fill="none" stroke="black" points="510.75,-230.3 343.25,-230.3 343.25,-194.3 510.75,-194.3 510.75,-230.3"/>
<text xml:space="preserve" text-anchor="middle" x="427" y="-208.42" font-family="Times,serif" font-size="10.00">methods.manager.WebsockifyService</text>
</g>
<!-- methods.manager.WebsockifyService&#45;&gt;methods.manager.ProcessManager -->
<g id="edge21" class="edge">
<title>methods.manager.WebsockifyService&#45;&gt;methods.manager.ProcessManager</title>
<path fill="none" stroke="black" d="M511.07,-212.3C519.15,-212.3 527.37,-212.3 535.49,-212.3"/>
<polygon fill="black" stroke="black" points="535.39,-215.8 545.39,-212.3 535.39,-208.8 535.39,-215.8"/>
</g>
<!-- methods.manager.WebsockifyService&#45;&gt;methods.manager.SessionManager -->
<g id="edge22" class="edge">
<title>methods.manager.WebsockifyService&#45;&gt;methods.manager.SessionManager</title>
<path fill="none" stroke="black" d="M454.62,-230.53C472.13,-243.49 494.7,-262.12 510.75,-282.3 559.56,-343.68 596.3,-429.43 613.35,-473.55"/>
<polygon fill="black" stroke="black" points="609.99,-474.56 616.81,-482.67 616.53,-472.08 609.99,-474.56"/>
</g>
<!-- methods.manager.WebsockifyService&#45;&gt;utils -->
<g id="edge23" class="edge">
<title>methods.manager.WebsockifyService&#45;&gt;utils</title>
<path fill="none" stroke="black" d="M494.86,-193.86C525.56,-185.4 560.81,-175.68 586.69,-168.55"/>
<polygon fill="black" stroke="black" points="587.35,-171.99 596.06,-165.96 585.49,-165.25 587.35,-171.99"/>
</g>
<!-- observability -->
<g id="node12" class="node">
<title>observability</title>
<polygon fill="none" stroke="black" points="96.25,-820.3 26.25,-820.3 26.25,-784.3 96.25,-784.3 96.25,-820.3"/>
<text xml:space="preserve" text-anchor="middle" x="61.25" y="-798.42" font-family="Times,serif" font-size="10.00">observability</text>
</g>
<!-- observability.http_metrics -->
<g id="node15" class="node">
<title>observability.http_metrics</title>
<polygon fill="none" stroke="black" points="122.5,-874.3 0,-874.3 0,-838.3 122.5,-838.3 122.5,-874.3"/>
<text xml:space="preserve" text-anchor="middle" x="61.25" y="-852.42" font-family="Times,serif" font-size="10.00">observability.http_metrics</text>
</g>
<!-- observability.metrics&#45;&gt;methods.database.database -->
<g id="edge24" class="edge">
<title>observability.metrics&#45;&gt;methods.database.database</title>
<path fill="none" stroke="black" d="M477.69,-805.36C545.09,-801.38 665.97,-794.23 743.84,-789.63"/>
<polygon fill="black" stroke="black" points="743.72,-793.15 753.5,-789.06 743.31,-786.16 743.72,-793.15"/>
</g>
<!-- observability.metrics&#45;&gt;methods.database.models -->
<g id="edge25" class="edge">
<title>observability.metrics&#45;&gt;methods.database.models</title>
<path fill="none" stroke="black" d="M477.68,-796.63C500.78,-791.2 528.66,-784.66 553.85,-778.74"/>
<polygon fill="black" stroke="black" points="554.43,-782.2 563.36,-776.51 552.83,-775.39 554.43,-782.2"/>
</g>
<!-- observability.metrics&#45;&gt;methods.manager.SessionManager -->
<g id="edge26" class="edge">
<title>observability.metrics&#45;&gt;methods.manager.SessionManager</title>
<path fill="none" stroke="black" d="M455.19,-789.92C472.73,-777.04 495.1,-758.55 510.75,-738.3 562.1,-671.84 598.27,-578.32 614.41,-531.46"/>
<polygon fill="black" stroke="black" points="617.71,-532.63 617.6,-522.03 611.08,-530.39 617.71,-532.63"/>
</g>
<!-- observability.ops_metrics -->
<g id="node17" class="node">
<title>observability.ops_metrics</title>
<polygon fill="none" stroke="black" points="121.38,-928.3 1.12,-928.3 1.12,-892.3 121.38,-892.3 121.38,-928.3"/>
<text xml:space="preserve" text-anchor="middle" x="61.25" y="-906.42" font-family="Times,serif" font-size="10.00">observability.ops_metrics</text>
</g>
<!-- observability.report -->
<g id="node18" class="node">
<title>observability.report</title>
<polygon fill="none" stroke="black" points="474.75,-1070.3 379.25,-1070.3 379.25,-1034.3 474.75,-1034.3 474.75,-1070.3"/>
<text xml:space="preserve" text-anchor="middle" x="427" y="-1048.42" font-family="Times,serif" font-size="10.00">observability.report</text>
</g>
<!-- observability.report&#45;&gt;configs.config -->
<g id="edge27" class="edge">
<title>observability.report&#45;&gt;configs.config</title>
<path fill="none" stroke="black" d="M475.17,-1065.95C568.87,-1089.88 779.52,-1127.36 897.5,-1020.3 957.33,-966 967.62,-705.07 969.38,-616.09"/>
<polygon fill="black" stroke="black" points="972.88,-616.29 969.55,-606.23 965.88,-616.17 972.88,-616.29"/>
</g>
<!-- observability.utils_observability&#45;&gt;observability.report -->
<g id="edge28" class="edge">
<title>observability.utils_observability&#45;&gt;observability.report</title>
<path fill="none" stroke="black" d="M302.15,-1018.77C323.73,-1024.61 347.35,-1031.01 368.13,-1036.63"/>
<polygon fill="black" stroke="black" points="367,-1039.95 377.56,-1039.19 368.82,-1033.19 367,-1039.95"/>
</g>
<!-- routers.auth&#45;&gt;configs.config -->
<g id="edge29" class="edge">
<title>routers.auth&#45;&gt;configs.config</title>
<path fill="none" stroke="black" d="M260.88,-712.59C276.37,-724.33 295.11,-740.8 307.25,-759.3 335.49,-802.29 301.6,-839.1 343.25,-869.3 350.11,-874.27 687.23,-869.57 703,-867.3 791.92,-854.49 832.91,-874.73 897.5,-812.3 952.53,-759.09 965.74,-664.05 968.85,-615.94"/>
<polygon fill="black" stroke="black" points="972.34,-616.18 969.37,-606.01 965.35,-615.81 972.34,-616.18"/>
</g>
<!-- routers.auth&#45;&gt;methods.auth.auth -->
<g id="edge30" class="edge">
<title>routers.auth&#45;&gt;methods.auth.auth</title>
<path fill="none" stroke="black" d="M265.3,-684.64C278.56,-680.08 293.98,-674.13 307.25,-667.3 338.25,-651.33 370.8,-628.66 393.96,-611.36"/>
<polygon fill="black" stroke="black" points="395.89,-614.28 401.76,-605.46 391.67,-608.7 395.89,-614.28"/>
</g>
<!-- routers.auth&#45;&gt;methods.database.database -->
<g id="edge31" class="edge">
<title>routers.auth&#45;&gt;methods.database.database</title>
<path fill="none" stroke="black" d="M259.35,-712.63C274.67,-724.61 293.76,-741.33 307.25,-759.3 329.69,-789.18 311.67,-815.31 343.25,-835.3 478.27,-920.74 679.3,-848.83 769.93,-808.34"/>
<polygon fill="black" stroke="black" points="771.13,-811.64 778.78,-804.32 768.23,-805.27 771.13,-811.64"/>
</g>
<!-- routers.auth&#45;&gt;methods.database.models -->
<g id="edge32" class="edge">
<title>routers.auth&#45;&gt;methods.database.models</title>
<path fill="none" stroke="black" d="M265.13,-699.74C327.32,-710.59 467.92,-735.1 553.47,-750.02"/>
<polygon fill="black" stroke="black" points="552.71,-753.44 563.16,-751.71 553.91,-746.54 552.71,-753.44"/>
</g>
<!-- routers.auth&#45;&gt;methods.manager.SessionManager -->
<g id="edge33" class="edge">
<title>routers.auth&#45;&gt;methods.manager.SessionManager</title>
<path fill="none" stroke="black" d="M265.13,-689.24C279.64,-685.43 296.1,-678.79 307.25,-667.3 342.47,-630.97 305.27,-592.73 343.25,-559.3 400.2,-509.16 436.41,-541.5 510.75,-526.3 518.66,-524.68 526.88,-522.97 535.11,-521.25"/>
<polygon fill="black" stroke="black" points="535.77,-524.69 544.84,-519.22 534.33,-517.84 535.77,-524.69"/>
</g>
<!-- security.recaptcha -->
<g id="node26" class="node">
<title>security.recaptcha</title>
<polygon fill="none" stroke="black" points="471.38,-696.3 382.62,-696.3 382.62,-660.3 471.38,-660.3 471.38,-696.3"/>
<text xml:space="preserve" text-anchor="middle" x="427" y="-674.42" font-family="Times,serif" font-size="10.00">security.recaptcha</text>
</g>
<!-- routers.auth&#45;&gt;security.recaptcha -->
<g id="edge34" class="edge">
<title>routers.auth&#45;&gt;security.recaptcha</title>
<path fill="none" stroke="black" d="M265.17,-691.69C293.73,-689.31 336.6,-685.74 370.89,-682.88"/>
<polygon fill="black" stroke="black" points="370.98,-686.39 380.65,-682.07 370.4,-679.41 370.98,-686.39"/>
</g>
<!-- routers.auth&#45;&gt;utils -->
<g id="edge35" class="edge">
<title>routers.auth&#45;&gt;utils</title>
<path fill="none" stroke="black" d="M265.28,-690.22C280.19,-686.64 296.96,-679.92 307.25,-667.3 374.86,-584.39 298.04,-526.25 343.25,-429.3 390.83,-327.27 442.15,-328.55 510.75,-239.3 528.33,-216.42 523.96,-202.97 546.75,-185.3 558.31,-176.33 573.07,-170.2 586.58,-166.09"/>
<polygon fill="black" stroke="black" points="587.36,-169.5 596.07,-163.48 585.5,-162.75 587.36,-169.5"/>
</g>
<!-- routers.post&#45;&gt;configs.config -->
<g id="edge36" class="edge">
<title>routers.post&#45;&gt;configs.config</title>
<path fill="none" stroke="black" d="M264.71,-790.86C279.48,-794.56 296.29,-801.25 307.25,-813.3 349.34,-859.53 293.7,-911.16 343.25,-949.3 465.21,-1043.17 821.49,-925.95 897.5,-851.3 962.81,-787.15 970.8,-670.18 970.71,-615.69"/>
<polygon fill="black" stroke="black" points="974.21,-615.92 970.59,-605.96 967.21,-616 974.21,-615.92"/>
</g>
<!-- routers.post&#45;&gt;methods.auth.auth -->
<g id="edge37" class="edge">
<title>routers.post&#45;&gt;methods.auth.auth</title>
<path fill="none" stroke="black" d="M259.14,-767.8C274.39,-755.76 293.47,-739.04 307.25,-721.3 328.71,-693.67 320.98,-678.28 343.25,-651.3 355.77,-636.13 372.39,-622.22 387.45,-611.2"/>
<polygon fill="black" stroke="black" points="389.22,-614.24 395.35,-605.6 385.17,-608.53 389.22,-614.24"/>
</g>
<!-- routers.post&#45;&gt;methods.database.database -->
<g id="edge38" class="edge">
<title>routers.post&#45;&gt;methods.database.database</title>
<path fill="none" stroke="black" d="M264.9,-791.58C279.35,-795.45 295.83,-802.06 307.25,-813.3 338.85,-844.37 306.69,-881.24 343.25,-906.3 475.15,-996.67 556.17,-969.59 703,-906.3 746.67,-887.47 781.41,-842.83 800.66,-813.36"/>
<polygon fill="black" stroke="black" points="803.61,-815.23 806,-804.91 797.69,-811.49 803.61,-815.23"/>
</g>
<!-- routers.post&#45;&gt;methods.database.models -->
<g id="edge39" class="edge">
<title>routers.post&#45;&gt;methods.database.models</title>
<path fill="none" stroke="black" d="M264.77,-796.15C278.09,-800.79 293.69,-806.73 307.25,-813.3 324.13,-821.46 325.2,-830.22 343.25,-835.3 414.91,-855.46 439.34,-856.34 510.75,-835.3 542.34,-825.99 573.42,-804.82 594.98,-787.66"/>
<polygon fill="black" stroke="black" points="596.92,-790.6 602.44,-781.56 592.49,-785.18 596.92,-790.6"/>
</g>
<!-- routers.post&#45;&gt;methods.manager.SessionManager -->
<g id="edge40" class="edge">
<title>routers.post&#45;&gt;methods.manager.SessionManager</title>
<path fill="none" stroke="black" d="M264.76,-784.75C319.88,-780.52 436.37,-764.65 510.75,-705.3 568.36,-659.33 601.35,-575.6 615.53,-531.4"/>
<polygon fill="black" stroke="black" points="618.82,-532.59 618.43,-522 612.14,-530.52 618.82,-532.59"/>
</g>
<!-- routers.post&#45;&gt;observability.report -->
<g id="edge41" class="edge">
<title>routers.post&#45;&gt;observability.report</title>
<path fill="none" stroke="black" d="M264.79,-790.38C279.76,-793.96 296.73,-800.68 307.25,-813.3 367.06,-885 284.03,-948.1 343.25,-1020.3 349.92,-1028.43 358.92,-1034.5 368.54,-1039.03"/>
<polygon fill="black" stroke="black" points="367.15,-1042.24 377.73,-1042.79 369.8,-1035.76 367.15,-1042.24"/>
</g>
<!-- routers.root&#45;&gt;methods.manager.SessionManager -->
<g id="edge42" class="edge">
<title>routers.root&#45;&gt;methods.manager.SessionManager</title>
<path fill="none" stroke="black" d="M458.61,-463.48C479.41,-468.37 508.07,-475.1 535.68,-481.58"/>
<polygon fill="black" stroke="black" points="534.59,-484.92 545.13,-483.8 536.19,-478.11 534.59,-484.92"/>
</g>
<!-- routers.sessions&#45;&gt;methods.auth.auth -->
<g id="edge43" class="edge">
<title>routers.sessions&#45;&gt;methods.auth.auth</title>
<path fill="none" stroke="black" d="M272.75,-586.3C300.68,-586.3 338.75,-586.3 369.96,-586.3"/>
<polygon fill="black" stroke="black" points="369.6,-589.8 379.6,-586.3 369.6,-582.8 369.6,-589.8"/>
</g>
<!-- routers.sessions&#45;&gt;methods.database.models -->
<g id="edge44" class="edge">
<title>routers.sessions&#45;&gt;methods.database.models</title>
<path fill="none" stroke="black" d="M272.81,-596.1C293.68,-601.3 319.84,-607.75 343.25,-613.3 417.53,-630.89 443.74,-614.73 510.75,-651.3 515.99,-654.15 566.08,-704.12 597.83,-736.03"/>
<polygon fill="black" stroke="black" points="595.26,-738.41 604.79,-743.03 600.22,-733.47 595.26,-738.41"/>
</g>
<!-- routers.sessions&#45;&gt;methods.manager.SessionManager -->
<g id="edge45" class="edge">
<title>routers.sessions&#45;&gt;methods.manager.SessionManager</title>
<path fill="none" stroke="black" d="M259.9,-567.94C281.23,-553.92 312.77,-535.51 343.25,-526.3 405.54,-507.47 478.9,-501.73 535,-500.56"/>
<polygon fill="black" stroke="black" points="534.88,-504.06 544.82,-500.4 534.77,-497.06 534.88,-504.06"/>
</g>
<!-- routers.vm&#45;&gt;configs.config -->
<g id="edge46" class="edge">
<title>routers.vm&#45;&gt;configs.config</title>
<path fill="none" stroke="black" d="M242.9,-240.06C258.61,-210.67 294.05,-153.85 343.25,-131.3 569.72,-27.45 741.28,-21.21 897.5,-215.3 940.07,-268.18 961.03,-477.97 967.5,-556.46"/>
<polygon fill="black" stroke="black" points="964,-556.68 968.29,-566.37 970.98,-556.13 964,-556.68"/>
</g>
<!-- routers.vm&#45;&gt;methods.auth.auth -->
<g id="edge47" class="edge">
<title>routers.vm&#45;&gt;methods.auth.auth</title>
<path fill="none" stroke="black" d="M241.09,-276.52C256.97,-315.78 297.23,-410.65 343.25,-483.3 360.6,-510.69 384.02,-539.23 401.51,-559.3"/>
<polygon fill="black" stroke="black" points="398.85,-561.58 408.09,-566.76 404.1,-556.95 398.85,-561.58"/>
</g>
<!-- routers.vm&#45;&gt;methods.database.database -->
<g id="edge48" class="edge">
<title>routers.vm&#45;&gt;methods.database.database</title>
<path fill="none" stroke="black" d="M262.62,-253.04C314.82,-244.92 427.47,-233.94 510.75,-272.3 712.5,-365.2 791.17,-661.51 811.52,-756.02"/>
<polygon fill="black" stroke="black" points="808.03,-756.46 813.5,-765.53 814.89,-755.03 808.03,-756.46"/>
</g>
<!-- routers.vm&#45;&gt;methods.database.models -->
<g id="edge49" class="edge">
<title>routers.vm&#45;&gt;methods.database.models</title>
<path fill="none" stroke="black" d="M262.3,-272.67C325.61,-305.19 475.47,-384.99 510.75,-429.3 515.71,-435.53 587.79,-652.98 614.24,-733.07"/>
<polygon fill="black" stroke="black" points="610.86,-734.01 617.32,-742.41 617.51,-731.82 610.86,-734.01"/>
</g>
<!-- routers.vm&#45;&gt;methods.manager -->
<g id="edge50" class="edge">
<title>routers.vm&#45;&gt;methods.manager</title>
<path fill="none" stroke="black" d="M257.07,-240.08C278.47,-223.95 311.62,-200.65 343.25,-185.3 352.34,-180.88 362.32,-176.93 372.11,-173.51"/>
<polygon fill="black" stroke="black" points="373.22,-176.83 381.59,-170.34 371,-170.19 373.22,-176.83"/>
</g>
<!-- routers.vm&#45;&gt;methods.manager.OverlayManager -->
<g id="edge51" class="edge">
<title>routers.vm&#45;&gt;methods.manager.OverlayManager</title>
<path fill="none" stroke="black" d="M237.77,-240.07C247.5,-199.59 276.99,-102.46 343.25,-60.3 459.61,13.76 626.22,4.72 727.77,-10.46"/>
<polygon fill="black" stroke="black" points="727,-13.88 737.42,-11.95 728.07,-6.96 727,-13.88"/>
</g>
<!-- routers.vm&#45;&gt;methods.manager.SessionManager -->
<g id="edge52" class="edge">
<title>routers.vm&#45;&gt;methods.manager.SessionManager</title>
<path fill="none" stroke="black" d="M262.53,-261.86C324.92,-270.08 470.69,-291.85 510.75,-320.3 565.09,-358.89 598.78,-432.6 614.11,-473.38"/>
<polygon fill="black" stroke="black" points="610.72,-474.32 617.43,-482.52 617.3,-471.93 610.72,-474.32"/>
</g>
<!-- routers.vm&#45;&gt;methods.manager.WebsockifyService -->
<g id="edge53" class="edge">
<title>routers.vm&#45;&gt;methods.manager.WebsockifyService</title>
<path fill="none" stroke="black" d="M262.64,-251.41C282.7,-246.61 310.62,-239.92 337.71,-233.43"/>
<polygon fill="black" stroke="black" points="338.46,-236.85 347.37,-231.12 336.83,-230.05 338.46,-236.85"/>
</g>
<!-- utils&#45;&gt;configs.config -->
<g id="edge54" class="edge">
<title>utils&#45;&gt;configs.config</title>
<path fill="none" stroke="black" d="M652.22,-163.08C668.17,-166.99 688.21,-173.81 703,-185.3 838.4,-290.44 928.02,-484.38 958.34,-557.44"/>
<polygon fill="black" stroke="black" points="955.1,-558.76 962.12,-566.7 961.58,-556.12 955.1,-558.76"/>
</g>
</g>
</svg>
