<?xml version="1.0" encoding="UTF-8" standalone="no"?>
<!DOCTYPE svg PUBLIC "-//W3C//DTD SVG 1.1//EN"
 "http://www.w3.org/Graphics/SVG/1.1/DTD/svg11.dtd">
<!-- Generated by graphviz version 13.1.1 (20250719.2154)
 -->
<!-- Title: python_deps Pages: 1 -->
<svg width="1042pt" height="1096pt"
 viewBox="0.00 0.00 1042.00 1096.00" xmlns="http://www.w3.org/2000/svg" xmlns:xlink="http://www.w3.org/1999/xlink">
<g id="graph0" class="graph" transform="scale(1 1) rotate(0) translate(4 1092)">
<title>python_deps</title>
<polygon fill="white" stroke="none" points="-4,4 -4,-1092 1037.5,-1092 1037.5,4 -4,4"/>
<!-- configs.config -->
<g id="node1" class="node">
<title>configs.config</title>
<polygon fill="none" stroke="black" points="1033.5,-618 959,-618 959,-582 1033.5,-582 1033.5,-618"/>
<text xml:space="preserve" text-anchor="middle" x="996.25" y="-596.12" font-family="Times,serif" font-size="10.00">configs.config</text>
</g>
<!-- main -->
<g id="node2" class="node">
<title>main</title>
<polygon fill="none" stroke="black" points="101,-416 47,-416 47,-380 101,-380 101,-416"/>
<text xml:space="preserve" text-anchor="middle" x="74" y="-394.12" font-family="Times,serif" font-size="10.00">main</text>
</g>
<!-- main&#45;&gt;configs.config -->
<g id="edge1" class="edge">
<title>main&#45;&gt;configs.config</title>
<path fill="none" stroke="black" d="M101.17,-400.61C117.35,-403.69 137.06,-410.4 148,-425 216.42,-516.26 123.07,-840.58 184,-937 256.93,-1052.41 314.98,-1088 451.5,-1088 451.5,-1088 451.5,-1088 651.38,-1088 801.56,-1088 839.42,-1011.78 923,-887 977.89,-805.04 991.09,-684.61 994.25,-629.49"/>
<polygon fill="black" stroke="black" points="997.74,-629.83 994.74,-619.67 990.75,-629.48 997.74,-629.83"/>
</g>
<!-- methods.database.database -->
<g id="node5" class="node">
<title>methods.database.database</title>
<polygon fill="none" stroke="black" points="906.5,-801 781,-801 781,-765 906.5,-765 906.5,-801"/>
<text xml:space="preserve" text-anchor="middle" x="843.75" y="-779.12" font-family="Times,serif" font-size="10.00">methods.database.database</text>
</g>
<!-- main&#45;&gt;methods.database.database -->
<g id="edge2" class="edge">
<title>main&#45;&gt;methods.database.database</title>
<path fill="none" stroke="black" d="M101.49,-400.72C117.58,-403.84 137.07,-410.56 148,-425 208.69,-505.15 129.67,-791.4 184,-876 234.8,-955.1 277.76,-955.35 368.75,-979 525.23,-1019.67 593.58,-1014.08 728.5,-925 773.06,-895.58 808.51,-843.25 827.51,-810.99"/>
<polygon fill="black" stroke="black" points="830.39,-813.01 832.33,-802.59 824.32,-809.52 830.39,-813.01"/>
</g>
<!-- methods.manager.SessionManager -->
<g id="node11" class="node">
<title>methods.manager.SessionManager</title>
<polygon fill="none" stroke="black" points="728.5,-572 572.25,-572 572.25,-536 728.5,-536 728.5,-572"/>
<text xml:space="preserve" text-anchor="middle" x="650.38" y="-550.12" font-family="Times,serif" font-size="10.00">methods.manager.SessionManager</text>
</g>
<!-- main&#45;&gt;methods.manager.SessionManager -->
<g id="edge3" class="edge">
<title>main&#45;&gt;methods.manager.SessionManager</title>
<path fill="none" stroke="black" d="M99.31,-379.64C171.96,-327.18 391.33,-186.45 536.25,-283 578.69,-311.27 623.88,-460.84 641.61,-524.87"/>
<polygon fill="black" stroke="black" points="638.18,-525.6 644.19,-534.33 644.93,-523.76 638.18,-525.6"/>
</g>
<!-- observability.db_metrics -->
<g id="node14" class="node">
<title>observability.db_metrics</title>
<polygon fill="none" stroke="black" points="316.62,-198 200.12,-198 200.12,-162 316.62,-162 316.62,-198"/>
<text xml:space="preserve" text-anchor="middle" x="258.38" y="-176.12" font-family="Times,serif" font-size="10.00">observability.db_metrics</text>
</g>
<!-- main&#45;&gt;observability.db_metrics -->
<g id="edge4" class="edge">
<title>main&#45;&gt;observability.db_metrics</title>
<path fill="none" stroke="black" d="M81.32,-379.6C94.75,-343.01 129.42,-260.45 184,-212 187.15,-209.21 190.58,-206.63 194.18,-204.25"/>
<polygon fill="black" stroke="black" points="195.91,-207.29 202.73,-199.18 192.34,-201.27 195.91,-207.29"/>
</g>
<!-- observability.grafana_proxy -->
<g id="node15" class="node">
<title>observability.grafana_proxy</title>
<polygon fill="none" stroke="black" points="323.75,-144 193,-144 193,-108 323.75,-108 323.75,-144"/>
<text xml:space="preserve" text-anchor="middle" x="258.38" y="-122.12" font-family="Times,serif" font-size="10.00">observability.grafana_proxy</text>
</g>
<!-- main&#45;&gt;observability.grafana_proxy -->
<g id="edge5" class="edge">
<title>main&#45;&gt;observability.grafana_proxy</title>
<path fill="none" stroke="black" d="M78.08,-379.81C86.62,-334.94 114.67,-217.9 184,-153 184.76,-152.29 185.54,-151.6 186.33,-150.92"/>
<polygon fill="black" stroke="black" points="188.17,-153.91 194.26,-145.25 184.1,-148.22 188.17,-153.91"/>
</g>
<!-- observability.metrics -->
<g id="node17" class="node">
<title>observability.metrics</title>
<polygon fill="none" stroke="black" points="502.88,-946 402.12,-946 402.12,-910 502.88,-910 502.88,-946"/>
<text xml:space="preserve" text-anchor="middle" x="452.5" y="-924.12" font-family="Times,serif" font-size="10.00">observability.metrics</text>
</g>
<!-- main&#45;&gt;observability.metrics -->
<g id="edge6" class="edge">
<title>main&#45;&gt;observability.metrics</title>
<path fill="none" stroke="black" d="M101.43,-400.76C117.5,-403.91 136.98,-410.63 148,-425 254.44,-563.85 80.29,-676.1 184,-817 232.54,-882.95 327.59,-909.91 390.32,-920.8"/>
<polygon fill="black" stroke="black" points="389.71,-924.25 400.14,-922.41 390.84,-917.34 389.71,-924.25"/>
</g>
<!-- observability.utils_observability -->
<g id="node19" class="node">
<title>observability.utils_observability</title>
<polygon fill="none" stroke="black" points="332.75,-90 184,-90 184,-54 332.75,-54 332.75,-90"/>
<text xml:space="preserve" text-anchor="middle" x="258.38" y="-68.12" font-family="Times,serif" font-size="10.00">observability.utils_observability</text>
</g>
<!-- main&#45;&gt;observability.utils_observability -->
<g id="edge7" class="edge">
<title>main&#45;&gt;observability.utils_observability</title>
<path fill="none" stroke="black" d="M76.43,-379.74C81.41,-328.32 102.47,-180.78 184,-99 184.61,-98.39 185.24,-97.79 185.88,-97.2"/>
<polygon fill="black" stroke="black" points="187.86,-100.09 193.69,-91.24 183.61,-94.53 187.86,-100.09"/>
</g>
<!-- routers.auth -->
<g id="node20" class="node">
<title>routers.auth</title>
<polygon fill="none" stroke="black" points="290.38,-618 226.38,-618 226.38,-582 290.38,-582 290.38,-618"/>
<text xml:space="preserve" text-anchor="middle" x="258.38" y="-596.12" font-family="Times,serif" font-size="10.00">routers.auth</text>
</g>
<!-- main&#45;&gt;routers.auth -->
<g id="edge8" class="edge">
<title>main&#45;&gt;routers.auth</title>
<path fill="none" stroke="black" d="M101.44,-403.31C116.34,-407.33 134.59,-414.08 148,-425 196.94,-464.83 230.3,-532.68 246.37,-571.15"/>
<polygon fill="black" stroke="black" points="243.04,-572.27 250.05,-580.22 249.53,-569.64 243.04,-572.27"/>
</g>
<!-- routers.pages -->
<g id="node21" class="node">
<title>routers.pages</title>
<polygon fill="none" stroke="black" points="293,-36 223.75,-36 223.75,0 293,0 293,-36"/>
<text xml:space="preserve" text-anchor="middle" x="258.38" y="-14.12" font-family="Times,serif" font-size="10.00">routers.pages</text>
</g>
<!-- main&#45;&gt;routers.pages -->
<g id="edge9" class="edge">
<title>main&#45;&gt;routers.pages</title>
<path fill="none" stroke="black" d="M75.24,-379.86C76.96,-322.68 90,-144.13 184,-45 191.69,-36.89 202.04,-31.2 212.52,-27.21"/>
<polygon fill="black" stroke="black" points="213.55,-30.56 221.96,-24.12 211.37,-23.91 213.55,-30.56"/>
</g>
<!-- routers.post -->
<g id="node22" class="node">
<title>routers.post</title>
<polygon fill="none" stroke="black" points="290,-808 226.75,-808 226.75,-772 290,-772 290,-808"/>
<text xml:space="preserve" text-anchor="middle" x="258.38" y="-786.12" font-family="Times,serif" font-size="10.00">routers.post</text>
</g>
<!-- main&#45;&gt;routers.post -->
<g id="edge10" class="edge">
<title>main&#45;&gt;routers.post</title>
<path fill="none" stroke="black" d="M101.26,-400.89C117.26,-404.09 136.73,-410.83 148,-425 226.64,-523.9 131.85,-591.91 184,-707 193.85,-728.73 211.37,-748.89 226.83,-763.89"/>
<polygon fill="black" stroke="black" points="224.35,-766.36 234.04,-770.64 229.13,-761.25 224.35,-766.36"/>
</g>
<!-- routers.root -->
<g id="node23" class="node">
<title>routers.root</title>
<polygon fill="none" stroke="black" points="483.75,-496 421.25,-496 421.25,-460 483.75,-460 483.75,-496"/>
<text xml:space="preserve" text-anchor="middle" x="452.5" y="-474.12" font-family="Times,serif" font-size="10.00">routers.root</text>
</g>
<!-- main&#45;&gt;routers.root -->
<g id="edge11" class="edge">
<title>main&#45;&gt;routers.root</title>
<path fill="none" stroke="black" d="M101.47,-403.63C166.09,-417.35 332.23,-452.66 410.09,-469.2"/>
<polygon fill="black" stroke="black" points="408.92,-472.53 419.43,-471.19 410.38,-465.68 408.92,-472.53"/>
</g>
<!-- routers.sessions -->
<g id="node24" class="node">
<title>routers.sessions</title>
<polygon fill="none" stroke="black" points="297.88,-698 218.88,-698 218.88,-662 297.88,-662 297.88,-698"/>
<text xml:space="preserve" text-anchor="middle" x="258.38" y="-676.12" font-family="Times,serif" font-size="10.00">routers.sessions</text>
</g>
<!-- main&#45;&gt;routers.sessions -->
<g id="edge12" class="edge">
<title>main&#45;&gt;routers.sessions</title>
<path fill="none" stroke="black" d="M101.38,-401.16C117.22,-404.46 136.47,-411.21 148,-425 206.5,-494.96 135.5,-549.78 184,-627 190.92,-638.01 201.03,-647.44 211.55,-655.17"/>
<polygon fill="black" stroke="black" points="209.35,-657.9 219.58,-660.65 213.3,-652.12 209.35,-657.9"/>
</g>
<!-- routers.vm -->
<g id="node25" class="node">
<title>routers.vm</title>
<polygon fill="none" stroke="black" points="287.75,-374 229,-374 229,-338 287.75,-338 287.75,-374"/>
<text xml:space="preserve" text-anchor="middle" x="258.38" y="-352.12" font-family="Times,serif" font-size="10.00">routers.vm</text>
</g>
<!-- main&#45;&gt;routers.vm -->
<g id="edge13" class="edge">
<title>main&#45;&gt;routers.vm</title>
<path fill="none" stroke="black" d="M101.13,-391.98C131.61,-384.96 182.34,-373.28 217.69,-365.14"/>
<polygon fill="black" stroke="black" points="218.15,-368.62 227.11,-362.97 216.58,-361.8 218.15,-368.62"/>
</g>
<!-- utils -->
<g id="node26" class="node">
<title>utils</title>
<polygon fill="none" stroke="black" points="677.38,-309 623.38,-309 623.38,-273 677.38,-273 677.38,-309"/>
<text xml:space="preserve" text-anchor="middle" x="650.38" y="-287.12" font-family="Times,serif" font-size="10.00">utils</text>
</g>
<!-- main&#45;&gt;utils -->
<g id="edge14" class="edge">
<title>main&#45;&gt;utils</title>
<path fill="none" stroke="black" d="M83.32,-379.98C98.69,-348.72 134.52,-284.49 184,-250 240.46,-210.65 268.1,-230.59 332.75,-207 349.2,-201 351.62,-194.63 368.75,-191 441.57,-175.55 470.61,-155.87 536.25,-191 561.68,-204.61 551.35,-225.12 572.25,-245 584.13,-256.3 599.27,-266.08 612.99,-273.68"/>
<polygon fill="black" stroke="black" points="611.31,-276.75 621.78,-278.35 614.59,-270.57 611.31,-276.75"/>
</g>
<!-- methods.auth.auth -->
<g id="node3" class="node">
<title>methods.auth.auth</title>
<polygon fill="none" stroke="black" points="498,-778 407,-778 407,-742 498,-742 498,-778"/>
<text xml:space="preserve" text-anchor="middle" x="452.5" y="-756.12" font-family="Times,serif" font-size="10.00">methods.auth.auth</text>
</g>
<!-- methods.auth.auth&#45;&gt;configs.config -->
<g id="edge15" class="edge">
<title>methods.auth.auth&#45;&gt;configs.config</title>
<path fill="none" stroke="black" d="M498.29,-746.77C599.33,-716.93 844.2,-644.61 947.75,-614.03"/>
<polygon fill="black" stroke="black" points="948.74,-617.39 957.34,-611.2 946.75,-610.67 948.74,-617.39"/>
</g>
<!-- methods.auth.auth&#45;&gt;methods.database.database -->
<g id="edge16" class="edge">
<title>methods.auth.auth&#45;&gt;methods.database.database</title>
<path fill="none" stroke="black" d="M498.15,-762.64C564.39,-766.55 689.43,-773.94 769.28,-778.66"/>
<polygon fill="black" stroke="black" points="769.02,-782.15 779.21,-779.25 769.44,-775.16 769.02,-782.15"/>
</g>
<!-- methods.database.models -->
<g id="node7" class="node">
<title>methods.database.models</title>
<polygon fill="none" stroke="black" points="710.12,-824 590.62,-824 590.62,-788 710.12,-788 710.12,-824"/>
<text xml:space="preserve" text-anchor="middle" x="650.38" y="-802.12" font-family="Times,serif" font-size="10.00">methods.database.models</text>
</g>
<!-- methods.auth.auth&#45;&gt;methods.database.models -->
<g id="edge17" class="edge">
<title>methods.auth.auth&#45;&gt;methods.database.models</title>
<path fill="none" stroke="black" d="M498.44,-770.55C522.36,-776.17 552.32,-783.21 579.23,-789.53"/>
<polygon fill="black" stroke="black" points="578.15,-792.87 588.69,-791.75 579.75,-786.05 578.15,-792.87"/>
</g>
<!-- methods.auth.email_verification -->
<g id="node4" class="node">
<title>methods.auth.email_verification</title>
<polygon fill="none" stroke="black" points="148,-470 0,-470 0,-434 148,-434 148,-470"/>
<text xml:space="preserve" text-anchor="middle" x="74" y="-448.12" font-family="Times,serif" font-size="10.00">methods.auth.email_verification</text>
</g>
<!-- methods.database.database&#45;&gt;configs.config -->
<g id="edge18" class="edge">
<title>methods.database.database&#45;&gt;configs.config</title>
<path fill="none" stroke="black" d="M859.73,-764.78C886.37,-732.39 942.09,-664.65 973.14,-626.88"/>
<polygon fill="black" stroke="black" points="975.5,-629.53 979.15,-619.58 970.09,-625.08 975.5,-629.53"/>
</g>
<!-- methods.database.init_db -->
<g id="node6" class="node">
<title>methods.database.init_db</title>
<polygon fill="none" stroke="black" points="134.12,-524 13.88,-524 13.88,-488 134.12,-488 134.12,-524"/>
<text xml:space="preserve" text-anchor="middle" x="74" y="-502.12" font-family="Times,serif" font-size="10.00">methods.database.init_db</text>
</g>
<!-- methods.database.models&#45;&gt;methods.database.database -->
<g id="edge19" class="edge">
<title>methods.database.models&#45;&gt;methods.database.database</title>
<path fill="none" stroke="black" d="M710.62,-798.88C729.24,-796.64 750.04,-794.14 769.52,-791.8"/>
<polygon fill="black" stroke="black" points="769.8,-795.29 779.31,-790.62 768.96,-788.34 769.8,-795.29"/>
</g>
<!-- methods.manager -->
<g id="node8" class="node">
<title>methods.manager</title>
<polygon fill="none" stroke="black" points="496.12,-328 408.88,-328 408.88,-292 496.12,-292 496.12,-328"/>
<text xml:space="preserve" text-anchor="middle" x="452.5" y="-306.12" font-family="Times,serif" font-size="10.00">methods.manager</text>
</g>
<!-- methods.manager.OverlayManager -->
<g id="node9" class="node">
<title>methods.manager.OverlayManager</title>
<polygon fill="none" stroke="black" points="923,-269 764.5,-269 764.5,-233 923,-233 923,-269"/>
<text xml:space="preserve" text-anchor="middle" x="843.75" y="-247.12" font-family="Times,serif" font-size="10.00">methods.manager.OverlayManager</text>
</g>
<!-- methods.manager.OverlayManager&#45;&gt;configs.config -->
<g id="edge20" class="edge">
<title>methods.manager.OverlayManager&#45;&gt;configs.config</title>
<path fill="none" stroke="black" d="M852.76,-269.49C866.94,-302.24 897.38,-372.58 923,-432 944.12,-480.98 968.64,-538.03 983,-571.46"/>
<polygon fill="black" stroke="black" points="979.7,-572.65 986.86,-580.46 986.13,-569.89 979.7,-572.65"/>
</g>
<!-- methods.manager.ProcessManager -->
<g id="node10" class="node">
<title>methods.manager.ProcessManager</title>
<polygon fill="none" stroke="black" points="728.12,-236 572.62,-236 572.62,-200 728.12,-200 728.12,-236"/>
<text xml:space="preserve" text-anchor="middle" x="650.38" y="-214.12" font-family="Times,serif" font-size="10.00">methods.manager.ProcessManager</text>
</g>
<!-- methods.manager.SessionManager&#45;&gt;configs.config -->
<g id="edge21" class="edge">
<title>methods.manager.SessionManager&#45;&gt;configs.config</title>
<path fill="none" stroke="black" d="M728.86,-561.58C783.31,-567.29 857.78,-575.85 923,-586 930.89,-587.23 939.24,-588.69 947.35,-590.2"/>
<polygon fill="black" stroke="black" points="946.62,-593.63 957.1,-592.07 947.94,-586.75 946.62,-593.63"/>
</g>
<!-- methods.manager.WebsockifyService -->
<g id="node12" class="node">
<title>methods.manager.WebsockifyService</title>
<polygon fill="none" stroke="black" points="536.25,-236 368.75,-236 368.75,-200 536.25,-200 536.25,-236"/>
<text xml:space="preserve" text-anchor="middle" x="452.5" y="-214.12" font-family="Times,serif" font-size="10.00">methods.manager.WebsockifyService</text>
</g>
<!-- methods.manager.WebsockifyService&#45;&gt;methods.manager.ProcessManager -->
<g id="edge22" class="edge">
<title>methods.manager.WebsockifyService&#45;&gt;methods.manager.ProcessManager</title>
<path fill="none" stroke="black" d="M536.57,-218C544.65,-218 552.87,-218 560.99,-218"/>
<polygon fill="black" stroke="black" points="560.89,-221.5 570.89,-218 560.89,-214.5 560.89,-221.5"/>
</g>
<!-- methods.manager.WebsockifyService&#45;&gt;methods.manager.SessionManager -->
<g id="edge23" class="edge">
<title>methods.manager.WebsockifyService&#45;&gt;methods.manager.SessionManager</title>
<path fill="none" stroke="black" d="M517.91,-236.4C524.64,-240.14 530.95,-244.63 536.25,-250 556.53,-270.54 616.89,-453.18 640.12,-525.09"/>
<polygon fill="black" stroke="black" points="636.66,-525.75 643.05,-534.2 643.32,-523.61 636.66,-525.75"/>
</g>
<!-- methods.manager.WebsockifyService&#45;&gt;utils -->
<g id="edge24" class="edge">
<title>methods.manager.WebsockifyService&#45;&gt;utils</title>
<path fill="none" stroke="black" d="M502.93,-236.42C536.94,-249.1 581.4,-265.67 612.37,-277.21"/>
<polygon fill="black" stroke="black" points="611.12,-280.48 621.71,-280.69 613.56,-273.92 611.12,-280.48"/>
</g>
<!-- observability -->
<g id="node13" class="node">
<title>observability</title>
<polygon fill="none" stroke="black" points="109,-578 39,-578 39,-542 109,-542 109,-578"/>
<text xml:space="preserve" text-anchor="middle" x="74" y="-556.12" font-family="Times,serif" font-size="10.00">observability</text>
</g>
<!-- observability.http_metrics -->
<g id="node16" class="node">
<title>observability.http_metrics</title>
<polygon fill="none" stroke="black" points="135.25,-632 12.75,-632 12.75,-596 135.25,-596 135.25,-632"/>
<text xml:space="preserve" text-anchor="middle" x="74" y="-610.12" font-family="Times,serif" font-size="10.00">observability.http_metrics</text>
</g>
<!-- observability.metrics&#45;&gt;methods.database.database -->
<g id="edge25" class="edge">
<title>observability.metrics&#45;&gt;methods.database.database</title>
<path fill="none" stroke="black" d="M503.36,-912.1C558.79,-894.13 650.76,-863.38 728.5,-833 749.61,-824.75 772.56,-814.89 792.32,-806.11"/>
<polygon fill="black" stroke="black" points="793.55,-809.39 801.25,-802.11 790.69,-803 793.55,-809.39"/>
</g>
<!-- observability.metrics&#45;&gt;methods.database.models -->
<g id="edge26" class="edge">
<title>observability.metrics&#45;&gt;methods.database.models</title>
<path fill="none" stroke="black" d="M503.2,-911.59C514.37,-907.14 525.96,-901.9 536.25,-896 567.83,-877.9 599.93,-851.42 621.83,-831.87"/>
<polygon fill="black" stroke="black" points="624.09,-834.55 629.15,-825.24 619.39,-829.36 624.09,-834.55"/>
</g>
<!-- observability.metrics&#45;&gt;methods.manager.SessionManager -->
<g id="edge27" class="edge">
<title>observability.metrics&#45;&gt;methods.manager.SessionManager</title>
<path fill="none" stroke="black" d="M464.95,-909.56C481.37,-882.88 512.28,-831.8 536.25,-787 574.98,-714.63 615.99,-627.01 636.34,-582.67"/>
<polygon fill="black" stroke="black" points="639.45,-584.3 640.43,-573.75 633.08,-581.39 639.45,-584.3"/>
</g>
<!-- observability.ops_metrics -->
<g id="node18" class="node">
<title>observability.ops_metrics</title>
<polygon fill="none" stroke="black" points="134.12,-686 13.88,-686 13.88,-650 134.12,-650 134.12,-686"/>
<text xml:space="preserve" text-anchor="middle" x="74" y="-664.12" font-family="Times,serif" font-size="10.00">observability.ops_metrics</text>
</g>
<!-- routers.auth&#45;&gt;configs.config -->
<g id="edge28" class="edge">
<title>routers.auth&#45;&gt;configs.config</title>
<path fill="none" stroke="black" d="M290.52,-600C405.74,-600 808.25,-600 947.45,-600"/>
<polygon fill="black" stroke="black" points="947.04,-603.5 957.04,-600 947.04,-596.5 947.04,-603.5"/>
</g>
<!-- routers.auth&#45;&gt;methods.auth.auth -->
<g id="edge29" class="edge">
<title>routers.auth&#45;&gt;methods.auth.auth</title>
<path fill="none" stroke="black" d="M287.06,-618.3C301.18,-628.05 318.36,-640.57 332.75,-653 350.11,-668 351.97,-674.35 368.75,-690 385.08,-705.24 404.06,-721.39 419.72,-734.34"/>
<polygon fill="black" stroke="black" points="417.39,-736.96 427.34,-740.6 421.84,-731.55 417.39,-736.96"/>
</g>
<!-- routers.auth&#45;&gt;methods.database.database -->
<g id="edge30" class="edge">
<title>routers.auth&#45;&gt;methods.database.database</title>
<path fill="none" stroke="black" d="M290.74,-609.84C381.58,-638.33 646.43,-721.42 773.35,-761.23"/>
<polygon fill="black" stroke="black" points="772.06,-764.49 782.65,-764.15 774.15,-757.81 772.06,-764.49"/>
</g>
<!-- routers.auth&#45;&gt;methods.database.models -->
<g id="edge31" class="edge">
<title>routers.auth&#45;&gt;methods.database.models</title>
<path fill="none" stroke="black" d="M290.8,-616.06C305.53,-625.07 322.13,-637.61 332.75,-653 367.77,-703.76 321.11,-747.84 368.75,-787 399.72,-812.46 506.43,-813.07 578.97,-810.24"/>
<polygon fill="black" stroke="black" points="578.94,-813.75 588.79,-809.83 578.65,-806.75 578.94,-813.75"/>
</g>
<!-- routers.auth&#45;&gt;methods.manager.SessionManager -->
<g id="edge32" class="edge">
<title>routers.auth&#45;&gt;methods.manager.SessionManager</title>
<path fill="none" stroke="black" d="M290.48,-595.9C312.36,-593.05 342.33,-589.2 368.75,-586 432.97,-578.23 505.51,-569.97 560.76,-563.79"/>
<polygon fill="black" stroke="black" points="560.86,-567.3 570.41,-562.71 560.09,-560.34 560.86,-567.3"/>
</g>
<!-- routers.auth&#45;&gt;utils -->
<g id="edge33" class="edge">
<title>routers.auth&#45;&gt;utils</title>
<path fill="none" stroke="black" d="M269.44,-581.58C286.64,-551.37 324.19,-490.71 368.75,-451 445.45,-382.65 556.08,-330.19 612.8,-305.88"/>
<polygon fill="black" stroke="black" points="613.84,-309.24 621.68,-302.12 611.11,-302.79 613.84,-309.24"/>
</g>
<!-- routers.post&#45;&gt;configs.config -->
<g id="edge34" class="edge">
<title>routers.post&#45;&gt;configs.config</title>
<path fill="none" stroke="black" d="M263.51,-808.33C273.56,-848.01 303.4,-941.31 368.75,-979 433.24,-1016.19 462.5,-989.16 536.25,-979 722.08,-953.4 804.45,-955.38 923,-810 967.1,-755.92 984.96,-673.35 991.63,-629.6"/>
<polygon fill="black" stroke="black" points="995.08,-630.23 993.02,-619.84 988.15,-629.25 995.08,-630.23"/>
</g>
<!-- routers.post&#45;&gt;methods.auth.auth -->
<g id="edge35" class="edge">
<title>routers.post&#45;&gt;methods.auth.auth</title>
<path fill="none" stroke="black" d="M290.24,-785.18C318.55,-780.76 361.15,-774.11 395.46,-768.75"/>
<polygon fill="black" stroke="black" points="395.91,-772.22 405.25,-767.22 394.83,-765.31 395.91,-772.22"/>
</g>
<!-- routers.post&#45;&gt;methods.database.database -->
<g id="edge36" class="edge">
<title>routers.post&#45;&gt;methods.database.database</title>
<path fill="none" stroke="black" d="M264.99,-808.24C277.15,-844.16 309.7,-923.3 368.75,-955 434.34,-990.21 463.25,-969.58 536.25,-955 627,-936.87 648.94,-922.27 728.5,-875 760.39,-856.05 792.98,-828.88 815.15,-808.98"/>
<polygon fill="black" stroke="black" points="817.24,-811.81 822.28,-802.49 812.53,-806.63 817.24,-811.81"/>
</g>
<!-- routers.post&#45;&gt;methods.database.models -->
<g id="edge37" class="edge">
<title>routers.post&#45;&gt;methods.database.models</title>
<path fill="none" stroke="black" d="M280.65,-808.32C301.5,-824.97 334.99,-848.36 368.75,-858 440.33,-878.44 463.53,-873.91 536.25,-858 561.54,-852.47 587.93,-840.73 608.85,-829.8"/>
<polygon fill="black" stroke="black" points="610.47,-832.91 617.62,-825.09 607.15,-826.74 610.47,-832.91"/>
</g>
<!-- routers.post&#45;&gt;methods.manager.SessionManager -->
<g id="edge38" class="edge">
<title>routers.post&#45;&gt;methods.manager.SessionManager</title>
<path fill="none" stroke="black" d="M290.14,-773.34C341.73,-745.18 448.63,-685.87 536.25,-631 562.91,-614.31 592.25,-594.28 614.37,-578.84"/>
<polygon fill="black" stroke="black" points="616.27,-581.78 622.45,-573.18 612.25,-576.05 616.27,-581.78"/>
</g>
<!-- routers.root&#45;&gt;methods.manager.SessionManager -->
<g id="edge39" class="edge">
<title>routers.root&#45;&gt;methods.manager.SessionManager</title>
<path fill="none" stroke="black" d="M484.16,-489.84C499.76,-495.87 519.02,-503.32 536.25,-510 554.32,-517.01 574,-524.66 591.81,-531.58"/>
<polygon fill="black" stroke="black" points="590.05,-534.66 600.64,-535.02 592.59,-528.13 590.05,-534.66"/>
</g>
<!-- routers.sessions&#45;&gt;methods.auth.auth -->
<g id="edge40" class="edge">
<title>routers.sessions&#45;&gt;methods.auth.auth</title>
<path fill="none" stroke="black" d="M298.25,-696.19C326.63,-708 365.46,-724.17 396.94,-737.28"/>
<polygon fill="black" stroke="black" points="395.33,-740.4 405.9,-741.01 398.02,-733.94 395.33,-740.4"/>
</g>
<!-- routers.sessions&#45;&gt;methods.database.models -->
<g id="edge41" class="edge">
<title>routers.sessions&#45;&gt;methods.database.models</title>
<path fill="none" stroke="black" d="M277.18,-698.39C292.63,-714.74 315.21,-739.61 332.75,-763 350.73,-786.97 342.51,-805.54 368.75,-820 435.51,-856.8 525.34,-843.45 585.19,-827.47"/>
<polygon fill="black" stroke="black" points="585.85,-830.92 594.55,-824.87 583.97,-824.18 585.85,-830.92"/>
</g>
<!-- routers.sessions&#45;&gt;methods.manager.SessionManager -->
<g id="edge42" class="edge">
<title>routers.sessions&#45;&gt;methods.manager.SessionManager</title>
<path fill="none" stroke="black" d="M298.2,-667.46C364.3,-646.1 499.51,-602.42 581.52,-575.92"/>
<polygon fill="black" stroke="black" points="582.35,-579.33 590.79,-572.93 580.2,-572.67 582.35,-579.33"/>
</g>
<!-- routers.vm&#45;&gt;configs.config -->
<g id="edge43" class="edge">
<title>routers.vm&#45;&gt;configs.config</title>
<path fill="none" stroke="black" d="M268.43,-337.75C293.81,-286.68 364.1,-145.84 368.75,-143 384.98,-133.09 723.26,-147.94 728.5,-149 819.31,-167.37 863.58,-152.92 923,-224 967.3,-277 987.29,-491.76 993.24,-570.7"/>
<polygon fill="black" stroke="black" points="989.72,-570.52 993.94,-580.24 996.7,-570.01 989.72,-570.52"/>
</g>
<!-- routers.vm&#45;&gt;methods.auth.auth -->
<g id="edge44" class="edge">
<title>routers.vm&#45;&gt;methods.auth.auth</title>
<path fill="none" stroke="black" d="M268.13,-374.41C298.77,-438.84 401.31,-654.45 438.16,-731.96"/>
<polygon fill="black" stroke="black" points="434.81,-733.05 442.26,-740.58 441.13,-730.04 434.81,-733.05"/>
</g>
<!-- routers.vm&#45;&gt;methods.database.database -->
<g id="edge45" class="edge">
<title>routers.vm&#45;&gt;methods.database.database</title>
<path fill="none" stroke="black" d="M288.05,-353.2C339.67,-349.27 450.79,-345.9 536.25,-379 636.8,-417.94 661.77,-442.3 728.5,-527 785.1,-598.85 820.17,-703.17 834.82,-753.57"/>
<polygon fill="black" stroke="black" points="831.44,-754.48 837.54,-763.15 838.17,-752.57 831.44,-754.48"/>
</g>
<!-- routers.vm&#45;&gt;methods.database.models -->
<g id="edge46" class="edge">
<title>routers.vm&#45;&gt;methods.database.models</title>
<path fill="none" stroke="black" d="M271.85,-374.41C291.49,-403.07 331.29,-459.78 368.75,-505 456.82,-611.32 571.83,-728.64 622.93,-779.77"/>
<polygon fill="black" stroke="black" points="620.23,-782.02 629.78,-786.61 625.18,-777.07 620.23,-782.02"/>
</g>
<!-- routers.vm&#45;&gt;methods.manager -->
<g id="edge47" class="edge">
<title>routers.vm&#45;&gt;methods.manager</title>
<path fill="none" stroke="black" d="M288.14,-349.11C316.95,-342.22 361.99,-331.43 397.48,-322.93"/>
<polygon fill="black" stroke="black" points="398.26,-326.35 407.17,-320.61 396.63,-319.54 398.26,-326.35"/>
</g>
<!-- routers.vm&#45;&gt;methods.manager.OverlayManager -->
<g id="edge48" class="edge">
<title>routers.vm&#45;&gt;methods.manager.OverlayManager</title>
<path fill="none" stroke="black" d="M264.99,-337.76C277.15,-301.84 309.7,-222.7 368.75,-191 509.62,-115.37 573.26,-152.72 728.5,-191 756.48,-197.9 785.19,-213.01 806.83,-226.35"/>
<polygon fill="black" stroke="black" points="804.94,-229.3 815.26,-231.7 808.69,-223.39 804.94,-229.3"/>
</g>
<!-- routers.vm&#45;&gt;methods.manager.SessionManager -->
<g id="edge49" class="edge">
<title>routers.vm&#45;&gt;methods.manager.SessionManager</title>
<path fill="none" stroke="black" d="M288.12,-361.79C340.3,-373.16 452.94,-401.68 536.25,-451 571.11,-471.64 604.58,-504.24 625.95,-527.23"/>
<polygon fill="black" stroke="black" points="623.18,-529.38 632.51,-534.41 628.35,-524.66 623.18,-529.38"/>
</g>
<!-- routers.vm&#45;&gt;methods.manager.WebsockifyService -->
<g id="edge50" class="edge">
<title>routers.vm&#45;&gt;methods.manager.WebsockifyService</title>
<path fill="none" stroke="black" d="M284.89,-337.67C318.76,-313.34 378.73,-270.27 416.72,-242.98"/>
<polygon fill="black" stroke="black" points="418.57,-245.96 424.65,-237.28 414.49,-240.28 418.57,-245.96"/>
</g>
<!-- utils&#45;&gt;configs.config -->
<g id="edge51" class="edge">
<title>utils&#45;&gt;configs.config</title>
<path fill="none" stroke="black" d="M677.56,-306.63C692.9,-316.19 712.35,-329.04 728.5,-342 824.27,-418.89 925.33,-524.34 970.69,-573.17"/>
<polygon fill="black" stroke="black" points="968.11,-575.53 977.47,-580.5 973.25,-570.78 968.11,-575.53"/>
</g>
</g>
</svg>
