<?xml version="1.0" encoding="UTF-8" standalone="no"?>
<!DOCTYPE svg PUBLIC "-//W3C//DTD SVG 1.1//EN"
 "http://www.w3.org/Graphics/SVG/1.1/DTD/svg11.dtd">
<!-- Generated by graphviz version 13.1.1 (20250719.2154)
 -->
<!-- Title: python_deps Pages: 1 -->
<svg width="1009pt" height="1287pt"
 viewBox="0.00 0.00 1009.00 1287.00" xmlns="http://www.w3.org/2000/svg" xmlns:xlink="http://www.w3.org/1999/xlink">
<g id="graph0" class="graph" transform="scale(1 1) rotate(0) translate(4 1283.27)">
<title>python_deps</title>
<polygon fill="white" stroke="none" points="-4,4 -4,-1283.27 1004.5,-1283.27 1004.5,4 -4,4"/>
<!-- configs.auth_config -->
<g id="node1" class="node">
<title>configs.auth_config</title>
<polygon fill="none" stroke="black" points="122.88,-504 25.12,-504 25.12,-468 122.88,-468 122.88,-504"/>
<text xml:space="preserve" text-anchor="middle" x="74" y="-482.12" font-family="Times,serif" font-size="10.00">configs.auth_config</text>
</g>
<!-- configs.config -->
<g id="node2" class="node">
<title>configs.config</title>
<polygon fill="none" stroke="black" points="1000.5,-958 926,-958 926,-922 1000.5,-922 1000.5,-958"/>
<text xml:space="preserve" text-anchor="middle" x="963.25" y="-936.12" font-family="Times,serif" font-size="10.00">configs.config</text>
</g>
<!-- configs.log_config -->
<g id="node3" class="node">
<title>configs.log_config</title>
<polygon fill="none" stroke="black" points="697,-634 603.75,-634 603.75,-598 697,-598 697,-634"/>
<text xml:space="preserve" text-anchor="middle" x="650.38" y="-612.12" font-family="Times,serif" font-size="10.00">configs.log_config</text>
</g>
<!-- configs.redis_config -->
<g id="node4" class="node">
<title>configs.redis_config</title>
<polygon fill="none" stroke="black" points="876.88,-760 777.62,-760 777.62,-724 876.88,-724 876.88,-760"/>
<text xml:space="preserve" text-anchor="middle" x="827.25" y="-738.12" font-family="Times,serif" font-size="10.00">configs.redis_config</text>
</g>
<!-- configs.server_config -->
<g id="node5" class="node">
<title>configs.server_config</title>
<polygon fill="none" stroke="black" points="504.38,-382 400.62,-382 400.62,-346 504.38,-346 504.38,-382"/>
<text xml:space="preserve" text-anchor="middle" x="452.5" y="-360.12" font-family="Times,serif" font-size="10.00">configs.server_config</text>
</g>
<!-- configs.vm_profiles -->
<g id="node6" class="node">
<title>configs.vm_profiles</title>
<polygon fill="none" stroke="black" points="875.75,-217 778.75,-217 778.75,-181 875.75,-181 875.75,-217"/>
<text xml:space="preserve" text-anchor="middle" x="827.25" y="-195.12" font-family="Times,serif" font-size="10.00">configs.vm_profiles</text>
</g>
<!-- main -->
<g id="node7" class="node">
<title>main</title>
<polygon fill="none" stroke="black" points="101,-558 47,-558 47,-522 101,-522 101,-558"/>
<text xml:space="preserve" text-anchor="middle" x="74" y="-536.12" font-family="Times,serif" font-size="10.00">main</text>
</g>
<!-- main&#45;&gt;configs.log_config -->
<g id="edge1" class="edge">
<title>main&#45;&gt;configs.log_config</title>
<path fill="none" stroke="black" d="M101.17,-543.46C188.34,-555 470.17,-592.29 592.19,-608.43"/>
<polygon fill="black" stroke="black" points="591.61,-611.89 601.99,-609.73 592.53,-604.95 591.61,-611.89"/>
</g>
<!-- methods.database.database -->
<g id="node10" class="node">
<title>methods.database.database</title>
<polygon fill="none" stroke="black" points="890,-1023 764.5,-1023 764.5,-987 890,-987 890,-1023"/>
<text xml:space="preserve" text-anchor="middle" x="827.25" y="-1001.12" font-family="Times,serif" font-size="10.00">methods.database.database</text>
</g>
<!-- main&#45;&gt;methods.database.database -->
<g id="edge2" class="edge">
<title>main&#45;&gt;methods.database.database</title>
<path fill="none" stroke="black" d="M101.23,-542.57C117.44,-545.63 137.14,-552.34 148,-567 188.93,-622.28 134.1,-1137.66 184,-1185 360.28,-1352.22 526.88,-1271.61 728.5,-1136 767.26,-1109.93 796.58,-1063.23 812.59,-1033.21"/>
<polygon fill="black" stroke="black" points="815.51,-1035.18 816.99,-1024.69 809.29,-1031.96 815.51,-1035.18"/>
</g>
<!-- methods.manager.SessionManager -->
<g id="node16" class="node">
<title>methods.manager.SessionManager</title>
<polygon fill="none" stroke="black" points="728.5,-760 572.25,-760 572.25,-724 728.5,-724 728.5,-760"/>
<text xml:space="preserve" text-anchor="middle" x="650.38" y="-738.12" font-family="Times,serif" font-size="10.00">methods.manager.SessionManager</text>
</g>
<!-- main&#45;&gt;methods.manager.SessionManager -->
<g id="edge3" class="edge">
<title>main&#45;&gt;methods.manager.SessionManager</title>
<path fill="none" stroke="black" d="M101.23,-535.44C116.42,-531.64 135.04,-524.86 148,-513 175.57,-487.76 161.11,-466.55 184,-437 249.47,-352.5 268.24,-319.4 368.75,-283 438.75,-257.65 481.05,-233.05 536.25,-283 595.86,-336.95 542.37,-568.36 572.25,-643 583.29,-670.59 604.46,-696.88 621.83,-715.43"/>
<polygon fill="black" stroke="black" points="619.23,-717.78 628.69,-722.54 624.27,-712.92 619.23,-717.78"/>
</g>
<!-- observability.db_metrics -->
<g id="node19" class="node">
<title>observability.db_metrics</title>
<polygon fill="none" stroke="black" points="316.62,-198 200.12,-198 200.12,-162 316.62,-162 316.62,-198"/>
<text xml:space="preserve" text-anchor="middle" x="258.38" y="-176.12" font-family="Times,serif" font-size="10.00">observability.db_metrics</text>
</g>
<!-- main&#45;&gt;observability.db_metrics -->
<g id="edge4" class="edge">
<title>main&#45;&gt;observability.db_metrics</title>
<path fill="none" stroke="black" d="M101.3,-537.14C117.31,-533.95 136.79,-527.22 148,-513 231.43,-407.21 103.62,-320.12 184,-212 185.98,-209.33 188.23,-206.89 190.69,-204.64"/>
<polygon fill="black" stroke="black" points="192.68,-207.52 198.51,-198.67 188.44,-201.96 192.68,-207.52"/>
</g>
<!-- observability.grafana_proxy -->
<g id="node20" class="node">
<title>observability.grafana_proxy</title>
<polygon fill="none" stroke="black" points="323.75,-144 193,-144 193,-108 323.75,-108 323.75,-144"/>
<text xml:space="preserve" text-anchor="middle" x="258.38" y="-122.12" font-family="Times,serif" font-size="10.00">observability.grafana_proxy</text>
</g>
<!-- main&#45;&gt;observability.grafana_proxy -->
<g id="edge5" class="edge">
<title>main&#45;&gt;observability.grafana_proxy</title>
<path fill="none" stroke="black" d="M101.39,-537.21C117.44,-534.05 136.93,-527.33 148,-513 246.35,-385.78 85.55,-280.13 184,-153 184.16,-152.8 184.31,-152.6 184.47,-152.4"/>
<polygon fill="black" stroke="black" points="186.82,-155 191.53,-145.5 181.93,-149.99 186.82,-155"/>
</g>
<!-- observability.metrics -->
<g id="node22" class="node">
<title>observability.metrics</title>
<polygon fill="none" stroke="black" points="502.88,-1130 402.12,-1130 402.12,-1094 502.88,-1094 502.88,-1130"/>
<text xml:space="preserve" text-anchor="middle" x="452.5" y="-1108.12" font-family="Times,serif" font-size="10.00">observability.metrics</text>
</g>
<!-- main&#45;&gt;observability.metrics -->
<g id="edge6" class="edge">
<title>main&#45;&gt;observability.metrics</title>
<path fill="none" stroke="black" d="M101.41,-542.77C117.47,-545.92 136.96,-552.65 148,-567 199.32,-633.7 139.82,-872.37 184,-944 231.28,-1020.67 328.01,-1068.11 391.27,-1092.27"/>
<polygon fill="black" stroke="black" points="389.88,-1095.49 400.47,-1095.7 392.33,-1088.93 389.88,-1095.49"/>
</g>
<!-- observability.utils_observability -->
<g id="node24" class="node">
<title>observability.utils_observability</title>
<polygon fill="none" stroke="black" points="332.75,-90 184,-90 184,-54 332.75,-54 332.75,-90"/>
<text xml:space="preserve" text-anchor="middle" x="258.38" y="-68.12" font-family="Times,serif" font-size="10.00">observability.utils_observability</text>
</g>
<!-- main&#45;&gt;observability.utils_observability -->
<g id="edge7" class="edge">
<title>main&#45;&gt;observability.utils_observability</title>
<path fill="none" stroke="black" d="M101.45,-537.26C117.53,-534.12 137.02,-527.4 148,-513 204.01,-439.58 127.93,-172.38 184,-99 184.15,-98.8 184.31,-98.6 184.47,-98.4"/>
<polygon fill="black" stroke="black" points="186.83,-100.99 191.49,-91.47 181.91,-96 186.83,-100.99"/>
</g>
<!-- routers.auth -->
<g id="node25" class="node">
<title>routers.auth</title>
<polygon fill="none" stroke="black" points="290.38,-828 226.38,-828 226.38,-792 290.38,-792 290.38,-828"/>
<text xml:space="preserve" text-anchor="middle" x="258.38" y="-806.12" font-family="Times,serif" font-size="10.00">routers.auth</text>
</g>
<!-- main&#45;&gt;routers.auth -->
<g id="edge8" class="edge">
<title>main&#45;&gt;routers.auth</title>
<path fill="none" stroke="black" d="M101.24,-543.68C116.82,-547.17 135.85,-553.94 148,-567 187.1,-609.01 160.73,-638.54 184,-691 198.64,-724 221.04,-758.83 237.24,-782.22"/>
<polygon fill="black" stroke="black" points="234.28,-784.09 242.89,-790.26 240.01,-780.07 234.28,-784.09"/>
</g>
<!-- routers.pages -->
<g id="node26" class="node">
<title>routers.pages</title>
<polygon fill="none" stroke="black" points="293,-36 223.75,-36 223.75,0 293,0 293,-36"/>
<text xml:space="preserve" text-anchor="middle" x="258.38" y="-14.12" font-family="Times,serif" font-size="10.00">routers.pages</text>
</g>
<!-- main&#45;&gt;routers.pages -->
<g id="edge9" class="edge">
<title>main&#45;&gt;routers.pages</title>
<path fill="none" stroke="black" d="M101.14,-537.36C117.31,-534.27 137.01,-527.56 148,-513 210.85,-429.75 121.08,-128.2 184,-45 191,-35.74 201.51,-29.66 212.4,-25.66"/>
<polygon fill="black" stroke="black" points="213.33,-29.04 221.86,-22.76 211.27,-22.34 213.33,-29.04"/>
</g>
<!-- routers.post -->
<g id="node27" class="node">
<title>routers.post</title>
<polygon fill="none" stroke="black" points="290,-1176 226.75,-1176 226.75,-1140 290,-1140 290,-1176"/>
<text xml:space="preserve" text-anchor="middle" x="258.38" y="-1154.12" font-family="Times,serif" font-size="10.00">routers.post</text>
</g>
<!-- main&#45;&gt;routers.post -->
<g id="edge10" class="edge">
<title>main&#45;&gt;routers.post</title>
<path fill="none" stroke="black" d="M101.16,-542.63C117.33,-545.71 137.03,-552.43 148,-567 213,-653.34 147.98,-950.1 184,-1052 194.54,-1081.83 215.81,-1111.03 232.75,-1131.21"/>
<polygon fill="black" stroke="black" points="230,-1133.38 239.19,-1138.67 235.3,-1128.81 230,-1133.38"/>
</g>
<!-- routers.root -->
<g id="node28" class="node">
<title>routers.root</title>
<polygon fill="none" stroke="black" points="483.75,-718 421.25,-718 421.25,-682 483.75,-682 483.75,-718"/>
<text xml:space="preserve" text-anchor="middle" x="452.5" y="-696.12" font-family="Times,serif" font-size="10.00">routers.root</text>
</g>
<!-- main&#45;&gt;routers.root -->
<g id="edge11" class="edge">
<title>main&#45;&gt;routers.root</title>
<path fill="none" stroke="black" d="M101.25,-545.02C116.27,-548.96 134.7,-555.73 148,-567 172.6,-587.85 158.4,-610.39 184,-630 251.24,-681.52 352.87,-695.27 409.54,-698.85"/>
<polygon fill="black" stroke="black" points="409.24,-702.34 419.41,-699.38 409.61,-695.35 409.24,-702.34"/>
</g>
<!-- routers.sessions -->
<g id="node29" class="node">
<title>routers.sessions</title>
<polygon fill="none" stroke="black" points="297.88,-935 218.88,-935 218.88,-899 297.88,-899 297.88,-935"/>
<text xml:space="preserve" text-anchor="middle" x="258.38" y="-913.12" font-family="Times,serif" font-size="10.00">routers.sessions</text>
</g>
<!-- main&#45;&gt;routers.sessions -->
<g id="edge12" class="edge">
<title>main&#45;&gt;routers.sessions</title>
<path fill="none" stroke="black" d="M101.23,-542.92C117.22,-546.12 136.69,-552.86 148,-567 223.61,-661.55 132.72,-727.33 184,-837 193.7,-857.74 210.72,-876.82 225.93,-891.13"/>
<polygon fill="black" stroke="black" points="223.25,-893.43 233.01,-897.56 227.96,-888.25 223.25,-893.43"/>
</g>
<!-- routers.vm -->
<g id="node30" class="node">
<title>routers.vm</title>
<polygon fill="none" stroke="black" points="287.75,-482 229,-482 229,-446 287.75,-446 287.75,-482"/>
<text xml:space="preserve" text-anchor="middle" x="258.38" y="-460.12" font-family="Times,serif" font-size="10.00">routers.vm</text>
</g>
<!-- main&#45;&gt;routers.vm -->
<g id="edge13" class="edge">
<title>main&#45;&gt;routers.vm</title>
<path fill="none" stroke="black" d="M101.18,-530.8C115.16,-525.76 132.61,-519.28 148,-513 171.62,-503.35 197.71,-491.71 218.48,-482.19"/>
<polygon fill="black" stroke="black" points="219.82,-485.42 227.44,-478.06 216.89,-479.06 219.82,-485.42"/>
</g>
<!-- utils -->
<g id="node31" class="node">
<title>utils</title>
<polygon fill="none" stroke="black" points="677.38,-217 623.38,-217 623.38,-181 677.38,-181 677.38,-217"/>
<text xml:space="preserve" text-anchor="middle" x="650.38" y="-195.12" font-family="Times,serif" font-size="10.00">utils</text>
</g>
<!-- main&#45;&gt;utils -->
<g id="edge14" class="edge">
<title>main&#45;&gt;utils</title>
<path fill="none" stroke="black" d="M101.44,-536.89C117.3,-533.61 136.56,-526.86 148,-513 210.52,-437.27 127.67,-375.44 184,-295 190.76,-285.35 357.36,-193.99 368.75,-191 453.3,-168.84 557.11,-181.65 611.7,-191.32"/>
<polygon fill="black" stroke="black" points="610.94,-194.73 621.41,-193.1 612.21,-187.85 610.94,-194.73"/>
</g>
<!-- methods.auth.auth -->
<g id="node8" class="node">
<title>methods.auth.auth</title>
<polygon fill="none" stroke="black" points="498,-962 407,-962 407,-926 498,-926 498,-962"/>
<text xml:space="preserve" text-anchor="middle" x="452.5" y="-940.12" font-family="Times,serif" font-size="10.00">methods.auth.auth</text>
</g>
<!-- methods.auth.auth&#45;&gt;configs.config -->
<g id="edge15" class="edge">
<title>methods.auth.auth&#45;&gt;configs.config</title>
<path fill="none" stroke="black" d="M498.2,-943.65C593.5,-942.9 815.93,-941.15 914.16,-940.38"/>
<polygon fill="black" stroke="black" points="914.02,-943.88 923.99,-940.3 913.97,-936.88 914.02,-943.88"/>
</g>
<!-- methods.auth.auth&#45;&gt;configs.log_config -->
<g id="edge16" class="edge">
<title>methods.auth.auth&#45;&gt;configs.log_config</title>
<path fill="none" stroke="black" d="M461.65,-925.56C479.53,-885.81 524.39,-789.65 572.25,-715 588.7,-689.35 610.19,-662.18 626.31,-642.8"/>
<polygon fill="black" stroke="black" points="628.79,-645.29 632.55,-635.38 623.43,-640.78 628.79,-645.29"/>
</g>
<!-- methods.auth.auth&#45;&gt;methods.database.database -->
<g id="edge17" class="edge">
<title>methods.auth.auth&#45;&gt;methods.database.database</title>
<path fill="none" stroke="black" d="M498.46,-951.36C561.54,-961.68 677.06,-980.58 752.74,-992.97"/>
<polygon fill="black" stroke="black" points="752.14,-996.42 762.57,-994.58 753.27,-989.51 752.14,-996.42"/>
</g>
<!-- methods.database.models -->
<g id="node12" class="node">
<title>methods.database.models</title>
<polygon fill="none" stroke="black" points="710.12,-1042 590.62,-1042 590.62,-1006 710.12,-1006 710.12,-1042"/>
<text xml:space="preserve" text-anchor="middle" x="650.38" y="-1020.12" font-family="Times,serif" font-size="10.00">methods.database.models</text>
</g>
<!-- methods.auth.auth&#45;&gt;methods.database.models -->
<g id="edge18" class="edge">
<title>methods.auth.auth&#45;&gt;methods.database.models</title>
<path fill="none" stroke="black" d="M498.32,-960.87C510.66,-965.64 524.02,-970.92 536.25,-976 552.42,-982.72 556.16,-985.09 572.25,-992 579.23,-995 586.58,-998.11 593.87,-1001.16"/>
<polygon fill="black" stroke="black" points="592.46,-1004.37 603.04,-1004.99 595.16,-997.91 592.46,-1004.37"/>
</g>
<!-- methods.auth.email_verification -->
<g id="node9" class="node">
<title>methods.auth.email_verification</title>
<polygon fill="none" stroke="black" points="148,-612 0,-612 0,-576 148,-576 148,-612"/>
<text xml:space="preserve" text-anchor="middle" x="74" y="-590.12" font-family="Times,serif" font-size="10.00">methods.auth.email_verification</text>
</g>
<!-- methods.database.database&#45;&gt;configs.config -->
<g id="edge19" class="edge">
<title>methods.database.database&#45;&gt;configs.config</title>
<path fill="none" stroke="black" d="M866.29,-986.55C881.52,-979.16 899.23,-970.57 915.26,-962.8"/>
<polygon fill="black" stroke="black" points="916.67,-966 924.14,-958.49 913.61,-959.7 916.67,-966"/>
</g>
<!-- methods.database.init_db -->
<g id="node11" class="node">
<title>methods.database.init_db</title>
<polygon fill="none" stroke="black" points="134.12,-666 13.88,-666 13.88,-630 134.12,-630 134.12,-666"/>
<text xml:space="preserve" text-anchor="middle" x="74" y="-644.12" font-family="Times,serif" font-size="10.00">methods.database.init_db</text>
</g>
<!-- methods.database.models&#45;&gt;methods.database.database -->
<g id="edge20" class="edge">
<title>methods.database.models&#45;&gt;methods.database.database</title>
<path fill="none" stroke="black" d="M710.58,-1017.57C724.18,-1016.09 738.81,-1014.5 752.93,-1012.97"/>
<polygon fill="black" stroke="black" points="753.05,-1016.47 762.61,-1011.91 752.29,-1009.51 753.05,-1016.47"/>
</g>
<!-- methods.manager -->
<g id="node13" class="node">
<title>methods.manager</title>
<polygon fill="none" stroke="black" points="496.12,-328 408.88,-328 408.88,-292 496.12,-292 496.12,-328"/>
<text xml:space="preserve" text-anchor="middle" x="452.5" y="-306.12" font-family="Times,serif" font-size="10.00">methods.manager</text>
</g>
<!-- methods.manager.OverlayManager -->
<g id="node14" class="node">
<title>methods.manager.OverlayManager</title>
<polygon fill="none" stroke="black" points="531.75,-436 373.25,-436 373.25,-400 531.75,-400 531.75,-436"/>
<text xml:space="preserve" text-anchor="middle" x="452.5" y="-414.12" font-family="Times,serif" font-size="10.00">methods.manager.OverlayManager</text>
</g>
<!-- methods.manager.OverlayManager&#45;&gt;configs.config -->
<g id="edge21" class="edge">
<title>methods.manager.OverlayManager&#45;&gt;configs.config</title>
<path fill="none" stroke="black" d="M532.19,-409.57C590.77,-407.23 670.32,-412.73 728.5,-450 896.22,-557.42 946.32,-821.36 958.7,-910.24"/>
<polygon fill="black" stroke="black" points="955.22,-910.63 960.01,-920.08 962.16,-909.71 955.22,-910.63"/>
</g>
<!-- methods.manager.OverlayManager&#45;&gt;configs.log_config -->
<g id="edge22" class="edge">
<title>methods.manager.OverlayManager&#45;&gt;configs.log_config</title>
<path fill="none" stroke="black" d="M477.11,-436.45C494.11,-450.09 517.29,-469.44 536.25,-488 570,-521.03 605.53,-562.49 627.57,-589.11"/>
<polygon fill="black" stroke="black" points="624.76,-591.21 633.82,-596.71 630.16,-586.76 624.76,-591.21"/>
</g>
<!-- methods.manager.OverlayManager&#45;&gt;configs.vm_profiles -->
<g id="edge23" class="edge">
<title>methods.manager.OverlayManager&#45;&gt;configs.vm_profiles</title>
<path fill="none" stroke="black" d="M515.05,-399.5C522.28,-396.87 529.49,-394.02 536.25,-391 626.36,-350.81 647.51,-336.34 728.5,-280 752.87,-263.05 778.65,-241.52 797.61,-224.91"/>
<polygon fill="black" stroke="black" points="799.77,-227.68 804.94,-218.44 795.13,-222.44 799.77,-227.68"/>
</g>
<!-- methods.manager.ProcessManager -->
<g id="node15" class="node">
<title>methods.manager.ProcessManager</title>
<polygon fill="none" stroke="black" points="728.12,-271 572.62,-271 572.62,-235 728.12,-235 728.12,-271"/>
<text xml:space="preserve" text-anchor="middle" x="650.38" y="-249.12" font-family="Times,serif" font-size="10.00">methods.manager.ProcessManager</text>
</g>
<!-- methods.manager.SessionManager&#45;&gt;configs.redis_config -->
<g id="edge24" class="edge">
<title>methods.manager.SessionManager&#45;&gt;configs.redis_config</title>
<path fill="none" stroke="black" d="M728.84,-742C741.3,-742 754.04,-742 766.02,-742"/>
<polygon fill="black" stroke="black" points="765.72,-745.5 775.72,-742 765.72,-738.5 765.72,-745.5"/>
</g>
<!-- methods.manager.WebsockifyService -->
<g id="node17" class="node">
<title>methods.manager.WebsockifyService</title>
<polygon fill="none" stroke="black" points="536.25,-236 368.75,-236 368.75,-200 536.25,-200 536.25,-236"/>
<text xml:space="preserve" text-anchor="middle" x="452.5" y="-214.12" font-family="Times,serif" font-size="10.00">methods.manager.WebsockifyService</text>
</g>
<!-- methods.manager.WebsockifyService&#45;&gt;methods.manager.ProcessManager -->
<g id="edge25" class="edge">
<title>methods.manager.WebsockifyService&#45;&gt;methods.manager.ProcessManager</title>
<path fill="none" stroke="black" d="M536.57,-232.84C544.74,-234.3 553.05,-235.79 561.27,-237.26"/>
<polygon fill="black" stroke="black" points="560.45,-240.67 570.91,-238.98 561.69,-233.78 560.45,-240.67"/>
</g>
<!-- methods.manager.WebsockifyService&#45;&gt;methods.manager.SessionManager -->
<g id="edge26" class="edge">
<title>methods.manager.WebsockifyService&#45;&gt;methods.manager.SessionManager</title>
<path fill="none" stroke="black" d="M521.36,-236.36C527.04,-240.1 532.17,-244.59 536.25,-250 589.08,-320 540,-561.45 572.25,-643 583.18,-670.64 604.36,-696.93 621.76,-715.46"/>
<polygon fill="black" stroke="black" points="619.17,-717.82 628.63,-722.57 624.2,-712.95 619.17,-717.82"/>
</g>
<!-- methods.manager.WebsockifyService&#45;&gt;utils -->
<g id="edge27" class="edge">
<title>methods.manager.WebsockifyService&#45;&gt;utils</title>
<path fill="none" stroke="black" d="M536.57,-209.94C562.79,-207.4 590.46,-204.71 611.83,-202.64"/>
<polygon fill="black" stroke="black" points="611.89,-206.15 621.51,-201.7 611.21,-199.19 611.89,-206.15"/>
</g>
<!-- observability -->
<g id="node18" class="node">
<title>observability</title>
<polygon fill="none" stroke="black" points="109,-720 39,-720 39,-684 109,-684 109,-720"/>
<text xml:space="preserve" text-anchor="middle" x="74" y="-698.12" font-family="Times,serif" font-size="10.00">observability</text>
</g>
<!-- observability.http_metrics -->
<g id="node21" class="node">
<title>observability.http_metrics</title>
<polygon fill="none" stroke="black" points="135.25,-774 12.75,-774 12.75,-738 135.25,-738 135.25,-774"/>
<text xml:space="preserve" text-anchor="middle" x="74" y="-752.12" font-family="Times,serif" font-size="10.00">observability.http_metrics</text>
</g>
<!-- observability.metrics&#45;&gt;methods.database.database -->
<g id="edge28" class="edge">
<title>observability.metrics&#45;&gt;methods.database.database</title>
<path fill="none" stroke="black" d="M503.34,-1104.37C559.13,-1095.04 651.79,-1077.19 728.5,-1051 746.58,-1044.83 765.75,-1036.28 782.27,-1028.23"/>
<polygon fill="black" stroke="black" points="783.43,-1031.56 790.83,-1023.98 780.32,-1025.3 783.43,-1031.56"/>
</g>
<!-- observability.metrics&#45;&gt;methods.database.models -->
<g id="edge29" class="edge">
<title>observability.metrics&#45;&gt;methods.database.models</title>
<path fill="none" stroke="black" d="M503.25,-1093.6C514.19,-1089.32 525.68,-1084.65 536.25,-1080 558.9,-1070.04 583.58,-1057.97 604.09,-1047.59"/>
<polygon fill="black" stroke="black" points="605.43,-1050.84 612.75,-1043.18 602.25,-1044.6 605.43,-1050.84"/>
</g>
<!-- observability.metrics&#45;&gt;methods.manager.SessionManager -->
<g id="edge30" class="edge">
<title>observability.metrics&#45;&gt;methods.manager.SessionManager</title>
<path fill="none" stroke="black" d="M503.27,-1100.75C515.33,-1096.02 527.31,-1089.36 536.25,-1080 558.46,-1056.75 619.17,-848.48 641.23,-770.93"/>
<polygon fill="black" stroke="black" points="644.53,-772.09 643.89,-761.52 637.8,-770.18 644.53,-772.09"/>
</g>
<!-- observability.ops_metrics -->
<g id="node23" class="node">
<title>observability.ops_metrics</title>
<polygon fill="none" stroke="black" points="134.12,-828 13.88,-828 13.88,-792 134.12,-792 134.12,-828"/>
<text xml:space="preserve" text-anchor="middle" x="74" y="-806.12" font-family="Times,serif" font-size="10.00">observability.ops_metrics</text>
</g>
<!-- routers.auth&#45;&gt;configs.config -->
<g id="edge31" class="edge">
<title>routers.auth&#45;&gt;configs.config</title>
<path fill="none" stroke="black" d="M290.48,-815.75C401.75,-836.33 780.44,-906.37 914.63,-931.19"/>
<polygon fill="black" stroke="black" points="913.77,-934.59 924.24,-932.97 915.04,-927.71 913.77,-934.59"/>
</g>
<!-- routers.auth&#45;&gt;configs.log_config -->
<g id="edge32" class="edge">
<title>routers.auth&#45;&gt;configs.log_config</title>
<path fill="none" stroke="black" d="M290.66,-793.32C312.11,-782.47 341.52,-768.77 368.75,-760 440.97,-736.73 469.13,-762.39 536.25,-727 574.84,-706.66 609.01,-668.94 629.45,-643.17"/>
<polygon fill="black" stroke="black" points="632.05,-645.52 635.41,-635.47 626.52,-641.23 632.05,-645.52"/>
</g>
<!-- routers.auth&#45;&gt;methods.auth.auth -->
<g id="edge33" class="edge">
<title>routers.auth&#45;&gt;methods.auth.auth</title>
<path fill="none" stroke="black" d="M275.1,-828.47C294.96,-850.83 331.13,-888.42 368.75,-912 377.19,-917.29 386.65,-921.95 396.07,-925.96"/>
<polygon fill="black" stroke="black" points="394.64,-929.16 405.23,-929.64 397.26,-922.66 394.64,-929.16"/>
</g>
<!-- routers.auth&#45;&gt;methods.database.database -->
<g id="edge34" class="edge">
<title>routers.auth&#45;&gt;methods.database.database</title>
<path fill="none" stroke="black" d="M285.65,-828.37C307.13,-842.63 338.74,-861.94 368.75,-874 445.02,-904.64 650.82,-933.13 728.5,-960 745.88,-966.01 764.35,-974.05 780.5,-981.68"/>
<polygon fill="black" stroke="black" points="778.84,-984.77 789.37,-985.94 781.88,-978.46 778.84,-984.77"/>
</g>
<!-- routers.auth&#45;&gt;methods.database.models -->
<g id="edge35" class="edge">
<title>routers.auth&#45;&gt;methods.database.models</title>
<path fill="none" stroke="black" d="M279.37,-828.25C295.32,-843.58 317.46,-866.67 332.75,-890 354.35,-922.95 337.86,-946.55 368.75,-971 372.92,-974.3 497.35,-996.95 579.11,-1011.55"/>
<polygon fill="black" stroke="black" points="578.39,-1014.98 588.85,-1013.29 579.62,-1008.09 578.39,-1014.98"/>
</g>
<!-- routers.auth&#45;&gt;methods.manager.SessionManager -->
<g id="edge36" class="edge">
<title>routers.auth&#45;&gt;methods.manager.SessionManager</title>
<path fill="none" stroke="black" d="M290.63,-804.55C348.64,-794.44 474.88,-772.42 561.02,-757.41"/>
<polygon fill="black" stroke="black" points="561.37,-760.9 570.62,-755.73 560.16,-754 561.37,-760.9"/>
</g>
<!-- routers.auth&#45;&gt;utils -->
<g id="edge37" class="edge">
<title>routers.auth&#45;&gt;utils</title>
<path fill="none" stroke="black" d="M273.98,-791.84C328.65,-723.68 519.05,-485.01 536.25,-445 575.2,-354.38 508.82,-301.54 572.25,-226 582.11,-214.26 597.4,-207.62 611.77,-203.86"/>
<polygon fill="black" stroke="black" points="612.47,-207.29 621.5,-201.75 610.98,-200.45 612.47,-207.29"/>
</g>
<!-- routers.post&#45;&gt;configs.config -->
<g id="edge38" class="edge">
<title>routers.post&#45;&gt;configs.config</title>
<path fill="none" stroke="black" d="M290.09,-1168.07C311.8,-1174.63 341.72,-1182.59 368.75,-1186 528.91,-1206.18 580.66,-1200.83 728.5,-1136 806.69,-1101.71 826.87,-1089.48 890,-1032 910.97,-1012.9 930.56,-987.26 944.04,-967.9"/>
<polygon fill="black" stroke="black" points="946.91,-969.9 949.65,-959.67 941.13,-965.96 946.91,-969.9"/>
</g>
<!-- routers.post&#45;&gt;methods.auth.auth -->
<g id="edge39" class="edge">
<title>routers.post&#45;&gt;methods.auth.auth</title>
<path fill="none" stroke="black" d="M275.76,-1139.75C309.71,-1101.93 387.92,-1014.82 427.55,-970.68"/>
<polygon fill="black" stroke="black" points="430.07,-973.1 434.15,-963.33 424.86,-968.43 430.07,-973.1"/>
</g>
<!-- routers.post&#45;&gt;methods.database.database -->
<g id="edge40" class="edge">
<title>routers.post&#45;&gt;methods.database.database</title>
<path fill="none" stroke="black" d="M290.09,-1163.82C341.6,-1172.55 448.4,-1186.15 536.25,-1168 627.39,-1149.17 649,-1133.38 728.5,-1085 754.05,-1069.45 780.12,-1047.76 798.91,-1030.89"/>
<polygon fill="black" stroke="black" points="801.11,-1033.62 806.14,-1024.3 796.39,-1028.45 801.11,-1033.62"/>
</g>
<!-- routers.post&#45;&gt;methods.database.models -->
<g id="edge41" class="edge">
<title>routers.post&#45;&gt;methods.database.models</title>
<path fill="none" stroke="black" d="M290.18,-1162.7C343.21,-1169.35 453.95,-1176.85 536.25,-1139 577.45,-1120.05 611.78,-1079.07 631.46,-1051.51"/>
<polygon fill="black" stroke="black" points="634.11,-1053.83 636.93,-1043.62 628.36,-1049.84 634.11,-1053.83"/>
</g>
<!-- routers.post&#45;&gt;methods.manager.SessionManager -->
<g id="edge42" class="edge">
<title>routers.post&#45;&gt;methods.manager.SessionManager</title>
<path fill="none" stroke="black" d="M286.91,-1139.54C356.44,-1092.9 533.8,-973.81 536.25,-971 590.02,-909.42 625.02,-817.75 640.39,-771.28"/>
<polygon fill="black" stroke="black" points="643.67,-772.52 643.41,-761.93 637.01,-770.37 643.67,-772.52"/>
</g>
<!-- routers.root&#45;&gt;methods.manager.SessionManager -->
<g id="edge43" class="edge">
<title>routers.root&#45;&gt;methods.manager.SessionManager</title>
<path fill="none" stroke="black" d="M484.11,-706.56C504.91,-711.02 533.57,-717.17 561.18,-723.09"/>
<polygon fill="black" stroke="black" points="560.11,-726.44 570.62,-725.11 561.58,-719.59 560.11,-726.44"/>
</g>
<!-- routers.sessions&#45;&gt;methods.auth.auth -->
<g id="edge44" class="edge">
<title>routers.sessions&#45;&gt;methods.auth.auth</title>
<path fill="none" stroke="black" d="M298.25,-922.46C326.18,-926.39 364.25,-931.74 395.46,-936.12"/>
<polygon fill="black" stroke="black" points="394.73,-939.56 405.12,-937.48 395.7,-932.62 394.73,-939.56"/>
</g>
<!-- routers.sessions&#45;&gt;methods.database.models -->
<g id="edge45" class="edge">
<title>routers.sessions&#45;&gt;methods.database.models</title>
<path fill="none" stroke="black" d="M275.45,-935.16C295.11,-955.97 330.54,-989.11 368.75,-1004 436.59,-1030.43 520.57,-1032.86 578.9,-1030.28"/>
<polygon fill="black" stroke="black" points="578.89,-1033.79 588.69,-1029.78 578.53,-1026.8 578.89,-1033.79"/>
</g>
<!-- routers.sessions&#45;&gt;methods.manager.SessionManager -->
<g id="edge46" class="edge">
<title>routers.sessions&#45;&gt;methods.manager.SessionManager</title>
<path fill="none" stroke="black" d="M298.2,-899.58C369,-867.81 519.09,-800.46 598.17,-764.98"/>
<polygon fill="black" stroke="black" points="599.3,-768.3 606.99,-761.02 596.44,-761.92 599.3,-768.3"/>
</g>
<!-- routers.vm&#45;&gt;configs.log_config -->
<g id="edge47" class="edge">
<title>routers.vm&#45;&gt;configs.log_config</title>
<path fill="none" stroke="black" d="M287.97,-473.44C338.55,-490.33 446.86,-527.39 536.25,-564 557.78,-572.82 581.21,-583.42 601.13,-592.74"/>
<polygon fill="black" stroke="black" points="599.59,-595.88 610.13,-596.98 602.58,-589.55 599.59,-595.88"/>
</g>
<!-- routers.vm&#45;&gt;configs.server_config -->
<g id="edge48" class="edge">
<title>routers.vm&#45;&gt;configs.server_config</title>
<path fill="none" stroke="black" d="M282.57,-445.78C303.97,-429.65 337.12,-406.35 368.75,-391 375.34,-387.8 382.4,-384.84 389.52,-382.16"/>
<polygon fill="black" stroke="black" points="390.66,-385.46 398.89,-378.79 388.29,-378.88 390.66,-385.46"/>
</g>
<!-- routers.vm&#45;&gt;configs.vm_profiles -->
<g id="edge49" class="edge">
<title>routers.vm&#45;&gt;configs.vm_profiles</title>
<path fill="none" stroke="black" d="M260.49,-445.51C264.64,-395.05 283.66,-254.54 368.75,-191 486.61,-102.99 673.33,-146.48 767.63,-177.29"/>
<polygon fill="black" stroke="black" points="766.36,-180.55 776.95,-180.4 768.57,-173.91 766.36,-180.55"/>
</g>
<!-- routers.vm&#45;&gt;methods.auth.auth -->
<g id="edge50" class="edge">
<title>routers.vm&#45;&gt;methods.auth.auth</title>
<path fill="none" stroke="black" d="M266.67,-482.23C295.86,-555.14 404.33,-826.14 440.03,-915.33"/>
<polygon fill="black" stroke="black" points="436.67,-916.36 443.63,-924.35 443.17,-913.76 436.67,-916.36"/>
</g>
<!-- routers.vm&#45;&gt;methods.database.database -->
<g id="edge51" class="edge">
<title>routers.vm&#45;&gt;methods.database.database</title>
<path fill="none" stroke="black" d="M288.22,-461.19C372.49,-454.78 619.29,-449.17 728.5,-589 778.72,-653.3 746.17,-689.5 764.5,-769 781.8,-844.01 805.66,-931.47 818.05,-975.89"/>
<polygon fill="black" stroke="black" points="814.61,-976.59 820.67,-985.27 821.35,-974.7 814.61,-976.59"/>
</g>
<!-- routers.vm&#45;&gt;methods.database.models -->
<g id="edge52" class="edge">
<title>routers.vm&#45;&gt;methods.database.models</title>
<path fill="none" stroke="black" d="M268.71,-482.05C285.11,-512.12 321.86,-572.67 368.75,-608 432.53,-656.05 481.46,-614.91 536.25,-673 547.76,-685.21 616.31,-912.91 640.74,-994.89"/>
<polygon fill="black" stroke="black" points="637.37,-995.85 643.58,-1004.44 644.08,-993.85 637.37,-995.85"/>
</g>
<!-- routers.vm&#45;&gt;methods.manager -->
<g id="edge53" class="edge">
<title>routers.vm&#45;&gt;methods.manager</title>
<path fill="none" stroke="black" d="M270.46,-445.66C287.99,-418.16 324.67,-366.36 368.75,-337 377.52,-331.16 387.66,-326.49 397.77,-322.8"/>
<polygon fill="black" stroke="black" points="398.84,-326.13 407.22,-319.64 396.63,-319.49 398.84,-326.13"/>
</g>
<!-- routers.vm&#45;&gt;methods.manager.OverlayManager -->
<g id="edge54" class="edge">
<title>routers.vm&#45;&gt;methods.manager.OverlayManager</title>
<path fill="none" stroke="black" d="M288.14,-457.11C308.2,-452.31 336.12,-445.63 363.21,-439.14"/>
<polygon fill="black" stroke="black" points="363.96,-442.56 372.87,-436.83 362.33,-435.75 363.96,-442.56"/>
</g>
<!-- routers.vm&#45;&gt;methods.manager.SessionManager -->
<g id="edge55" class="edge">
<title>routers.vm&#45;&gt;methods.manager.SessionManager</title>
<path fill="none" stroke="black" d="M281.73,-482.46C303.37,-499.97 337.4,-526.55 368.75,-547 440.07,-593.52 466.96,-590.51 536.25,-640 568.5,-663.03 601.75,-694.05 623.79,-715.82"/>
<polygon fill="black" stroke="black" points="621.04,-718.01 630.59,-722.6 625.98,-713.06 621.04,-718.01"/>
</g>
<!-- routers.vm&#45;&gt;methods.manager.WebsockifyService -->
<g id="edge56" class="edge">
<title>routers.vm&#45;&gt;methods.manager.WebsockifyService</title>
<path fill="none" stroke="black" d="M267.71,-445.62C283.87,-411.21 322.04,-335.8 368.75,-283 381.98,-268.04 399,-254.01 414.16,-242.83"/>
<polygon fill="black" stroke="black" points="416,-245.82 422.08,-237.15 411.92,-240.14 416,-245.82"/>
</g>
<!-- utils&#45;&gt;configs.vm_profiles -->
<g id="edge57" class="edge">
<title>utils&#45;&gt;configs.vm_profiles</title>
<path fill="none" stroke="black" d="M677.56,-199C701.13,-199 736.64,-199 767.04,-199"/>
<polygon fill="black" stroke="black" points="766.9,-202.5 776.9,-199 766.9,-195.5 766.9,-202.5"/>
</g>
</g>
</svg>
