<?xml version="1.0" encoding="UTF-8" standalone="no"?>
<!DOCTYPE svg PUBLIC "-//W3C//DTD SVG 1.1//EN"
 "http://www.w3.org/Graphics/SVG/1.1/DTD/svg11.dtd">
<!-- Generated by graphviz version 13.1.1 (20250719.2154)
 -->
<!-- Title: python_deps Pages: 1 -->
<svg width="1042pt" height="1101pt"
 viewBox="0.00 0.00 1042.00 1101.00" xmlns="http://www.w3.org/2000/svg" xmlns:xlink="http://www.w3.org/1999/xlink">
<g id="graph0" class="graph" transform="scale(1 1) rotate(0) translate(4 1096.5)">
<title>python_deps</title>
<polygon fill="white" stroke="none" points="-4,4 -4,-1096.5 1037.5,-1096.5 1037.5,4 -4,4"/>
<!-- configs.config -->
<g id="node1" class="node">
<title>configs.config</title>
<polygon fill="none" stroke="black" points="1033.5,-604.3 959,-604.3 959,-568.3 1033.5,-568.3 1033.5,-604.3"/>
<text xml:space="preserve" text-anchor="middle" x="996.25" y="-582.42" font-family="Times,serif" font-size="10.00">configs.config</text>
</g>
<!-- main -->
<g id="node2" class="node">
<title>main</title>
<polygon fill="none" stroke="black" points="101,-712.3 47,-712.3 47,-676.3 101,-676.3 101,-712.3"/>
<text xml:space="preserve" text-anchor="middle" x="74" y="-690.42" font-family="Times,serif" font-size="10.00">main</text>
</g>
<!-- methods.database.database -->
<g id="node5" class="node">
<title>methods.database.database</title>
<polygon fill="none" stroke="black" points="906.5,-803.3 781,-803.3 781,-767.3 906.5,-767.3 906.5,-803.3"/>
<text xml:space="preserve" text-anchor="middle" x="843.75" y="-781.42" font-family="Times,serif" font-size="10.00">methods.database.database</text>
</g>
<!-- main&#45;&gt;methods.database.database -->
<g id="edge1" class="edge">
<title>main&#45;&gt;methods.database.database</title>
<path fill="none" stroke="black" d="M101.31,-697.15C117.32,-700.34 136.8,-707.07 148,-721.3 232.7,-828.9 95.08,-923.16 184,-1027.3 239.39,-1092.16 284.25,-1067.63 368.75,-1079.3 442.5,-1089.48 465.15,-1101.35 536.25,-1079.3 635.24,-1048.58 654.75,-1020.12 728.5,-947.3 770.33,-905.98 807.21,-847.67 827.12,-813.44"/>
<polygon fill="black" stroke="black" points="830.05,-815.37 831.98,-804.95 823.97,-811.88 830.05,-815.37"/>
</g>
<!-- methods.manager.SessionManager -->
<g id="node11" class="node">
<title>methods.manager.SessionManager</title>
<polygon fill="none" stroke="black" points="728.5,-520.3 572.25,-520.3 572.25,-484.3 728.5,-484.3 728.5,-520.3"/>
<text xml:space="preserve" text-anchor="middle" x="650.38" y="-498.42" font-family="Times,serif" font-size="10.00">methods.manager.SessionManager</text>
</g>
<!-- main&#45;&gt;methods.manager.SessionManager -->
<g id="edge2" class="edge">
<title>main&#45;&gt;methods.manager.SessionManager</title>
<path fill="none" stroke="black" d="M79.27,-676.06C89.77,-635.37 120.68,-536.63 184,-484.3 306.14,-383.35 384.26,-384.51 536.25,-429.3 567.84,-438.6 598.92,-459.77 620.48,-476.93"/>
<polygon fill="black" stroke="black" points="617.99,-479.41 627.94,-483.03 622.42,-473.99 617.99,-479.41"/>
</g>
<!-- observability.db_metrics -->
<g id="node14" class="node">
<title>observability.db_metrics</title>
<polygon fill="none" stroke="black" points="316.62,-912.3 200.12,-912.3 200.12,-876.3 316.62,-876.3 316.62,-912.3"/>
<text xml:space="preserve" text-anchor="middle" x="258.38" y="-890.42" font-family="Times,serif" font-size="10.00">observability.db_metrics</text>
</g>
<!-- main&#45;&gt;observability.db_metrics -->
<g id="edge3" class="edge">
<title>main&#45;&gt;observability.db_metrics</title>
<path fill="none" stroke="black" d="M101.43,-697.8C117.08,-701.23 136.12,-707.99 148,-721.3 192.53,-771.13 139.43,-817.49 184,-867.3 185.94,-869.46 188.07,-871.46 190.34,-873.29"/>
<polygon fill="black" stroke="black" points="188.23,-876.09 198.48,-878.76 192.13,-870.28 188.23,-876.09"/>
</g>
<!-- observability.grafana_proxy -->
<g id="node15" class="node">
<title>observability.grafana_proxy</title>
<polygon fill="none" stroke="black" points="323.75,-858.3 193,-858.3 193,-822.3 323.75,-822.3 323.75,-858.3"/>
<text xml:space="preserve" text-anchor="middle" x="258.38" y="-836.42" font-family="Times,serif" font-size="10.00">observability.grafana_proxy</text>
</g>
<!-- main&#45;&gt;observability.grafana_proxy -->
<g id="edge4" class="edge">
<title>main&#45;&gt;observability.grafana_proxy</title>
<path fill="none" stroke="black" d="M101.18,-698.45C116.55,-702.12 135.37,-708.9 148,-721.3 179.34,-752.05 152.64,-782.57 184,-813.3 184.62,-813.9 185.25,-814.49 185.9,-815.07"/>
<polygon fill="black" stroke="black" points="183.67,-817.77 193.77,-820.98 187.87,-812.17 183.67,-817.77"/>
</g>
<!-- observability.metrics -->
<g id="node17" class="node">
<title>observability.metrics</title>
<polygon fill="none" stroke="black" points="502.88,-826.3 402.12,-826.3 402.12,-790.3 502.88,-790.3 502.88,-826.3"/>
<text xml:space="preserve" text-anchor="middle" x="452.5" y="-804.42" font-family="Times,serif" font-size="10.00">observability.metrics</text>
</g>
<!-- main&#45;&gt;observability.metrics -->
<g id="edge5" class="edge">
<title>main&#45;&gt;observability.metrics</title>
<path fill="none" stroke="black" d="M101.2,-700.79C164.54,-716.52 321.58,-755.6 332.75,-759.3 355.29,-766.74 379.62,-776.47 400.35,-785.29"/>
<polygon fill="black" stroke="black" points="398.87,-788.47 409.44,-789.21 401.64,-782.04 398.87,-788.47"/>
</g>
<!-- observability.utils_observability -->
<g id="node20" class="node">
<title>observability.utils_observability</title>
<polygon fill="none" stroke="black" points="332.75,-1018.3 184,-1018.3 184,-982.3 332.75,-982.3 332.75,-1018.3"/>
<text xml:space="preserve" text-anchor="middle" x="258.38" y="-996.42" font-family="Times,serif" font-size="10.00">observability.utils_observability</text>
</g>
<!-- main&#45;&gt;observability.utils_observability -->
<g id="edge6" class="edge">
<title>main&#45;&gt;observability.utils_observability</title>
<path fill="none" stroke="black" d="M101.37,-697.46C117.21,-700.77 136.46,-707.52 148,-721.3 206,-790.53 143.64,-840.5 184,-921.3 194.16,-941.64 211.21,-960.47 226.31,-974.64"/>
<polygon fill="black" stroke="black" points="223.57,-976.87 233.33,-980.99 228.27,-971.68 223.57,-976.87"/>
</g>
<!-- routers.auth -->
<g id="node21" class="node">
<title>routers.auth</title>
<polygon fill="none" stroke="black" points="290.38,-712.3 226.38,-712.3 226.38,-676.3 290.38,-676.3 290.38,-712.3"/>
<text xml:space="preserve" text-anchor="middle" x="258.38" y="-690.42" font-family="Times,serif" font-size="10.00">routers.auth</text>
</g>
<!-- main&#45;&gt;routers.auth -->
<g id="edge7" class="edge">
<title>main&#45;&gt;routers.auth</title>
<path fill="none" stroke="black" d="M101.13,-694.3C130.77,-694.3 179.56,-694.3 214.74,-694.3"/>
<polygon fill="black" stroke="black" points="214.58,-697.8 224.58,-694.3 214.58,-690.8 214.58,-697.8"/>
</g>
<!-- routers.pages -->
<g id="node22" class="node">
<title>routers.pages</title>
<polygon fill="none" stroke="black" points="293,-658.3 223.75,-658.3 223.75,-622.3 293,-622.3 293,-658.3"/>
<text xml:space="preserve" text-anchor="middle" x="258.38" y="-636.42" font-family="Times,serif" font-size="10.00">routers.pages</text>
</g>
<!-- main&#45;&gt;routers.pages -->
<g id="edge8" class="edge">
<title>main&#45;&gt;routers.pages</title>
<path fill="none" stroke="black" d="M101.13,-686.56C130.19,-677.95 177.65,-663.9 212.65,-653.54"/>
<polygon fill="black" stroke="black" points="213.49,-656.94 222.08,-650.74 211.5,-650.23 213.49,-656.94"/>
</g>
<!-- routers.post -->
<g id="node23" class="node">
<title>routers.post</title>
<polygon fill="none" stroke="black" points="290,-804.3 226.75,-804.3 226.75,-768.3 290,-768.3 290,-804.3"/>
<text xml:space="preserve" text-anchor="middle" x="258.38" y="-782.42" font-family="Times,serif" font-size="10.00">routers.post</text>
</g>
<!-- main&#45;&gt;routers.post -->
<g id="edge9" class="edge">
<title>main&#45;&gt;routers.post</title>
<path fill="none" stroke="black" d="M101.46,-701.36C115.84,-705.85 133.58,-712.49 148,-721.3 166.53,-732.6 165.8,-742.46 184,-754.3 193.87,-760.72 205.25,-766.39 216.06,-771.11"/>
<polygon fill="black" stroke="black" points="214.62,-774.31 225.19,-774.93 217.31,-767.85 214.62,-774.31"/>
</g>
<!-- routers.root -->
<g id="node24" class="node">
<title>routers.root</title>
<polygon fill="none" stroke="black" points="483.75,-474.3 421.25,-474.3 421.25,-438.3 483.75,-438.3 483.75,-474.3"/>
<text xml:space="preserve" text-anchor="middle" x="452.5" y="-452.42" font-family="Times,serif" font-size="10.00">routers.root</text>
</g>
<!-- main&#45;&gt;routers.root -->
<g id="edge10" class="edge">
<title>main&#45;&gt;routers.root</title>
<path fill="none" stroke="black" d="M85.38,-676.01C102.49,-647.39 139.2,-591.93 184,-559.3 254.6,-507.87 354.13,-478.54 409.74,-465.19"/>
<polygon fill="black" stroke="black" points="410.5,-468.6 419.44,-462.92 408.9,-461.79 410.5,-468.6"/>
</g>
<!-- routers.sessions -->
<g id="node25" class="node">
<title>routers.sessions</title>
<polygon fill="none" stroke="black" points="297.88,-604.3 218.88,-604.3 218.88,-568.3 297.88,-568.3 297.88,-604.3"/>
<text xml:space="preserve" text-anchor="middle" x="258.38" y="-582.42" font-family="Times,serif" font-size="10.00">routers.sessions</text>
</g>
<!-- main&#45;&gt;routers.sessions -->
<g id="edge11" class="edge">
<title>main&#45;&gt;routers.sessions</title>
<path fill="none" stroke="black" d="M95.89,-675.9C116.97,-658.06 151.03,-631.13 184,-613.3 191.47,-609.25 199.67,-605.57 207.8,-602.32"/>
<polygon fill="black" stroke="black" points="208.87,-605.66 216.97,-598.84 206.38,-599.12 208.87,-605.66"/>
</g>
<!-- routers.vm -->
<g id="node26" class="node">
<title>routers.vm</title>
<polygon fill="none" stroke="black" points="287.75,-276.3 229,-276.3 229,-240.3 287.75,-240.3 287.75,-276.3"/>
<text xml:space="preserve" text-anchor="middle" x="258.38" y="-254.42" font-family="Times,serif" font-size="10.00">routers.vm</text>
</g>
<!-- main&#45;&gt;routers.vm -->
<g id="edge12" class="edge">
<title>main&#45;&gt;routers.vm</title>
<path fill="none" stroke="black" d="M78.76,-676.01C89.89,-624.13 125.57,-472.37 184,-358.3 197.58,-331.78 217.92,-304.71 233.74,-285.44"/>
<polygon fill="black" stroke="black" points="236.39,-287.72 240.12,-277.8 231.02,-283.23 236.39,-287.72"/>
</g>
<!-- utils -->
<g id="node28" class="node">
<title>utils</title>
<polygon fill="none" stroke="black" points="677.38,-176.3 623.38,-176.3 623.38,-140.3 677.38,-140.3 677.38,-176.3"/>
<text xml:space="preserve" text-anchor="middle" x="650.38" y="-154.42" font-family="Times,serif" font-size="10.00">utils</text>
</g>
<!-- main&#45;&gt;utils -->
<g id="edge13" class="edge">
<title>main&#45;&gt;utils</title>
<path fill="none" stroke="black" d="M77.31,-675.82C87.24,-598.82 128.31,-304.1 184,-231.3 282.87,-102.03 374.62,-112.27 536.25,-131.3 562.04,-134.33 590.46,-141.13 612.36,-147.14"/>
<polygon fill="black" stroke="black" points="611.14,-150.44 621.72,-149.78 613.04,-143.7 611.14,-150.44"/>
</g>
<!-- methods.auth.auth -->
<g id="node3" class="node">
<title>methods.auth.auth</title>
<polygon fill="none" stroke="black" points="498,-604.3 407,-604.3 407,-568.3 498,-568.3 498,-604.3"/>
<text xml:space="preserve" text-anchor="middle" x="452.5" y="-582.42" font-family="Times,serif" font-size="10.00">methods.auth.auth</text>
</g>
<!-- methods.auth.auth&#45;&gt;configs.config -->
<g id="edge14" class="edge">
<title>methods.auth.auth&#45;&gt;configs.config</title>
<path fill="none" stroke="black" d="M498.29,-586.3C599.23,-586.3 843.71,-586.3 947.44,-586.3"/>
<polygon fill="black" stroke="black" points="947.27,-589.8 957.27,-586.3 947.27,-582.8 947.27,-589.8"/>
</g>
<!-- methods.auth.auth&#45;&gt;methods.database.database -->
<g id="edge15" class="edge">
<title>methods.auth.auth&#45;&gt;methods.database.database</title>
<path fill="none" stroke="black" d="M498.43,-596.59C510.89,-600.03 524.28,-604.29 536.25,-609.3 639.32,-652.41 750.81,-723.22 806.61,-760.52"/>
<polygon fill="black" stroke="black" points="804.54,-763.35 814.79,-766.02 808.45,-757.54 804.54,-763.35"/>
</g>
<!-- methods.database.models -->
<g id="node7" class="node">
<title>methods.database.models</title>
<polygon fill="none" stroke="black" points="710.12,-780.3 590.62,-780.3 590.62,-744.3 710.12,-744.3 710.12,-780.3"/>
<text xml:space="preserve" text-anchor="middle" x="650.38" y="-758.42" font-family="Times,serif" font-size="10.00">methods.database.models</text>
</g>
<!-- methods.auth.auth&#45;&gt;methods.database.models -->
<g id="edge16" class="edge">
<title>methods.auth.auth&#45;&gt;methods.database.models</title>
<path fill="none" stroke="black" d="M498.33,-597.2C511.62,-602.04 525.48,-608.85 536.25,-618.3 561.37,-640.33 552.31,-657.49 572.25,-684.3 586.25,-703.12 604.64,-721.89 619.94,-736.3"/>
<polygon fill="black" stroke="black" points="617.26,-738.58 626.97,-742.8 622.01,-733.44 617.26,-738.58"/>
</g>
<!-- methods.auth.email_verification -->
<g id="node4" class="node">
<title>methods.auth.email_verification</title>
<polygon fill="none" stroke="black" points="148,-766.3 0,-766.3 0,-730.3 148,-730.3 148,-766.3"/>
<text xml:space="preserve" text-anchor="middle" x="74" y="-744.42" font-family="Times,serif" font-size="10.00">methods.auth.email_verification</text>
</g>
<!-- methods.database.database&#45;&gt;configs.config -->
<g id="edge17" class="edge">
<title>methods.database.database&#45;&gt;configs.config</title>
<path fill="none" stroke="black" d="M858.64,-766.93C885.24,-731.76 943.49,-654.74 974.64,-613.55"/>
<polygon fill="black" stroke="black" points="977.24,-615.91 980.48,-605.82 971.66,-611.69 977.24,-615.91"/>
</g>
<!-- methods.database.init_db -->
<g id="node6" class="node">
<title>methods.database.init_db</title>
<polygon fill="none" stroke="black" points="134.12,-820.3 13.88,-820.3 13.88,-784.3 134.12,-784.3 134.12,-820.3"/>
<text xml:space="preserve" text-anchor="middle" x="74" y="-798.42" font-family="Times,serif" font-size="10.00">methods.database.init_db</text>
</g>
<!-- methods.database.models&#45;&gt;methods.database.database -->
<g id="edge18" class="edge">
<title>methods.database.models&#45;&gt;methods.database.database</title>
<path fill="none" stroke="black" d="M710.62,-769.41C729.24,-771.65 750.04,-774.15 769.52,-776.49"/>
<polygon fill="black" stroke="black" points="768.96,-779.95 779.31,-777.67 769.8,-773 768.96,-779.95"/>
</g>
<!-- methods.manager -->
<g id="node8" class="node">
<title>methods.manager</title>
<polygon fill="none" stroke="black" points="496.12,-176.3 408.88,-176.3 408.88,-140.3 496.12,-140.3 496.12,-176.3"/>
<text xml:space="preserve" text-anchor="middle" x="452.5" y="-154.42" font-family="Times,serif" font-size="10.00">methods.manager</text>
</g>
<!-- methods.manager.OverlayManager -->
<g id="node9" class="node">
<title>methods.manager.OverlayManager</title>
<polygon fill="none" stroke="black" points="923,-46.3 764.5,-46.3 764.5,-10.3 923,-10.3 923,-46.3"/>
<text xml:space="preserve" text-anchor="middle" x="843.75" y="-24.42" font-family="Times,serif" font-size="10.00">methods.manager.OverlayManager</text>
</g>
<!-- methods.manager.OverlayManager&#45;&gt;configs.config -->
<g id="edge19" class="edge">
<title>methods.manager.OverlayManager&#45;&gt;configs.config</title>
<path fill="none" stroke="black" d="M907.6,-46.55C913.46,-50.32 918.77,-54.84 923,-60.3 983.8,-138.7 993.43,-457.19 994.96,-556.54"/>
<polygon fill="black" stroke="black" points="991.46,-556.33 995.09,-566.29 998.46,-556.24 991.46,-556.33"/>
</g>
<!-- methods.manager.ProcessManager -->
<g id="node10" class="node">
<title>methods.manager.ProcessManager</title>
<polygon fill="none" stroke="black" points="728.12,-230.3 572.62,-230.3 572.62,-194.3 728.12,-194.3 728.12,-230.3"/>
<text xml:space="preserve" text-anchor="middle" x="650.38" y="-208.42" font-family="Times,serif" font-size="10.00">methods.manager.ProcessManager</text>
</g>
<!-- methods.manager.SessionManager&#45;&gt;configs.config -->
<g id="edge20" class="edge">
<title>methods.manager.SessionManager&#45;&gt;configs.config</title>
<path fill="none" stroke="black" d="M726.84,-520.73C794.12,-537.16 890.54,-560.72 947.64,-574.67"/>
<polygon fill="black" stroke="black" points="946.5,-577.99 957.05,-576.96 948.17,-571.19 946.5,-577.99"/>
</g>
<!-- methods.manager.WebsockifyService -->
<g id="node12" class="node">
<title>methods.manager.WebsockifyService</title>
<polygon fill="none" stroke="black" points="536.25,-230.3 368.75,-230.3 368.75,-194.3 536.25,-194.3 536.25,-230.3"/>
<text xml:space="preserve" text-anchor="middle" x="452.5" y="-208.42" font-family="Times,serif" font-size="10.00">methods.manager.WebsockifyService</text>
</g>
<!-- methods.manager.WebsockifyService&#45;&gt;methods.manager.ProcessManager -->
<g id="edge21" class="edge">
<title>methods.manager.WebsockifyService&#45;&gt;methods.manager.ProcessManager</title>
<path fill="none" stroke="black" d="M536.57,-212.3C544.65,-212.3 552.87,-212.3 560.99,-212.3"/>
<polygon fill="black" stroke="black" points="560.89,-215.8 570.89,-212.3 560.89,-208.8 560.89,-215.8"/>
</g>
<!-- methods.manager.WebsockifyService&#45;&gt;methods.manager.SessionManager -->
<g id="edge22" class="edge">
<title>methods.manager.WebsockifyService&#45;&gt;methods.manager.SessionManager</title>
<path fill="none" stroke="black" d="M480.12,-230.53C497.63,-243.49 520.2,-262.12 536.25,-282.3 585.06,-343.68 621.8,-429.43 638.85,-473.55"/>
<polygon fill="black" stroke="black" points="635.49,-474.56 642.31,-482.67 642.03,-472.08 635.49,-474.56"/>
</g>
<!-- methods.manager.WebsockifyService&#45;&gt;utils -->
<g id="edge23" class="edge">
<title>methods.manager.WebsockifyService&#45;&gt;utils</title>
<path fill="none" stroke="black" d="M520.36,-193.86C551.06,-185.4 586.31,-175.68 612.19,-168.55"/>
<polygon fill="black" stroke="black" points="612.85,-171.99 621.56,-165.96 610.99,-165.25 612.85,-171.99"/>
</g>
<!-- observability -->
<g id="node13" class="node">
<title>observability</title>
<polygon fill="none" stroke="black" points="109,-874.3 39,-874.3 39,-838.3 109,-838.3 109,-874.3"/>
<text xml:space="preserve" text-anchor="middle" x="74" y="-852.42" font-family="Times,serif" font-size="10.00">observability</text>
</g>
<!-- observability.http_metrics -->
<g id="node16" class="node">
<title>observability.http_metrics</title>
<polygon fill="none" stroke="black" points="135.25,-928.3 12.75,-928.3 12.75,-892.3 135.25,-892.3 135.25,-928.3"/>
<text xml:space="preserve" text-anchor="middle" x="74" y="-906.42" font-family="Times,serif" font-size="10.00">observability.http_metrics</text>
</g>
<!-- observability.metrics&#45;&gt;methods.database.database -->
<g id="edge24" class="edge">
<title>observability.metrics&#45;&gt;methods.database.database</title>
<path fill="none" stroke="black" d="M503.19,-805.36C570.59,-801.38 691.47,-794.23 769.34,-789.63"/>
<polygon fill="black" stroke="black" points="769.22,-793.15 779,-789.06 768.81,-786.16 769.22,-793.15"/>
</g>
<!-- observability.metrics&#45;&gt;methods.database.models -->
<g id="edge25" class="edge">
<title>observability.metrics&#45;&gt;methods.database.models</title>
<path fill="none" stroke="black" d="M503.18,-796.63C526.28,-791.2 554.16,-784.66 579.35,-778.74"/>
<polygon fill="black" stroke="black" points="579.93,-782.2 588.86,-776.51 578.33,-775.39 579.93,-782.2"/>
</g>
<!-- observability.metrics&#45;&gt;methods.manager.SessionManager -->
<g id="edge26" class="edge">
<title>observability.metrics&#45;&gt;methods.manager.SessionManager</title>
<path fill="none" stroke="black" d="M480.69,-789.92C498.23,-777.04 520.6,-758.55 536.25,-738.3 587.6,-671.84 623.77,-578.32 639.91,-531.46"/>
<polygon fill="black" stroke="black" points="643.21,-532.63 643.1,-522.03 636.58,-530.39 643.21,-532.63"/>
</g>
<!-- observability.ops_metrics -->
<g id="node18" class="node">
<title>observability.ops_metrics</title>
<polygon fill="none" stroke="black" points="134.12,-982.3 13.88,-982.3 13.88,-946.3 134.12,-946.3 134.12,-982.3"/>
<text xml:space="preserve" text-anchor="middle" x="74" y="-960.42" font-family="Times,serif" font-size="10.00">observability.ops_metrics</text>
</g>
<!-- observability.report -->
<g id="node19" class="node">
<title>observability.report</title>
<polygon fill="none" stroke="black" points="500.25,-1070.3 404.75,-1070.3 404.75,-1034.3 500.25,-1034.3 500.25,-1070.3"/>
<text xml:space="preserve" text-anchor="middle" x="452.5" y="-1048.42" font-family="Times,serif" font-size="10.00">observability.report</text>
</g>
<!-- observability.report&#45;&gt;configs.config -->
<g id="edge27" class="edge">
<title>observability.report&#45;&gt;configs.config</title>
<path fill="none" stroke="black" d="M500.67,-1065.95C594.37,-1089.88 805.02,-1127.36 923,-1020.3 982.83,-966 993.12,-705.07 994.88,-616.09"/>
<polygon fill="black" stroke="black" points="998.38,-616.29 995.05,-606.23 991.38,-616.17 998.38,-616.29"/>
</g>
<!-- observability.utils_observability&#45;&gt;observability.report -->
<g id="edge28" class="edge">
<title>observability.utils_observability&#45;&gt;observability.report</title>
<path fill="none" stroke="black" d="M327.65,-1018.77C349.23,-1024.61 372.85,-1031.01 393.63,-1036.63"/>
<polygon fill="black" stroke="black" points="392.5,-1039.95 403.06,-1039.19 394.32,-1033.19 392.5,-1039.95"/>
</g>
<!-- routers.auth&#45;&gt;configs.config -->
<g id="edge29" class="edge">
<title>routers.auth&#45;&gt;configs.config</title>
<path fill="none" stroke="black" d="M286.38,-712.59C301.87,-724.33 320.61,-740.8 332.75,-759.3 360.99,-802.29 327.1,-839.1 368.75,-869.3 375.61,-874.27 712.73,-869.57 728.5,-867.3 817.42,-854.49 858.41,-874.73 923,-812.3 978.03,-759.09 991.24,-664.05 994.35,-615.94"/>
<polygon fill="black" stroke="black" points="997.84,-616.18 994.87,-606.01 990.85,-615.81 997.84,-616.18"/>
</g>
<!-- routers.auth&#45;&gt;methods.auth.auth -->
<g id="edge30" class="edge">
<title>routers.auth&#45;&gt;methods.auth.auth</title>
<path fill="none" stroke="black" d="M290.8,-684.64C304.06,-680.08 319.48,-674.13 332.75,-667.3 363.75,-651.33 396.3,-628.66 419.46,-611.36"/>
<polygon fill="black" stroke="black" points="421.39,-614.28 427.26,-605.46 417.17,-608.7 421.39,-614.28"/>
</g>
<!-- routers.auth&#45;&gt;methods.database.database -->
<g id="edge31" class="edge">
<title>routers.auth&#45;&gt;methods.database.database</title>
<path fill="none" stroke="black" d="M284.85,-712.63C300.17,-724.61 319.26,-741.33 332.75,-759.3 355.19,-789.18 337.17,-815.31 368.75,-835.3 503.77,-920.74 704.8,-848.83 795.43,-808.34"/>
<polygon fill="black" stroke="black" points="796.63,-811.64 804.28,-804.32 793.73,-805.27 796.63,-811.64"/>
</g>
<!-- routers.auth&#45;&gt;methods.database.models -->
<g id="edge32" class="edge">
<title>routers.auth&#45;&gt;methods.database.models</title>
<path fill="none" stroke="black" d="M290.63,-699.74C352.82,-710.59 493.42,-735.1 578.97,-750.02"/>
<polygon fill="black" stroke="black" points="578.21,-753.44 588.66,-751.71 579.41,-746.54 578.21,-753.44"/>
</g>
<!-- routers.auth&#45;&gt;methods.manager.SessionManager -->
<g id="edge33" class="edge">
<title>routers.auth&#45;&gt;methods.manager.SessionManager</title>
<path fill="none" stroke="black" d="M290.63,-689.24C305.14,-685.43 321.6,-678.79 332.75,-667.3 367.97,-630.97 330.77,-592.73 368.75,-559.3 425.7,-509.16 461.91,-541.5 536.25,-526.3 544.16,-524.68 552.38,-522.97 560.61,-521.25"/>
<polygon fill="black" stroke="black" points="561.27,-524.69 570.34,-519.22 559.83,-517.84 561.27,-524.69"/>
</g>
<!-- security.recaptcha -->
<g id="node27" class="node">
<title>security.recaptcha</title>
<polygon fill="none" stroke="black" points="496.88,-696.3 408.12,-696.3 408.12,-660.3 496.88,-660.3 496.88,-696.3"/>
<text xml:space="preserve" text-anchor="middle" x="452.5" y="-674.42" font-family="Times,serif" font-size="10.00">security.recaptcha</text>
</g>
<!-- routers.auth&#45;&gt;security.recaptcha -->
<g id="edge34" class="edge">
<title>routers.auth&#45;&gt;security.recaptcha</title>
<path fill="none" stroke="black" d="M290.67,-691.69C319.23,-689.31 362.1,-685.74 396.39,-682.88"/>
<polygon fill="black" stroke="black" points="396.48,-686.39 406.15,-682.07 395.9,-679.41 396.48,-686.39"/>
</g>
<!-- routers.auth&#45;&gt;utils -->
<g id="edge35" class="edge">
<title>routers.auth&#45;&gt;utils</title>
<path fill="none" stroke="black" d="M290.78,-690.22C305.69,-686.64 322.46,-679.92 332.75,-667.3 400.36,-584.39 323.54,-526.25 368.75,-429.3 416.33,-327.27 467.65,-328.55 536.25,-239.3 553.83,-216.42 549.46,-202.97 572.25,-185.3 583.81,-176.33 598.57,-170.2 612.08,-166.09"/>
<polygon fill="black" stroke="black" points="612.86,-169.5 621.57,-163.48 611,-162.75 612.86,-169.5"/>
</g>
<!-- routers.post&#45;&gt;configs.config -->
<g id="edge36" class="edge">
<title>routers.post&#45;&gt;configs.config</title>
<path fill="none" stroke="black" d="M290.21,-790.86C304.98,-794.56 321.79,-801.25 332.75,-813.3 374.84,-859.53 319.2,-911.16 368.75,-949.3 490.71,-1043.17 846.99,-925.95 923,-851.3 988.31,-787.15 996.3,-670.18 996.21,-615.69"/>
<polygon fill="black" stroke="black" points="999.71,-615.92 996.09,-605.96 992.71,-616 999.71,-615.92"/>
</g>
<!-- routers.post&#45;&gt;methods.auth.auth -->
<g id="edge37" class="edge">
<title>routers.post&#45;&gt;methods.auth.auth</title>
<path fill="none" stroke="black" d="M284.64,-767.8C299.89,-755.76 318.97,-739.04 332.75,-721.3 354.21,-693.67 346.48,-678.28 368.75,-651.3 381.27,-636.13 397.89,-622.22 412.95,-611.2"/>
<polygon fill="black" stroke="black" points="414.72,-614.24 420.85,-605.6 410.67,-608.53 414.72,-614.24"/>
</g>
<!-- routers.post&#45;&gt;methods.database.database -->
<g id="edge38" class="edge">
<title>routers.post&#45;&gt;methods.database.database</title>
<path fill="none" stroke="black" d="M290.4,-791.58C304.85,-795.45 321.33,-802.06 332.75,-813.3 364.35,-844.37 332.19,-881.24 368.75,-906.3 500.65,-996.67 581.67,-969.59 728.5,-906.3 772.17,-887.47 806.91,-842.83 826.16,-813.36"/>
<polygon fill="black" stroke="black" points="829.11,-815.23 831.5,-804.91 823.19,-811.49 829.11,-815.23"/>
</g>
<!-- routers.post&#45;&gt;methods.database.models -->
<g id="edge39" class="edge">
<title>routers.post&#45;&gt;methods.database.models</title>
<path fill="none" stroke="black" d="M290.27,-796.15C303.59,-800.79 319.19,-806.73 332.75,-813.3 349.63,-821.46 350.7,-830.22 368.75,-835.3 440.41,-855.46 464.84,-856.34 536.25,-835.3 567.84,-825.99 598.92,-804.82 620.48,-787.66"/>
<polygon fill="black" stroke="black" points="622.42,-790.6 627.94,-781.56 617.99,-785.18 622.42,-790.6"/>
</g>
<!-- routers.post&#45;&gt;methods.manager.SessionManager -->
<g id="edge40" class="edge">
<title>routers.post&#45;&gt;methods.manager.SessionManager</title>
<path fill="none" stroke="black" d="M290.26,-784.75C345.38,-780.52 461.87,-764.65 536.25,-705.3 593.86,-659.33 626.85,-575.6 641.03,-531.4"/>
<polygon fill="black" stroke="black" points="644.32,-532.59 643.93,-522 637.64,-530.52 644.32,-532.59"/>
</g>
<!-- routers.post&#45;&gt;observability.report -->
<g id="edge41" class="edge">
<title>routers.post&#45;&gt;observability.report</title>
<path fill="none" stroke="black" d="M290.29,-790.38C305.26,-793.96 322.23,-800.68 332.75,-813.3 392.56,-885 309.53,-948.1 368.75,-1020.3 375.42,-1028.43 384.42,-1034.5 394.04,-1039.03"/>
<polygon fill="black" stroke="black" points="392.65,-1042.24 403.23,-1042.79 395.3,-1035.76 392.65,-1042.24"/>
</g>
<!-- routers.root&#45;&gt;methods.manager.SessionManager -->
<g id="edge42" class="edge">
<title>routers.root&#45;&gt;methods.manager.SessionManager</title>
<path fill="none" stroke="black" d="M484.11,-463.48C504.91,-468.37 533.57,-475.1 561.18,-481.58"/>
<polygon fill="black" stroke="black" points="560.09,-484.92 570.63,-483.8 561.69,-478.11 560.09,-484.92"/>
</g>
<!-- routers.sessions&#45;&gt;methods.auth.auth -->
<g id="edge43" class="edge">
<title>routers.sessions&#45;&gt;methods.auth.auth</title>
<path fill="none" stroke="black" d="M298.25,-586.3C326.18,-586.3 364.25,-586.3 395.46,-586.3"/>
<polygon fill="black" stroke="black" points="395.1,-589.8 405.1,-586.3 395.1,-582.8 395.1,-589.8"/>
</g>
<!-- routers.sessions&#45;&gt;methods.database.models -->
<g id="edge44" class="edge">
<title>routers.sessions&#45;&gt;methods.database.models</title>
<path fill="none" stroke="black" d="M298.31,-596.1C319.18,-601.3 345.34,-607.75 368.75,-613.3 443.03,-630.89 469.24,-614.73 536.25,-651.3 541.49,-654.15 591.58,-704.12 623.33,-736.03"/>
<polygon fill="black" stroke="black" points="620.76,-738.41 630.29,-743.03 625.72,-733.47 620.76,-738.41"/>
</g>
<!-- routers.sessions&#45;&gt;methods.manager.SessionManager -->
<g id="edge45" class="edge">
<title>routers.sessions&#45;&gt;methods.manager.SessionManager</title>
<path fill="none" stroke="black" d="M285.4,-567.94C306.73,-553.92 338.27,-535.51 368.75,-526.3 431.04,-507.47 504.4,-501.73 560.5,-500.56"/>
<polygon fill="black" stroke="black" points="560.38,-504.06 570.32,-500.4 560.27,-497.06 560.38,-504.06"/>
</g>
<!-- routers.vm&#45;&gt;configs.config -->
<g id="edge46" class="edge">
<title>routers.vm&#45;&gt;configs.config</title>
<path fill="none" stroke="black" d="M268.4,-240.06C284.11,-210.67 319.55,-153.85 368.75,-131.3 595.22,-27.45 766.78,-21.21 923,-215.3 965.57,-268.18 986.53,-477.97 993,-556.46"/>
<polygon fill="black" stroke="black" points="989.5,-556.68 993.79,-566.37 996.48,-556.13 989.5,-556.68"/>
</g>
<!-- routers.vm&#45;&gt;methods.auth.auth -->
<g id="edge47" class="edge">
<title>routers.vm&#45;&gt;methods.auth.auth</title>
<path fill="none" stroke="black" d="M266.59,-276.52C282.47,-315.78 322.73,-410.65 368.75,-483.3 386.1,-510.69 409.52,-539.23 427.01,-559.3"/>
<polygon fill="black" stroke="black" points="424.35,-561.58 433.59,-566.76 429.6,-556.95 424.35,-561.58"/>
</g>
<!-- routers.vm&#45;&gt;methods.database.database -->
<g id="edge48" class="edge">
<title>routers.vm&#45;&gt;methods.database.database</title>
<path fill="none" stroke="black" d="M288.12,-253.04C340.32,-244.92 452.97,-233.94 536.25,-272.3 738,-365.2 816.67,-661.51 837.02,-756.02"/>
<polygon fill="black" stroke="black" points="833.53,-756.46 839,-765.53 840.39,-755.03 833.53,-756.46"/>
</g>
<!-- routers.vm&#45;&gt;methods.database.models -->
<g id="edge49" class="edge">
<title>routers.vm&#45;&gt;methods.database.models</title>
<path fill="none" stroke="black" d="M287.8,-272.67C351.11,-305.19 500.97,-384.99 536.25,-429.3 541.21,-435.53 613.29,-652.98 639.74,-733.07"/>
<polygon fill="black" stroke="black" points="636.36,-734.01 642.82,-742.41 643.01,-731.82 636.36,-734.01"/>
</g>
<!-- routers.vm&#45;&gt;methods.manager -->
<g id="edge50" class="edge">
<title>routers.vm&#45;&gt;methods.manager</title>
<path fill="none" stroke="black" d="M282.57,-240.08C303.97,-223.95 337.12,-200.65 368.75,-185.3 377.84,-180.88 387.82,-176.93 397.61,-173.51"/>
<polygon fill="black" stroke="black" points="398.72,-176.83 407.09,-170.34 396.5,-170.19 398.72,-176.83"/>
</g>
<!-- routers.vm&#45;&gt;methods.manager.OverlayManager -->
<g id="edge51" class="edge">
<title>routers.vm&#45;&gt;methods.manager.OverlayManager</title>
<path fill="none" stroke="black" d="M263.27,-240.07C273,-199.59 302.49,-102.46 368.75,-60.3 485.11,13.76 651.72,4.72 753.27,-10.46"/>
<polygon fill="black" stroke="black" points="752.5,-13.88 762.92,-11.95 753.57,-6.96 752.5,-13.88"/>
</g>
<!-- routers.vm&#45;&gt;methods.manager.SessionManager -->
<g id="edge52" class="edge">
<title>routers.vm&#45;&gt;methods.manager.SessionManager</title>
<path fill="none" stroke="black" d="M288.03,-261.86C350.42,-270.08 496.19,-291.85 536.25,-320.3 590.59,-358.89 624.28,-432.6 639.61,-473.38"/>
<polygon fill="black" stroke="black" points="636.22,-474.32 642.93,-482.52 642.8,-471.93 636.22,-474.32"/>
</g>
<!-- routers.vm&#45;&gt;methods.manager.WebsockifyService -->
<g id="edge53" class="edge">
<title>routers.vm&#45;&gt;methods.manager.WebsockifyService</title>
<path fill="none" stroke="black" d="M288.14,-251.41C308.2,-246.61 336.12,-239.92 363.21,-233.43"/>
<polygon fill="black" stroke="black" points="363.96,-236.85 372.87,-231.12 362.33,-230.05 363.96,-236.85"/>
</g>
<!-- utils&#45;&gt;configs.config -->
<g id="edge54" class="edge">
<title>utils&#45;&gt;configs.config</title>
<path fill="none" stroke="black" d="M677.72,-163.08C693.67,-166.99 713.71,-173.81 728.5,-185.3 863.9,-290.44 953.52,-484.38 983.84,-557.44"/>
<polygon fill="black" stroke="black" points="980.6,-558.76 987.62,-566.7 987.08,-556.12 980.6,-558.76"/>
</g>
</g>
</svg>
