<?xml version="1.0" encoding="UTF-8" standalone="no"?>
<!DOCTYPE svg PUBLIC "-//W3C//DTD SVG 1.1//EN"
 "http://www.w3.org/Graphics/SVG/1.1/DTD/svg11.dtd">
<!-- Generated by graphviz version 13.1.1 (20250719.2154)
 -->
<!-- Title: python_deps Pages: 1 -->
<svg width="1042pt" height="1131pt"
 viewBox="0.00 0.00 1042.00 1131.00" xmlns="http://www.w3.org/2000/svg" xmlns:xlink="http://www.w3.org/1999/xlink">
<g id="graph0" class="graph" transform="scale(1 1) rotate(0) translate(4 1127)">
<title>python_deps</title>
<polygon fill="white" stroke="none" points="-4,4 -4,-1127 1037.5,-1127 1037.5,4 -4,4"/>
<!-- configs.config -->
<g id="node1" class="node">
<title>configs.config</title>
<polygon fill="none" stroke="black" points="1033.5,-703.24 959,-703.24 959,-667.24 1033.5,-667.24 1033.5,-703.24"/>
<text xml:space="preserve" text-anchor="middle" x="996.25" y="-681.37" font-family="Times,serif" font-size="10.00">configs.config</text>
</g>
<!-- main -->
<g id="node2" class="node">
<title>main</title>
<polygon fill="none" stroke="black" points="101,-797.24 47,-797.24 47,-761.24 101,-761.24 101,-797.24"/>
<text xml:space="preserve" text-anchor="middle" x="74" y="-775.37" font-family="Times,serif" font-size="10.00">main</text>
</g>
<!-- main&#45;&gt;configs.config -->
<g id="edge1" class="edge">
<title>main&#45;&gt;configs.config</title>
<path fill="none" stroke="black" d="M101.23,-782.16C117.22,-785.36 136.69,-792.1 148,-806.24 223.61,-900.79 97.35,-991.69 184,-1076.24 269.59,-1159.76 331.91,-1105.24 451.5,-1105.24 451.5,-1105.24 451.5,-1105.24 651.38,-1105.24 776.04,-1105.24 837.02,-1125.51 923,-1035.24 967.08,-988.96 987.01,-790.47 993.11,-714.75"/>
<polygon fill="black" stroke="black" points="996.59,-715.04 993.88,-704.8 989.61,-714.5 996.59,-715.04"/>
</g>
<!-- methods.database.database -->
<g id="node5" class="node">
<title>methods.database.database</title>
<polygon fill="none" stroke="black" points="906.5,-764.24 781,-764.24 781,-728.24 906.5,-728.24 906.5,-764.24"/>
<text xml:space="preserve" text-anchor="middle" x="843.75" y="-742.37" font-family="Times,serif" font-size="10.00">methods.database.database</text>
</g>
<!-- main&#45;&gt;methods.database.database -->
<g id="edge2" class="edge">
<title>main&#45;&gt;methods.database.database</title>
<path fill="none" stroke="black" d="M101.15,-782.22C117.11,-785.45 136.58,-792.19 148,-806.24 216.05,-889.93 102.65,-975.41 184,-1046.24 243.04,-1097.64 463.13,-1076.18 536.25,-1048.24 677.01,-994.46 786.24,-837.94 826.23,-773.97"/>
<polygon fill="black" stroke="black" points="828.99,-776.17 831.26,-765.82 823.03,-772.49 828.99,-776.17"/>
</g>
<!-- methods.manager.SessionManager -->
<g id="node11" class="node">
<title>methods.manager.SessionManager</title>
<polygon fill="none" stroke="black" points="728.5,-451.24 572.25,-451.24 572.25,-415.24 728.5,-415.24 728.5,-451.24"/>
<text xml:space="preserve" text-anchor="middle" x="650.38" y="-429.37" font-family="Times,serif" font-size="10.00">methods.manager.SessionManager</text>
</g>
<!-- main&#45;&gt;methods.manager.SessionManager -->
<g id="edge3" class="edge">
<title>main&#45;&gt;methods.manager.SessionManager</title>
<path fill="none" stroke="black" d="M82.66,-761.08C110.08,-698.94 210.19,-495.33 368.75,-434.24 429.8,-410.72 504.03,-411.6 560.8,-417.75"/>
<polygon fill="black" stroke="black" points="560.08,-421.19 570.41,-418.87 560.89,-414.24 560.08,-421.19"/>
</g>
<!-- observability.db_metrics -->
<g id="node14" class="node">
<title>observability.db_metrics</title>
<polygon fill="none" stroke="black" points="316.62,-982.24 200.12,-982.24 200.12,-946.24 316.62,-946.24 316.62,-982.24"/>
<text xml:space="preserve" text-anchor="middle" x="258.38" y="-960.37" font-family="Times,serif" font-size="10.00">observability.db_metrics</text>
</g>
<!-- main&#45;&gt;observability.db_metrics -->
<g id="edge4" class="edge">
<title>main&#45;&gt;observability.db_metrics</title>
<path fill="none" stroke="black" d="M101.3,-782.86C116.91,-786.33 135.94,-793.1 148,-806.24 188.82,-850.73 143.14,-892.78 184,-937.24 185.97,-939.38 188.12,-941.36 190.42,-943.17"/>
<polygon fill="black" stroke="black" points="188.33,-945.99 198.6,-948.6 192.2,-940.16 188.33,-945.99"/>
</g>
<!-- observability.grafana_proxy -->
<g id="node15" class="node">
<title>observability.grafana_proxy</title>
<polygon fill="none" stroke="black" points="323.75,-928.24 193,-928.24 193,-892.24 323.75,-892.24 323.75,-928.24"/>
<text xml:space="preserve" text-anchor="middle" x="258.38" y="-906.37" font-family="Times,serif" font-size="10.00">observability.grafana_proxy</text>
</g>
<!-- main&#45;&gt;observability.grafana_proxy -->
<g id="edge5" class="edge">
<title>main&#45;&gt;observability.grafana_proxy</title>
<path fill="none" stroke="black" d="M101.25,-783.78C116.45,-787.57 135.07,-794.35 148,-806.24 175.8,-831.82 156.18,-857.68 184,-883.24 184.77,-883.94 185.55,-884.63 186.35,-885.3"/>
<polygon fill="black" stroke="black" points="184.14,-888.02 194.33,-890.93 188.18,-882.3 184.14,-888.02"/>
</g>
<!-- observability.metrics -->
<g id="node17" class="node">
<title>observability.metrics</title>
<polygon fill="none" stroke="black" points="502.88,-741.24 402.12,-741.24 402.12,-705.24 502.88,-705.24 502.88,-741.24"/>
<text xml:space="preserve" text-anchor="middle" x="452.5" y="-719.37" font-family="Times,serif" font-size="10.00">observability.metrics</text>
</g>
<!-- main&#45;&gt;observability.metrics -->
<g id="edge6" class="edge">
<title>main&#45;&gt;observability.metrics</title>
<path fill="none" stroke="black" d="M101.47,-775.3C161.1,-766.43 307.21,-744.7 390.58,-732.3"/>
<polygon fill="black" stroke="black" points="391.04,-735.77 400.42,-730.84 390.01,-728.85 391.04,-735.77"/>
</g>
<!-- observability.utils_observability -->
<g id="node20" class="node">
<title>observability.utils_observability</title>
<polygon fill="none" stroke="black" points="332.75,-1037.24 184,-1037.24 184,-1001.24 332.75,-1001.24 332.75,-1037.24"/>
<text xml:space="preserve" text-anchor="middle" x="258.38" y="-1015.37" font-family="Times,serif" font-size="10.00">observability.utils_observability</text>
</g>
<!-- main&#45;&gt;observability.utils_observability -->
<g id="edge7" class="edge">
<title>main&#45;&gt;observability.utils_observability</title>
<path fill="none" stroke="black" d="M101.3,-782.47C117.11,-785.79 136.36,-792.55 148,-806.24 202.24,-870.07 130.09,-927.13 184,-991.24 184.67,-992.04 185.37,-992.82 186.09,-993.57"/>
<polygon fill="black" stroke="black" points="183.58,-996.03 193.46,-999.85 188.12,-990.7 183.58,-996.03"/>
</g>
<!-- routers.auth -->
<g id="node21" class="node">
<title>routers.auth</title>
<polygon fill="none" stroke="black" points="290.38,-645.24 226.38,-645.24 226.38,-609.24 290.38,-609.24 290.38,-645.24"/>
<text xml:space="preserve" text-anchor="middle" x="258.38" y="-623.37" font-family="Times,serif" font-size="10.00">routers.auth</text>
</g>
<!-- main&#45;&gt;routers.auth -->
<g id="edge8" class="edge">
<title>main&#45;&gt;routers.auth</title>
<path fill="none" stroke="black" d="M95.12,-760.76C116.72,-741.1 152.22,-709.31 184,-683.24 196.54,-672.96 210.63,-662.05 223.09,-652.62"/>
<polygon fill="black" stroke="black" points="225.15,-655.45 231.03,-646.65 220.94,-649.86 225.15,-655.45"/>
</g>
<!-- routers.pages -->
<g id="node22" class="node">
<title>routers.pages</title>
<polygon fill="none" stroke="black" points="293,-728.24 223.75,-728.24 223.75,-692.24 293,-692.24 293,-728.24"/>
<text xml:space="preserve" text-anchor="middle" x="258.38" y="-706.37" font-family="Times,serif" font-size="10.00">routers.pages</text>
</g>
<!-- main&#45;&gt;routers.pages -->
<g id="edge9" class="edge">
<title>main&#45;&gt;routers.pages</title>
<path fill="none" stroke="black" d="M101.13,-769.35C130.32,-758.31 178.06,-740.25 213.1,-726.99"/>
<polygon fill="black" stroke="black" points="214,-730.39 222.12,-723.58 211.53,-723.84 214,-730.39"/>
</g>
<!-- routers.post -->
<g id="node23" class="node">
<title>routers.post</title>
<polygon fill="none" stroke="black" points="290,-874.24 226.75,-874.24 226.75,-838.24 290,-838.24 290,-874.24"/>
<text xml:space="preserve" text-anchor="middle" x="258.38" y="-852.37" font-family="Times,serif" font-size="10.00">routers.post</text>
</g>
<!-- main&#45;&gt;routers.post -->
<g id="edge10" class="edge">
<title>main&#45;&gt;routers.post</title>
<path fill="none" stroke="black" d="M101.24,-787.42C115.4,-792.21 133,-798.78 148,-806.24 165,-814.69 166.99,-820.8 184,-829.24 194.02,-834.21 205.19,-838.78 215.73,-842.69"/>
<polygon fill="black" stroke="black" points="214.39,-845.93 224.99,-846 216.75,-839.34 214.39,-845.93"/>
</g>
<!-- routers.root -->
<g id="node24" class="node">
<title>routers.root</title>
<polygon fill="none" stroke="black" points="483.75,-367.24 421.25,-367.24 421.25,-331.24 483.75,-331.24 483.75,-367.24"/>
<text xml:space="preserve" text-anchor="middle" x="452.5" y="-345.37" font-family="Times,serif" font-size="10.00">routers.root</text>
</g>
<!-- main&#45;&gt;routers.root -->
<g id="edge11" class="edge">
<title>main&#45;&gt;routers.root</title>
<path fill="none" stroke="black" d="M77.32,-760.89C86.71,-689.64 124.3,-432.68 184,-381.24 246.98,-326.97 351.47,-332.64 409.46,-341.17"/>
<polygon fill="black" stroke="black" points="408.83,-344.62 419.26,-342.72 409.93,-337.7 408.83,-344.62"/>
</g>
<!-- routers.sessions -->
<g id="node25" class="node">
<title>routers.sessions</title>
<polygon fill="none" stroke="black" points="297.88,-820.24 218.88,-820.24 218.88,-784.24 297.88,-784.24 297.88,-820.24"/>
<text xml:space="preserve" text-anchor="middle" x="258.38" y="-798.37" font-family="Times,serif" font-size="10.00">routers.sessions</text>
</g>
<!-- main&#45;&gt;routers.sessions -->
<g id="edge12" class="edge">
<title>main&#45;&gt;routers.sessions</title>
<path fill="none" stroke="black" d="M101.13,-782.54C128.74,-786.02 172.95,-791.59 207.31,-795.93"/>
<polygon fill="black" stroke="black" points="206.68,-799.38 217.04,-797.15 207.56,-792.43 206.68,-799.38"/>
</g>
<!-- routers.vm -->
<g id="node26" class="node">
<title>routers.vm</title>
<polygon fill="none" stroke="black" points="287.75,-283.24 229,-283.24 229,-247.24 287.75,-247.24 287.75,-283.24"/>
<text xml:space="preserve" text-anchor="middle" x="258.38" y="-261.37" font-family="Times,serif" font-size="10.00">routers.vm</text>
</g>
<!-- main&#45;&gt;routers.vm -->
<g id="edge13" class="edge">
<title>main&#45;&gt;routers.vm</title>
<path fill="none" stroke="black" d="M76.08,-760.79C80.47,-697.81 100.91,-487.09 184,-339.24 194.37,-320.78 210.6,-303.74 225.15,-290.67"/>
<polygon fill="black" stroke="black" points="227.07,-293.64 232.33,-284.44 222.48,-288.35 227.07,-293.64"/>
</g>
<!-- utils -->
<g id="node28" class="node">
<title>utils</title>
<polygon fill="none" stroke="black" points="677.38,-253.24 623.38,-253.24 623.38,-217.24 677.38,-217.24 677.38,-253.24"/>
<text xml:space="preserve" text-anchor="middle" x="650.38" y="-231.37" font-family="Times,serif" font-size="10.00">utils</text>
</g>
<!-- main&#45;&gt;utils -->
<g id="edge14" class="edge">
<title>main&#45;&gt;utils</title>
<path fill="none" stroke="black" d="M74.57,-760.81C73.36,-660.11 82.74,-176.67 368.75,-62.24 437.87,-34.59 477.65,-16.33 536.25,-62.24 588.86,-103.45 527.29,-158.79 572.25,-208.24 582.49,-219.5 597.7,-226.07 611.91,-229.9"/>
<polygon fill="black" stroke="black" points="610.98,-233.27 621.5,-232.08 612.53,-226.45 610.98,-233.27"/>
</g>
<!-- methods.auth.auth -->
<g id="node3" class="node">
<title>methods.auth.auth</title>
<polygon fill="none" stroke="black" points="498,-871.24 407,-871.24 407,-835.24 498,-835.24 498,-871.24"/>
<text xml:space="preserve" text-anchor="middle" x="452.5" y="-849.37" font-family="Times,serif" font-size="10.00">methods.auth.auth</text>
</g>
<!-- methods.auth.auth&#45;&gt;configs.config -->
<g id="edge15" class="edge">
<title>methods.auth.auth&#45;&gt;configs.config</title>
<path fill="none" stroke="black" d="M498.16,-856.89C586.91,-861.89 788.47,-861.74 923,-773.24 946.34,-757.88 965.94,-732.65 978.8,-713.14"/>
<polygon fill="black" stroke="black" points="981.69,-715.13 984.09,-704.81 975.78,-711.38 981.69,-715.13"/>
</g>
<!-- methods.auth.auth&#45;&gt;methods.database.database -->
<g id="edge16" class="edge">
<title>methods.auth.auth&#45;&gt;methods.database.database</title>
<path fill="none" stroke="black" d="M498.05,-846.93C553.05,-838.48 649.06,-821.55 728.5,-796.24 751.16,-789.02 775.41,-778.79 795.71,-769.46"/>
<polygon fill="black" stroke="black" points="796.99,-772.73 804.57,-765.33 794.03,-766.39 796.99,-772.73"/>
</g>
<!-- methods.database.models -->
<g id="node7" class="node">
<title>methods.database.models</title>
<polygon fill="none" stroke="black" points="710.12,-787.24 590.62,-787.24 590.62,-751.24 710.12,-751.24 710.12,-787.24"/>
<text xml:space="preserve" text-anchor="middle" x="650.38" y="-765.37" font-family="Times,serif" font-size="10.00">methods.database.models</text>
</g>
<!-- methods.auth.auth&#45;&gt;methods.database.models -->
<g id="edge17" class="edge">
<title>methods.auth.auth&#45;&gt;methods.database.models</title>
<path fill="none" stroke="black" d="M498.21,-837.25C510.67,-832.44 524.11,-826.92 536.25,-821.24 552.83,-813.48 555.77,-809.21 572.25,-801.24 578.59,-798.18 585.3,-795.12 592.01,-792.19"/>
<polygon fill="black" stroke="black" points="593.3,-795.44 601.11,-788.28 590.54,-789.01 593.3,-795.44"/>
</g>
<!-- methods.auth.email_verification -->
<g id="node4" class="node">
<title>methods.auth.email_verification</title>
<polygon fill="none" stroke="black" points="148,-851.24 0,-851.24 0,-815.24 148,-815.24 148,-851.24"/>
<text xml:space="preserve" text-anchor="middle" x="74" y="-829.37" font-family="Times,serif" font-size="10.00">methods.auth.email_verification</text>
</g>
<!-- methods.database.database&#45;&gt;configs.config -->
<g id="edge18" class="edge">
<title>methods.database.database&#45;&gt;configs.config</title>
<path fill="none" stroke="black" d="M890.31,-727.77C908.68,-720.33 929.86,-711.74 948.36,-704.24"/>
<polygon fill="black" stroke="black" points="949.55,-707.54 957.5,-700.54 946.92,-701.05 949.55,-707.54"/>
</g>
<!-- methods.database.init_db -->
<g id="node6" class="node">
<title>methods.database.init_db</title>
<polygon fill="none" stroke="black" points="134.12,-905.24 13.88,-905.24 13.88,-869.24 134.12,-869.24 134.12,-905.24"/>
<text xml:space="preserve" text-anchor="middle" x="74" y="-883.37" font-family="Times,serif" font-size="10.00">methods.database.init_db</text>
</g>
<!-- methods.database.models&#45;&gt;methods.database.database -->
<g id="edge19" class="edge">
<title>methods.database.models&#45;&gt;methods.database.database</title>
<path fill="none" stroke="black" d="M710.62,-762.12C729.24,-759.88 750.04,-757.38 769.52,-755.04"/>
<polygon fill="black" stroke="black" points="769.8,-758.53 779.31,-753.87 768.96,-751.58 769.8,-758.53"/>
</g>
<!-- methods.manager -->
<g id="node8" class="node">
<title>methods.manager</title>
<polygon fill="none" stroke="black" points="496.12,-107.24 408.88,-107.24 408.88,-71.24 496.12,-71.24 496.12,-107.24"/>
<text xml:space="preserve" text-anchor="middle" x="452.5" y="-85.37" font-family="Times,serif" font-size="10.00">methods.manager</text>
</g>
<!-- methods.manager.OverlayManager -->
<g id="node9" class="node">
<title>methods.manager.OverlayManager</title>
<polygon fill="none" stroke="black" points="923,-272.24 764.5,-272.24 764.5,-236.24 923,-236.24 923,-272.24"/>
<text xml:space="preserve" text-anchor="middle" x="843.75" y="-250.37" font-family="Times,serif" font-size="10.00">methods.manager.OverlayManager</text>
</g>
<!-- methods.manager.OverlayManager&#45;&gt;configs.config -->
<g id="edge20" class="edge">
<title>methods.manager.OverlayManager&#45;&gt;configs.config</title>
<path fill="none" stroke="black" d="M857.05,-272.33C874.09,-298.12 904.82,-347.42 923,-393.24 959.7,-485.76 981.8,-602.36 990.7,-655.91"/>
<polygon fill="black" stroke="black" points="987.19,-656.14 992.25,-665.45 994.1,-655.01 987.19,-656.14"/>
</g>
<!-- methods.manager.ProcessManager -->
<g id="node10" class="node">
<title>methods.manager.ProcessManager</title>
<polygon fill="none" stroke="black" points="728.12,-199.24 572.62,-199.24 572.62,-163.24 728.12,-163.24 728.12,-199.24"/>
<text xml:space="preserve" text-anchor="middle" x="650.38" y="-177.37" font-family="Times,serif" font-size="10.00">methods.manager.ProcessManager</text>
</g>
<!-- methods.manager.SessionManager&#45;&gt;configs.config -->
<g id="edge21" class="edge">
<title>methods.manager.SessionManager&#45;&gt;configs.config</title>
<path fill="none" stroke="black" d="M696.39,-451.68C753.46,-476.56 852.84,-525.01 923,-587.24 945.83,-607.49 965.89,-636.07 979.04,-657.14"/>
<polygon fill="black" stroke="black" points="975.95,-658.8 984.14,-665.52 981.93,-655.16 975.95,-658.8"/>
</g>
<!-- methods.manager.WebsockifyService -->
<g id="node12" class="node">
<title>methods.manager.WebsockifyService</title>
<polygon fill="none" stroke="black" points="536.25,-199.24 368.75,-199.24 368.75,-163.24 536.25,-163.24 536.25,-199.24"/>
<text xml:space="preserve" text-anchor="middle" x="452.5" y="-177.37" font-family="Times,serif" font-size="10.00">methods.manager.WebsockifyService</text>
</g>
<!-- methods.manager.WebsockifyService&#45;&gt;methods.manager.ProcessManager -->
<g id="edge22" class="edge">
<title>methods.manager.WebsockifyService&#45;&gt;methods.manager.ProcessManager</title>
<path fill="none" stroke="black" d="M536.57,-181.24C544.65,-181.24 552.87,-181.24 560.99,-181.24"/>
<polygon fill="black" stroke="black" points="560.89,-184.74 570.89,-181.24 560.89,-177.74 560.89,-184.74"/>
</g>
<!-- methods.manager.WebsockifyService&#45;&gt;methods.manager.SessionManager -->
<g id="edge23" class="edge">
<title>methods.manager.WebsockifyService&#45;&gt;methods.manager.SessionManager</title>
<path fill="none" stroke="black" d="M467.59,-199.36C501.53,-243.03 587.99,-354.26 628.2,-406"/>
<polygon fill="black" stroke="black" points="625.32,-408 634.22,-413.75 630.85,-403.7 625.32,-408"/>
</g>
<!-- methods.manager.WebsockifyService&#45;&gt;utils -->
<g id="edge24" class="edge">
<title>methods.manager.WebsockifyService&#45;&gt;utils</title>
<path fill="none" stroke="black" d="M520.36,-199.67C551.06,-208.14 586.31,-217.85 612.19,-224.99"/>
<polygon fill="black" stroke="black" points="610.99,-228.29 621.56,-227.57 612.85,-221.54 610.99,-228.29"/>
</g>
<!-- observability -->
<g id="node13" class="node">
<title>observability</title>
<polygon fill="none" stroke="black" points="109,-959.24 39,-959.24 39,-923.24 109,-923.24 109,-959.24"/>
<text xml:space="preserve" text-anchor="middle" x="74" y="-937.37" font-family="Times,serif" font-size="10.00">observability</text>
</g>
<!-- observability.http_metrics -->
<g id="node16" class="node">
<title>observability.http_metrics</title>
<polygon fill="none" stroke="black" points="135.25,-1013.24 12.75,-1013.24 12.75,-977.24 135.25,-977.24 135.25,-1013.24"/>
<text xml:space="preserve" text-anchor="middle" x="74" y="-991.37" font-family="Times,serif" font-size="10.00">observability.http_metrics</text>
</g>
<!-- observability.metrics&#45;&gt;methods.database.database -->
<g id="edge25" class="edge">
<title>observability.metrics&#45;&gt;methods.database.database</title>
<path fill="none" stroke="black" d="M503.19,-726.18C570.59,-730.16 691.47,-737.3 769.34,-741.9"/>
<polygon fill="black" stroke="black" points="768.81,-745.38 779,-742.47 769.22,-738.39 768.81,-745.38"/>
</g>
<!-- observability.metrics&#45;&gt;methods.database.models -->
<g id="edge26" class="edge">
<title>observability.metrics&#45;&gt;methods.database.models</title>
<path fill="none" stroke="black" d="M503.18,-734.91C526.28,-740.33 554.16,-746.88 579.35,-752.8"/>
<polygon fill="black" stroke="black" points="578.33,-756.15 588.86,-755.03 579.93,-749.34 578.33,-756.15"/>
</g>
<!-- observability.metrics&#45;&gt;methods.manager.SessionManager -->
<g id="edge27" class="edge">
<title>observability.metrics&#45;&gt;methods.manager.SessionManager</title>
<path fill="none" stroke="black" d="M480.12,-705.01C497.63,-692.05 520.2,-673.42 536.25,-653.24 585.06,-591.86 621.8,-506.11 638.85,-461.99"/>
<polygon fill="black" stroke="black" points="642.03,-463.46 642.31,-452.87 635.49,-460.97 642.03,-463.46"/>
</g>
<!-- observability.ops_metrics -->
<g id="node18" class="node">
<title>observability.ops_metrics</title>
<polygon fill="none" stroke="black" points="134.12,-1067.24 13.88,-1067.24 13.88,-1031.24 134.12,-1031.24 134.12,-1067.24"/>
<text xml:space="preserve" text-anchor="middle" x="74" y="-1045.37" font-family="Times,serif" font-size="10.00">observability.ops_metrics</text>
</g>
<!-- observability.report -->
<g id="node19" class="node">
<title>observability.report</title>
<polygon fill="none" stroke="black" points="500.25,-1039.24 404.75,-1039.24 404.75,-1003.24 500.25,-1003.24 500.25,-1039.24"/>
<text xml:space="preserve" text-anchor="middle" x="452.5" y="-1017.37" font-family="Times,serif" font-size="10.00">observability.report</text>
</g>
<!-- observability.report&#45;&gt;configs.config -->
<g id="edge28" class="edge">
<title>observability.report&#45;&gt;configs.config</title>
<path fill="none" stroke="black" d="M500.42,-1034.28C593.19,-1056.97 801.59,-1092.08 923,-989.24 964.88,-953.77 985.69,-784.44 992.58,-715.02"/>
<polygon fill="black" stroke="black" points="996.05,-715.45 993.53,-705.16 989.09,-714.78 996.05,-715.45"/>
</g>
<!-- observability.utils_observability&#45;&gt;observability.report -->
<g id="edge29" class="edge">
<title>observability.utils_observability&#45;&gt;observability.report</title>
<path fill="none" stroke="black" d="M333.11,-1020.01C352.91,-1020.21 374.06,-1020.43 392.92,-1020.63"/>
<polygon fill="black" stroke="black" points="392.78,-1024.13 402.82,-1020.73 392.86,-1017.13 392.78,-1024.13"/>
</g>
<!-- routers.auth&#45;&gt;configs.config -->
<g id="edge30" class="edge">
<title>routers.auth&#45;&gt;configs.config</title>
<path fill="none" stroke="black" d="M290.52,-629.38C341.78,-632.93 447.12,-640.33 536.25,-647.24 686.28,-658.87 863.78,-673.94 947.28,-681.1"/>
<polygon fill="black" stroke="black" points="946.9,-684.58 957.16,-681.95 947.5,-677.61 946.9,-684.58"/>
</g>
<!-- routers.auth&#45;&gt;methods.auth.auth -->
<g id="edge31" class="edge">
<title>routers.auth&#45;&gt;methods.auth.auth</title>
<path fill="none" stroke="black" d="M290.61,-645.22C305.11,-654.9 321.58,-667.99 332.75,-683.24 360.66,-721.35 341.8,-744.45 368.75,-783.24 380.78,-800.55 398.12,-816.12 413.83,-828.15"/>
<polygon fill="black" stroke="black" points="411.5,-830.78 421.62,-833.91 415.66,-825.15 411.5,-830.78"/>
</g>
<!-- routers.auth&#45;&gt;methods.database.database -->
<g id="edge32" class="edge">
<title>routers.auth&#45;&gt;methods.database.database</title>
<path fill="none" stroke="black" d="M290.74,-633.64C380.68,-651.98 641.22,-705.13 769.56,-731.31"/>
<polygon fill="black" stroke="black" points="768.83,-734.73 779.33,-733.3 770.23,-727.88 768.83,-734.73"/>
</g>
<!-- routers.auth&#45;&gt;methods.database.models -->
<g id="edge33" class="edge">
<title>routers.auth&#45;&gt;methods.database.models</title>
<path fill="none" stroke="black" d="M289.3,-645.72C303.65,-655.61 320.38,-668.73 332.75,-683.24 354.68,-708.96 340.34,-731.92 368.75,-750.24 402.3,-771.87 507.47,-773.62 579.08,-772.06"/>
<polygon fill="black" stroke="black" points="578.85,-775.57 588.76,-771.83 578.68,-768.57 578.85,-775.57"/>
</g>
<!-- routers.auth&#45;&gt;methods.manager.SessionManager -->
<g id="edge34" class="edge">
<title>routers.auth&#45;&gt;methods.manager.SessionManager</title>
<path fill="none" stroke="black" d="M268.35,-609.22C284.21,-579.34 320.19,-519.93 368.75,-490.24 426.51,-454.93 502.22,-441.06 560.45,-435.81"/>
<polygon fill="black" stroke="black" points="560.66,-439.3 570.34,-434.99 560.08,-432.32 560.66,-439.3"/>
</g>
<!-- security.recaptcha -->
<g id="node27" class="node">
<title>security.recaptcha</title>
<polygon fill="none" stroke="black" points="496.88,-535.24 408.12,-535.24 408.12,-499.24 496.88,-499.24 496.88,-535.24"/>
<text xml:space="preserve" text-anchor="middle" x="452.5" y="-513.37" font-family="Times,serif" font-size="10.00">security.recaptcha</text>
</g>
<!-- routers.auth&#45;&gt;security.recaptcha -->
<g id="edge35" class="edge">
<title>routers.auth&#45;&gt;security.recaptcha</title>
<path fill="none" stroke="black" d="M281.33,-609.06C302.68,-592.01 336.52,-566.61 368.75,-549.24 377.62,-544.46 387.35,-540.04 396.94,-536.1"/>
<polygon fill="black" stroke="black" points="398.22,-539.35 406.23,-532.42 395.64,-532.85 398.22,-539.35"/>
</g>
<!-- routers.auth&#45;&gt;utils -->
<g id="edge36" class="edge">
<title>routers.auth&#45;&gt;utils</title>
<path fill="none" stroke="black" d="M260.46,-608.77C264.57,-556.11 283.62,-403.73 368.75,-322.24 436.66,-257.24 552.24,-240.74 611.65,-236.59"/>
<polygon fill="black" stroke="black" points="611.81,-240.09 621.58,-235.99 611.39,-233.1 611.81,-240.09"/>
</g>
<!-- routers.post&#45;&gt;configs.config -->
<g id="edge37" class="edge">
<title>routers.post&#45;&gt;configs.config</title>
<path fill="none" stroke="black" d="M290.18,-864.01C303.93,-868.35 319.88,-874.64 332.75,-883.24 352.36,-896.34 347.14,-912.78 368.75,-922.24 436.94,-952.1 462.32,-930.96 536.25,-922.24 713.02,-901.39 784.76,-930.37 923,-818.24 956.3,-791.23 976.5,-744.63 986.77,-714.38"/>
<polygon fill="black" stroke="black" points="990.03,-715.69 989.77,-705.1 983.36,-713.54 990.03,-715.69"/>
</g>
<!-- routers.post&#45;&gt;methods.auth.auth -->
<g id="edge38" class="edge">
<title>routers.post&#45;&gt;methods.auth.auth</title>
<path fill="none" stroke="black" d="M290.24,-855.76C318.55,-855.32 361.15,-854.65 395.46,-854.12"/>
<polygon fill="black" stroke="black" points="395.28,-857.62 405.23,-853.96 395.17,-850.62 395.28,-857.62"/>
</g>
<!-- routers.post&#45;&gt;methods.database.database -->
<g id="edge39" class="edge">
<title>routers.post&#45;&gt;methods.database.database</title>
<path fill="none" stroke="black" d="M290.44,-866.64C303.65,-871.32 319.11,-877.16 332.75,-883.24 349.28,-890.6 351.19,-897.89 368.75,-902.24 441.01,-920.14 463.03,-915.67 536.25,-902.24 626.15,-885.75 648.1,-872.7 728.5,-829.24 758.69,-812.92 790.03,-789.63 812.23,-771.87"/>
<polygon fill="black" stroke="black" points="814.42,-774.6 819.98,-765.59 810.01,-769.16 814.42,-774.6"/>
</g>
<!-- routers.post&#45;&gt;methods.database.models -->
<g id="edge40" class="edge">
<title>routers.post&#45;&gt;methods.database.models</title>
<path fill="none" stroke="black" d="M290.25,-867.83C342.91,-885.68 452.51,-914.46 536.25,-880.24 577.31,-863.46 611.51,-823.8 631.22,-796.73"/>
<polygon fill="black" stroke="black" points="634.03,-798.81 636.93,-788.63 628.31,-794.78 634.03,-798.81"/>
</g>
<!-- routers.post&#45;&gt;methods.manager.SessionManager -->
<g id="edge41" class="edge">
<title>routers.post&#45;&gt;methods.manager.SessionManager</title>
<path fill="none" stroke="black" d="M290.19,-851.65C304.94,-847.94 321.75,-841.26 332.75,-829.24 374.1,-784.07 331.44,-744.8 368.75,-696.24 421.16,-628.02 473.23,-657.8 536.25,-599.24 580.24,-558.36 616.23,-497.38 635.08,-461.82"/>
<polygon fill="black" stroke="black" points="638.16,-463.49 639.67,-453 631.95,-460.26 638.16,-463.49"/>
</g>
<!-- routers.post&#45;&gt;observability.report -->
<g id="edge42" class="edge">
<title>routers.post&#45;&gt;observability.report</title>
<path fill="none" stroke="black" d="M290.24,-861.23C304.83,-865.03 321.47,-871.68 332.75,-883.24 367.49,-918.86 334.31,-953.34 368.75,-989.24 375.72,-996.51 384.53,-1002.15 393.79,-1006.53"/>
<polygon fill="black" stroke="black" points="392.37,-1009.73 402.95,-1010.36 395.08,-1003.27 392.37,-1009.73"/>
</g>
<!-- routers.root&#45;&gt;methods.manager.SessionManager -->
<g id="edge43" class="edge">
<title>routers.root&#45;&gt;methods.manager.SessionManager</title>
<path fill="none" stroke="black" d="M483.94,-360.5C499.66,-366.44 519.08,-373.98 536.25,-381.24 557.51,-390.23 580.73,-400.77 600.56,-410"/>
<polygon fill="black" stroke="black" points="598.98,-413.13 609.52,-414.19 601.95,-406.79 598.98,-413.13"/>
</g>
<!-- routers.sessions&#45;&gt;methods.auth.auth -->
<g id="edge44" class="edge">
<title>routers.sessions&#45;&gt;methods.auth.auth</title>
<path fill="none" stroke="black" d="M298.25,-812.56C326.31,-820.01 364.59,-830.17 395.87,-838.47"/>
<polygon fill="black" stroke="black" points="394.59,-841.75 405.15,-840.94 396.38,-834.99 394.59,-841.75"/>
</g>
<!-- routers.sessions&#45;&gt;methods.database.models -->
<g id="edge45" class="edge">
<title>routers.sessions&#45;&gt;methods.database.models</title>
<path fill="none" stroke="black" d="M297.95,-800.26C351.5,-797.36 451.36,-791.4 536.25,-783.24 550.08,-781.91 564.84,-780.26 578.97,-778.56"/>
<polygon fill="black" stroke="black" points="579.14,-782.06 588.64,-777.37 578.29,-775.11 579.14,-782.06"/>
</g>
<!-- routers.sessions&#45;&gt;methods.manager.SessionManager -->
<g id="edge46" class="edge">
<title>routers.sessions&#45;&gt;methods.manager.SessionManager</title>
<path fill="none" stroke="black" d="M286.41,-783.96C301.92,-772.24 320.65,-755.77 332.75,-737.24 361.33,-693.46 334.44,-664.7 368.75,-625.24 423.01,-562.84 468.62,-591.83 536.25,-544.24 571.12,-519.7 605.23,-484.2 626.72,-459.99"/>
<polygon fill="black" stroke="black" points="629.09,-462.6 633.05,-452.77 623.82,-457.99 629.09,-462.6"/>
</g>
<!-- routers.vm&#45;&gt;configs.config -->
<g id="edge47" class="edge">
<title>routers.vm&#45;&gt;configs.config</title>
<path fill="none" stroke="black" d="M262.78,-246.87C271.64,-205.11 299.66,-103.49 368.75,-62.24 589.42,69.53 771.95,-19.29 923,-227.24 973.2,-296.36 989.82,-565.68 994.04,-655.73"/>
<polygon fill="black" stroke="black" points="990.53,-655.63 994.48,-665.46 997.52,-655.32 990.53,-655.63"/>
</g>
<!-- routers.vm&#45;&gt;methods.auth.auth -->
<g id="edge48" class="edge">
<title>routers.vm&#45;&gt;methods.auth.auth</title>
<path fill="none" stroke="black" d="M263.37,-283.5C282.45,-370.5 363.46,-739.27 368.75,-750.24 382.72,-779.22 406.22,-807.36 424.61,-826.88"/>
<polygon fill="black" stroke="black" points="421.89,-829.1 431.35,-833.87 426.93,-824.24 421.89,-829.1"/>
</g>
<!-- routers.vm&#45;&gt;methods.database.database -->
<g id="edge49" class="edge">
<title>routers.vm&#45;&gt;methods.database.database</title>
<path fill="none" stroke="black" d="M288.18,-261.83C339.52,-256.79 449.59,-250.8 536.25,-279.24 633.55,-311.18 666.07,-325.07 728.5,-406.24 803.59,-503.88 830.85,-653.63 839.36,-716.66"/>
<polygon fill="black" stroke="black" points="835.89,-717.1 840.63,-726.57 842.83,-716.21 835.89,-717.1"/>
</g>
<!-- routers.vm&#45;&gt;methods.database.models -->
<g id="edge50" class="edge">
<title>routers.vm&#45;&gt;methods.database.models</title>
<path fill="none" stroke="black" d="M275.43,-283.62C295.93,-306.57 333.02,-346.43 368.75,-376.24 437.9,-433.92 479.68,-420.18 536.25,-490.24 599.13,-568.13 631.24,-685.62 643.43,-739.88"/>
<polygon fill="black" stroke="black" points="639.99,-740.55 645.53,-749.58 646.83,-739.06 639.99,-740.55"/>
</g>
<!-- routers.vm&#45;&gt;methods.manager -->
<g id="edge51" class="edge">
<title>routers.vm&#45;&gt;methods.manager</title>
<path fill="none" stroke="black" d="M268.71,-247.19C285.1,-217.11 321.84,-156.54 368.75,-121.24 377.52,-114.64 387.82,-109.24 398.11,-104.87"/>
<polygon fill="black" stroke="black" points="399.33,-108.15 407.37,-101.25 396.78,-101.64 399.33,-108.15"/>
</g>
<!-- routers.vm&#45;&gt;methods.manager.OverlayManager -->
<g id="edge52" class="edge">
<title>routers.vm&#45;&gt;methods.manager.OverlayManager</title>
<path fill="none" stroke="black" d="M270.41,-247.11C287.61,-220.81 323.58,-173.15 368.75,-154.24 442.5,-123.37 653.67,-126.12 728.5,-154.24 767.01,-168.71 801.02,-202.7 821.72,-227.04"/>
<polygon fill="black" stroke="black" points="818.95,-229.18 828.01,-234.66 824.34,-224.72 818.95,-229.18"/>
</g>
<!-- routers.vm&#45;&gt;methods.manager.SessionManager -->
<g id="edge53" class="edge">
<title>routers.vm&#45;&gt;methods.manager.SessionManager</title>
<path fill="none" stroke="black" d="M288.03,-269.05C349.75,-277.57 493.15,-299.28 536.25,-322.24 574.75,-342.75 608.95,-380.42 629.41,-406.14"/>
<polygon fill="black" stroke="black" points="626.48,-408.07 635.38,-413.82 632.01,-403.78 626.48,-408.07"/>
</g>
<!-- routers.vm&#45;&gt;methods.manager.WebsockifyService -->
<g id="edge54" class="edge">
<title>routers.vm&#45;&gt;methods.manager.WebsockifyService</title>
<path fill="none" stroke="black" d="M287.89,-250.96C309.81,-240.17 340.94,-225.21 368.75,-213.24 376.14,-210.06 383.96,-206.84 391.73,-203.74"/>
<polygon fill="black" stroke="black" points="392.82,-207.07 400.84,-200.15 390.25,-200.56 392.82,-207.07"/>
</g>
<!-- utils&#45;&gt;configs.config -->
<g id="edge55" class="edge">
<title>utils&#45;&gt;configs.config</title>
<path fill="none" stroke="black" d="M677.84,-242.97C693.45,-248.3 713.1,-256.38 728.5,-267.24 833.79,-341.52 856.9,-371.63 923,-482.24 957.06,-539.23 978.62,-614.77 988.64,-655.75"/>
<polygon fill="black" stroke="black" points="985.21,-656.43 990.92,-665.35 992.02,-654.81 985.21,-656.43"/>
</g>
</g>
</svg>
