<?xml version="1.0" encoding="UTF-8" standalone="no"?>
<!DOCTYPE svg PUBLIC "-//W3C//DTD SVG 1.1//EN"
 "http://www.w3.org/Graphics/SVG/1.1/DTD/svg11.dtd">
<!-- Generated by graphviz version 13.1.1 (20250719.2154)
 -->
<!-- Title: python_deps Pages: 1 -->
<svg width="1009pt" height="1360pt"
 viewBox="0.00 0.00 1009.00 1360.00" xmlns="http://www.w3.org/2000/svg" xmlns:xlink="http://www.w3.org/1999/xlink">
<g id="graph0" class="graph" transform="scale(1 1) rotate(0) translate(4 1355.92)">
<title>python_deps</title>
<polygon fill="white" stroke="none" points="-4,4 -4,-1355.92 1004.5,-1355.92 1004.5,4 -4,4"/>
<!-- configs.auth_config -->
<g id="node1" class="node">
<title>configs.auth_config</title>
<polygon fill="none" stroke="black" points="122.88,-599 25.12,-599 25.12,-563 122.88,-563 122.88,-599"/>
<text xml:space="preserve" text-anchor="middle" x="74" y="-577.12" font-family="Times,serif" font-size="10.00">configs.auth_config</text>
</g>
<!-- configs.config -->
<g id="node2" class="node">
<title>configs.config</title>
<polygon fill="none" stroke="black" points="1000.5,-750 926,-750 926,-714 1000.5,-714 1000.5,-750"/>
<text xml:space="preserve" text-anchor="middle" x="963.25" y="-728.12" font-family="Times,serif" font-size="10.00">configs.config</text>
</g>
<!-- configs.log_config -->
<g id="node3" class="node">
<title>configs.log_config</title>
<polygon fill="none" stroke="black" points="697,-320 603.75,-320 603.75,-284 697,-284 697,-320"/>
<text xml:space="preserve" text-anchor="middle" x="650.38" y="-298.12" font-family="Times,serif" font-size="10.00">configs.log_config</text>
</g>
<!-- configs.redis_config -->
<g id="node4" class="node">
<title>configs.redis_config</title>
<polygon fill="none" stroke="black" points="876.88,-1103 777.62,-1103 777.62,-1067 876.88,-1067 876.88,-1103"/>
<text xml:space="preserve" text-anchor="middle" x="827.25" y="-1081.12" font-family="Times,serif" font-size="10.00">configs.redis_config</text>
</g>
<!-- configs.server_config -->
<g id="node5" class="node">
<title>configs.server_config</title>
<polygon fill="none" stroke="black" points="504.38,-366 400.62,-366 400.62,-330 504.38,-330 504.38,-366"/>
<text xml:space="preserve" text-anchor="middle" x="452.5" y="-344.12" font-family="Times,serif" font-size="10.00">configs.server_config</text>
</g>
<!-- configs.vm_profiles -->
<g id="node6" class="node">
<title>configs.vm_profiles</title>
<polygon fill="none" stroke="black" points="875.75,-412 778.75,-412 778.75,-376 875.75,-376 875.75,-412"/>
<text xml:space="preserve" text-anchor="middle" x="827.25" y="-390.12" font-family="Times,serif" font-size="10.00">configs.vm_profiles</text>
</g>
<!-- main -->
<g id="node7" class="node">
<title>main</title>
<polygon fill="none" stroke="black" points="101,-653 47,-653 47,-617 101,-617 101,-653"/>
<text xml:space="preserve" text-anchor="middle" x="74" y="-631.12" font-family="Times,serif" font-size="10.00">main</text>
</g>
<!-- main&#45;&gt;configs.log_config -->
<g id="edge1" class="edge">
<title>main&#45;&gt;configs.log_config</title>
<path fill="none" stroke="black" d="M101.23,-632.09C117.22,-628.88 136.69,-622.14 148,-608 223.86,-513.09 102.33,-426.96 184,-337 287.17,-223.35 492.5,-258.74 592.29,-284.82"/>
<polygon fill="black" stroke="black" points="591.32,-288.19 601.88,-287.4 593.13,-281.43 591.32,-288.19"/>
</g>
<!-- methods.database.database -->
<g id="node10" class="node">
<title>methods.database.database</title>
<polygon fill="none" stroke="black" points="890,-857 764.5,-857 764.5,-821 890,-821 890,-857"/>
<text xml:space="preserve" text-anchor="middle" x="827.25" y="-835.12" font-family="Times,serif" font-size="10.00">methods.database.database</text>
</g>
<!-- main&#45;&gt;methods.database.database -->
<g id="edge2" class="edge">
<title>main&#45;&gt;methods.database.database</title>
<path fill="none" stroke="black" d="M101.21,-637.58C117.41,-640.65 137.12,-647.36 148,-662 225.04,-765.64 102.12,-1142.14 184,-1242 339.17,-1431.25 583.5,-1357.15 728.5,-1160 737.45,-1147.84 796.03,-944.78 817.97,-868.05"/>
<polygon fill="black" stroke="black" points="821.25,-869.31 820.63,-858.73 814.52,-867.38 821.25,-869.31"/>
</g>
<!-- methods.manager.SessionManager -->
<g id="node16" class="node">
<title>methods.manager.SessionManager</title>
<polygon fill="none" stroke="black" points="728.5,-1103 572.25,-1103 572.25,-1067 728.5,-1067 728.5,-1103"/>
<text xml:space="preserve" text-anchor="middle" x="650.38" y="-1081.12" font-family="Times,serif" font-size="10.00">methods.manager.SessionManager</text>
</g>
<!-- main&#45;&gt;methods.manager.SessionManager -->
<g id="edge3" class="edge">
<title>main&#45;&gt;methods.manager.SessionManager</title>
<path fill="none" stroke="black" d="M101.47,-637.73C117.55,-640.87 137.04,-647.59 148,-662 205.53,-737.61 122.95,-1015.21 184,-1088 285.58,-1209.1 381.84,-1170.79 536.25,-1137 561.54,-1131.47 587.93,-1119.73 608.85,-1108.8"/>
<polygon fill="black" stroke="black" points="610.47,-1111.91 617.62,-1104.09 607.15,-1105.74 610.47,-1111.91"/>
</g>
<!-- observability.db_metrics -->
<g id="node19" class="node">
<title>observability.db_metrics</title>
<polygon fill="none" stroke="black" points="316.62,-198 200.12,-198 200.12,-162 316.62,-162 316.62,-198"/>
<text xml:space="preserve" text-anchor="middle" x="258.38" y="-176.12" font-family="Times,serif" font-size="10.00">observability.db_metrics</text>
</g>
<!-- main&#45;&gt;observability.db_metrics -->
<g id="edge4" class="edge">
<title>main&#45;&gt;observability.db_metrics</title>
<path fill="none" stroke="black" d="M101.43,-632.24C117.51,-629.1 136.99,-622.38 148,-608 201.73,-537.85 132.29,-283.65 184,-212 186.11,-209.07 188.56,-206.4 191.24,-203.98"/>
<polygon fill="black" stroke="black" points="192.85,-207.15 198.7,-198.33 188.62,-201.57 192.85,-207.15"/>
</g>
<!-- observability.grafana_proxy -->
<g id="node20" class="node">
<title>observability.grafana_proxy</title>
<polygon fill="none" stroke="black" points="323.75,-144 193,-144 193,-108 323.75,-108 323.75,-144"/>
<text xml:space="preserve" text-anchor="middle" x="258.38" y="-122.12" font-family="Times,serif" font-size="10.00">observability.grafana_proxy</text>
</g>
<!-- main&#45;&gt;observability.grafana_proxy -->
<g id="edge5" class="edge">
<title>main&#45;&gt;observability.grafana_proxy</title>
<path fill="none" stroke="black" d="M101.49,-632.29C117.59,-629.16 137.07,-622.44 148,-608 209.2,-527.12 122.73,-233.83 184,-153 184.15,-152.8 184.31,-152.6 184.47,-152.4"/>
<polygon fill="black" stroke="black" points="186.83,-154.98 191.46,-145.45 181.9,-150.01 186.83,-154.98"/>
</g>
<!-- observability.metrics -->
<g id="node22" class="node">
<title>observability.metrics</title>
<polygon fill="none" stroke="black" points="502.88,-1000 402.12,-1000 402.12,-964 502.88,-964 502.88,-1000"/>
<text xml:space="preserve" text-anchor="middle" x="452.5" y="-978.12" font-family="Times,serif" font-size="10.00">observability.metrics</text>
</g>
<!-- main&#45;&gt;observability.metrics -->
<g id="edge6" class="edge">
<title>main&#45;&gt;observability.metrics</title>
<path fill="none" stroke="black" d="M101.45,-638.1C117.32,-641.38 136.57,-648.13 148,-662 211.27,-738.81 120.74,-806.18 184,-883 235.05,-944.99 328.75,-968.17 390.59,-976.83"/>
<polygon fill="black" stroke="black" points="389.88,-980.27 400.25,-978.09 390.79,-973.33 389.88,-980.27"/>
</g>
<!-- observability.utils_observability -->
<g id="node24" class="node">
<title>observability.utils_observability</title>
<polygon fill="none" stroke="black" points="332.75,-90 184,-90 184,-54 332.75,-54 332.75,-90"/>
<text xml:space="preserve" text-anchor="middle" x="258.38" y="-68.12" font-family="Times,serif" font-size="10.00">observability.utils_observability</text>
</g>
<!-- main&#45;&gt;observability.utils_observability -->
<g id="edge7" class="edge">
<title>main&#45;&gt;observability.utils_observability</title>
<path fill="none" stroke="black" d="M101.17,-632.39C117.35,-629.3 137.05,-622.59 148,-608 216.04,-517.29 115.88,-189.65 184,-99 184.15,-98.8 184.31,-98.59 184.46,-98.39"/>
<polygon fill="black" stroke="black" points="186.83,-100.98 191.44,-91.43 181.89,-96.02 186.83,-100.98"/>
</g>
<!-- routers.auth -->
<g id="node25" class="node">
<title>routers.auth</title>
<polygon fill="none" stroke="black" points="290.38,-729 226.38,-729 226.38,-693 290.38,-693 290.38,-729"/>
<text xml:space="preserve" text-anchor="middle" x="258.38" y="-707.12" font-family="Times,serif" font-size="10.00">routers.auth</text>
</g>
<!-- main&#45;&gt;routers.auth -->
<g id="edge8" class="edge">
<title>main&#45;&gt;routers.auth</title>
<path fill="none" stroke="black" d="M101.18,-644.2C115.16,-649.24 132.61,-655.72 148,-662 170.53,-671.2 195.31,-682.23 215.58,-691.48"/>
<polygon fill="black" stroke="black" points="214.1,-694.66 224.65,-695.65 217.02,-688.3 214.1,-694.66"/>
</g>
<!-- routers.pages -->
<g id="node26" class="node">
<title>routers.pages</title>
<polygon fill="none" stroke="black" points="293,-36 223.75,-36 223.75,0 293,0 293,-36"/>
<text xml:space="preserve" text-anchor="middle" x="258.38" y="-14.12" font-family="Times,serif" font-size="10.00">routers.pages</text>
</g>
<!-- main&#45;&gt;routers.pages -->
<g id="edge9" class="edge">
<title>main&#45;&gt;routers.pages</title>
<path fill="none" stroke="black" d="M101.21,-632.41C117.4,-629.34 137.1,-622.63 148,-608 222.89,-507.46 109.03,-145.48 184,-45 191,-35.62 201.61,-29.49 212.61,-25.49"/>
<polygon fill="black" stroke="black" points="213.61,-28.85 222.16,-22.6 211.58,-22.15 213.61,-28.85"/>
</g>
<!-- routers.post -->
<g id="node27" class="node">
<title>routers.post</title>
<polygon fill="none" stroke="black" points="290,-1079 226.75,-1079 226.75,-1043 290,-1043 290,-1079"/>
<text xml:space="preserve" text-anchor="middle" x="258.38" y="-1057.12" font-family="Times,serif" font-size="10.00">routers.post</text>
</g>
<!-- main&#45;&gt;routers.post -->
<g id="edge10" class="edge">
<title>main&#45;&gt;routers.post</title>
<path fill="none" stroke="black" d="M101.28,-637.88C117.29,-641.07 136.77,-647.8 148,-662 229.66,-765.25 136.9,-833.07 184,-956 195.18,-985.17 216.18,-1013.95 232.87,-1033.98"/>
<polygon fill="black" stroke="black" points="230.04,-1036.05 239.19,-1041.38 235.36,-1031.51 230.04,-1036.05"/>
</g>
<!-- routers.root -->
<g id="node28" class="node">
<title>routers.root</title>
<polygon fill="none" stroke="black" points="483.75,-1282 421.25,-1282 421.25,-1246 483.75,-1246 483.75,-1282"/>
<text xml:space="preserve" text-anchor="middle" x="452.5" y="-1260.12" font-family="Times,serif" font-size="10.00">routers.root</text>
</g>
<!-- main&#45;&gt;routers.root -->
<g id="edge11" class="edge">
<title>main&#45;&gt;routers.root</title>
<path fill="none" stroke="black" d="M101.19,-637.6C117.37,-640.68 137.08,-647.39 148,-662 218.96,-756.9 108.46,-1102.7 184,-1194 239.23,-1260.75 349.53,-1268.18 409.8,-1266.75"/>
<polygon fill="black" stroke="black" points="409.78,-1270.25 419.65,-1266.41 409.54,-1263.25 409.78,-1270.25"/>
</g>
<!-- routers.sessions -->
<g id="node29" class="node">
<title>routers.sessions</title>
<polygon fill="none" stroke="black" points="297.88,-874 218.88,-874 218.88,-838 297.88,-838 297.88,-874"/>
<text xml:space="preserve" text-anchor="middle" x="258.38" y="-852.12" font-family="Times,serif" font-size="10.00">routers.sessions</text>
</g>
<!-- main&#45;&gt;routers.sessions -->
<g id="edge12" class="edge">
<title>main&#45;&gt;routers.sessions</title>
<path fill="none" stroke="black" d="M101.23,-639.56C116.42,-643.36 135.04,-650.14 148,-662 175.57,-687.24 166.1,-705.19 184,-738 201.28,-769.69 223.43,-804.64 238.85,-828.22"/>
<polygon fill="black" stroke="black" points="235.76,-829.9 244.18,-836.33 241.61,-826.05 235.76,-829.9"/>
</g>
<!-- routers.vm -->
<g id="node30" class="node">
<title>routers.vm</title>
<polygon fill="none" stroke="black" points="287.75,-573 229,-573 229,-537 287.75,-537 287.75,-573"/>
<text xml:space="preserve" text-anchor="middle" x="258.38" y="-551.12" font-family="Times,serif" font-size="10.00">routers.vm</text>
</g>
<!-- main&#45;&gt;routers.vm -->
<g id="edge13" class="edge">
<title>main&#45;&gt;routers.vm</title>
<path fill="none" stroke="black" d="M101.26,-625.98C115.26,-621 132.71,-614.51 148,-608 171.91,-597.81 198.14,-585.16 218.91,-574.77"/>
<polygon fill="black" stroke="black" points="220.23,-578.02 227.59,-570.4 217.08,-571.77 220.23,-578.02"/>
</g>
<!-- utils -->
<g id="node31" class="node">
<title>utils</title>
<polygon fill="none" stroke="black" points="677.38,-477 623.38,-477 623.38,-441 677.38,-441 677.38,-477"/>
<text xml:space="preserve" text-anchor="middle" x="650.38" y="-455.12" font-family="Times,serif" font-size="10.00">utils</text>
</g>
<!-- main&#45;&gt;utils -->
<g id="edge14" class="edge">
<title>main&#45;&gt;utils</title>
<path fill="none" stroke="black" d="M101.31,-630.53C116.54,-626.76 135.16,-619.99 148,-608 176.5,-581.39 162.77,-560.7 184,-528 251.14,-424.57 256.21,-371.4 368.75,-321 436.69,-290.57 468.96,-289.15 536.25,-321 584,-343.6 618.34,-397.33 635.94,-430.69"/>
<polygon fill="black" stroke="black" points="632.71,-432.07 640.37,-439.39 638.95,-428.89 632.71,-432.07"/>
</g>
<!-- methods.auth.auth -->
<g id="node8" class="node">
<title>methods.auth.auth</title>
<polygon fill="none" stroke="black" points="498,-832 407,-832 407,-796 498,-796 498,-832"/>
<text xml:space="preserve" text-anchor="middle" x="452.5" y="-810.12" font-family="Times,serif" font-size="10.00">methods.auth.auth</text>
</g>
<!-- methods.auth.auth&#45;&gt;configs.config -->
<g id="edge15" class="edge">
<title>methods.auth.auth&#45;&gt;configs.config</title>
<path fill="none" stroke="black" d="M498.2,-806.79C593.5,-791.44 815.93,-755.58 914.16,-739.75"/>
<polygon fill="black" stroke="black" points="914.7,-743.21 924.01,-738.16 913.58,-736.3 914.7,-743.21"/>
</g>
<!-- methods.auth.auth&#45;&gt;configs.log_config -->
<g id="edge16" class="edge">
<title>methods.auth.auth&#45;&gt;configs.log_config</title>
<path fill="none" stroke="black" d="M459.76,-795.52C473.9,-753.61 509.19,-648.07 536.25,-559 553.31,-502.87 549.09,-485.9 572.25,-432 588.26,-394.75 613.03,-355.11 630.16,-329.54"/>
<polygon fill="black" stroke="black" points="632.97,-331.63 635.69,-321.39 627.18,-327.7 632.97,-331.63"/>
</g>
<!-- methods.auth.auth&#45;&gt;methods.database.database -->
<g id="edge17" class="edge">
<title>methods.auth.auth&#45;&gt;methods.database.database</title>
<path fill="none" stroke="black" d="M498.46,-817.02C561.54,-821.25 677.06,-828.99 752.74,-834.07"/>
<polygon fill="black" stroke="black" points="752.35,-837.55 762.56,-834.73 752.81,-830.57 752.35,-837.55"/>
</g>
<!-- methods.database.models -->
<g id="node12" class="node">
<title>methods.database.models</title>
<polygon fill="none" stroke="black" points="710.12,-878 590.62,-878 590.62,-842 710.12,-842 710.12,-878"/>
<text xml:space="preserve" text-anchor="middle" x="650.38" y="-856.12" font-family="Times,serif" font-size="10.00">methods.database.models</text>
</g>
<!-- methods.auth.auth&#45;&gt;methods.database.models -->
<g id="edge18" class="edge">
<title>methods.auth.auth&#45;&gt;methods.database.models</title>
<path fill="none" stroke="black" d="M498.44,-824.55C522.36,-830.17 552.32,-837.21 579.23,-843.53"/>
<polygon fill="black" stroke="black" points="578.15,-846.87 588.69,-845.75 579.75,-840.05 578.15,-846.87"/>
</g>
<!-- methods.auth.email_verification -->
<g id="node9" class="node">
<title>methods.auth.email_verification</title>
<polygon fill="none" stroke="black" points="148,-707 0,-707 0,-671 148,-671 148,-707"/>
<text xml:space="preserve" text-anchor="middle" x="74" y="-685.12" font-family="Times,serif" font-size="10.00">methods.auth.email_verification</text>
</g>
<!-- methods.database.database&#45;&gt;configs.config -->
<g id="edge19" class="edge">
<title>methods.database.database&#45;&gt;configs.config</title>
<path fill="none" stroke="black" d="M851.29,-820.61C873.18,-803.12 906.29,-776.68 930.65,-757.23"/>
<polygon fill="black" stroke="black" points="932.7,-760.07 938.33,-751.1 928.33,-754.6 932.7,-760.07"/>
</g>
<!-- methods.database.init_db -->
<g id="node11" class="node">
<title>methods.database.init_db</title>
<polygon fill="none" stroke="black" points="134.12,-761 13.88,-761 13.88,-725 134.12,-725 134.12,-761"/>
<text xml:space="preserve" text-anchor="middle" x="74" y="-739.12" font-family="Times,serif" font-size="10.00">methods.database.init_db</text>
</g>
<!-- methods.database.models&#45;&gt;methods.database.database -->
<g id="edge20" class="edge">
<title>methods.database.models&#45;&gt;methods.database.database</title>
<path fill="none" stroke="black" d="M710.58,-852.89C724.18,-851.26 738.81,-849.5 752.93,-847.8"/>
<polygon fill="black" stroke="black" points="753.1,-851.31 762.62,-846.64 752.27,-844.36 753.1,-851.31"/>
</g>
<!-- methods.manager -->
<g id="node13" class="node">
<title>methods.manager</title>
<polygon fill="none" stroke="black" points="496.12,-458 408.88,-458 408.88,-422 496.12,-422 496.12,-458"/>
<text xml:space="preserve" text-anchor="middle" x="452.5" y="-436.12" font-family="Times,serif" font-size="10.00">methods.manager</text>
</g>
<!-- methods.manager.OverlayManager -->
<g id="node14" class="node">
<title>methods.manager.OverlayManager</title>
<polygon fill="none" stroke="black" points="531.75,-198 373.25,-198 373.25,-162 531.75,-162 531.75,-198"/>
<text xml:space="preserve" text-anchor="middle" x="452.5" y="-176.12" font-family="Times,serif" font-size="10.00">methods.manager.OverlayManager</text>
</g>
<!-- methods.manager.OverlayManager&#45;&gt;configs.config -->
<g id="edge21" class="edge">
<title>methods.manager.OverlayManager&#45;&gt;configs.config</title>
<path fill="none" stroke="black" d="M532.18,-172.84C589.29,-170.89 667,-175.15 728.5,-204 820.83,-247.3 842.18,-276.93 890,-367 950.19,-480.36 960.47,-637.63 962.06,-702.36"/>
<polygon fill="black" stroke="black" points="958.55,-702.24 962.24,-712.17 965.55,-702.11 958.55,-702.24"/>
</g>
<!-- methods.manager.OverlayManager&#45;&gt;configs.log_config -->
<g id="edge22" class="edge">
<title>methods.manager.OverlayManager&#45;&gt;configs.log_config</title>
<path fill="none" stroke="black" d="M511.3,-198.41C520,-202.28 528.61,-206.8 536.25,-212 555.76,-225.26 554.28,-235.72 572.25,-251 583.35,-260.44 596.27,-269.59 608.32,-277.48"/>
<polygon fill="black" stroke="black" points="606.17,-280.26 616.48,-282.7 609.94,-274.36 606.17,-280.26"/>
</g>
<!-- methods.manager.OverlayManager&#45;&gt;configs.vm_profiles -->
<g id="edge23" class="edge">
<title>methods.manager.OverlayManager&#45;&gt;configs.vm_profiles</title>
<path fill="none" stroke="black" d="M531.98,-195C590.07,-208.85 669.1,-233.67 728.5,-275 763.33,-299.24 792.55,-339.16 809.72,-366.01"/>
<polygon fill="black" stroke="black" points="806.64,-367.68 814.9,-374.31 812.58,-363.98 806.64,-367.68"/>
</g>
<!-- methods.manager.ProcessManager -->
<g id="node15" class="node">
<title>methods.manager.ProcessManager</title>
<polygon fill="none" stroke="black" points="728.12,-550 572.62,-550 572.62,-514 728.12,-514 728.12,-550"/>
<text xml:space="preserve" text-anchor="middle" x="650.38" y="-528.12" font-family="Times,serif" font-size="10.00">methods.manager.ProcessManager</text>
</g>
<!-- methods.manager.SessionManager&#45;&gt;configs.redis_config -->
<g id="edge24" class="edge">
<title>methods.manager.SessionManager&#45;&gt;configs.redis_config</title>
<path fill="none" stroke="black" d="M728.84,-1085C741.3,-1085 754.04,-1085 766.02,-1085"/>
<polygon fill="black" stroke="black" points="765.72,-1088.5 775.72,-1085 765.72,-1081.5 765.72,-1088.5"/>
</g>
<!-- methods.manager.WebsockifyService -->
<g id="node17" class="node">
<title>methods.manager.WebsockifyService</title>
<polygon fill="none" stroke="black" points="536.25,-550 368.75,-550 368.75,-514 536.25,-514 536.25,-550"/>
<text xml:space="preserve" text-anchor="middle" x="452.5" y="-528.12" font-family="Times,serif" font-size="10.00">methods.manager.WebsockifyService</text>
</g>
<!-- methods.manager.WebsockifyService&#45;&gt;methods.manager.ProcessManager -->
<g id="edge25" class="edge">
<title>methods.manager.WebsockifyService&#45;&gt;methods.manager.ProcessManager</title>
<path fill="none" stroke="black" d="M536.57,-532C544.65,-532 552.87,-532 560.99,-532"/>
<polygon fill="black" stroke="black" points="560.89,-535.5 570.89,-532 560.89,-528.5 560.89,-535.5"/>
</g>
<!-- methods.manager.WebsockifyService&#45;&gt;methods.manager.SessionManager -->
<g id="edge26" class="edge">
<title>methods.manager.WebsockifyService&#45;&gt;methods.manager.SessionManager</title>
<path fill="none" stroke="black" d="M459.25,-550.21C475.9,-602.74 525.93,-758.97 572.25,-887 594.18,-947.62 622.11,-1017.74 637.63,-1056.15"/>
<polygon fill="black" stroke="black" points="634.28,-1057.19 641.27,-1065.15 640.76,-1054.57 634.28,-1057.19"/>
</g>
<!-- methods.manager.WebsockifyService&#45;&gt;utils -->
<g id="edge27" class="edge">
<title>methods.manager.WebsockifyService&#45;&gt;utils</title>
<path fill="none" stroke="black" d="M502.93,-513.58C536.94,-500.9 581.4,-484.33 612.37,-472.79"/>
<polygon fill="black" stroke="black" points="613.56,-476.08 621.71,-469.31 611.12,-469.52 613.56,-476.08"/>
</g>
<!-- observability -->
<g id="node18" class="node">
<title>observability</title>
<polygon fill="none" stroke="black" points="109,-815 39,-815 39,-779 109,-779 109,-815"/>
<text xml:space="preserve" text-anchor="middle" x="74" y="-793.12" font-family="Times,serif" font-size="10.00">observability</text>
</g>
<!-- observability.http_metrics -->
<g id="node21" class="node">
<title>observability.http_metrics</title>
<polygon fill="none" stroke="black" points="135.25,-869 12.75,-869 12.75,-833 135.25,-833 135.25,-869"/>
<text xml:space="preserve" text-anchor="middle" x="74" y="-847.12" font-family="Times,serif" font-size="10.00">observability.http_metrics</text>
</g>
<!-- observability.metrics&#45;&gt;methods.database.database -->
<g id="edge28" class="edge">
<title>observability.metrics&#45;&gt;methods.database.database</title>
<path fill="none" stroke="black" d="M503.37,-966.82C559,-949.42 651.33,-919.13 728.5,-887 746.13,-879.66 765.07,-870.63 781.54,-862.4"/>
<polygon fill="black" stroke="black" points="782.75,-865.71 790.09,-858.08 779.59,-859.47 782.75,-865.71"/>
</g>
<!-- observability.metrics&#45;&gt;methods.database.models -->
<g id="edge29" class="edge">
<title>observability.metrics&#45;&gt;methods.database.models</title>
<path fill="none" stroke="black" d="M503.2,-965.59C514.37,-961.14 525.96,-955.9 536.25,-950 567.83,-931.9 599.93,-905.42 621.83,-885.87"/>
<polygon fill="black" stroke="black" points="624.09,-888.55 629.15,-879.24 619.39,-883.36 624.09,-888.55"/>
</g>
<!-- observability.metrics&#45;&gt;methods.manager.SessionManager -->
<g id="edge30" class="edge">
<title>observability.metrics&#45;&gt;methods.manager.SessionManager</title>
<path fill="none" stroke="black" d="M503.18,-999.43C514.24,-1003.8 525.79,-1008.75 536.25,-1014 563.21,-1027.52 591.98,-1045.63 613.76,-1060.18"/>
<polygon fill="black" stroke="black" points="611.74,-1063.04 621.99,-1065.73 615.66,-1057.24 611.74,-1063.04"/>
</g>
<!-- observability.ops_metrics -->
<g id="node23" class="node">
<title>observability.ops_metrics</title>
<polygon fill="none" stroke="black" points="134.12,-923 13.88,-923 13.88,-887 134.12,-887 134.12,-923"/>
<text xml:space="preserve" text-anchor="middle" x="74" y="-901.12" font-family="Times,serif" font-size="10.00">observability.ops_metrics</text>
</g>
<!-- routers.auth&#45;&gt;configs.config -->
<g id="edge31" class="edge">
<title>routers.auth&#45;&gt;configs.config</title>
<path fill="none" stroke="black" d="M290.48,-711.93C401.64,-715.25 779.68,-726.55 914.23,-730.57"/>
<polygon fill="black" stroke="black" points="914.12,-734.06 924.22,-730.86 914.32,-727.07 914.12,-734.06"/>
</g>
<!-- routers.auth&#45;&gt;configs.log_config -->
<g id="edge32" class="edge">
<title>routers.auth&#45;&gt;configs.log_config</title>
<path fill="none" stroke="black" d="M270.29,-692.88C285.05,-668.15 311.92,-622.28 332.75,-582 350.1,-548.44 339.33,-528.7 368.75,-505 428.19,-457.1 473.09,-509.88 536.25,-467 562.54,-449.15 609.05,-372.51 633.44,-330.25"/>
<polygon fill="black" stroke="black" points="636.45,-332.03 638.38,-321.62 630.37,-328.55 636.45,-332.03"/>
</g>
<!-- routers.auth&#45;&gt;methods.auth.auth -->
<g id="edge33" class="edge">
<title>routers.auth&#45;&gt;methods.auth.auth</title>
<path fill="none" stroke="black" d="M284.55,-729.49C306.16,-744.83 338.51,-766.55 368.75,-782 377.33,-786.38 386.65,-790.53 395.85,-794.3"/>
<polygon fill="black" stroke="black" points="394.53,-797.55 405.12,-797.99 397.12,-791.04 394.53,-797.55"/>
</g>
<!-- routers.auth&#45;&gt;methods.database.database -->
<g id="edge34" class="edge">
<title>routers.auth&#45;&gt;methods.database.database</title>
<path fill="none" stroke="black" d="M290.66,-718.06C378.3,-737.85 627.99,-794.23 753.03,-822.47"/>
<polygon fill="black" stroke="black" points="752,-825.82 762.53,-824.61 753.54,-818.99 752,-825.82"/>
</g>
<!-- routers.auth&#45;&gt;methods.database.models -->
<g id="edge35" class="edge">
<title>routers.auth&#45;&gt;methods.database.models</title>
<path fill="none" stroke="black" d="M268.46,-729.28C284.26,-758.8 319.83,-816.18 368.75,-841 434.31,-874.26 519.81,-874.97 579.13,-869.91"/>
<polygon fill="black" stroke="black" points="579.12,-873.43 588.75,-869.01 578.47,-866.46 579.12,-873.43"/>
</g>
<!-- routers.auth&#45;&gt;methods.manager.SessionManager -->
<g id="edge36" class="edge">
<title>routers.auth&#45;&gt;methods.manager.SessionManager</title>
<path fill="none" stroke="black" d="M274.04,-729.41C290.96,-751.66 318.32,-790.87 332.75,-829 366.74,-918.79 300.34,-974.64 368.75,-1042 382.45,-1055.49 483.75,-1068.52 560.75,-1076.63"/>
<polygon fill="black" stroke="black" points="560.1,-1080.08 570.41,-1077.63 560.83,-1073.12 560.1,-1080.08"/>
</g>
<!-- routers.auth&#45;&gt;utils -->
<g id="edge37" class="edge">
<title>routers.auth&#45;&gt;utils</title>
<path fill="none" stroke="black" d="M290.65,-699.61C345.36,-678.53 459.89,-629.07 536.25,-559 557.5,-539.5 551.35,-524.88 572.25,-505 584.13,-493.7 599.27,-483.92 612.99,-476.32"/>
<polygon fill="black" stroke="black" points="614.59,-479.43 621.78,-471.65 611.31,-473.25 614.59,-479.43"/>
</g>
<!-- routers.post&#45;&gt;configs.config -->
<g id="edge38" class="edge">
<title>routers.post&#45;&gt;configs.config</title>
<path fill="none" stroke="black" d="M261.59,-1079.32C268.2,-1124.8 292.31,-1242.71 368.75,-1291 431.69,-1330.76 463.84,-1308.28 536.25,-1291 707.64,-1250.11 784.05,-1252.79 890,-1112 931.96,-1056.24 953.41,-840.56 960,-761.38"/>
<polygon fill="black" stroke="black" points="963.45,-762.06 960.77,-751.81 956.47,-761.49 963.45,-762.06"/>
</g>
<!-- routers.post&#45;&gt;methods.auth.auth -->
<g id="edge39" class="edge">
<title>routers.post&#45;&gt;methods.auth.auth</title>
<path fill="none" stroke="black" d="M273.5,-1042.84C306.88,-999.93 390.78,-892.07 430.29,-841.27"/>
<polygon fill="black" stroke="black" points="433.05,-843.43 436.42,-833.38 427.52,-839.13 433.05,-843.43"/>
</g>
<!-- routers.post&#45;&gt;methods.database.database -->
<g id="edge40" class="edge">
<title>routers.post&#45;&gt;methods.database.database</title>
<path fill="none" stroke="black" d="M277.95,-1079.34C298.28,-1098 332.78,-1125.73 368.75,-1137 521.69,-1184.92 603.69,-1212.55 728.5,-1112 767.62,-1080.48 805.15,-932.18 819.8,-868.35"/>
<polygon fill="black" stroke="black" points="823.14,-869.46 821.93,-858.93 816.31,-867.91 823.14,-869.46"/>
</g>
<!-- routers.post&#45;&gt;methods.database.models -->
<g id="edge41" class="edge">
<title>routers.post&#45;&gt;methods.database.models</title>
<path fill="none" stroke="black" d="M273.81,-1042.8C293.17,-1019.5 329.64,-979.24 368.75,-955 404.46,-932.86 508.87,-900.29 579.76,-879.62"/>
<polygon fill="black" stroke="black" points="580.32,-883.1 588.94,-876.96 578.36,-876.38 580.32,-883.1"/>
</g>
<!-- routers.post&#45;&gt;methods.manager.SessionManager -->
<g id="edge42" class="edge">
<title>routers.post&#45;&gt;methods.manager.SessionManager</title>
<path fill="none" stroke="black" d="M285.78,-1079.41C307.08,-1093.07 338.39,-1110.56 368.75,-1118 441.06,-1135.71 462.55,-1128.53 536.25,-1118 552.87,-1115.63 570.46,-1111.38 586.69,-1106.71"/>
<polygon fill="black" stroke="black" points="587.65,-1110.08 596.23,-1103.86 585.64,-1103.37 587.65,-1110.08"/>
</g>
<!-- routers.root&#45;&gt;methods.manager.SessionManager -->
<g id="edge43" class="edge">
<title>routers.root&#45;&gt;methods.manager.SessionManager</title>
<path fill="none" stroke="black" d="M475.96,-1245.67C492.8,-1231.76 516.28,-1212.03 536.25,-1194 566.76,-1166.45 600.57,-1133.55 623.2,-1111.15"/>
<polygon fill="black" stroke="black" points="625.59,-1113.71 630.23,-1104.18 620.66,-1108.74 625.59,-1113.71"/>
</g>
<!-- routers.sessions&#45;&gt;methods.auth.auth -->
<g id="edge44" class="edge">
<title>routers.sessions&#45;&gt;methods.auth.auth</title>
<path fill="none" stroke="black" d="M298.25,-847.5C326.18,-841.4 364.25,-833.07 395.46,-826.25"/>
<polygon fill="black" stroke="black" points="396.11,-829.69 405.14,-824.14 394.62,-822.85 396.11,-829.69"/>
</g>
<!-- routers.sessions&#45;&gt;methods.database.models -->
<g id="edge45" class="edge">
<title>routers.sessions&#45;&gt;methods.database.models</title>
<path fill="none" stroke="black" d="M298.16,-863.97C318.99,-867.84 345.16,-872.07 368.75,-874 442.95,-880.06 461.95,-878.58 536.25,-874 550.12,-873.14 564.9,-871.71 579.03,-870.07"/>
<polygon fill="black" stroke="black" points="579.19,-873.57 588.7,-868.9 578.35,-866.62 579.19,-873.57"/>
</g>
<!-- routers.sessions&#45;&gt;methods.manager.SessionManager -->
<g id="edge46" class="edge">
<title>routers.sessions&#45;&gt;methods.manager.SessionManager</title>
<path fill="none" stroke="black" d="M265.59,-874.48C282.54,-923.69 330.88,-1055.88 368.75,-1080 426.37,-1116.71 505.06,-1114.7 564.45,-1105.38"/>
<polygon fill="black" stroke="black" points="564.9,-1108.86 574.19,-1103.75 563.75,-1101.95 564.9,-1108.86"/>
</g>
<!-- routers.vm&#45;&gt;configs.config -->
<g id="edge47" class="edge">
<title>routers.vm&#45;&gt;configs.config</title>
<path fill="none" stroke="black" d="M287.92,-558.46C338.42,-564.87 446.61,-579.87 536.25,-601 676.15,-633.98 837.33,-688.07 915.24,-715.27"/>
<polygon fill="black" stroke="black" points="913.64,-718.42 924.24,-718.43 915.96,-711.82 913.64,-718.42"/>
</g>
<!-- routers.vm&#45;&gt;configs.log_config -->
<g id="edge48" class="edge">
<title>routers.vm&#45;&gt;configs.log_config</title>
<path fill="none" stroke="black" d="M261.69,-536.69C268.51,-491.17 293.09,-372.82 368.75,-321 434.7,-275.83 531.05,-280.66 591.96,-290.01"/>
<polygon fill="black" stroke="black" points="591.35,-293.46 601.78,-291.62 592.48,-286.55 591.35,-293.46"/>
</g>
<!-- routers.vm&#45;&gt;configs.server_config -->
<g id="edge49" class="edge">
<title>routers.vm&#45;&gt;configs.server_config</title>
<path fill="none" stroke="black" d="M266.19,-536.7C280.17,-501.54 315.31,-424.16 368.75,-380 375.12,-374.74 382.45,-370.28 390.06,-366.51"/>
<polygon fill="black" stroke="black" points="391.48,-369.71 399.17,-362.42 388.61,-363.33 391.48,-369.71"/>
</g>
<!-- routers.vm&#45;&gt;configs.vm_profiles -->
<g id="edge50" class="edge">
<title>routers.vm&#45;&gt;configs.vm_profiles</title>
<path fill="none" stroke="black" d="M267.08,-536.72C281.62,-504.9 316.39,-440.13 368.75,-413 436.43,-377.94 659.42,-384.74 767.07,-390.37"/>
<polygon fill="black" stroke="black" points="766.68,-393.85 776.86,-390.89 767.06,-386.86 766.68,-393.85"/>
</g>
<!-- routers.vm&#45;&gt;methods.auth.auth -->
<g id="edge51" class="edge">
<title>routers.vm&#45;&gt;methods.auth.auth</title>
<path fill="none" stroke="black" d="M271.06,-573.29C286.45,-597.84 313.77,-643.1 332.75,-684 352.29,-726.09 336.22,-748.91 368.75,-782 376.36,-789.74 386.06,-795.65 396.12,-800.14"/>
<polygon fill="black" stroke="black" points="394.66,-803.33 405.25,-803.77 397.25,-796.83 394.66,-803.33"/>
</g>
<!-- routers.vm&#45;&gt;methods.database.database -->
<g id="edge52" class="edge">
<title>routers.vm&#45;&gt;methods.database.database</title>
<path fill="none" stroke="black" d="M288.19,-567.49C362.41,-599.93 565.75,-690.52 728.5,-779 748.72,-789.99 770.61,-803.29 788.54,-814.57"/>
<polygon fill="black" stroke="black" points="786.46,-817.4 796.78,-819.8 790.21,-811.49 786.46,-817.4"/>
</g>
<!-- routers.vm&#45;&gt;methods.database.models -->
<g id="edge53" class="edge">
<title>routers.vm&#45;&gt;methods.database.models</title>
<path fill="none" stroke="black" d="M282.89,-573.39C349.68,-625.62 540.57,-774.91 617.08,-834.74"/>
<polygon fill="black" stroke="black" points="614.6,-837.25 624.63,-840.65 618.91,-831.73 614.6,-837.25"/>
</g>
<!-- routers.vm&#45;&gt;methods.manager -->
<g id="edge54" class="edge">
<title>routers.vm&#45;&gt;methods.manager</title>
<path fill="none" stroke="black" d="M279.93,-536.58C301.05,-518.36 335.45,-490.59 368.75,-472 377.94,-466.87 388.11,-462.2 398.09,-458.11"/>
<polygon fill="black" stroke="black" points="399.36,-461.38 407.38,-454.46 396.8,-454.86 399.36,-461.38"/>
</g>
<!-- routers.vm&#45;&gt;methods.manager.OverlayManager -->
<g id="edge55" class="edge">
<title>routers.vm&#45;&gt;methods.manager.OverlayManager</title>
<path fill="none" stroke="black" d="M264.99,-536.75C279.01,-492.4 318.11,-376.18 368.75,-288 385.66,-258.56 409.66,-228.13 427.47,-207.11"/>
<polygon fill="black" stroke="black" points="430.08,-209.44 433.94,-199.57 424.77,-204.88 430.08,-209.44"/>
</g>
<!-- routers.vm&#45;&gt;methods.manager.SessionManager -->
<g id="edge56" class="edge">
<title>routers.vm&#45;&gt;methods.manager.SessionManager</title>
<path fill="none" stroke="black" d="M272.88,-573.1C289.99,-597.09 318.91,-641.36 332.75,-684 355.18,-753.12 319.58,-955.5 368.75,-1009 420.1,-1064.86 463.31,-1021.11 536.25,-1042 555.84,-1047.61 576.82,-1055.14 595.32,-1062.33"/>
<polygon fill="black" stroke="black" points="593.91,-1065.53 604.5,-1065.95 596.48,-1059.02 593.91,-1065.53"/>
</g>
<!-- routers.vm&#45;&gt;methods.manager.WebsockifyService -->
<g id="edge57" class="edge">
<title>routers.vm&#45;&gt;methods.manager.WebsockifyService</title>
<path fill="none" stroke="black" d="M288.14,-551.56C306.74,-549.33 332.11,-546.29 357.31,-543.28"/>
<polygon fill="black" stroke="black" points="357.44,-546.79 366.95,-542.12 356.61,-539.83 357.44,-546.79"/>
</g>
<!-- utils&#45;&gt;configs.vm_profiles -->
<g id="edge58" class="edge">
<title>utils&#45;&gt;configs.vm_profiles</title>
<path fill="none" stroke="black" d="M677.56,-449.27C701.34,-440.43 737.26,-427.08 767.85,-415.71"/>
<polygon fill="black" stroke="black" points="768.84,-419.07 776.99,-412.31 766.4,-412.51 768.84,-419.07"/>
</g>
</g>
</svg>
